<?xml version="1.0" standalone="no"?>
<!DOCTYPE svg PUBLIC "-//W3C//DTD SVG 1.1//EN" "http://www.w3.org/Graphics/SVG/1.1/DTD/svg11.dtd" >
<svg xmlns="http://www.w3.org/2000/svg" xmlns:xlink="http://www.w3.org/1999/xlink" version="1.1">
<metadata>
Created by FontForge 20201107 at Wed Apr 11 20:01:58 2018
 By 
Copyright (c) 2018 by Russian Fonts. All rights reserved.
</metadata>
<defs>
<font id="RFDewi-Light" horiz-adv-x="812" >
  <font-face 
    font-family="RF Dewi Light"
    font-weight="300"
    font-stretch="normal"
    units-per-em="1000"
    panose-1="0 0 4 0 0 0 0 0 0 0"
    ascent="800"
    descent="-200"
    x-height="524"
    cap-height="700"
    bbox="-178 -213 1082 929"
    underline-thickness="50"
    underline-position="-200"
    unicode-range="U+0020-277E"
  />
<missing-glyph horiz-adv-x="600" 
 />
    <glyph glyph-name="f_f.liga" unicode="ff" horiz-adv-x="600" 
d="M534 698q-48 0 -64.5 -21t-16.5 -79v-74h121v-48h-121v-476h-62v476h-210v-476h-62v476h-98v48h98v71q0 81 28.5 111t93.5 30q24 0 55 -4v-48q-40 2 -44 2q-41 0 -56 -21t-15 -79v-62h210v83q0 81 30 111t101 30q33 0 64 -4v-48q-42 2 -52 2z" />
    <glyph glyph-name="f_f_i.liga" unicode="ffi" horiz-adv-x="810" 
d="M391 607q0 81 29 111t94 30q34 0 58 -4v-48q-30 2 -45 2q-43 0 -58.5 -21t-15.5 -79v-74h119v-48h-119v-476h-62v476h-210v-476h-62v476h-98v48h98v71q0 81 28.5 111t93.5 30q24 0 55 -4v-48q-40 2 -44 2q-41 0 -56 -21t-15 -79v-62h210v83zM672 719h67v-103h-67v103z
M674 0v524h63v-524h-63z" />
    <glyph glyph-name="f_i.liga" unicode="fi" horiz-adv-x="538" 
d="M119 607q0 81 29 111t94 30q34 0 58 -4v-48q-30 2 -45 2q-43 0 -58.5 -21t-15.5 -79v-74h119v-48h-119v-476h-62v476h-98v48h98v83zM400 719h66v-103h-66v103zM402 0v524h63v-524h-63z" />
    <glyph glyph-name="f_l.liga" unicode="fl" horiz-adv-x="537" 
d="M119 607q0 81 29 111t94 30q34 0 58 -4v-48q-30 2 -45 2q-43 0 -58.5 -21t-15.5 -79v-74h119v-48h-119v-476h-62v476h-98v48h98v83zM401 736h63v-736h-63v736z" />
    <glyph glyph-name=".notdef" horiz-adv-x="600" 
 />
    <glyph glyph-name=".null" horiz-adv-x="0" 
 />
    <glyph glyph-name="nonmarkingreturn" horiz-adv-x="333" 
 />
    <glyph glyph-name="space" unicode=" " horiz-adv-x="242" 
 />
    <glyph glyph-name="exclam" unicode="!" horiz-adv-x="267" 
d="M159 190h-51l-9 510h69zM95 0v96h77v-96h-77z" />
    <glyph glyph-name="quotedbl" unicode="&#x22;" horiz-adv-x="297" 
d="M63 480l-6 220h58l-6 -220h-46zM188 480l-6 220h58l-6 -220h-46z" />
    <glyph glyph-name="numbersign" unicode="#" horiz-adv-x="560" 
d="M539 447h-118l-22 -193h112v-42h-117l-24 -214h-55l24 214h-148l-24 -214h-56l24 214h-115v42h120l21 193h-113v42h118l22 199h56l-22 -199h148l22 199h55l-22 -199h114v-42zM343 254l22 193h-148l-22 -193h148z" />
    <glyph glyph-name="dollar" unicode="$" horiz-adv-x="564" 
d="M521 174q0 -89 -58.5 -136t-162.5 -50v-84h-40v85q-106 6 -163 61t-62 153l59 3q3 -75 45 -118t121 -49v286l-59 20q-142 47 -142 178q0 86 56.5 131t144.5 47v84h40v-85q87 -8 141 -57.5t61 -133.5l-59 -5q-3 60 -41 99t-102 46v-274l70 -23q77 -25 114 -68t37 -110z
M234 397l26 -8v262q-64 -2 -101 -34.5t-37 -90.5q0 -92 112 -129zM300 38q70 3 114 35.5t44 97.5q0 45 -28 76.5t-93 52.5l-37 12v-274z" />
    <glyph glyph-name="percent" unicode="%" horiz-adv-x="751" 
d="M32 541q0 77 41 121t111 44t111 -44t41 -121q0 -78 -41 -122t-111 -44t-111 44t-41 122zM117 0l469 700h47l-468 -700h-48zM80 541q0 -59 27 -92.5t77 -33.5q49 0 76.5 33.5t27.5 92.5t-27.5 92t-76.5 33q-50 0 -77 -33t-27 -92zM415 161q0 76 40.5 120.5t111.5 44.5
t111 -44.5t40 -120.5q0 -77 -40 -122t-111 -45t-111.5 45t-40.5 122zM462 161q0 -59 27.5 -93.5t77.5 -34.5q49 0 76.5 34.5t27.5 93.5q0 58 -27.5 92.5t-76.5 34.5q-50 0 -77.5 -34.5t-27.5 -92.5z" />
    <glyph glyph-name="ampersand" unicode="&#x26;" horiz-adv-x="609" 
d="M600 0h-67l-75 89q-71 -101 -205 -101q-101 0 -154.5 48t-53.5 129q0 35 8.5 61t32.5 51t38 35.5t55 39.5l37 27l-7 10q-54 64 -75 103.5t-21 80.5q0 68 45.5 103.5t114.5 35.5q75 0 118 -41t43 -107q0 -47 -25 -84.5t-81 -78.5l-39 -28l167 -200q25 57 30 139h49
q-10 -107 -45 -179zM254 415l6 -6l38 28q81 60 81 126q0 47 -29.5 75.5t-76.5 28.5q-42 0 -72 -23.5t-30 -72.5q0 -34 19 -68t64 -88zM255 35q114 0 172 92l-180 217l-43 -32q-27 -20 -40.5 -31.5t-29 -29.5t-21.5 -38t-6 -45q0 -58 38.5 -95.5t109.5 -37.5z" />
    <glyph glyph-name="quotesingle" unicode="'" horiz-adv-x="172" 
d="M63 480l-6 220h58l-6 -220h-46z" />
    <glyph glyph-name="parenleft" unicode="(" horiz-adv-x="293" 
d="M281 736q-166 -164 -166 -428t166 -428h-56q-71 65 -121 171.5t-50 256.5t50 256.5t121 171.5h56z" />
    <glyph glyph-name="parenright" unicode=")" horiz-adv-x="293" 
d="M68 736q72 -65 122 -171.5t50 -256.5t-50 -256.5t-122 -171.5h-56q167 165 167 428t-167 428h56z" />
    <glyph glyph-name="asterisk" unicode="*" horiz-adv-x="351" 
d="M201 544l76 -35l53 -30l-21 -37l-53 32l-67 47l8 -82v-62h-43v62l8 82l-67 -47l-53 -32l-21 37l53 30l76 35l-76 34l-53 31l21 37l53 -32l67 -47l-8 81v62h43v-62l-8 -81l67 47l53 32l21 -37l-53 -31z" />
    <glyph glyph-name="plus" unicode="+" horiz-adv-x="492" 
d="M431 357v-45h-163v-158h-44v158h-164v45h164v158h44v-158h163z" />
    <glyph glyph-name="comma" unicode="," horiz-adv-x="206" 
d="M65 -108v204h77v-57l-47 -147h-30z" />
    <glyph glyph-name="hyphen" unicode="-" horiz-adv-x="369" 
d="M60 323h248v-49h-248v49z" />
    <glyph glyph-name="period" unicode="." horiz-adv-x="206" 
d="M65 0v96h77v-96h-77z" />
    <glyph glyph-name="slash" unicode="/" horiz-adv-x="366" 
d="M271 723h58l-250 -777h-59z" />
    <glyph glyph-name="zero" unicode="0" horiz-adv-x="591" 
d="M50 350q0 169 64 265.5t181 96.5t181.5 -96.5t64.5 -265.5t-64.5 -265.5t-181.5 -96.5t-181 96.5t-64 265.5zM114 350q0 -143 47.5 -227t133.5 -84q87 0 134.5 84t47.5 227t-47.5 227t-134.5 84q-86 0 -133.5 -84t-47.5 -227z" />
    <glyph glyph-name="one" unicode="1" horiz-adv-x="351" 
d="M186 700h50v-700h-63v625l-141 -105v65z" />
    <glyph glyph-name="two" unicode="2" horiz-adv-x="504" 
d="M102 51h369v-51h-453v47l236 257q40 44 58 64.5t40.5 52t31 57.5t8.5 55q0 63 -38 95.5t-99 32.5q-70 0 -112.5 -47t-49.5 -143l-60 5q7 118 67 177t155 59q91 0 145.5 -47.5t54.5 -131.5q0 -62 -33.5 -117t-115.5 -143z" />
    <glyph glyph-name="three" unicode="3" horiz-adv-x="526" 
d="M422 369q67 -55 67 -161q0 -102 -64.5 -161t-172.5 -59q-98 0 -160 51.5t-71 152.5l60 5q7 -81 53.5 -119.5t117.5 -38.5q78 0 126 44.5t48 124.5q0 74 -43.5 117.5t-126.5 43.5q-46 0 -99 -10v45l234 245h-340v51h421v-46l-241 -241q125 9 191 -44z" />
    <glyph glyph-name="four" unicode="4" horiz-adv-x="579" 
d="M441 221h105v-51h-105v-170h-63v170h-351v47l312 483h102v-479zM91 221h287v444z" />
    <glyph glyph-name="five" unicode="5" horiz-adv-x="536" 
d="M282 458q97 0 157 -62t60 -170q0 -111 -64.5 -174.5t-169.5 -63.5q-95 0 -159.5 50t-77.5 139l60 5q11 -69 59 -106t118 -37q72 0 121.5 48t49.5 139q0 92 -48.5 137.5t-120.5 45.5q-51 0 -96.5 -22.5t-71.5 -65.5l-55 5l29 374h390v-51h-342l-20 -268q67 77 181 77z" />
    <glyph glyph-name="six" unicode="6" horiz-adv-x="573" 
d="M311 451q97 0 159.5 -62t62.5 -169q0 -108 -63 -170t-171 -62q-249 0 -249 345q0 184 65 281.5t186 97.5q90 0 144.5 -52.5t62.5 -137.5l-61 -5q-5 64 -44 104t-102 40q-109 0 -157 -123q-30 -78 -30 -219q22 63 74.5 97.5t122.5 34.5zM299 39q77 0 124 49.5t47 131.5
t-47 132t-124 50t-124 -50t-47 -132t47 -131.5t124 -49.5z" />
    <glyph glyph-name="seven" unicode="7" horiz-adv-x="511" 
d="M32 700h450v-45q-198 -323 -272 -655h-69q75 327 281 649h-390v51z" />
    <glyph glyph-name="eight" unicode="8" horiz-adv-x="567" 
d="M364 364q77 -17 119.5 -65t42.5 -118q0 -90 -68 -141.5t-175 -51.5t-175 51.5t-68 141.5q0 70 43.5 118t120.5 65q-69 16 -108.5 58.5t-39.5 110.5q0 85 64 132t163 47t163 -47t64 -132q0 -136 -146 -169zM118 525q0 -67 45.5 -102.5t119.5 -35.5t119.5 35.5t45.5 102.5
t-45.5 102t-119.5 35t-119.5 -35t-45.5 -102zM283 38q80 0 130.5 39.5t50.5 110.5t-50.5 110t-130.5 39t-130.5 -39t-50.5 -110t50.5 -110.5t130.5 -39.5z" />
    <glyph glyph-name="nine" unicode="9" horiz-adv-x="573" 
d="M274 712q249 0 249 -345q0 -186 -64 -282.5t-185 -96.5q-92 0 -146.5 52t-61.5 138l60 5q5 -64 44 -104t104 -40q109 0 156 124q29 76 29 223q-22 -62 -75 -96.5t-124 -34.5q-95 0 -157.5 61.5t-62.5 166.5q0 107 63.5 168t170.5 61zM274 304q77 0 124 49.5t47 129.5
t-47.5 129t-123.5 49q-77 0 -124 -49t-47 -129t47 -129.5t124 -49.5z" />
    <glyph glyph-name="colon" unicode=":" horiz-adv-x="206" 
d="M65 416v96h77v-96h-77zM65 0v96h77v-96h-77z" />
    <glyph glyph-name="semicolon" unicode=";" horiz-adv-x="206" 
d="M65 416v96h77v-96h-77zM65 -108v204h77v-57l-47 -147h-30z" />
    <glyph glyph-name="less" unicode="&#x3c;" horiz-adv-x="487" 
d="M405 532v-57l-307 -142l307 -131v-57l-350 154v66z" />
    <glyph glyph-name="equal" unicode="=" horiz-adv-x="496" 
d="M62 433h371v-45h-371v45zM62 268h371v-46h-371v46z" />
    <glyph glyph-name="greater" unicode="&#x3e;" horiz-adv-x="487" 
d="M82 532l350 -167v-66l-350 -154v57l307 131l-307 142v57z" />
    <glyph glyph-name="question" unicode="?" horiz-adv-x="483" 
d="M251 712q88 0 142 -43.5t54 -131.5q0 -60 -27.5 -104.5t-89.5 -94.5q-43 -34 -57.5 -58t-14.5 -70v-18h-63v21q0 61 18.5 92t63.5 65q55 45 81 80.5t26 85.5q0 61 -36 92t-97 31q-154 0 -169 -176l-60 4q8 112 68.5 168.5t160.5 56.5zM188 0v96h77v-96h-77z" />
    <glyph glyph-name="at" unicode="@" horiz-adv-x="871" 
d="M537 462h51v-220q0 -69 21 -102.5t67 -33.5q53 0 81.5 44t28.5 124q0 144 -100 243.5t-250 99.5q-146 0 -248.5 -103t-102.5 -250q0 -158 99.5 -256t261.5 -98q119 0 204 44l20 -30q-92 -48 -224 -48q-180 0 -289 106t-109 282q0 166 112 276.5t276 110.5
q168 0 277.5 -107.5t109.5 -267.5q0 -100 -42 -154t-115 -54q-47 0 -79 23.5t-43 66.5q-18 -47 -55 -73t-82 -26q-69 0 -113 55.5t-44 150.5q0 96 44 151.5t113 55.5q43 0 77.5 -23.5t52.5 -65.5v79zM419 101q55 0 86.5 44.5t31.5 119.5t-32 120t-86 45t-86 -45t-32 -120
t31.5 -119.5t86.5 -44.5z" />
    <glyph glyph-name="A" unicode="A" horiz-adv-x="652" 
d="M560 0l-69 194h-333l-69 -194h-67l254 700h99l254 -700h-69zM177 246h296l-149 416z" />
    <glyph glyph-name="B" unicode="B" horiz-adv-x="647" 
d="M408 358q89 -6 140.5 -52t51.5 -124q0 -86 -60 -134t-164 -48h-288v700h286q95 0 151.5 -45t56.5 -129q0 -73 -45.5 -116.5t-128.5 -51.5zM154 648v-267h223q62 0 100.5 36.5t38.5 99.5t-40 97t-108 34h-214zM371 52q75 0 119 35.5t44 102.5t-43 104t-116 37h-221v-279
h217z" />
    <glyph glyph-name="C" unicode="C" horiz-adv-x="645" 
d="M46 350q0 160 74.5 261t214.5 101q110 0 182 -61.5t85 -165.5l-62 -6q-10 81 -67 130t-138 49q-108 0 -165.5 -88.5t-57.5 -219.5q0 -132 60 -220t170 -88q87 0 141 54t63 138l62 -6q-13 -106 -81.5 -173t-184.5 -67q-143 0 -219.5 99t-76.5 263z" />
    <glyph glyph-name="D" unicode="D" horiz-adv-x="672" 
d="M88 0v700h240q142 0 220 -92t78 -258t-78 -258t-220 -92h-240zM154 54h169q113 0 175 79t62 217t-62 217t-175 79h-169v-592z" />
    <glyph glyph-name="E" unicode="E" horiz-adv-x="590" 
d="M88 0v700h445v-53h-379v-266h302v-50h-302v-278h393v-53h-459z" />
    <glyph glyph-name="F" unicode="F" horiz-adv-x="557" 
d="M88 0v700h432v-54h-366v-278h298v-54h-298v-314h-66z" />
    <glyph glyph-name="G" unicode="G" horiz-adv-x="658" 
d="M46 350q0 160 75 261t215 101q106 0 177 -57t88 -155l-62 -7q-14 75 -70 120t-133 45q-73 0 -125 -44t-75.5 -112t-23.5 -152q0 -133 66 -220.5t189 -87.5q96 0 182 46v213h-199v48h260v-297q-123 -64 -246 -64q-155 0 -236.5 100.5t-81.5 261.5z" />
    <glyph glyph-name="H" unicode="H" horiz-adv-x="698" 
d="M544 700h66v-700h-66v329h-390v-329h-66v700h66v-317h390v317z" />
    <glyph glyph-name="I" unicode="I" horiz-adv-x="242" 
d="M88 0v700h66v-700h-66z" />
    <glyph glyph-name="J" unicode="J" horiz-adv-x="546" 
d="M40 192v62h62v-61q0 -74 40.5 -112.5t105.5 -38.5q64 0 104 42t40 119v497h66v-502q0 -102 -56.5 -156t-153.5 -54t-152.5 54t-55.5 150z" />
    <glyph glyph-name="K" unicode="K" horiz-adv-x="652" 
d="M626 0h-79l-261 329h-132v-329h-66v700h66v-319h132l245 319h76l-270 -341z" />
    <glyph glyph-name="L" unicode="L" horiz-adv-x="530" 
d="M88 0v700h66v-646h342v-54h-408z" />
    <glyph glyph-name="M" unicode="M" horiz-adv-x="885" 
d="M682 700h115l-1 -700h-64v659l-244 -659h-92l-244 659v-659h-64v700h115l240 -661z" />
    <glyph glyph-name="N" unicode="N" horiz-adv-x="706" 
d="M554 700h64v-700h-111l-355 660v-660h-64v700h111l355 -660v660z" />
    <glyph glyph-name="O" unicode="O" horiz-adv-x="694" 
d="M46 350q0 160 78.5 261t222.5 101t222.5 -101t78.5 -261t-78.5 -261t-222.5 -101t-222.5 101t-78.5 261zM112 350q0 -134 62 -221t173 -87t173 87t62 221t-62 221t-173 87t-173 -87t-62 -221z" />
    <glyph glyph-name="P" unicode="P" horiz-adv-x="622" 
d="M88 0v700h264q98 0 162.5 -51.5t64.5 -155.5t-63.5 -154t-161.5 -50h-200v-289h-66zM154 341h192q76 0 121.5 38t45.5 114t-45.5 114.5t-121.5 38.5h-192v-305z" />
    <glyph glyph-name="Q" unicode="Q" horiz-adv-x="694" 
d="M648 350q0 -102 -33 -183t-97 -127l69 -93l-44 -29l-71 95q-56 -25 -125 -25q-144 0 -222.5 101t-78.5 261t78.5 261t222.5 101t222.5 -101t78.5 -261zM347 42q50 0 89 18l-57 76l44 29l58 -77q49 40 75 108.5t26 153.5q0 134 -62 221t-173 87t-173 -87t-62 -221t62 -221
t173 -87z" />
    <glyph glyph-name="R" unicode="R" horiz-adv-x="644" 
d="M613 0h-81l-215 297h-163v-297h-66v700h272q98 0 162.5 -50.5t64.5 -152.5q0 -94 -55.5 -143.5t-143.5 -55.5zM154 348h200q75 0 121 38t46 111t-46 111.5t-121 38.5h-200v-299z" />
    <glyph glyph-name="S" unicode="S" horiz-adv-x="588" 
d="M35 207l62 3q3 -81 54 -125t147 -44q79 0 130 31.5t51 100.5q0 47 -29.5 78t-97.5 53l-143 46q-149 47 -149 180q0 91 62 136.5t160 45.5q104 0 170 -52t73 -145l-61 -4q-4 68 -53 108t-130 40q-72 0 -113.5 -32.5t-41.5 -92.5q0 -94 117 -130l144 -45
q81 -26 119.5 -69.5t38.5 -113.5q0 -93 -65.5 -140.5t-181.5 -47.5q-124 0 -191 57t-72 162z" />
    <glyph glyph-name="T" unicode="T" horiz-adv-x="561" 
d="M26 646v54h508v-54h-221v-646h-66v646h-221z" />
    <glyph glyph-name="U" unicode="U" horiz-adv-x="702" 
d="M88 259v441h66v-435q0 -115 49 -169t148 -54t148 54t49 169v435h66v-441q0 -137 -65 -204t-198 -67q-134 0 -198.5 66.5t-64.5 204.5z" />
    <glyph glyph-name="V" unicode="V" horiz-adv-x="627" 
d="M533 700h70l-242 -700h-97l-240 700h71l219 -656z" />
    <glyph glyph-name="W" unicode="W" horiz-adv-x="944" 
d="M846 700h70l-187 -700h-99l-158 654l-160 -654h-99l-184 700h71l165 -651l160 651h96l158 -651z" />
    <glyph glyph-name="X" unicode="X" horiz-adv-x="636" 
d="M31 0l247 356l-230 344h79l190 -292l190 292h75l-228 -342l249 -358h-79l-209 306l-209 -306h-75z" />
    <glyph glyph-name="Y" unicode="Y" horiz-adv-x="636" 
d="M544 700h73l-266 -405v-295h-66v294l-266 406h77l222 -352z" />
    <glyph glyph-name="Z" unicode="Z" horiz-adv-x="556" 
d="M104 54h423v-54h-505v46l416 600h-394v54h475v-46z" />
    <glyph glyph-name="bracketleft" unicode="[" horiz-adv-x="275" 
d="M243 675h-94v-746h94v-48h-151v843h151v-49z" />
    <glyph glyph-name="backslash" unicode="\" horiz-adv-x="366" 
d="M96 723l251 -777h-59l-251 777h59z" />
    <glyph glyph-name="bracketright" unicode="]" horiz-adv-x="275" 
d="M184 724v-843h-151v48h93v746h-93v49h151z" />
    <glyph glyph-name="asciicircum" unicode="^" horiz-adv-x="369" 
d="M345 468h-53l-107 207l-107 -207h-54l128 232h66z" />
    <glyph glyph-name="underscore" unicode="_" horiz-adv-x="394" 
d="M16 -49h362v-44h-362v44z" />
    <glyph glyph-name="grave" unicode="`" horiz-adv-x="227" 
d="M187 595h-51l-96 139h67z" />
    <glyph glyph-name="a" unicode="a" horiz-adv-x="537" 
d="M42 133q0 140 198 159l167 16v63q0 51 -34.5 85t-102.5 33q-61 0 -101 -29t-43 -86h-58q3 81 57.5 121.5t144.5 40.5q98 0 149 -46t51 -131v-359h-58v115q-22 -60 -75 -93.5t-129 -33.5q-84 0 -125 40.5t-41 104.5zM105 135q0 -44 30 -72.5t91 -28.5q85 0 133 53.5
t48 140.5v37l-159 -16q-143 -15 -143 -114z" />
    <glyph glyph-name="b" unicode="b" horiz-adv-x="574" 
d="M73 0v736h63v-319q24 55 72 87t110 32q97 0 156 -73t59 -201t-59 -201t-156 -73q-66 0 -115 35.5t-73 98.5v-122h-57zM133 262q0 -101 45.5 -162.5t123.5 -61.5q77 0 123 61.5t46 162.5t-46 162.5t-123 61.5q-78 0 -123.5 -61.5t-45.5 -162.5z" />
    <glyph glyph-name="c" unicode="c" horiz-adv-x="521" 
d="M40 262q0 132 62 203t168 71q84 0 143 -46.5t71 -133.5l-59 -6q-12 66 -54 101t-101 35q-75 0 -121 -59.5t-46 -164.5t46.5 -164.5t123.5 -59.5q60 0 102 36.5t54 105.5l60 -6q-13 -89 -71.5 -137.5t-144.5 -48.5q-108 0 -170.5 71t-62.5 203z" />
    <glyph glyph-name="d" unicode="d" horiz-adv-x="574" 
d="M40 262q0 128 59 201t156 73q63 0 111 -32t72 -87v319h63v-736h-57v122q-24 -63 -73.5 -98.5t-114.5 -35.5q-98 0 -157 73t-59 201zM103 262q0 -101 45.5 -162.5t123.5 -61.5q77 0 123 61.5t46 162.5t-46 162.5t-123 61.5q-78 0 -123.5 -61.5t-45.5 -162.5z" />
    <glyph glyph-name="e" unicode="e" horiz-adv-x="539" 
d="M40 262q0 133 65 203.5t170 70.5q108 0 167 -71t59 -210v-10h-398q4 -100 52 -155t127 -55q56 0 96 28t56 75l59 -5q-20 -68 -74.5 -106.5t-136.5 -38.5q-111 0 -176.5 70t-65.5 204zM104 289h334q-1 92 -45.5 146t-117.5 54q-72 0 -119 -52.5t-52 -147.5z" />
    <glyph glyph-name="f" unicode="f" horiz-adv-x="328" 
d="M21 476v48h98v83q0 81 30 111t101 30q33 0 64 -4v-48q-42 2 -52 2q-48 0 -64.5 -21t-16.5 -79v-74h121v-48h-121v-476h-62v476h-98z" />
    <glyph glyph-name="g" unicode="g" horiz-adv-x="570" 
d="M40 273q0 120 60 191.5t158 71.5q63 0 110 -32t72 -88v108h57v-499q0 -121 -52 -179t-166 -58q-95 0 -148.5 41t-56.5 123h58q6 -115 147 -115q82 -1 118.5 43t36.5 128v112q-52 -110 -175 -110q-98 0 -158.5 71.5t-60.5 191.5zM103 272q0 -95 46 -154t123 -59t123 59
t46 154t-46 154.5t-123 59.5t-123 -59t-46 -155z" />
    <glyph glyph-name="h" unicode="h" horiz-adv-x="564" 
d="M73 0v736h63v-306q23 50 70 78t113 28q85 0 131.5 -46t46.5 -138v-352h-63v332q0 153 -133 153q-79 0 -122 -49.5t-43 -136.5v-299h-63z" />
    <glyph glyph-name="i" unicode="i" horiz-adv-x="210" 
d="M72 616v103h66v-103h-66zM74 0v524h62v-524h-62z" />
    <glyph glyph-name="j" unicode="j" horiz-adv-x="210" 
d="M72 616v103h66v-103h-66zM-30 -208v50q22 -3 41 -3q35 0 49 16t14 63v606h63v-623q0 -62 -25 -87.5t-82 -25.5q-20 0 -60 4z" />
    <glyph glyph-name="k" unicode="k" horiz-adv-x="528" 
d="M516 0h-80l-216 241h-84v-241h-63v736h63v-445h86l204 233h78l-236 -254z" />
    <glyph glyph-name="l" unicode="l" horiz-adv-x="209" 
d="M73 736h63v-736h-63v736z" />
    <glyph glyph-name="m" unicode="m" horiz-adv-x="870" 
d="M73 0v524h57v-104q20 55 65.5 85.5t108.5 30.5q61 0 103 -30t55 -88q21 56 66.5 87t109.5 31q76 0 120.5 -45t44.5 -130v-361h-63v342q0 68 -31 105.5t-89 37.5q-69 0 -110 -49.5t-41 -136.5v-299h-63v342q0 68 -31 105.5t-89 37.5q-69 0 -109.5 -50t-40.5 -136v-299h-63
z" />
    <glyph glyph-name="n" unicode="n" horiz-adv-x="564" 
d="M73 0v524h57v-106q21 56 70 87t119 31q85 0 131.5 -46t46.5 -138v-352h-63v332q0 153 -133 153q-79 0 -122 -49.5t-43 -136.5v-299h-63z" />
    <glyph glyph-name="o" unicode="o" horiz-adv-x="553" 
d="M40 262q0 128 64 201t172 73t172.5 -73t64.5 -201t-64.5 -201t-172.5 -73t-172 73t-64 201zM103 262q0 -102 47 -163t126 -61t126.5 61t47.5 163t-47.5 163t-126.5 61t-126 -61t-47 -163z" />
    <glyph glyph-name="p" unicode="p" horiz-adv-x="574" 
d="M73 -200v724h57v-120q23 61 72.5 96.5t115.5 35.5q97 0 156 -73t59 -201t-59 -201t-156 -73q-62 0 -109.5 32t-72.5 89v-309h-63zM133 262q0 -101 45.5 -162.5t123.5 -61.5q77 0 123 61.5t46 162.5t-46 162.5t-123 61.5q-78 0 -123.5 -61.5t-45.5 -162.5z" />
    <glyph glyph-name="q" unicode="q" horiz-adv-x="574" 
d="M40 262q0 128 59 201t156 73q66 0 115.5 -35.5t73.5 -96.5v120h57v-724h-63v309q-25 -57 -72.5 -89t-109.5 -32q-98 0 -157 73t-59 201zM103 262q0 -101 45.5 -162.5t123.5 -61.5q77 0 123 61.5t46 162.5t-46 162.5t-123 61.5q-78 0 -123.5 -61.5t-45.5 -162.5z" />
    <glyph glyph-name="r" unicode="r" horiz-adv-x="380" 
d="M290 533q24 0 57 -5v-59q-37 5 -64 5q-146 0 -146 -200v-274h-64l1 524h57v-111q41 120 159 120z" />
    <glyph glyph-name="s" unicode="s" horiz-adv-x="478" 
d="M27 144l58 3q10 -112 153 -112q65 0 104 25t39 70q0 34 -25 56t-84 40l-111 34q-118 36 -118 140q0 68 48.5 102t131.5 34q90 0 145.5 -37.5t63.5 -112.5l-58 -3q-6 53 -47.5 79.5t-103.5 26.5q-53 2 -85.5 -21.5t-32.5 -66.5q0 -64 92 -93l111 -34q68 -21 101.5 -54.5
t33.5 -87.5q0 -68 -53.5 -106t-152.5 -38q-197 0 -210 156z" />
    <glyph glyph-name="t" unicode="t" horiz-adv-x="357" 
d="M322 476h-130v-339q0 -54 14 -74t55 -20q24 0 61 5v-50q-36 -6 -70 -6q-70 0 -96 30.5t-26 104.5v349h-111v46h87q16 0 22 6.5t6 22.5v86h58v-113h130v-48z" />
    <glyph glyph-name="u" unicode="u" horiz-adv-x="564" 
d="M429 524h62v-524h-57v113q-22 -59 -70 -92t-119 -33q-84 0 -131 47.5t-47 142.5v346h63v-327q0 -158 134 -158q78 0 121.5 54t43.5 142v289z" />
    <glyph glyph-name="v" unicode="v" horiz-adv-x="522" 
d="M433 524h68l-194 -524h-93l-193 524h69l171 -484z" />
    <glyph glyph-name="w" unicode="w" horiz-adv-x="828" 
d="M735 524h68l-167 -524h-89l-132 490l-133 -490h-91l-165 524h70l143 -479l133 479h89l130 -474z" />
    <glyph glyph-name="x" unicode="x" horiz-adv-x="536" 
d="M511 0h-77l-168 220l-166 -220h-75l204 264l-196 260h78l156 -215l157 215h75l-194 -259z" />
    <glyph glyph-name="y" unicode="y" horiz-adv-x="527" 
d="M438 524h68l-209 -594q-27 -82 -57.5 -112t-96.5 -30q-24 0 -51 3v49q30 -2 47 -2q40 0 61 21t41 82l19 59h-34l-204 524h68l186 -498z" />
    <glyph glyph-name="z" unicode="z" horiz-adv-x="461" 
d="M103 50h331v-50h-410v44l324 430h-305v50h384v-44z" />
    <glyph glyph-name="braceleft" unicode="{" horiz-adv-x="321" 
d="M194 444q0 -65 -22.5 -98t-67.5 -42v-4q90 -17 90 -140v-127q0 -57 21 -82.5t67 -25.5h6v-44h-9q-70 0 -105 34t-35 113v124q0 73 -24.5 100.5t-66.5 27.5h-7v44h7q42 0 66.5 27.5t24.5 101.5v124q0 79 35 113t105 34h9v-45h-6q-47 0 -67.5 -25t-20.5 -83v-127z" />
    <glyph glyph-name="bar" unicode="|" horiz-adv-x="226" 
d="M88 736h50v-857h-50v857z" />
    <glyph glyph-name="braceright" unicode="}" horiz-adv-x="321" 
d="M273 324h7v-44h-7q-42 0 -66.5 -27.5t-24.5 -100.5v-124q0 -79 -35 -113t-105 -34h-9v44h6q46 0 67 25.5t21 82.5v127q0 122 90 140v4q-90 19 -90 140v127q0 58 -20.5 83t-67.5 25h-6v45h9q70 0 105 -34t35 -113v-124q0 -74 24.5 -101.5t66.5 -27.5z" />
    <glyph glyph-name="asciitilde" unicode="~" horiz-adv-x="550" 
d="M427 399h45q0 -53 -26.5 -87.5t-75.5 -34.5q-37 0 -70.5 21.5t-62.5 43t-55 21.5q-29 0 -44 -21t-15 -53h-45q0 53 26 87.5t76 34.5q37 0 70.5 -21.5t62.5 -43t55 -21.5q29 0 44 21t15 53z" />
    <glyph glyph-name="uni00A0" unicode="&#xa0;" horiz-adv-x="242" 
 />
    <glyph glyph-name="exclamdown" unicode="&#xa1;" horiz-adv-x="267" 
d="M95 524h77v-96h-77v96zM159 334l9 -510h-69l9 510h51z" />
    <glyph glyph-name="cent" unicode="&#xa2;" horiz-adv-x="513" 
d="M480 168q-13 -82 -65 -128.5t-130 -51.5v-74h-37v75q-96 7 -152 78t-56 195q0 125 56 196t152 77v75h37v-75q74 -5 126 -49.5t65 -123.5l-56 -5q-12 59 -48 92.5t-87 38.5v-452q53 5 90 40t49 97zM99 262q0 -99 40.5 -158.5t108.5 -67.5v452q-68 -8 -108.5 -67.5
t-40.5 -158.5z" />
    <glyph glyph-name="sterling" unicode="&#xa3;" horiz-adv-x="507" 
d="M80 51h402v-51h-461v44q97 109 97 212q0 34 -9 70h-77v40h68q-18 76 -18 127q0 101 52.5 154t143.5 53q88 0 135 -51.5t53 -150.5l-60 -5q-9 156 -128 156q-62 0 -97 -42.5t-35 -120.5q0 -46 18 -120h204v-40h-195q9 -43 9 -73q0 -56 -26 -103.5t-76 -98.5z" />
    <glyph glyph-name="currency" unicode="&#xa4;" horiz-adv-x="575" 
d="M537 85l-36 -36l-82 83q-54 -39 -132 -39q-77 0 -130 38l-83 -81l-36 36l81 82q-40 53 -40 131t41 132l-82 82l35 36l83 -83q52 39 131 39q78 0 131 -38l83 82l36 -37l-81 -82q40 -53 40 -131t-41 -132zM135 299q0 -72 41 -114t111 -42q71 0 112 42t41 114t-41 114
t-112 42q-70 0 -111 -42t-41 -114z" />
    <glyph glyph-name="yen" unicode="&#xa5;" horiz-adv-x="602" 
d="M332 313v-7h196v-38h-196v-72h196v-38h-196v-158h-63v158h-195v38h195v72h-195v38h195v7l-250 375h74l208 -326l211 326h71z" />
    <glyph glyph-name="brokenbar" unicode="&#xa6;" horiz-adv-x="226" 
d="M88 736h50v-336h-50v336zM88 231h50v-352h-50v352z" />
    <glyph glyph-name="section" unicode="&#xa7;" horiz-adv-x="494" 
d="M365 180q78 -42 78 -124q0 -69 -49 -108t-139 -39q-87 0 -139.5 40.5t-58.5 119.5l55 3q5 -59 44 -88.5t99 -29.5q57 0 93 26.5t36 73.5q0 36 -24.5 59t-82.5 42l-111 35q-118 37 -118 141q0 85 89 119q-69 41 -69 124q0 68 47.5 103t123.5 35q79 0 130.5 -39.5
t58.5 -114.5l-55 -3q-6 55 -43 83.5t-91 28.5q-49 2 -80.5 -23t-31.5 -69q0 -71 88 -99l106 -35q129 -42 129 -142q0 -81 -85 -119zM200 236l111 -35q2 0 8 -2q73 26 73 93q0 36 -24.5 60.5t-80.5 42.5l-101 33q-38 -8 -59.5 -32t-21.5 -59q0 -70 95 -101z" />
    <glyph glyph-name="dieresis" unicode="&#xa8;" horiz-adv-x="300" 
d="M40 616v100h60v-100h-60zM200 616v100h60v-100h-60z" />
    <glyph glyph-name="copyright" unicode="&#xa9;" horiz-adv-x="816" 
d="M408 -12q-158 0 -260 99.5t-102 262.5t102 262.5t260 99.5t260 -99.5t102 -262.5t-102 -262.5t-260 -99.5zM408 25q140 0 229.5 92.5t89.5 232.5t-89.5 232.5t-229.5 92.5q-141 0 -230.5 -92.5t-89.5 -232.5t89.5 -232.5t230.5 -92.5zM250 350q0 97 43 149t116 52
q59 0 99.5 -34.5t49.5 -98.5l-45 -5q-7 49 -35.5 74.5t-68.5 25.5q-50 0 -81 -43.5t-31 -119.5q0 -77 31.5 -120t83.5 -43q40 0 69 27t36 76l45 -4q-9 -65 -49.5 -101t-100.5 -36q-75 0 -118.5 52t-43.5 149z" />
    <glyph glyph-name="guillemotleft" unicode="&#xab;" horiz-adv-x="417" 
d="M220 451l-138 -171l138 -171h-66l-121 153v36l121 153h66zM372 451l-138 -171l138 -171h-66l-121 153v36l121 153h66z" />
    <glyph glyph-name="logicalnot" unicode="&#xac;" horiz-adv-x="508" 
d="M68 358h361v-154h-49v108h-312v46z" />
    <glyph glyph-name="registered" unicode="&#xae;" horiz-adv-x="576" 
d="M288 212q-105 0 -177.5 71.5t-72.5 178.5t72.5 178.5t177.5 71.5t177.5 -71.5t72.5 -178.5t-72.5 -178.5t-177.5 -71.5zM288 244q90 0 152.5 62.5t62.5 155.5t-62.5 155.5t-152.5 62.5t-153 -63t-63 -155t63 -155t153 -63zM216 335v258h87q31 0 51 -18.5t20 -57.5
q0 -68 -53 -76l60 -106h-43l-55 104h-33v-104h-34zM250 468h48q39 0 39 49q0 46 -38 46h-49v-95z" />
    <glyph glyph-name="macron" unicode="&#xaf;" horiz-adv-x="348" 
d="M40 636v45h268v-45h-268z" />
    <glyph glyph-name="degree" unicode="&#xb0;" horiz-adv-x="353" 
d="M176 419q-61 0 -102.5 40.5t-41.5 106.5t41.5 106t102.5 40q62 0 103.5 -40t41.5 -106q0 -67 -41.5 -107t-103.5 -40zM176 462q42 0 70 29.5t28 74.5t-28 74t-70 29t-69.5 -29t-27.5 -74t27.5 -74.5t69.5 -29.5z" />
    <glyph glyph-name="plusminus" unicode="&#xb1;" horiz-adv-x="520" 
d="M282 407h163v-45h-163v-125h-44v125h-164v45h164v140h44v-140zM74 126v45h371v-45h-371z" />
    <glyph glyph-name="uni00B2" unicode="&#xb2;" horiz-adv-x="347" 
d="M87 373h232v-42h-300v39l149 151q33 34 48 51t27.5 40.5t12.5 46.5q0 36 -22 54.5t-58 18.5q-88 0 -97 -111l-50 4q4 75 44 112t103 37q60 0 96.5 -30t36.5 -85q0 -39 -21.5 -73t-74.5 -86z" />
    <glyph glyph-name="uni00B3" unicode="&#xb3;" horiz-adv-x="364" 
d="M279 566q51 -32 51 -103q0 -65 -44 -101t-116 -36q-66 0 -107.5 32t-48.5 96l50 3q10 -89 106 -89q48 0 78 25t30 70q0 42 -27 66.5t-79 24.5q-34 0 -65 -6v36l145 138h-218v42h284v-37l-153 -137q71 5 114 -24z" />
    <glyph glyph-name="acute" unicode="&#xb4;" horiz-adv-x="227" 
d="M40 595l81 139h66l-95 -139h-52z" />
    <glyph glyph-name="paragraph" unicode="&#xb6;" horiz-adv-x="526" 
d="M56 514q0 83 52 134.5t139 51.5h39v-787h-46v415q-83 0 -133.5 51.5t-50.5 134.5zM381 700h45v-787h-45v787z" />
    <glyph glyph-name="periodcentered" unicode="&#xb7;" horiz-adv-x="206" 
d="M65 262v96h77v-96h-77z" />
    <glyph glyph-name="cedilla" unicode="&#xb8;" horiz-adv-x="260" 
d="M141 -52q30 0 54.5 -19t24.5 -56q0 -39 -26.5 -58t-62.5 -19q-35 0 -59.5 17t-31.5 48l37 3q6 -37 50 -37q48 0 48 46q0 23 -13.5 34t-32.5 11q-22 0 -42 -11l-32 14l43 79h34l-36 -64q26 12 45 12z" />
    <glyph glyph-name="uni00B9" unicode="&#xb9;" horiz-adv-x="256" 
d="M123 764h43v-431h-52v367l-80 -68v57z" />
    <glyph glyph-name="guillemotright" unicode="&#xbb;" horiz-adv-x="417" 
d="M111 451l121 -153v-36l-121 -153h-66l138 171l-138 171h66zM263 451l121 -153v-36l-121 -153h-66l138 171l-138 171h66z" />
    <glyph glyph-name="onequarter" unicode="&#xbc;" horiz-adv-x="676" 
d="M98 340v300l-69 -50v51l79 59h38v-360h-48zM507 700h52l-468 -700h-52zM589 123h62v-38h-62v-85h-48v85h-209v35l179 240h78v-237zM381 123h160v214z" />
    <glyph glyph-name="onehalf" unicode="&#xbd;" horiz-adv-x="688" 
d="M98 340v300l-69 -50v51l79 59h38v-360h-48zM507 700h52l-468 -700h-52zM460 38h200v-38h-261v35l128 125q29 28 41.5 41.5t23.5 33.5t11 39q0 29 -19 44.5t-50 15.5q-34 0 -55.5 -23t-25.5 -68l-46 3q5 63 39.5 94.5t87.5 31.5q52 0 84 -25.5t32 -72.5q0 -32 -18.5 -61.5
t-63.5 -71.5z" />
    <glyph glyph-name="threequarters" unicode="&#xbe;" horiz-adv-x="779" 
d="M292 445q0 -56 -39 -86.5t-103 -30.5q-57 0 -94 27.5t-43 82.5l47 3q4 -38 28 -56.5t62 -18.5q42 0 68 21t26 58q0 34 -23.5 55t-67.5 21q-25 0 -59 -7v34l125 114h-188v38h251v-35l-131 -110q63 3 99 -23q42 -28 42 -87zM610 700h52l-468 -700h-52zM692 123h62v-38h-62
v-85h-48v85h-208v35l178 240h78v-237zM484 123h160v214z" />
    <glyph glyph-name="questiondown" unicode="&#xbf;" horiz-adv-x="483" 
d="M295 524v-96h-77v96h77zM233 -188q-89 0 -143 43.5t-54 131.5q0 60 27.5 104.5t90.5 94.5q43 34 57.5 58t14.5 70v18h62v-21q0 -61 -18.5 -92t-63.5 -65q-54 -45 -80 -80.5t-26 -85.5q0 -62 35.5 -92.5t97.5 -30.5q74 0 117.5 44t50.5 132l60 -4q-7 -112 -68 -168.5
t-160 -56.5z" />
    <glyph glyph-name="Agrave" unicode="&#xc0;" horiz-adv-x="652" 
d="M355 764h-53l-106 114h69zM560 0l-69 194h-332l-70 -194h-67l254 700h99l254 -700h-69zM324 662l-147 -416h296z" />
    <glyph glyph-name="Aacute" unicode="&#xc1;" horiz-adv-x="652" 
d="M459 878l-107 -114h-52l90 114h69zM560 0l-69 194h-332l-70 -194h-67l254 700h99l254 -700h-69zM324 662l-147 -416h296z" />
    <glyph glyph-name="Acircumflex" unicode="&#xc2;" horiz-adv-x="652" 
d="M326 859l-87 -91h-52l100 113h79l99 -113h-51zM560 0l-69 194h-332l-70 -194h-67l254 700h99l254 -700h-69zM324 662l-147 -416h296z" />
    <glyph glyph-name="Atilde" unicode="&#xc3;" horiz-adv-x="652" 
d="M263 819q-37 0 -37 -48h-39q0 39 18 63.5t55 24.5q33 0 71.5 -27t57.5 -27q18 0 28 13t10 34h39q0 -38 -18 -62.5t-56 -24.5q-32 0 -71 27t-58 27zM560 0l-69 194h-332l-70 -194h-67l254 700h99l254 -700h-69zM324 662l-147 -416h296z" />
    <glyph glyph-name="Adieresis" unicode="&#xc4;" horiz-adv-x="652" 
d="M269 853v-85h-65v85h65zM448 853v-85h-65v85h65zM560 0l-69 194h-332l-70 -194h-67l254 700h99l254 -700h-69zM324 662l-147 -416h296z" />
    <glyph glyph-name="Aring" unicode="&#xc5;" horiz-adv-x="652" 
d="M326 748q-39 0 -68.5 23.5t-29.5 67.5q0 43 29.5 66.5t68.5 23.5q40 0 69 -23t29 -67t-29 -67.5t-69 -23.5zM326 894q-25 0 -42.5 -15t-17.5 -40t17.5 -40.5t42.5 -15.5t42.5 15.5t17.5 40.5t-17.5 40t-42.5 15zM560 0l-69 194h-332l-70 -194h-67l254 700h99l254 -700
h-69zM324 662l-147 -416h296z" />
    <glyph glyph-name="AE" unicode="&#xc6;" horiz-adv-x="986" 
d="M15 0l380 700h534v-53h-379v-266h302v-50h-302v-278h393v-53h-459v194h-292l-104 -194h-73zM218 246h266v401h-50z" />
    <glyph glyph-name="Ccedilla" unicode="&#xc7;" horiz-adv-x="645" 
d="M342 -12h-13l-29 -51q24 11 45 11q30 0 54 -19t24 -56q0 -39 -26 -58t-62 -19t-60 17t-31 48l36 3q8 -37 51 -37q48 0 48 46q0 23 -13.5 34t-32.5 11q-22 0 -42 -11l-32 14l38 70q-122 16 -186.5 112.5t-64.5 246.5q0 160 74.5 261t214.5 101q110 0 182 -61.5t85 -165.5
l-62 -6q-10 81 -67 130t-138 49q-108 0 -165.5 -88.5t-57.5 -219.5q0 -132 60 -220t170 -88q87 0 141 54t63 138l62 -6q-13 -106 -81.5 -173t-184.5 -67z" />
    <glyph glyph-name="Egrave" unicode="&#xc8;" horiz-adv-x="590" 
d="M330 764h-53l-106 114h69zM88 0v700h445v-53h-379v-266h302v-50h-302v-278h393v-53h-459z" />
    <glyph glyph-name="Eacute" unicode="&#xc9;" horiz-adv-x="590" 
d="M267 764l90 114h69l-106 -114h-53zM88 0v700h445v-53h-379v-266h302v-50h-302v-278h393v-53h-459z" />
    <glyph glyph-name="Ecircumflex" unicode="&#xca;" horiz-adv-x="590" 
d="M437 768h-51l-88 91l-87 -91h-52l100 113h79zM88 0v700h445v-53h-379v-266h302v-50h-302v-278h393v-53h-459z" />
    <glyph glyph-name="Edieresis" unicode="&#xcb;" horiz-adv-x="590" 
d="M176 768v85h65v-85h-65zM355 768v85h65v-85h-65zM88 0v700h445v-53h-379v-266h302v-50h-302v-278h393v-53h-459z" />
    <glyph glyph-name="Igrave" unicode="&#xcc;" horiz-adv-x="242" 
d="M148 764h-50l-88 114h65zM88 0v700h66v-700h-66z" />
    <glyph glyph-name="Iacute" unicode="&#xcd;" horiz-adv-x="242" 
d="M93 764l73 114h66l-89 -114h-50zM88 0v700h66v-700h-66z" />
    <glyph glyph-name="Icircumflex" unicode="&#xce;" horiz-adv-x="242" 
d="M260 768h-51l-88 91l-88 -91h-51l99 113h79zM88 0v700h66v-700h-66z" />
    <glyph glyph-name="Idieresis" unicode="&#xcf;" horiz-adv-x="242" 
d="M19 768v85h59v-85h-59zM163 768v85h60v-85h-60zM88 0v700h66v-700h-66z" />
    <glyph glyph-name="Eth" unicode="&#xd0;" horiz-adv-x="686" 
d="M343 700q142 0 219.5 -92t77.5 -258t-77.5 -258t-219.5 -92h-241v326h-70v48h70v326h241zM337 54q113 0 175 79t62 217t-62 217t-175 79h-169v-272h210v-48h-210v-272h169z" />
    <glyph glyph-name="Ntilde" unicode="&#xd1;" horiz-adv-x="706" 
d="M290 819q-37 0 -37 -48h-39q0 39 18 63.5t56 24.5q32 0 70.5 -27t57.5 -27q38 0 38 47h39q0 -38 -18 -62.5t-56 -24.5q-32 0 -71 27t-58 27zM554 700h64v-700h-111l-355 660v-660h-64v700h111l355 -660v660z" />
    <glyph glyph-name="Ograve" unicode="&#xd2;" horiz-adv-x="694" 
d="M378 764h-53l-106 114h69zM46 350q0 160 78.5 261t222.5 101t222.5 -101t78.5 -261t-78.5 -261t-222.5 -101t-222.5 101t-78.5 261zM112 350q0 -134 62 -221t173 -87t173 87t62 221t-62 221t-173 87t-173 -87t-62 -221z" />
    <glyph glyph-name="Oacute" unicode="&#xd3;" horiz-adv-x="694" 
d="M315 764l91 114h68l-106 -114h-53zM46 350q0 160 78.5 261t222.5 101t222.5 -101t78.5 -261t-78.5 -261t-222.5 -101t-222.5 101t-78.5 261zM112 350q0 -134 62 -221t173 -87t173 87t62 221t-62 221t-173 87t-173 -87t-62 -221z" />
    <glyph glyph-name="Ocircumflex" unicode="&#xd4;" horiz-adv-x="694" 
d="M486 768h-51l-88 91l-88 -91h-51l99 113h79zM46 350q0 160 78.5 261t222.5 101t222.5 -101t78.5 -261t-78.5 -261t-222.5 -101t-222.5 101t-78.5 261zM112 350q0 -134 62 -221t173 -87t173 87t62 221t-62 221t-173 87t-173 -87t-62 -221z" />
    <glyph glyph-name="Otilde" unicode="&#xd5;" horiz-adv-x="694" 
d="M447 852h39q0 -38 -18 -62.5t-56 -24.5q-32 0 -70.5 27t-57.5 27q-18 0 -28 -13.5t-10 -34.5h-39q0 38 18.5 63t55.5 25q33 0 71.5 -27t56.5 -27q38 0 38 47zM46 350q0 160 78.5 261t222.5 101t222.5 -101t78.5 -261t-78.5 -261t-222.5 -101t-222.5 101t-78.5 261z
M112 350q0 -134 62 -221t173 -87t173 87t62 221t-62 221t-173 87t-173 -87t-62 -221z" />
    <glyph glyph-name="Odieresis" unicode="&#xd6;" horiz-adv-x="694" 
d="M225 768v85h65v-85h-65zM404 768v85h65v-85h-65zM46 350q0 160 78.5 261t222.5 101t222.5 -101t78.5 -261t-78.5 -261t-222.5 -101t-222.5 101t-78.5 261zM112 350q0 -134 62 -221t173 -87t173 87t62 221t-62 221t-173 87t-173 -87t-62 -221z" />
    <glyph glyph-name="multiply" unicode="&#xd7;" horiz-adv-x="497" 
d="M427 478l-145 -144l145 -145l-33 -34l-145 145l-145 -145l-33 34l144 145l-144 144l33 34l145 -145l145 145z" />
    <glyph glyph-name="Oslash" unicode="&#xd8;" horiz-adv-x="694" 
d="M571 609q77 -98 77 -259q0 -160 -78.5 -261t-222.5 -101q-117 0 -193 70l-55 -72l-40 22l63 84q-76 99 -76 258q0 160 78.5 261t222.5 101q117 0 192 -69l54 71l41 -21zM112 350q0 -122 51 -205l338 448q-60 65 -154 65q-111 0 -173 -87t-62 -221zM347 42q111 0 173 87
t62 221q0 122 -52 206l-339 -448q61 -66 156 -66z" />
    <glyph glyph-name="Ugrave" unicode="&#xd9;" horiz-adv-x="702" 
d="M382 764h-53l-106 114h69zM88 259v441h66v-435q0 -115 49 -169t148 -54t148 54t49 169v435h66v-441q0 -137 -65 -204t-198 -67q-134 0 -198.5 66.5t-64.5 204.5z" />
    <glyph glyph-name="Uacute" unicode="&#xda;" horiz-adv-x="702" 
d="M319 764l90 114h69l-106 -114h-53zM88 259v441h66v-435q0 -115 49 -169t148 -54t148 54t49 169v435h66v-441q0 -137 -65 -204t-198 -67q-134 0 -198.5 66.5t-64.5 204.5z" />
    <glyph glyph-name="Ucircumflex" unicode="&#xdb;" horiz-adv-x="702" 
d="M490 768h-52l-87 91l-88 -91h-51l99 113h79zM88 259v441h66v-435q0 -115 49 -169t148 -54t148 54t49 169v435h66v-441q0 -137 -65 -204t-198 -67q-134 0 -198.5 66.5t-64.5 204.5z" />
    <glyph glyph-name="Udieresis" unicode="&#xdc;" horiz-adv-x="702" 
d="M229 768v85h65v-85h-65zM408 768v85h65v-85h-65zM88 259v441h66v-435q0 -115 49 -169t148 -54t148 54t49 169v435h66v-441q0 -137 -65 -204t-198 -67q-134 0 -198.5 66.5t-64.5 204.5z" />
    <glyph glyph-name="Yacute" unicode="&#xdd;" horiz-adv-x="636" 
d="M446 878l-106 -114h-53l90 114h69zM544 700h73l-266 -405v-295h-66v294l-266 406h77l222 -352z" />
    <glyph glyph-name="Thorn" unicode="&#xde;" horiz-adv-x="622" 
d="M352 569q98 0 162.5 -50t64.5 -149q0 -98 -63.5 -147t-161.5 -49h-200v-174h-66v700h66v-131h198zM346 226q75 0 121 37t46 107q0 71 -46 108t-121 37h-192v-289h192z" />
    <glyph glyph-name="germandbls" unicode="&#xdf;" horiz-adv-x="548" 
d="M315 433q93 -9 145 -66.5t52 -156.5q0 -109 -59.5 -162.5t-153.5 -53.5q-25 0 -63 6v52q36 -6 56 -6q64 0 110.5 40t46.5 128q0 87 -47.5 139t-136.5 52h-34v50h34q68 0 103.5 35t35.5 96q0 64 -37 98t-99 34q-132 0 -132 -159v-559h-63v568q0 96 49.5 147t145.5 51
q88 0 143 -44.5t55 -129.5q0 -68 -39 -108.5t-112 -50.5z" />
    <glyph glyph-name="agrave" unicode="&#xe0;" horiz-adv-x="537" 
d="M308 595h-52l-96 139h67zM42 133q0 140 198 159l167 16v63q0 51 -34.5 85t-102.5 33q-61 0 -101 -29t-43 -86h-58q3 81 57.5 121.5t144.5 40.5q98 0 149 -46t51 -131v-359h-58v115q-22 -60 -75 -93.5t-129 -33.5q-84 0 -125 40.5t-41 104.5zM105 135q0 -44 30 -72.5
t91 -28.5q85 0 133 53.5t48 140.5v37l-159 -16q-143 -15 -143 -114z" />
    <glyph glyph-name="aacute" unicode="&#xe1;" horiz-adv-x="537" 
d="M228 595l81 139h67l-96 -139h-52zM42 133q0 140 198 159l167 16v63q0 51 -34.5 85t-102.5 33q-61 0 -101 -29t-43 -86h-58q3 81 57.5 121.5t144.5 40.5q98 0 149 -46t51 -131v-359h-58v115q-22 -60 -75 -93.5t-129 -33.5q-84 0 -125 40.5t-41 104.5zM105 135
q0 -44 30 -72.5t91 -28.5q85 0 133 53.5t48 140.5v37l-159 -16q-143 -15 -143 -114z" />
    <glyph glyph-name="acircumflex" unicode="&#xe2;" horiz-adv-x="537" 
d="M399 595h-50l-81 115l-81 -115h-50l93 139h76zM42 133q0 140 198 159l167 16v63q0 51 -34.5 85t-102.5 33q-61 0 -101 -29t-43 -86h-58q3 81 57.5 121.5t144.5 40.5q98 0 149 -46t51 -131v-359h-58v115q-22 -60 -75 -93.5t-129 -33.5q-84 0 -125 40.5t-41 104.5zM105 135
q0 -44 30 -72.5t91 -28.5q85 0 133 53.5t48 140.5v37l-159 -16q-143 -15 -143 -114z" />
    <glyph glyph-name="atilde" unicode="&#xe3;" horiz-adv-x="537" 
d="M372 695h40q0 -40 -18.5 -66t-57.5 -26q-35 0 -74.5 28.5t-58.5 28.5t-29 -14t-10 -36h-41q0 40 19.5 66.5t58.5 26.5q33 0 72.5 -29t59.5 -29q19 0 29 14t10 36zM42 133q0 140 198 159l167 16v63q0 51 -34.5 85t-102.5 33q-61 0 -101 -29t-43 -86h-58q3 81 57.5 121.5
t144.5 40.5q98 0 149 -46t51 -131v-359h-58v115q-22 -60 -75 -93.5t-129 -33.5q-84 0 -125 40.5t-41 104.5zM105 135q0 -44 30 -72.5t91 -28.5q85 0 133 53.5t48 140.5v37l-159 -16q-143 -15 -143 -114z" />
    <glyph glyph-name="adieresis" unicode="&#xe4;" horiz-adv-x="537" 
d="M158 616v100h59v-100h-59zM318 616v100h60v-100h-60zM42 133q0 140 198 159l167 16v63q0 51 -34.5 85t-102.5 33q-61 0 -101 -29t-43 -86h-58q3 81 57.5 121.5t144.5 40.5q98 0 149 -46t51 -131v-359h-58v115q-22 -60 -75 -93.5t-129 -33.5q-84 0 -125 40.5t-41 104.5z
M105 135q0 -44 30 -72.5t91 -28.5q85 0 133 53.5t48 140.5v37l-159 -16q-143 -15 -143 -114z" />
    <glyph glyph-name="aring" unicode="&#xe5;" horiz-adv-x="537" 
d="M268 777q40 0 69 -23.5t29 -68.5t-29 -68.5t-69 -23.5t-69 23.5t-29 68.5t29 68.5t69 23.5zM268 627q25 0 42.5 15.5t17.5 42.5q0 26 -17.5 41.5t-42.5 15.5t-42.5 -15.5t-17.5 -41.5q0 -27 17.5 -42.5t42.5 -15.5zM42 133q0 140 198 159l167 16v63q0 51 -34.5 85
t-102.5 33q-61 0 -101 -29t-43 -86h-58q3 81 57.5 121.5t144.5 40.5q98 0 149 -46t51 -131v-359h-58v115q-22 -60 -75 -93.5t-129 -33.5q-84 0 -125 40.5t-41 104.5zM105 135q0 -44 30 -72.5t91 -28.5q85 0 133 53.5t48 140.5v37l-159 -16q-143 -15 -143 -114z" />
    <glyph glyph-name="ae" unicode="&#xe6;" horiz-adv-x="891" 
d="M853 255v-10h-382q3 -100 50 -155t122 -55q50 0 88.5 28t54.5 75l59 -5q-20 -67 -73 -106t-129 -39q-162 0 -210 148q-23 -68 -81 -108t-142 -40q-85 0 -126.5 40t-41.5 105q0 143 198 156l167 11v70q0 52 -34.5 86t-102.5 33q-61 0 -101 -29t-43 -86h-58
q3 81 57.5 121.5t143.5 40.5q152 0 181 -114q55 114 186 114q101 0 159 -71.5t58 -209.5zM471 289h320q-1 91 -44 145.5t-111 54.5t-113.5 -52.5t-51.5 -147.5zM407 228v29l-159 -11q-143 -11 -143 -111q0 -44 30 -72.5t91 -28.5q85 0 133 53.5t48 140.5z" />
    <glyph glyph-name="ccedilla" unicode="&#xe7;" horiz-adv-x="521" 
d="M273 -12h-5l-29 -51q24 11 44 11q30 0 54.5 -19t24.5 -56q0 -39 -26.5 -58t-62.5 -19q-35 0 -59.5 17t-31.5 48l37 3q6 -37 51 -37q21 0 34.5 11.5t13.5 34.5t-13.5 34t-33.5 11q-22 0 -42 -11l-31 14l37 69q-91 12 -143 82.5t-52 189.5q0 132 62 203t168 71
q84 0 143 -46.5t71 -133.5l-59 -6q-12 66 -54 101t-101 35q-75 0 -121 -59.5t-46 -164.5t46.5 -164.5t123.5 -59.5q60 0 102 36.5t54 105.5l60 -6q-13 -89 -71.5 -137.5t-144.5 -48.5z" />
    <glyph glyph-name="egrave" unicode="&#xe8;" horiz-adv-x="539" 
d="M306 595h-51l-96 139h67zM40 262q0 133 65 203.5t170 70.5q108 0 167 -71t59 -210v-10h-398q4 -100 52 -155t127 -55q56 0 96 28t56 75l59 -5q-20 -68 -74.5 -106.5t-136.5 -38.5q-111 0 -176.5 70t-65.5 204zM104 289h334q-1 92 -45.5 146t-117.5 54q-72 0 -119 -52.5
t-52 -147.5z" />
    <glyph glyph-name="eacute" unicode="&#xe9;" horiz-adv-x="539" 
d="M227 595l81 139h66l-95 -139h-52zM40 262q0 133 65 203.5t170 70.5q108 0 167 -71t59 -210v-10h-398q4 -100 52 -155t127 -55q56 0 96 28t56 75l59 -5q-20 -68 -74.5 -106.5t-136.5 -38.5q-111 0 -176.5 70t-65.5 204zM104 289h334q-1 92 -45.5 146t-117.5 54
q-72 0 -119 -52.5t-52 -147.5z" />
    <glyph glyph-name="ecircumflex" unicode="&#xea;" horiz-adv-x="539" 
d="M398 595h-50l-81 115l-81 -115h-51l94 139h75zM40 262q0 133 65 203.5t170 70.5q108 0 167 -71t59 -210v-10h-398q4 -100 52 -155t127 -55q56 0 96 28t56 75l59 -5q-20 -68 -74.5 -106.5t-136.5 -38.5q-111 0 -176.5 70t-65.5 204zM104 289h334q-1 92 -45.5 146
t-117.5 54q-72 0 -119 -52.5t-52 -147.5z" />
    <glyph glyph-name="edieresis" unicode="&#xeb;" horiz-adv-x="539" 
d="M157 616v100h59v-100h-59zM317 616v100h60v-100h-60zM40 262q0 133 65 203.5t170 70.5q108 0 167 -71t59 -210v-10h-398q4 -100 52 -155t127 -55q56 0 96 28t56 75l59 -5q-20 -68 -74.5 -106.5t-136.5 -38.5q-111 0 -176.5 70t-65.5 204zM104 289h334q-1 92 -45.5 146
t-117.5 54q-72 0 -119 -52.5t-52 -147.5z" />
    <glyph glyph-name="igrave" unicode="&#xec;" horiz-adv-x="205" 
d="M131 595h-50l-78 139h65zM69 0v524h63v-524h-63z" />
    <glyph glyph-name="iacute" unicode="&#xed;" horiz-adv-x="209" 
d="M74 595l63 139h65l-78 -139h-50zM73 0v524h63v-524h-63z" />
    <glyph glyph-name="icircumflex" unicode="&#xee;" horiz-adv-x="218" 
d="M240 595h-50l-81 115l-81 -115h-50l93 139h76zM78 0v524h63v-524h-63z" />
    <glyph glyph-name="idieresis" unicode="&#xef;" horiz-adv-x="201" 
d="M5 616v100h56v-100h-56zM139 616v100h57v-100h-57zM69 0v524h63v-524h-63z" />
    <glyph glyph-name="eth" unicode="&#xf0;" horiz-adv-x="558" 
d="M351 668q162 -112 162 -362q0 -164 -65 -241t-172 -77q-106 0 -171 70t-65 191q0 120 63 190.5t163 70.5q74 0 125 -39t73 -110q-11 102 -50 169t-113 109l-130 -75l-16 27l113 65q-64 29 -159 49l11 51q125 -26 201 -70l106 62l16 -27zM276 38q81 0 127.5 56.5
t46.5 154.5t-46.5 154.5t-127.5 56.5q-79 0 -126 -57t-47 -154t47 -154t126 -57z" />
    <glyph glyph-name="ntilde" unicode="&#xf1;" horiz-adv-x="564" 
d="M385 695h41q0 -40 -19 -66t-58 -26q-34 0 -73.5 28.5t-59.5 28.5q-18 0 -28.5 -14t-10.5 -36h-40q0 40 19 66.5t58 26.5q34 0 73.5 -29t58.5 -29q39 0 39 50zM73 0v524h57v-106q21 56 70 87t119 31q85 0 131.5 -46t46.5 -138v-352h-63v332q0 153 -133 153
q-79 0 -122 -49.5t-43 -136.5v-299h-63z" />
    <glyph glyph-name="ograve" unicode="&#xf2;" horiz-adv-x="553" 
d="M316 595h-52l-95 139h66zM40 262q0 128 64 201t172 73t172.5 -73t64.5 -201t-64.5 -201t-172.5 -73t-172 73t-64 201zM103 262q0 -102 47 -163t126 -61t126.5 61t47.5 163t-47.5 163t-126.5 61t-126 -61t-47 -163z" />
    <glyph glyph-name="oacute" unicode="&#xf3;" horiz-adv-x="553" 
d="M237 595l80 139h67l-95 -139h-52zM40 262q0 128 64 201t172 73t172.5 -73t64.5 -201t-64.5 -201t-172.5 -73t-172 73t-64 201zM103 262q0 -102 47 -163t126 -61t126.5 61t47.5 163t-47.5 163t-126.5 61t-126 -61t-47 -163z" />
    <glyph glyph-name="ocircumflex" unicode="&#xf4;" horiz-adv-x="553" 
d="M408 595h-50l-82 115l-81 -115h-50l94 139h75zM40 262q0 128 64 201t172 73t172.5 -73t64.5 -201t-64.5 -201t-172.5 -73t-172 73t-64 201zM103 262q0 -102 47 -163t126 -61t126.5 61t47.5 163t-47.5 163t-126.5 61t-126 -61t-47 -163z" />
    <glyph glyph-name="otilde" unicode="&#xf5;" horiz-adv-x="553" 
d="M380 695h41q0 -40 -19 -66t-58 -26q-34 0 -73.5 28.5t-59.5 28.5q-18 0 -28 -14t-10 -36h-41q0 40 19 66.5t58 26.5q34 0 73.5 -29t58.5 -29q39 0 39 50zM40 262q0 128 64 201t172 73t172.5 -73t64.5 -201t-64.5 -201t-172.5 -73t-172 73t-64 201zM103 262
q0 -102 47 -163t126 -61t126.5 61t47.5 163t-47.5 163t-126.5 61t-126 -61t-47 -163z" />
    <glyph glyph-name="odieresis" unicode="&#xf6;" horiz-adv-x="553" 
d="M166 616v100h60v-100h-60zM327 616v100h60v-100h-60zM40 262q0 128 64 201t172 73t172.5 -73t64.5 -201t-64.5 -201t-172.5 -73t-172 73t-64 201zM103 262q0 -102 47 -163t126 -61t126.5 61t47.5 163t-47.5 163t-126.5 61t-126 -61t-47 -163z" />
    <glyph glyph-name="divide" unicode="&#xf7;" horiz-adv-x="496" 
d="M248 446q-16 0 -27 11t-11 27t11 26.5t27 10.5t27 -10.5t11 -26.5t-11 -27t-27 -11zM62 358h371v-47h-371v47zM248 147q-16 0 -27 11t-11 27t11 26.5t27 10.5t27 -10.5t11 -26.5t-11 -27t-27 -11z" />
    <glyph glyph-name="oslash" unicode="&#xf8;" horiz-adv-x="553" 
d="M451 460q62 -75 62 -198q0 -128 -64.5 -201t-172.5 -73q-86 0 -145 48l-44 -58l-35 20l50 66q-62 75 -62 198q0 128 64 201t172 73q87 0 146 -48l44 57l35 -19zM103 262q0 -89 36 -148l249 329q-45 43 -112 43q-79 0 -126 -61t-47 -163zM276 38q79 0 126.5 61t47.5 163
q0 89 -36 148l-249 -328q44 -44 111 -44z" />
    <glyph glyph-name="ugrave" unicode="&#xf9;" horiz-adv-x="564" 
d="M323 595h-52l-95 139h66zM429 524h62v-524h-57v113q-22 -59 -70 -92t-119 -33q-84 0 -131 47.5t-47 142.5v346h63v-327q0 -158 134 -158q78 0 121.5 54t43.5 142v289z" />
    <glyph glyph-name="uacute" unicode="&#xfa;" horiz-adv-x="564" 
d="M244 595l80 139h67l-96 -139h-51zM429 524h62v-524h-57v113q-22 -59 -70 -92t-119 -33q-84 0 -131 47.5t-47 142.5v346h63v-327q0 -158 134 -158q78 0 121.5 54t43.5 142v289z" />
    <glyph glyph-name="ucircumflex" unicode="&#xfb;" horiz-adv-x="564" 
d="M415 595h-51l-81 115l-81 -115h-50l94 139h75zM429 524h62v-524h-57v113q-22 -59 -70 -92t-119 -33q-84 0 -131 47.5t-47 142.5v346h63v-327q0 -158 134 -158q78 0 121.5 54t43.5 142v289z" />
    <glyph glyph-name="udieresis" unicode="&#xfc;" horiz-adv-x="564" 
d="M173 616v100h60v-100h-60zM334 616v100h59v-100h-59zM429 524h62v-524h-57v113q-22 -59 -70 -92t-119 -33q-84 0 -131 47.5t-47 142.5v346h63v-327q0 -158 134 -158q78 0 121.5 54t43.5 142v289z" />
    <glyph glyph-name="yacute" unicode="&#xfd;" horiz-adv-x="527" 
d="M371 734l-95 -139h-52l80 139h67zM438 524h68l-209 -594q-27 -82 -57.5 -112t-96.5 -30q-24 0 -51 3v49q30 -2 47 -2q40 0 61 21t41 82l19 59h-34l-204 524h68l186 -498z" />
    <glyph glyph-name="thorn" unicode="&#xfe;" horiz-adv-x="574" 
d="M73 -200v936h63v-319q24 55 72 87t110 32q97 0 156 -73t59 -201t-59 -201t-156 -73q-62 0 -109.5 32t-72.5 90v-310h-63zM133 262q0 -101 45.5 -162.5t123.5 -61.5q77 0 123 61.5t46 162.5t-46 162.5t-123 61.5q-78 0 -123.5 -61.5t-45.5 -162.5z" />
    <glyph glyph-name="ydieresis" unicode="&#xff;" horiz-adv-x="527" 
d="M213 716v-100h-60v100h60zM374 716v-100h-60v100h60zM438 524h68l-209 -594q-27 -82 -57.5 -112t-96.5 -30q-24 0 -51 3v49q30 -2 47 -2q40 0 61 21t41 82l19 59h-34l-204 524h68l186 -498z" />
    <glyph glyph-name="Amacron" unicode="&#x100;" horiz-adv-x="652" 
d="M470 824v-46h-288v46h288zM560 0l-69 194h-332l-70 -194h-67l254 700h99l254 -700h-69zM324 662l-147 -416h296z" />
    <glyph glyph-name="amacron" unicode="&#x101;" horiz-adv-x="537" 
d="M134 636v45h268v-45h-268zM42 133q0 140 198 159l167 16v63q0 51 -34.5 85t-102.5 33q-61 0 -101 -29t-43 -86h-58q3 81 57.5 121.5t144.5 40.5q98 0 149 -46t51 -131v-359h-58v115q-22 -60 -75 -93.5t-129 -33.5q-84 0 -125 40.5t-41 104.5zM105 135q0 -44 30 -72.5
t91 -28.5q85 0 133 53.5t48 140.5v37l-159 -16q-143 -15 -143 -114z" />
    <glyph glyph-name="Abreve" unicode="&#x102;" horiz-adv-x="652" 
d="M326 760q-64 0 -98 33t-36 85h41q8 -76 93 -76t93 76h42q-2 -53 -36.5 -85.5t-98.5 -32.5zM560 0l-69 194h-332l-70 -194h-67l254 700h99l254 -700h-69zM324 662l-147 -416h296z" />
    <glyph glyph-name="abreve" unicode="&#x103;" horiz-adv-x="537" 
d="M357 729h41q-2 -61 -35 -96.5t-95 -35.5q-63 0 -95.5 35.5t-34.5 96.5h40q8 -90 90 -90q83 0 89 90zM42 133q0 140 198 159l167 16v63q0 51 -34.5 85t-102.5 33q-61 0 -101 -29t-43 -86h-58q3 81 57.5 121.5t144.5 40.5q98 0 149 -46t51 -131v-359h-58v115
q-22 -60 -75 -93.5t-129 -33.5q-84 0 -125 40.5t-41 104.5zM105 135q0 -44 30 -72.5t91 -28.5q85 0 133 53.5t48 140.5v37l-159 -16q-143 -15 -143 -114z" />
    <glyph glyph-name="Aogonek" unicode="&#x104;" horiz-adv-x="652" 
d="M615 -105l32 -7q-16 -80 -92 -80q-34 0 -55 18t-21 53q0 42 28.5 69t80.5 52h-28l-69 194h-332l-70 -194h-67l254 700h99l254 -700q-51 -32 -77.5 -58t-26.5 -60q0 -40 38 -40q47 0 52 53zM324 662l-147 -416h296z" />
    <glyph glyph-name="aogonek" unicode="&#x105;" horiz-adv-x="537" 
d="M456 -105l31 -7q-7 -38 -31 -59t-61 -21q-34 0 -55 18t-21 53q0 42 28.5 69t80.5 52h-16v115q-22 -60 -75 -93.5t-129 -33.5q-84 0 -125 40.5t-41 104.5q0 140 198 159l167 16v63q0 51 -34.5 85t-102.5 33q-61 0 -101 -29t-43 -86h-58q3 81 57.5 121.5t144.5 40.5
q98 0 149 -46t51 -131v-359q-51 -31 -78 -57.5t-27 -60.5q0 -40 38 -40q46 0 53 53zM407 228v37l-159 -16q-143 -15 -143 -114q0 -44 30 -72.5t91 -28.5q85 0 133 53.5t48 140.5z" />
    <glyph glyph-name="Cacute" unicode="&#x106;" horiz-adv-x="645" 
d="M292 764l90 114h69l-107 -114h-52zM46 350q0 160 74.5 261t214.5 101q110 0 182 -61.5t85 -165.5l-62 -6q-10 81 -67 130t-138 49q-108 0 -165.5 -88.5t-57.5 -219.5q0 -132 60 -220t170 -88q87 0 141 54t63 138l62 -6q-13 -106 -81.5 -173t-184.5 -67q-143 0 -219.5 99
t-76.5 263z" />
    <glyph glyph-name="cacute" unicode="&#x107;" horiz-adv-x="521" 
d="M222 595l81 139h66l-95 -139h-52zM40 262q0 132 62 203t168 71q84 0 143 -46.5t71 -133.5l-59 -6q-12 66 -54 101t-101 35q-75 0 -121 -59.5t-46 -164.5t46.5 -164.5t123.5 -59.5q60 0 102 36.5t54 105.5l60 -6q-13 -89 -71.5 -137.5t-144.5 -48.5q-108 0 -170.5 71
t-62.5 203z" />
    <glyph glyph-name="Cdotaccent" unicode="&#x10a;" horiz-adv-x="645" 
d="M287 767v89h72v-89h-72zM46 350q0 160 74.5 261t214.5 101q110 0 182 -61.5t85 -165.5l-62 -6q-10 81 -67 130t-138 49q-108 0 -165.5 -88.5t-57.5 -219.5q0 -132 60 -220t170 -88q87 0 141 54t63 138l62 -6q-13 -106 -81.5 -173t-184.5 -67q-143 0 -219.5 99t-76.5 263z
" />
    <glyph glyph-name="cdotaccent" unicode="&#x10b;" horiz-adv-x="521" 
d="M228 616v103h67v-103h-67zM40 262q0 132 62 203t168 71q84 0 143 -46.5t71 -133.5l-59 -6q-12 66 -54 101t-101 35q-75 0 -121 -59.5t-46 -164.5t46.5 -164.5t123.5 -59.5q60 0 102 36.5t54 105.5l60 -6q-13 -89 -71.5 -137.5t-144.5 -48.5q-108 0 -170.5 71t-62.5 203z
" />
    <glyph glyph-name="Ccaron" unicode="&#x10c;" horiz-adv-x="645" 
d="M411 878h51l-100 -113h-78l-100 113h51l88 -91zM46 350q0 160 74.5 261t214.5 101q110 0 182 -61.5t85 -165.5l-62 -6q-10 81 -67 130t-138 49q-108 0 -165.5 -88.5t-57.5 -219.5q0 -132 60 -220t170 -88q87 0 141 54t63 138l62 -6q-13 -106 -81.5 -173t-184.5 -67
q-143 0 -219.5 99t-76.5 263z" />
    <glyph glyph-name="ccaron" unicode="&#x10d;" horiz-adv-x="521" 
d="M343 731h50l-94 -139h-75l-94 139h51l81 -115zM40 262q0 132 62 203t168 71q84 0 143 -46.5t71 -133.5l-59 -6q-12 66 -54 101t-101 35q-75 0 -121 -59.5t-46 -164.5t46.5 -164.5t123.5 -59.5q60 0 102 36.5t54 105.5l60 -6q-13 -89 -71.5 -137.5t-144.5 -48.5
q-108 0 -170.5 71t-62.5 203z" />
    <glyph glyph-name="Dcaron" unicode="&#x10e;" horiz-adv-x="672" 
d="M424 878h51l-100 -113h-78l-100 113h51l88 -91zM88 0v700h240q142 0 220 -92t78 -258t-78 -258t-220 -92h-240zM154 54h169q113 0 175 79t62 217t-62 217t-175 79h-169v-592z" />
    <glyph glyph-name="dcaron" unicode="&#x10f;" horiz-adv-x="583" 
d="M40 262q0 128 59 201t156 73q63 0 111 -32t72 -87v319h63v-736h-57v122q-24 -63 -73.5 -98.5t-114.5 -35.5q-98 0 -157 73t-59 201zM564 592v144h51v-46l-24 -98h-27zM103 262q0 -101 45.5 -162.5t123.5 -61.5q77 0 123 61.5t46 162.5t-46 162.5t-123 61.5
q-78 0 -123.5 -61.5t-45.5 -162.5z" />
    <glyph glyph-name="Dcroat" unicode="&#x110;" horiz-adv-x="686" 
d="M343 700q142 0 219.5 -92t77.5 -258t-77.5 -258t-219.5 -92h-241v326h-70v48h70v326h241zM337 54q113 0 175 79t62 217t-62 217t-175 79h-169v-272h210v-48h-210v-272h169z" />
    <glyph glyph-name="dcroat" unicode="&#x111;" horiz-adv-x="574" 
d="M562 643v-37h-61v-606h-57v122q-24 -63 -73.5 -98.5t-114.5 -35.5q-98 0 -157 73t-59 201t59 201t156 73q63 0 111 -32t72 -87v189h-194v37h194v93h63v-93h61zM272 38q77 0 123 61.5t46 162.5t-46 162.5t-123 61.5q-78 0 -123.5 -61.5t-45.5 -162.5t45.5 -162.5
t123.5 -61.5z" />
    <glyph glyph-name="Emacron" unicode="&#x112;" horiz-adv-x="590" 
d="M154 778v46h288v-46h-288zM88 0v700h445v-53h-379v-266h302v-50h-302v-278h393v-53h-459z" />
    <glyph glyph-name="emacron" unicode="&#x113;" horiz-adv-x="539" 
d="M132 636v45h269v-45h-269zM40 262q0 133 65 203.5t170 70.5q108 0 167 -71t59 -210v-10h-398q4 -100 52 -155t127 -55q56 0 96 28t56 75l59 -5q-20 -68 -74.5 -106.5t-136.5 -38.5q-111 0 -176.5 70t-65.5 204zM104 289h334q-1 92 -45.5 146t-117.5 54q-72 0 -119 -52.5
t-52 -147.5z" />
    <glyph glyph-name="Edotaccent" unicode="&#x116;" horiz-adv-x="590" 
d="M262 767v89h72v-89h-72zM88 0v700h445v-53h-379v-266h302v-50h-302v-278h393v-53h-459z" />
    <glyph glyph-name="edotaccent" unicode="&#x117;" horiz-adv-x="539" 
d="M233 616v103h67v-103h-67zM40 262q0 133 65 203.5t170 70.5q108 0 167 -71t59 -210v-10h-398q4 -100 52 -155t127 -55q56 0 96 28t56 75l59 -5q-20 -68 -74.5 -106.5t-136.5 -38.5q-111 0 -176.5 70t-65.5 204zM104 289h334q-1 92 -45.5 146t-117.5 54q-72 0 -119 -52.5
t-52 -147.5z" />
    <glyph glyph-name="Eogonek" unicode="&#x118;" horiz-adv-x="590" 
d="M527 0q-51 -31 -78 -57.5t-27 -60.5q0 -40 38 -40q46 0 53 53l31 -7q-7 -38 -31 -59t-61 -21q-34 0 -55 18t-21 53q0 42 28.5 69t80.5 52h-397v700h445v-53h-379v-266h302v-50h-302v-278h393v-53h-20z" />
    <glyph glyph-name="eogonek" unicode="&#x119;" horiz-adv-x="539" 
d="M501 255v-10h-398q4 -100 52 -155t127 -55q56 0 96 28t56 75l59 -5q-24 -77 -87 -114q-80 -51 -106 -77.5t-26 -59.5q0 -40 38 -40q45 0 52 53l32 -7q-16 -80 -92 -80q-34 0 -55 18t-21 53q0 64 88 111q-22 -2 -34 -2q-111 0 -176.5 70t-65.5 204q0 133 65 203.5
t170 70.5q108 0 167 -71t59 -210zM104 289h334q-1 92 -45.5 146t-117.5 54q-72 0 -119 -52.5t-52 -147.5z" />
    <glyph glyph-name="Ecaron" unicode="&#x11a;" horiz-adv-x="590" 
d="M386 878h51l-99 -113h-79l-100 113h52l87 -91zM88 0v700h445v-53h-379v-266h302v-50h-302v-278h393v-53h-459z" />
    <glyph glyph-name="ecaron" unicode="&#x11b;" horiz-adv-x="539" 
d="M348 731h50l-94 -139h-75l-94 139h51l81 -115zM40 262q0 133 65 203.5t170 70.5q108 0 167 -71t59 -210v-10h-398q4 -100 52 -155t127 -55q56 0 96 28t56 75l59 -5q-20 -68 -74.5 -106.5t-136.5 -38.5q-111 0 -176.5 70t-65.5 204zM104 289h334q-1 92 -45.5 146
t-117.5 54q-72 0 -119 -52.5t-52 -147.5z" />
    <glyph glyph-name="Gbreve" unicode="&#x11e;" horiz-adv-x="658" 
d="M422 878h42q-2 -53 -36.5 -85.5t-98.5 -32.5t-98 33t-36 85h41q8 -76 93 -76q47 0 68.5 22t24.5 54zM46 350q0 160 75 261t215 101q106 0 177 -57t88 -155l-62 -7q-14 75 -70 120t-133 45q-73 0 -125 -44t-75.5 -112t-23.5 -152q0 -133 66 -220.5t189 -87.5q96 0 182 46
v213h-199v48h260v-297q-123 -64 -246 -64q-155 0 -236.5 100.5t-81.5 261.5z" />
    <glyph glyph-name="gbreve" unicode="&#x11f;" horiz-adv-x="570" 
d="M373 729h40q-2 -61 -34.5 -96.5t-95.5 -35.5q-62 0 -94.5 35.5t-34.5 96.5h40q8 -90 89 -90q83 0 90 90zM40 273q0 120 60 191.5t158 71.5q63 0 110 -32t72 -88v108h57v-499q0 -121 -52 -179t-166 -58q-95 0 -148.5 41t-56.5 123h58q6 -115 147 -115q82 -1 118.5 43
t36.5 128v112q-52 -110 -175 -110q-98 0 -158.5 71.5t-60.5 191.5zM103 272q0 -95 46 -154t123 -59t123 59t46 154t-46 154.5t-123 59.5t-123 -59t-46 -155z" />
    <glyph glyph-name="Gdotaccent" unicode="&#x120;" horiz-adv-x="658" 
d="M293 767v89h72v-89h-72zM46 350q0 160 75 261t215 101q106 0 177 -57t88 -155l-62 -7q-14 75 -70 120t-133 45q-73 0 -125 -44t-75.5 -112t-23.5 -152q0 -133 66 -220.5t189 -87.5q96 0 182 46v213h-199v48h260v-297q-123 -64 -246 -64q-155 0 -236.5 100.5t-81.5 261.5z
" />
    <glyph glyph-name="gdotaccent" unicode="&#x121;" horiz-adv-x="570" 
d="M250 616v103h67v-103h-67zM40 273q0 120 60 191.5t158 71.5q63 0 110 -32t72 -88v108h57v-499q0 -121 -52 -179t-166 -58q-95 0 -148.5 41t-56.5 123h58q6 -115 147 -115q82 -1 118.5 43t36.5 128v112q-52 -110 -175 -110q-98 0 -158.5 71.5t-60.5 191.5zM103 272
q0 -95 46 -154t123 -59t123 59t46 154t-46 154.5t-123 59.5t-123 -59t-46 -155z" />
    <glyph glyph-name="Gcommaaccent" unicode="&#x122;" horiz-adv-x="658" 
d="M46 350q0 160 75 261t215 101q106 0 177 -57t88 -155l-62 -7q-14 75 -70 120t-133 45q-73 0 -125 -44t-75.5 -112t-23.5 -152q0 -133 66 -220.5t189 -87.5q96 0 182 46v213h-199v48h260v-297q-123 -64 -246 -64q-155 0 -236.5 100.5t-81.5 261.5zM309 -205v151h61v-49
l-31 -102h-30z" />
    <glyph glyph-name="gcommaaccent" unicode="&#x123;" horiz-adv-x="570" 
d="M314 771v-150h-61v48l30 102h31zM40 273q0 120 60 191.5t158 71.5q63 0 110 -32t72 -88v108h57v-499q0 -121 -52 -179t-166 -58q-95 0 -148.5 41t-56.5 123h58q6 -115 147 -115q82 -1 118.5 43t36.5 128v112q-52 -110 -175 -110q-98 0 -158.5 71.5t-60.5 191.5zM103 272
q0 -95 46 -154t123 -59t123 59t46 154t-46 154.5t-123 59.5t-123 -59t-46 -155z" />
    <glyph glyph-name="Hbar" unicode="&#x126;" horiz-adv-x="698" 
d="M680 571v-42h-70v-529h-66v329h-390v-329h-66v529h-70v42h70v129h66v-129h390v129h66v-129h70zM544 383v146h-390v-146h390z" />
    <glyph glyph-name="hbar" unicode="&#x127;" horiz-adv-x="566" 
d="M321 536q85 0 131.5 -46t46.5 -138v-352h-63v332q0 153 -133 153q-79 0 -122.5 -49.5t-43.5 -136.5v-299h-62v606h-64v37h64v93h62v-93h192v-37h-192v-175q50 105 184 105z" />
    <glyph glyph-name="Imacron" unicode="&#x12a;" horiz-adv-x="242" 
d="M-23 778v46h288v-46h-288zM88 0v700h66v-700h-66z" />
    <glyph glyph-name="imacron" unicode="&#x12b;" horiz-adv-x="209" 
d="M-10 636v45h228v-45h-228zM73 0v524h63v-524h-63z" />
    <glyph glyph-name="Iogonek" unicode="&#x12e;" horiz-adv-x="242" 
d="M152 -105l31 -7q-7 -38 -31 -59t-61 -21q-34 0 -55 18.5t-21 55.5q0 40 25 67.5t72 50.5h-24v700h66v-700q-93 -56 -93 -115q0 -43 38 -43q46 0 53 53z" />
    <glyph glyph-name="iogonek" unicode="&#x12f;" horiz-adv-x="209" 
d="M138 719v-103h-67v103h67zM134 -105l31 -7q-7 -38 -31 -59t-61 -21q-34 0 -55 18.5t-21 55.5q0 40 25 67.5t72 50.5h-21v524h63v-524q-93 -56 -93 -115q0 -43 38 -43q46 0 53 53z" />
    <glyph glyph-name="Idotaccent" unicode="&#x130;" horiz-adv-x="242" 
d="M85 767v89h72v-89h-72zM88 0v700h66v-700h-66z" />
    <glyph glyph-name="dotlessi" unicode="&#x131;" horiz-adv-x="218" 
d="M78 0v524h63v-524h-63z" />
    <glyph glyph-name="Kcommaaccent" unicode="&#x136;" horiz-adv-x="652" 
d="M337 359l289 -359h-79l-261 329h-132v-329h-66v700h66v-319h132l245 319h76zM290 -205v151h61v-49l-30 -102h-31z" />
    <glyph glyph-name="kcommaaccent" unicode="&#x137;" horiz-adv-x="528" 
d="M268 270l248 -270h-80l-216 241h-84v-241h-63v736h63v-445h86l204 233h78zM235 -205v151h61v-49l-30 -102h-31z" />
    <glyph glyph-name="Lacute" unicode="&#x139;" horiz-adv-x="530" 
d="M92 764l90 114h69l-106 -114h-53zM88 0v700h66v-646h342v-54h-408z" />
    <glyph glyph-name="lacute" unicode="&#x13a;" horiz-adv-x="209" 
d="M73 800l90 114h69l-106 -114h-53zM73 736h63v-736h-63v736z" />
    <glyph glyph-name="Lcommaaccent" unicode="&#x13b;" horiz-adv-x="530" 
d="M88 0v700h66v-646h342v-54h-408zM235 -205v151h60v-49l-30 -102h-30z" />
    <glyph glyph-name="lcommaaccent" unicode="&#x13c;" horiz-adv-x="209" 
d="M73 736h63v-736h-63v736zM74 -205v151h61v-49l-30 -102h-31z" />
    <glyph glyph-name="Lcaron" unicode="&#x13d;" horiz-adv-x="530" 
d="M88 0v700h66v-646h342v-54h-408zM258 556v144h51v-46l-24 -98h-27z" />
    <glyph glyph-name="lcaron" unicode="&#x13e;" horiz-adv-x="218" 
d="M73 736h63v-736h-63v736zM199 592v144h52v-46l-25 -98h-27z" />
    <glyph glyph-name="Ldot" unicode="&#x13f;" horiz-adv-x="530" 
d="M88 0v700h66v-646h342v-54h-408zM292 315v96h77v-96h-77z" />
    <glyph glyph-name="ldot" unicode="&#x140;" horiz-adv-x="291" 
d="M73 736h63v-736h-63v736zM205 262v96h77v-96h-77z" />
    <glyph glyph-name="Lslash" unicode="&#x141;" horiz-adv-x="559" 
d="M183 54h342v-54h-408v291l-86 -35v46l86 35v363h66v-335l194 80v-46l-194 -80v-265z" />
    <glyph glyph-name="lslash" unicode="&#x142;" horiz-adv-x="236" 
d="M201 472v-51l-52 -49v-372h-62v313l-52 -49v51l52 49v372h62v-313z" />
    <glyph glyph-name="Nacute" unicode="&#x143;" horiz-adv-x="706" 
d="M481 878l-106 -114h-53l90 114h69zM554 700h64v-700h-111l-355 660v-660h-64v700h111l355 -660v660z" />
    <glyph glyph-name="nacute" unicode="&#x144;" horiz-adv-x="564" 
d="M242 595l80 139h67l-96 -139h-51zM73 0v524h57v-106q21 56 70 87t119 31q85 0 131.5 -46t46.5 -138v-352h-63v332q0 153 -133 153q-79 0 -122 -49.5t-43 -136.5v-299h-63z" />
    <glyph glyph-name="Ncommaaccent" unicode="&#x145;" horiz-adv-x="706" 
d="M554 700h64v-700h-111l-355 660v-660h-64v700h111l355 -660v660zM323 -205v151h60v-49l-30 -102h-30z" />
    <glyph glyph-name="ncommaaccent" unicode="&#x146;" horiz-adv-x="564" 
d="M73 0v524h57v-106q21 56 70 87t119 31q85 0 131.5 -46t46.5 -138v-352h-63v332q0 153 -133 153q-79 0 -122 -49.5t-43 -136.5v-299h-63zM251 -205v151h61v-49l-31 -102h-30z" />
    <glyph glyph-name="Ncaron" unicode="&#x147;" horiz-adv-x="706" 
d="M393 765h-79l-100 113h52l87 -91l88 91h51zM554 700h64v-700h-111l-355 660v-660h-64v700h111l355 -660v660z" />
    <glyph glyph-name="ncaron" unicode="&#x148;" horiz-adv-x="564" 
d="M362 731h51l-94 -139h-75l-94 139h50l81 -115zM73 0v524h57v-106q21 56 70 87t119 31q85 0 131.5 -46t46.5 -138v-352h-63v332q0 153 -133 153q-79 0 -122 -49.5t-43 -136.5v-299h-63z" />
    <glyph glyph-name="Eng" unicode="&#x14a;" horiz-adv-x="706" 
d="M554 700h64v-746q0 -167 -175 -167q-24 0 -64 4v52q24 -3 47 -3q60 0 94 27t34 96v37h-47l-355 660v-660h-64v700h111l355 -660v660z" />
    <glyph glyph-name="eng" unicode="&#x14b;" horiz-adv-x="564" 
d="M73 0v524h57v-106q21 56 70 87t119 31q85 0 131.5 -46t46.5 -138v-451q0 -62 -24.5 -87.5t-81.5 -25.5q-21 0 -61 4v50q24 -3 41 -3q36 0 49.5 16t13.5 63v414q0 153 -133 153q-79 0 -122 -49.5t-43 -136.5v-299h-63z" />
    <glyph glyph-name="Omacron" unicode="&#x14c;" horiz-adv-x="694" 
d="M203 778v46h288v-46h-288zM46 350q0 160 78.5 261t222.5 101t222.5 -101t78.5 -261t-78.5 -261t-222.5 -101t-222.5 101t-78.5 261zM112 350q0 -134 62 -221t173 -87t173 87t62 221t-62 221t-173 87t-173 -87t-62 -221z" />
    <glyph glyph-name="omacron" unicode="&#x14d;" horiz-adv-x="553" 
d="M142 636v45h268v-45h-268zM40 262q0 128 64 201t172 73t172.5 -73t64.5 -201t-64.5 -201t-172.5 -73t-172 73t-64 201zM103 262q0 -102 47 -163t126 -61t126.5 61t47.5 163t-47.5 163t-126.5 61t-126 -61t-47 -163z" />
    <glyph glyph-name="Ohungarumlaut" unicode="&#x150;" horiz-adv-x="694" 
d="M230 764l81 114h60l-88 -114h-53zM376 764l81 114h60l-87 -114h-54zM46 350q0 160 78.5 261t222.5 101t222.5 -101t78.5 -261t-78.5 -261t-222.5 -101t-222.5 101t-78.5 261zM112 350q0 -134 62 -221t173 -87t173 87t62 221t-62 221t-173 87t-173 -87t-62 -221z" />
    <glyph glyph-name="ohungarumlaut" unicode="&#x151;" horiz-adv-x="553" 
d="M171 595l75 139h53l-79 -139h-49zM303 595l75 139h53l-79 -139h-49zM40 262q0 128 64 201t172 73t172.5 -73t64.5 -201t-64.5 -201t-172.5 -73t-172 73t-64 201zM103 262q0 -102 47 -163t126 -61t126.5 61t47.5 163t-47.5 163t-126.5 61t-126 -61t-47 -163z" />
    <glyph glyph-name="OE" unicode="&#x152;" horiz-adv-x="996" 
d="M46 350q0 166 78 258t220 92h595v-53h-379v-266h302v-50h-302v-278h393v-53h-609q-142 0 -220 92t-78 258zM112 350q0 -138 62 -217t175 -79h145v592h-145q-113 0 -175 -79t-62 -217z" />
    <glyph glyph-name="oe" unicode="&#x153;" horiz-adv-x="949" 
d="M911 255v-10h-398q4 -100 52 -155t127 -55q56 0 95.5 28t56.5 75l59 -5q-20 -67 -74 -106t-135 -39q-163 0 -213 145q-25 -69 -78 -107t-128 -38q-107 0 -171 73t-64 201t64 201t171 73q75 0 128 -38t78 -107q25 71 78.5 108t127.5 37q107 0 165.5 -71t58.5 -210z
M514 289h334q-1 92 -45.5 146t-117.5 54q-72 0 -119 -52.5t-52 -147.5zM276 38q79 0 126.5 61t47.5 163t-47.5 163t-126.5 61t-126 -61t-47 -163t47 -163t126 -61z" />
    <glyph glyph-name="Racute" unicode="&#x154;" horiz-adv-x="644" 
d="M449 878l-106 -114h-53l90 114h69zM613 0h-81l-215 297h-163v-297h-66v700h272q98 0 162.5 -50.5t64.5 -152.5q0 -94 -55.5 -143.5t-143.5 -55.5zM154 348h200q75 0 121 38t46 111t-46 111.5t-121 38.5h-200v-299z" />
    <glyph glyph-name="racute" unicode="&#x155;" horiz-adv-x="380" 
d="M158 595l81 139h67l-96 -139h-52zM290 533q24 0 57 -5v-59q-37 5 -64 5q-146 0 -146 -200v-274h-64l1 524h57v-111q41 120 159 120z" />
    <glyph glyph-name="Rcommaaccent" unicode="&#x156;" horiz-adv-x="644" 
d="M388 298l225 -298h-81l-215 297h-163v-297h-66v700h272q98 0 162.5 -50.5t64.5 -152.5q0 -94 -55.5 -143.5t-143.5 -55.5zM154 348h200q75 0 121 38t46 111t-46 111.5t-121 38.5h-200v-299zM291 -205v151h61v-49l-30 -102h-31z" />
    <glyph glyph-name="rcommaaccent" unicode="&#x157;" horiz-adv-x="380" 
d="M290 533q24 0 57 -5v-59q-37 5 -64 5q-146 0 -146 -200v-274h-64l1 524h57v-111q41 120 159 120zM75 -205v151h60v-49l-30 -102h-30z" />
    <glyph glyph-name="Rcaron" unicode="&#x158;" horiz-adv-x="644" 
d="M361 765h-79l-99 113h51l88 -91l87 91h51zM613 0h-81l-215 297h-163v-297h-66v700h272q98 0 162.5 -50.5t64.5 -152.5q0 -94 -55.5 -143.5t-143.5 -55.5zM154 348h200q75 0 121 38t46 111t-46 111.5t-121 38.5h-200v-299z" />
    <glyph glyph-name="rcaron" unicode="&#x159;" horiz-adv-x="380" 
d="M279 731h50l-93 -139h-76l-93 139h50l81 -115zM290 533q24 0 57 -5v-59q-37 5 -64 5q-146 0 -146 -200v-274h-64l1 524h57v-111q41 120 159 120z" />
    <glyph glyph-name="Sacute" unicode="&#x15a;" horiz-adv-x="588" 
d="M262 764l90 114h69l-107 -114h-52zM35 207l62 3q3 -81 54 -125t147 -44q79 0 130 31.5t51 100.5q0 47 -29.5 78t-97.5 53l-143 46q-149 47 -149 180q0 91 62 136.5t160 45.5q104 0 170 -52t73 -145l-61 -4q-4 68 -53 108t-130 40q-72 0 -113.5 -32.5t-41.5 -92.5
q0 -94 117 -130l144 -45q81 -26 119.5 -69.5t38.5 -113.5q0 -93 -65.5 -140.5t-181.5 -47.5q-124 0 -191 57t-72 162z" />
    <glyph glyph-name="sacute" unicode="&#x15b;" horiz-adv-x="478" 
d="M196 595l81 139h67l-96 -139h-52zM27 144l58 3q10 -112 153 -112q65 0 104 25t39 70q0 34 -25 56t-84 40l-111 34q-118 36 -118 140q0 68 48.5 102t131.5 34q90 0 145.5 -37.5t63.5 -112.5l-58 -3q-6 53 -47.5 79.5t-103.5 26.5q-53 2 -85.5 -21.5t-32.5 -66.5
q0 -64 92 -93l111 -34q68 -21 101.5 -54.5t33.5 -87.5q0 -68 -53.5 -106t-152.5 -38q-197 0 -210 156z" />
    <glyph glyph-name="Scedilla" unicode="&#x15e;" horiz-adv-x="588" 
d="M545 176q0 -92 -65.5 -140t-180.5 -48l-29 -51q24 11 45 11q30 0 54 -19t24 -56q0 -39 -26 -58t-62 -19t-60 17t-31 48l36 3q8 -37 51 -37q21 0 34.5 11.5t13.5 34.5t-13.5 34t-32.5 11q-22 0 -42 -11l-32 14l36 68q-108 7 -166.5 63.5t-63.5 154.5l62 3q3 -81 54 -125
t147 -44q79 0 130 31.5t51 100.5q0 47 -29.5 78t-97.5 53l-143 46q-149 47 -149 180q0 91 62 136.5t160 45.5q104 0 170 -52t73 -145l-61 -4q-4 68 -53 108t-130 40q-72 0 -113.5 -32.5t-41.5 -92.5q0 -94 117 -130l144 -45q81 -26 119.5 -69.5t38.5 -113.5z" />
    <glyph glyph-name="scedilla" unicode="&#x15f;" horiz-adv-x="478" 
d="M443 132q0 -67 -52 -105t-149 -39l-29 -51q24 11 45 11q29 0 53.5 -19t24.5 -56q0 -39 -26 -58t-62 -19t-60 17t-31 48l36 3q8 -37 51 -37q21 0 34.5 11.5t13.5 34.5q0 45 -47 45q-21 0 -41 -11l-32 14l36 68q-169 11 -181 155l58 3q10 -112 153 -112q65 0 104 25t39 70
q0 34 -25 56t-84 40l-111 34q-118 36 -118 140q0 68 48.5 102t131.5 34q90 0 145.5 -37.5t63.5 -112.5l-58 -3q-6 53 -47.5 79.5t-103.5 26.5q-53 2 -85.5 -21.5t-32.5 -66.5q0 -64 92 -93l111 -34q68 -21 101.5 -54.5t33.5 -87.5z" />
    <glyph glyph-name="Scaron" unicode="&#x160;" horiz-adv-x="588" 
d="M381 878h51l-100 -113h-78l-100 113h51l88 -91zM35 207l62 3q3 -81 54 -125t147 -44q79 0 130 31.5t51 100.5q0 47 -29.5 78t-97.5 53l-143 46q-149 47 -149 180q0 91 62 136.5t160 45.5q104 0 170 -52t73 -145l-61 -4q-4 68 -53 108t-130 40q-72 0 -113.5 -32.5
t-41.5 -92.5q0 -94 117 -130l144 -45q81 -26 119.5 -69.5t38.5 -113.5q0 -93 -65.5 -140.5t-181.5 -47.5q-124 0 -191 57t-72 162z" />
    <glyph glyph-name="scaron" unicode="&#x161;" horiz-adv-x="478" 
d="M317 731h50l-93 -139h-76l-93 139h50l81 -115zM27 144l58 3q10 -112 153 -112q65 0 104 25t39 70q0 34 -25 56t-84 40l-111 34q-118 36 -118 140q0 68 48.5 102t131.5 34q90 0 145.5 -37.5t63.5 -112.5l-58 -3q-6 53 -47.5 79.5t-103.5 26.5q-53 2 -85.5 -21.5
t-32.5 -66.5q0 -64 92 -93l111 -34q68 -21 101.5 -54.5t33.5 -87.5q0 -68 -53.5 -106t-152.5 -38q-197 0 -210 156z" />
    <glyph glyph-name="uni0162" unicode="&#x162;" horiz-adv-x="561" 
d="M313 0h-18l-35 -63q24 11 44 11q30 0 54.5 -19t24.5 -56q0 -39 -26.5 -58t-62.5 -19q-35 0 -59.5 17t-31.5 48l37 3q6 -37 51 -37q21 0 34.5 11.5t13.5 34.5t-13.5 34t-33.5 11q-22 0 -42 -11l-31 14l42 79h-14v646h-221v54h508v-54h-221v-646z" />
    <glyph glyph-name="uni0163" unicode="&#x163;" horiz-adv-x="357" 
d="M253 -52q30 0 54.5 -19t24.5 -56q0 -39 -26.5 -58t-62.5 -19q-35 0 -59.5 17t-31.5 48l37 3q6 -37 50 -37q49 0 49 46q0 23 -13.5 34t-33.5 11q-22 0 -42 -11l-32 14l41 75q-44 9 -61 39.5t-17 91.5v349h-111v46h87q16 0 22 6.5t6 22.5v86h58v-113h130v-48h-130v-339
q0 -54 14 -74t55 -20q24 0 61 5v-50q-36 -6 -70 -6h-12l-31 -55q22 11 44 11z" />
    <glyph glyph-name="Tcaron" unicode="&#x164;" horiz-adv-x="561" 
d="M368 878h51l-99 -113h-79l-100 113h52l87 -91zM26 646v54h508v-54h-221v-646h-66v646h-221z" />
    <glyph glyph-name="tcaron" unicode="&#x165;" horiz-adv-x="356" 
d="M257 592v144h52v-46l-25 -98h-27zM322 476h-130v-339q0 -54 14 -74t55 -20q24 0 61 5v-50q-36 -6 -70 -6q-70 0 -96 30.5t-26 104.5v349h-111v46h87q16 0 22 6.5t6 22.5v86h58v-113h130v-48z" />
    <glyph glyph-name="Tbar" unicode="&#x166;" horiz-adv-x="561" 
d="M534 646h-221v-225h150v-42h-150v-379h-66v379h-150v42h150v225h-221v54h508v-54z" />
    <glyph glyph-name="tbar" unicode="&#x167;" horiz-adv-x="357" 
d="M322 476h-130v-161h126v-46h-126v-132q0 -54 14 -74t55 -20q24 0 61 5v-50q-36 -6 -70 -6q-70 0 -96 30.5t-26 104.5v142h-99v46h99v161h-111v46h87q16 0 22 6.5t6 22.5v86h58v-113h130v-48z" />
    <glyph glyph-name="Umacron" unicode="&#x16a;" horiz-adv-x="702" 
d="M207 778v46h288v-46h-288zM88 259v441h66v-435q0 -115 49 -169t148 -54t148 54t49 169v435h66v-441q0 -137 -65 -204t-198 -67q-134 0 -198.5 66.5t-64.5 204.5z" />
    <glyph glyph-name="umacron" unicode="&#x16b;" horiz-adv-x="564" 
d="M149 636v45h268v-45h-268zM429 524h62v-524h-57v113q-22 -59 -70 -92t-119 -33q-84 0 -131 47.5t-47 142.5v346h63v-327q0 -158 134 -158q78 0 121.5 54t43.5 142v289z" />
    <glyph glyph-name="Uring" unicode="&#x16e;" horiz-adv-x="702" 
d="M351 929q39 0 68.5 -23.5t29.5 -66.5q0 -44 -29.5 -67.5t-68.5 -23.5q-40 0 -69 23.5t-29 67.5t29 67t69 23zM351 783q25 0 42.5 15.5t17.5 40.5t-17.5 40t-42.5 15t-42.5 -15t-17.5 -40t17.5 -40.5t42.5 -15.5zM88 259v441h66v-435q0 -115 49 -169t148 -54t148 54
t49 169v435h66v-441q0 -137 -65 -204t-198 -67q-134 0 -198.5 66.5t-64.5 204.5z" />
    <glyph glyph-name="uring" unicode="&#x16f;" horiz-adv-x="564" 
d="M283 777q40 0 69.5 -23.5t29.5 -68.5t-29.5 -68.5t-69.5 -23.5t-69 23.5t-29 68.5t29 68.5t69 23.5zM283 627q25 0 42.5 15.5t17.5 42.5q0 26 -17.5 41.5t-42.5 15.5t-42 -15.5t-17 -41.5q0 -27 17 -42.5t42 -15.5zM429 524h62v-524h-57v113q-22 -59 -70 -92t-119 -33
q-84 0 -131 47.5t-47 142.5v346h63v-327q0 -158 134 -158q78 0 121.5 54t43.5 142v289z" />
    <glyph glyph-name="Uhungarumlaut" unicode="&#x170;" horiz-adv-x="702" 
d="M234 764l80 114h61l-88 -114h-53zM380 764l81 114h60l-87 -114h-54zM88 259v441h66v-435q0 -115 49 -169t148 -54t148 54t49 169v435h66v-441q0 -137 -65 -204t-198 -67q-134 0 -198.5 66.5t-64.5 204.5z" />
    <glyph glyph-name="uhungarumlaut" unicode="&#x171;" horiz-adv-x="564" 
d="M177 595l76 139h53l-80 -139h-49zM310 595l75 139h53l-79 -139h-49zM429 524h62v-524h-57v113q-22 -59 -70 -92t-119 -33q-84 0 -131 47.5t-47 142.5v346h63v-327q0 -158 134 -158q78 0 121.5 54t43.5 142v289z" />
    <glyph glyph-name="Uogonek" unicode="&#x172;" horiz-adv-x="702" 
d="M548 700h66v-441q0 -217 -165 -260q-49 -30 -76 -57t-27 -60q0 -40 38 -40q45 0 52 53l32 -7q-16 -80 -92 -80q-34 0 -55 18t-21 53q0 63 87 110q-11 -1 -36 -1q-134 0 -198.5 66.5t-64.5 204.5v441h66v-435q0 -115 49 -169t148 -54t148 54t49 169v435z" />
    <glyph glyph-name="uogonek" unicode="&#x173;" horiz-adv-x="564" 
d="M478 -105l31 -7q-7 -38 -31 -59t-61 -21q-34 0 -55 18t-21 53q0 42 28.5 69t80.5 52h-16v113q-22 -59 -70 -92t-119 -33q-84 0 -131 47.5t-47 142.5v346h63v-327q0 -158 134 -158q78 0 121.5 54t43.5 142v289h62v-524q-51 -32 -77.5 -58t-26.5 -60q0 -40 38 -40
q46 0 53 53z" />
    <glyph glyph-name="Wcircumflex" unicode="&#x174;" horiz-adv-x="944" 
d="M473 859l-88 -91h-51l99 113h79l99 -113h-51zM846 700h70l-187 -700h-99l-158 654l-160 -654h-99l-184 700h71l165 -651l160 651h96l158 -651z" />
    <glyph glyph-name="wcircumflex" unicode="&#x175;" horiz-adv-x="828" 
d="M414 710l-81 -115h-50l94 139h75l94 -139h-51zM735 524h68l-167 -524h-89l-132 490l-133 -490h-91l-165 524h70l143 -479l133 479h89l130 -474z" />
    <glyph glyph-name="Ycircumflex" unicode="&#x176;" horiz-adv-x="636" 
d="M318 859l-87 -91h-52l100 113h79l99 -113h-51zM544 700h73l-266 -405v-295h-66v294l-266 406h77l222 -352z" />
    <glyph glyph-name="ycircumflex" unicode="&#x177;" horiz-adv-x="527" 
d="M263 710l-81 -115h-50l94 139h75l94 -139h-51zM438 524h68l-209 -594q-27 -82 -57.5 -112t-96.5 -30q-24 0 -51 3v49q30 -2 47 -2q40 0 61 21t41 82l19 59h-34l-204 524h68l186 -498z" />
    <glyph glyph-name="Ydieresis" unicode="&#x178;" horiz-adv-x="636" 
d="M261 853v-85h-65v85h65zM440 853v-85h-65v85h65zM544 700h73l-266 -405v-295h-66v294l-266 406h77l222 -352z" />
    <glyph glyph-name="Zacute" unicode="&#x179;" horiz-adv-x="556" 
d="M406 878l-106 -114h-53l90 114h69zM104 54h423v-54h-505v46l416 600h-394v54h475v-46z" />
    <glyph glyph-name="zacute" unicode="&#x17a;" horiz-adv-x="461" 
d="M191 595l81 139h66l-95 -139h-52zM103 50h331v-50h-410v44l324 430h-305v50h384v-44z" />
    <glyph glyph-name="Zdotaccent" unicode="&#x17b;" horiz-adv-x="556" 
d="M314 856v-89h-72v89h72zM104 54h423v-54h-505v46l416 600h-394v54h475v-46z" />
    <glyph glyph-name="zdotaccent" unicode="&#x17c;" horiz-adv-x="461" 
d="M197 616v103h67v-103h-67zM103 50h331v-50h-410v44l324 430h-305v50h384v-44z" />
    <glyph glyph-name="Zcaron" unicode="&#x17d;" horiz-adv-x="556" 
d="M318 765h-79l-100 113h52l87 -91l88 91h51zM104 54h423v-54h-505v46l416 600h-394v54h475v-46z" />
    <glyph glyph-name="zcaron" unicode="&#x17e;" horiz-adv-x="461" 
d="M312 731h50l-94 -139h-75l-94 139h51l81 -115zM103 50h331v-50h-410v44l324 430h-305v50h384v-44z" />
    <glyph glyph-name="Scommaaccent" unicode="&#x218;" horiz-adv-x="588" 
d="M35 207l62 3q3 -81 54 -125t147 -44q79 0 130 31.5t51 100.5q0 47 -29.5 78t-97.5 53l-143 46q-149 47 -149 180q0 91 62 136.5t160 45.5q104 0 170 -52t73 -145l-61 -4q-4 68 -53 108t-130 40q-72 0 -113.5 -32.5t-41.5 -92.5q0 -94 117 -130l144 -45
q81 -26 119.5 -69.5t38.5 -113.5q0 -93 -65.5 -140.5t-181.5 -47.5q-124 0 -191 57t-72 162zM263 -205v151h60v-49l-30 -102h-30z" />
    <glyph glyph-name="scommaaccent" unicode="&#x219;" horiz-adv-x="478" 
d="M27 144l58 3q10 -112 153 -112q65 0 104 25t39 70q0 34 -25 56t-84 40l-111 34q-118 36 -118 140q0 68 48.5 102t131.5 34q90 0 145.5 -37.5t63.5 -112.5l-58 -3q-6 53 -47.5 79.5t-103.5 26.5q-53 2 -85.5 -21.5t-32.5 -66.5q0 -64 92 -93l111 -34q68 -21 101.5 -54.5
t33.5 -87.5q0 -68 -53.5 -106t-152.5 -38q-197 0 -210 156zM206 -205v151h60v-49l-30 -102h-30z" />
    <glyph glyph-name="uni021A" unicode="&#x21a;" horiz-adv-x="561" 
d="M26 646v54h508v-54h-221v-646h-66v646h-221zM250 -205v151h61v-49l-31 -102h-30z" />
    <glyph glyph-name="uni021B" unicode="&#x21b;" horiz-adv-x="357" 
d="M322 476h-130v-339q0 -54 14 -74t55 -20q24 0 61 5v-50q-36 -6 -70 -6q-70 0 -96 30.5t-26 104.5v349h-111v46h87q16 0 22 6.5t6 22.5v86h58v-113h130v-48zM201 -205v151h61v-49l-30 -102h-31z" />
    <glyph glyph-name="circumflex" unicode="&#x2c6;" horiz-adv-x="343" 
d="M40 595l94 139h75l94 -139h-51l-81 115l-81 -115h-50z" />
    <glyph glyph-name="caron" unicode="&#x2c7;" horiz-adv-x="343" 
d="M40 731h50l81 -115l81 115h51l-94 -139h-75z" />
    <glyph glyph-name="breve" unicode="&#x2d8;" horiz-adv-x="340" 
d="M40 729h40q8 -90 90 -90q83 0 89 90h41q-2 -61 -35 -96.5t-95 -35.5t-95 35.5t-35 96.5z" />
    <glyph glyph-name="dotaccent" unicode="&#x2d9;" horiz-adv-x="146" 
d="M40 616v103h66v-103h-66z" />
    <glyph glyph-name="ring" unicode="&#x2da;" horiz-adv-x="276" 
d="M40 685q0 45 29 68.5t69 23.5t69 -23.5t29 -68.5t-29 -68.5t-69 -23.5t-69 23.5t-29 68.5zM78 685q0 -27 17.5 -42.5t42.5 -15.5t42.5 15.5t17.5 42.5q0 26 -17.5 41.5t-42.5 15.5t-42.5 -15.5t-17.5 -41.5z" />
    <glyph glyph-name="ogonek" unicode="&#x2db;" horiz-adv-x="248" 
d="M40 -121q0 42 28.5 69t80.5 52h41q-51 -32 -77.5 -58t-26.5 -60q0 -40 38 -40q46 0 53 53l31 -7q-7 -38 -31 -59t-61 -21q-34 0 -55 18t-21 53z" />
    <glyph glyph-name="tilde" unicode="&#x2dc;" horiz-adv-x="369" 
d="M40 610q0 40 19 66.5t58 26.5q34 0 73.5 -29t58.5 -29q39 0 39 50h41q0 -40 -19 -66t-58 -26q-34 0 -73.5 28.5t-58.5 28.5t-29 -14t-10 -36h-41z" />
    <glyph glyph-name="hungarumlaut" unicode="&#x2dd;" horiz-adv-x="341" 
d="M40 595l75 139h54l-80 -139h-49zM172 595l75 139h54l-80 -139h-49z" />
    <glyph glyph-name="pi" unicode="&#x3c0;" horiz-adv-x="588" 
d="M515 45q13 0 32 3v-50q-34 -4 -50 -4q-45 0 -67 22.5t-22 78.5v381h-234v-476h-62v476h-81v48h516v-48h-80v-364q0 -41 12.5 -54t35.5 -13z" />
    <glyph glyph-name="uni0401" unicode="&#x401;" horiz-adv-x="590" 
d="M176 768v85h65v-85h-65zM355 768v85h65v-85h-65zM88 0v700h445v-53h-379v-266h302v-50h-302v-278h393v-53h-459z" />
    <glyph glyph-name="uni0404" unicode="&#x404;" horiz-adv-x="648" 
d="M548 223l63 -6q-16 -101 -86 -165t-183 -64q-141 0 -218.5 101t-77.5 261t74.5 261t214.5 101q108 0 181 -58.5t89 -158.5l-63 -6q-13 76 -70.5 122.5t-136.5 46.5q-101 0 -158 -78.5t-64 -198.5h299v-50h-300q5 -126 64.5 -207.5t165.5 -81.5q84 0 139 50.5t67 130.5z
" />
    <glyph glyph-name="uni0406" unicode="&#x406;" horiz-adv-x="242" 
d="M88 0v700h66v-700h-66z" />
    <glyph glyph-name="uni0407" unicode="&#x407;" horiz-adv-x="242" 
d="M19 768v85h59v-85h-59zM163 768v85h60v-85h-60zM88 0v700h66v-700h-66z" />
    <glyph glyph-name="uni040E" unicode="&#x40e;" horiz-adv-x="626" 
d="M314 760q-64 0 -98 32t-36 86h43q9 -79 91 -79q46 0 67 23t24 56h44q-2 -54 -36 -86t-99 -32zM532 700h74l-235 -552q-38 -91 -73.5 -122.5t-88.5 -31.5q-28 0 -71 5v51q34 -3 57 -3q35 0 57.5 19.5t47.5 76.5l15 38h-28l-261 519h75l236 -486z" />
    <glyph glyph-name="uni0410" unicode="&#x410;" horiz-adv-x="652" 
d="M560 0l-69 194h-332l-70 -194h-67l254 700h99l254 -700h-69zM324 662l-147 -416h296z" />
    <glyph glyph-name="uni0411" unicode="&#x411;" horiz-adv-x="628" 
d="M356 403q100 0 164.5 -50t64.5 -152q0 -101 -65 -151t-164 -50h-268v700h448v-52h-382v-245h202zM351 52q77 0 122.5 38.5t45.5 111.5t-45.5 111t-122.5 38h-197v-299h197z" />
    <glyph glyph-name="uni0412" unicode="&#x412;" horiz-adv-x="647" 
d="M408 358q89 -6 140.5 -52t51.5 -124q0 -86 -60 -134t-164 -48h-288v700h286q95 0 151.5 -45t56.5 -129q0 -73 -45.5 -116.5t-128.5 -51.5zM154 648v-267h223q62 0 100.5 36.5t38.5 99.5t-40 97t-108 34h-214zM371 52q75 0 119 35.5t44 102.5t-43 104t-116 37h-221v-279
h217z" />
    <glyph glyph-name="uni0413" unicode="&#x413;" horiz-adv-x="525" 
d="M88 0v700h408v-54h-342v-646h-66z" />
    <glyph glyph-name="uni0414" unicode="&#x414;" horiz-adv-x="636" 
d="M560 54h58v-219h-61v165h-484v-165h-61v219h47q40 85 57.5 240.5t28.5 405.5h415v-646zM494 54v592h-289q-13 -263 -34 -397q-16 -113 -50 -195h373z" />
    <glyph glyph-name="uni0415" unicode="&#x415;" horiz-adv-x="590" 
d="M88 0v700h445v-53h-379v-266h302v-50h-302v-278h393v-53h-459z" />
    <glyph glyph-name="uni0416" unicode="&#x416;" horiz-adv-x="993" 
d="M967 0h-78l-245 329h-116v-329h-65v329h-114l-245 -329h-78l271 359l-262 341h75l237 -319h116v319h65v-319h118l237 319h75l-262 -341z" />
    <glyph glyph-name="uni0417" unicode="&#x417;" horiz-adv-x="592" 
d="M338 358q99 -6 152.5 -52t53.5 -127q0 -91 -66.5 -141t-182.5 -50q-122 0 -187.5 55t-74.5 159l63 5q6 -81 57 -124t142 -43q86 0 134.5 37.5t48.5 109.5q0 70 -46.5 107t-134.5 37h-96v50h99q77 0 118.5 36.5t41.5 101.5q0 68 -44 104.5t-119 36.5q-76 0 -128.5 -38.5
t-58.5 -116.5l-63 6q10 102 77 151.5t173 49.5q105 0 167 -47.5t62 -134.5q0 -75 -48 -120t-140 -52z" />
    <glyph glyph-name="uni0418" unicode="&#x418;" horiz-adv-x="710" 
d="M520 700h102v-700h-65v653l-366 -653h-103v700h65v-653z" />
    <glyph glyph-name="uni0419" unicode="&#x419;" horiz-adv-x="710" 
d="M355 760q-64 0 -98 32t-36 86h43q9 -79 91 -79t91 79h44q-2 -54 -36 -86t-99 -32zM520 700h102v-700h-65v653l-366 -653h-103v700h65v-653z" />
    <glyph glyph-name="uni041A" unicode="&#x41a;" horiz-adv-x="652" 
d="M626 0h-79l-261 329h-132v-329h-66v700h66v-319h132l245 319h76l-270 -341z" />
    <glyph glyph-name="uni041B" unicode="&#x41b;" horiz-adv-x="676" 
d="M156 700h432v-700h-66v646h-305q-13 -354 -13 -360q-12 -196 -55 -254q-28 -38 -78 -38q-25 0 -52 4v53q21 -3 39 -3q16 0 28 9.5t21 31t15.5 46t11 65t7.5 76t5 92t3.5 100.5t3 113t3.5 119z" />
    <glyph glyph-name="uni041C" unicode="&#x41c;" horiz-adv-x="885" 
d="M682 700h115l-1 -700h-64l1 661l-245 -661h-92l-244 659v-659h-64v700h115l240 -661z" />
    <glyph glyph-name="uni041D" unicode="&#x41d;" horiz-adv-x="698" 
d="M544 700h66v-700h-66v329h-390v-329h-66v700h66v-317h390v317z" />
    <glyph glyph-name="uni041E" unicode="&#x41e;" horiz-adv-x="694" 
d="M46 350q0 160 78.5 261t222.5 101t222.5 -101t78.5 -261t-78.5 -261t-222.5 -101t-222.5 101t-78.5 261zM112 350q0 -134 62 -221t173 -87t173 87t62 221t-62 221t-173 87t-173 -87t-62 -221z" />
    <glyph glyph-name="uni041F" unicode="&#x41f;" horiz-adv-x="694" 
d="M606 700v-700h-66v646h-386v-646h-66v700h518z" />
    <glyph glyph-name="uni0420" unicode="&#x420;" horiz-adv-x="622" 
d="M88 0v700h264q98 0 162.5 -51.5t64.5 -155.5t-63.5 -154t-161.5 -50h-200v-289h-66zM154 341h192q76 0 121.5 38t45.5 114t-45.5 114.5t-121.5 38.5h-192v-305z" />
    <glyph glyph-name="uni0421" unicode="&#x421;" horiz-adv-x="645" 
d="M46 350q0 160 74.5 261t214.5 101q110 0 182 -61.5t85 -165.5l-62 -6q-10 81 -67 130t-138 49q-108 0 -165.5 -88.5t-57.5 -219.5q0 -132 60 -220t170 -88q87 0 141 54t63 138l62 -6q-13 -106 -81.5 -173t-184.5 -67q-143 0 -219.5 99t-76.5 263z" />
    <glyph glyph-name="uni0422" unicode="&#x422;" horiz-adv-x="561" 
d="M26 646v54h508v-54h-221v-646h-66v646h-221z" />
    <glyph glyph-name="uni0423" unicode="&#x423;" horiz-adv-x="626" 
d="M532 700h74l-235 -552q-38 -91 -73.5 -122.5t-88.5 -31.5q-28 0 -71 5v51q34 -3 57 -3q35 0 57.5 19.5t47.5 76.5l15 38h-28l-261 519h75l236 -486z" />
    <glyph glyph-name="uni0424" unicode="&#x424;" horiz-adv-x="817" 
d="M456 650q142 0 230 -71t88 -211t-88 -211t-230 -71h-15v-86h-65v86h-15q-142 0 -230.5 71t-88.5 211t88.5 211t230.5 71h15v62h65v-62h15zM365 138h11v460h-11q-113 0 -185 -57.5t-72 -172.5t72 -172.5t185 -57.5zM451 138q113 0 185 57.5t72 172.5t-72 172.5t-185 57.5
h-10v-460h10z" />
    <glyph glyph-name="uni0425" unicode="&#x425;" horiz-adv-x="636" 
d="M31 0l247 356l-230 344h79l190 -292l190 292h75l-228 -342l249 -358h-79l-209 306l-209 -306h-75z" />
    <glyph glyph-name="uni0426" unicode="&#x426;" horiz-adv-x="682" 
d="M88 0v700h66v-646h386v646h66v-646h58v-219h-61v165h-515z" />
    <glyph glyph-name="uni0427" unicode="&#x427;" horiz-adv-x="647" 
d="M493 700h66v-700h-66v316q-100 -35 -208 -35q-112 0 -167 51t-55 159v209h66v-198q0 -90 42.5 -128.5t132.5 -38.5q100 0 189 37v328z" />
    <glyph glyph-name="uni0428" unicode="&#x428;" horiz-adv-x="971" 
d="M88 0v700h65v-646h300v646h65v-646h301v646h64v-700h-795z" />
    <glyph glyph-name="uni0429" unicode="&#x429;" horiz-adv-x="960" 
d="M88 0v700h65v-646h300v646h65v-646h301v646h64v-646h59v-219h-61v165h-793z" />
    <glyph glyph-name="uni042A" unicode="&#x42a;" horiz-adv-x="711" 
d="M447 407q99 0 163 -50.5t64 -152.5t-64.5 -153t-162.5 -51h-258v646h-166v54h232v-293h192zM441 54q75 0 121 38t46 112t-46 111.5t-121 37.5h-186v-299h186z" />
    <glyph glyph-name="uni042B" unicode="&#x42b;" horiz-adv-x="811" 
d="M332 407q99 0 163 -50.5t64 -152.5t-64.5 -153t-162.5 -51h-244v700h66v-293h178zM657 700h66v-700h-66v700zM326 54q75 0 121 38t46 112t-46 111.5t-121 37.5h-172v-299h172z" />
    <glyph glyph-name="uni042C" unicode="&#x42c;" horiz-adv-x="610" 
d="M346 407q99 0 163 -50.5t64 -152.5t-64.5 -153t-162.5 -51h-258v700h66v-293h192zM340 54q75 0 121 38t46 112t-46 111.5t-121 37.5h-186v-299h186z" />
    <glyph glyph-name="uni042D" unicode="&#x42d;" horiz-adv-x="648" 
d="M313 712q140 0 214.5 -101t74.5 -261t-77.5 -261t-218.5 -101q-113 0 -182.5 64t-85.5 165l62 6q12 -80 67 -130.5t139 -50.5q106 0 165.5 81.5t64.5 207.5h-300v50h299q-6 120 -63.5 198.5t-158.5 78.5q-78 0 -136 -46.5t-71 -122.5l-63 6q17 100 90 158.5t180 58.5z
" />
    <glyph glyph-name="uni042E" unicode="&#x42e;" horiz-adv-x="933" 
d="M592 712q145 0 220 -99.5t75 -262.5t-75 -262.5t-220 -99.5q-140 0 -214.5 93.5t-80.5 247.5h-143v-329h-66v700h66v-317h144q8 149 82.5 239t211.5 90zM592 42q111 0 170 85.5t59 222.5t-59 222.5t-170 85.5t-170 -85.5t-59 -222.5t59 -222.5t170 -85.5z" />
    <glyph glyph-name="uni042F" unicode="&#x42f;" horiz-adv-x="644" 
d="M556 700v-700h-66v297h-185l-195 -297h-79l205 299q-83 9 -135 58.5t-52 139.5q0 102 64.5 152.5t162.5 50.5h280zM490 348v299h-208q-75 0 -121 -38.5t-46 -111.5t46 -111t121 -38h208z" />
    <glyph glyph-name="uni0430" unicode="&#x430;" horiz-adv-x="537" 
d="M42 133q0 140 198 159l167 16v63q0 51 -34.5 85t-102.5 33q-61 0 -101 -29t-43 -86h-58q3 81 57.5 121.5t144.5 40.5q98 0 149 -46t51 -131v-359h-58v115q-22 -60 -75 -93.5t-129 -33.5q-84 0 -125 40.5t-41 104.5zM105 135q0 -44 30 -72.5t91 -28.5q85 0 133 53.5
t48 140.5v37l-159 -16q-143 -15 -143 -114z" />
    <glyph glyph-name="uni0431" unicode="&#x431;" horiz-adv-x="559" 
d="M293 510q101 0 163.5 -70t62.5 -191t-64 -191t-173 -70q-236 0 -236 329q0 183 49 275.5t160 113.5q26 5 68.5 10.5t49.5 6.5q56 9 95 25v-50q-27 -16 -83 -26q-2 0 -98 -13q-44 -7 -73.5 -21t-57 -46t-43.5 -92.5t-21 -151.5q20 77 72 119.5t129 42.5zM282 38
q81 0 127.5 56.5t46.5 154.5t-46.5 154.5t-127.5 56.5q-80 0 -126.5 -56.5t-46.5 -154.5t46.5 -154.5t126.5 -56.5z" />
    <glyph glyph-name="uni0432" unicode="&#x432;" horiz-adv-x="529" 
d="M337 269q149 -13 149 -129q0 -63 -43.5 -101.5t-135.5 -38.5h-234v524h223q85 0 130 -36t45 -95q0 -106 -134 -124zM136 476v-187h154q60 0 89 25.5t29 68.5t-29.5 68t-92.5 25h-150zM298 48q125 0 125 99q0 98 -130 98h-157v-197h162z" />
    <glyph glyph-name="uni0433" unicode="&#x433;" horiz-adv-x="425" 
d="M73 0v524h324v-51h-261v-473h-63z" />
    <glyph glyph-name="uni0434" unicode="&#x434;" horiz-adv-x="533" 
d="M452 51h59v-193h-59v142h-380v-142h-59v193h36q13 26 22 65.5t15.5 117t9.5 122t10 168.5h346v-473zM389 51v422h-229q-9 -139 -13 -195.5t-13 -125t-22 -101.5h277z" />
    <glyph glyph-name="uni0435" unicode="&#x435;" horiz-adv-x="539" 
d="M40 262q0 133 65 203.5t170 70.5q108 0 167 -71t59 -210v-10h-398q4 -100 52 -155t127 -55q56 0 96 28t56 75l59 -5q-20 -68 -74.5 -106.5t-136.5 -38.5q-111 0 -176.5 70t-65.5 204zM104 289h334q-1 92 -45.5 146t-117.5 54q-72 0 -119 -52.5t-52 -147.5z" />
    <glyph glyph-name="uni0436" unicode="&#x436;" horiz-adv-x="782" 
d="M770 0h-79l-191 241h-78v-241h-62v241h-78l-191 -241h-79l221 270l-214 254h77l184 -233h80v233h62v-233h80l184 233h77l-214 -254z" />
    <glyph glyph-name="uni0437" unicode="&#x437;" horiz-adv-x="501" 
d="M301 270q156 -16 156 -134q0 -67 -50 -107.5t-160 -40.5q-204 0 -219 166l60 3q11 -120 159 -120q73 0 110.5 29t37.5 79q0 100 -157 100h-72v44h69q72 0 108 27t36 71q0 45 -36 72.5t-95 27.5q-61 0 -99.5 -29t-44.5 -86l-60 4q7 81 61 120.5t143 39.5q94 0 144 -37.5
t50 -99.5q0 -51 -34.5 -85t-106.5 -44z" />
    <glyph glyph-name="uni0438" unicode="&#x438;" horiz-adv-x="579" 
d="M410 524h96v-524h-62v479l-276 -479h-95v524h61v-479z" />
    <glyph glyph-name="uni0439" unicode="&#x439;" horiz-adv-x="579" 
d="M289 598q-62 0 -95 34t-35 91h44q9 -86 86 -86q43 0 63 25t23 61h44q-2 -57 -34.5 -91t-95.5 -34zM410 524h96v-524h-62v479l-276 -479h-95v524h61v-479z" />
    <glyph glyph-name="uni043A" unicode="&#x43a;" horiz-adv-x="528" 
d="M516 0h-80l-216 241h-84v-241h-63v524h63v-233h86l204 233h78l-236 -254z" />
    <glyph glyph-name="uni043B" unicode="&#x43b;" horiz-adv-x="539" 
d="M123 524h343v-524h-63v473h-224q-3 -51 -9 -139q-6 -110 -10 -156.5t-16.5 -98.5t-34.5 -68.5t-59 -16.5q-12 0 -36 2v51q10 -2 25 -2q40 0 53.5 77t24.5 284q4 76 6 118z" />
    <glyph glyph-name="uni043C" unicode="&#x43c;" horiz-adv-x="743" 
d="M564 524h106v-524h-61v479l-196 -479h-83l-196 479v-479h-61v524h106l193 -490z" />
    <glyph glyph-name="uni043D" unicode="&#x43d;" horiz-adv-x="570" 
d="M73 0v524h63v-231h298v231h63v-524h-63v241h-298v-241h-63z" />
    <glyph glyph-name="uni043E" unicode="&#x43e;" horiz-adv-x="553" 
d="M40 262q0 128 64 201t172 73t172.5 -73t64.5 -201t-64.5 -201t-172.5 -73t-172 73t-64 201zM103 262q0 -102 47 -163t126 -61t126.5 61t47.5 163t-47.5 163t-126.5 61t-126 -61t-47 -163z" />
    <glyph glyph-name="uni043F" unicode="&#x43f;" horiz-adv-x="564" 
d="M73 0v524h418v-524h-63v473h-292v-473h-63z" />
    <glyph glyph-name="uni0440" unicode="&#x440;" horiz-adv-x="574" 
d="M73 -200v724h57v-120q23 61 72.5 96.5t115.5 35.5q97 0 156 -73t59 -201t-59 -201t-156 -73q-62 0 -109.5 32t-72.5 89v-309h-63zM133 262q0 -101 45.5 -162.5t123.5 -61.5q77 0 123 61.5t46 162.5t-46 162.5t-123 61.5q-78 0 -123.5 -61.5t-45.5 -162.5z" />
    <glyph glyph-name="uni0441" unicode="&#x441;" horiz-adv-x="521" 
d="M40 262q0 132 62 203t168 71q84 0 143 -46.5t71 -133.5l-59 -6q-12 66 -54 101t-101 35q-75 0 -121 -59.5t-46 -164.5t46.5 -164.5t123.5 -59.5q60 0 102 36.5t54 105.5l60 -6q-13 -89 -71.5 -137.5t-144.5 -48.5q-108 0 -170.5 71t-62.5 203z" />
    <glyph glyph-name="uni0442" unicode="&#x442;" horiz-adv-x="468" 
d="M24 473v51h419v-51h-177v-473h-63v473h-179z" />
    <glyph glyph-name="uni0443" unicode="&#x443;" horiz-adv-x="527" 
d="M438 524h68l-209 -594q-27 -82 -57.5 -112t-96.5 -30q-24 0 -51 3v49q30 -2 47 -2q40 0 61 21t41 82l19 59h-34l-204 524h68l186 -498z" />
    <glyph glyph-name="uni0444" unicode="&#x444;" horiz-adv-x="686" 
d="M380 536q121 0 193 -72t72 -202t-72 -202t-193 -72h-6v-188h-61v188h-6q-121 0 -193.5 72t-72.5 202t72.5 202t193.5 72h6v200h61v-200h6zM309 38h4v448h-4q-94 0 -150 -59t-56 -165t56 -165t150 -59zM378 38q94 0 149.5 59t55.5 165t-55.5 165t-149.5 59h-4v-448h4z" />
    <glyph glyph-name="uni0445" unicode="&#x445;" horiz-adv-x="536" 
d="M511 0h-77l-168 220l-166 -220h-75l204 264l-196 260h78l156 -215l157 215h75l-194 -259z" />
    <glyph glyph-name="uni0446" unicode="&#x446;" horiz-adv-x="571" 
d="M73 0v524h63v-473h292v473h63v-473h58v-193h-59v142h-417z" />
    <glyph glyph-name="uni0447" unicode="&#x447;" horiz-adv-x="536" 
d="M400 524h63v-524h-63v228q-99 -22 -171 -22q-176 0 -176 168v150h62v-140q0 -67 33 -97t102 -30q56 0 150 24v243z" />
    <glyph glyph-name="uni0448" unicode="&#x448;" horiz-adv-x="840" 
d="M73 0v524h62v-473h254v473h62v-473h254v473h62v-524h-694z" />
    <glyph glyph-name="uni0449" unicode="&#x449;" horiz-adv-x="847" 
d="M73 0v524h62v-473h254v473h62v-473h254v473h62v-473h58v-193h-59v142h-693z" />
    <glyph glyph-name="uni044A" unicode="&#x44a;" horiz-adv-x="594" 
d="M368 313q189 0 189 -156q0 -157 -189 -157h-183h-32v473h-129v51h192v-211h152zM362 49q132 0 132 108t-132 108h-146v-216h146z" />
    <glyph glyph-name="uni044B" unicode="&#x44b;" horiz-adv-x="690" 
d="M276 313q189 0 189 -156q0 -157 -189 -157h-171h-32v524h63v-211h140zM554 524h63v-524h-63v524zM270 49q132 0 132 108t-132 108h-134v-216h134z" />
    <glyph glyph-name="uni044C" unicode="&#x44c;" horiz-adv-x="514" 
d="M288 313q189 0 189 -156q0 -157 -189 -157h-183h-32v524h63v-211h152zM282 49q132 0 132 108t-132 108h-146v-216h146z" />
    <glyph glyph-name="uni044D" unicode="&#x44d;" horiz-adv-x="520" 
d="M249 536q106 0 168 -71t62 -203t-62 -203t-170 -71q-84 0 -141.5 45.5t-72.5 130.5l60 4q14 -63 55.5 -97t98.5 -34q74 0 120 55t50 153h-223v44h222q-6 94 -51 146t-116 52q-56 0 -97.5 -32.5t-54.5 -93.5l-59 5q15 82 72.5 126t138.5 44z" />
    <glyph glyph-name="uni044E" unicode="&#x44e;" horiz-adv-x="757" 
d="M486 536q107 0 169 -71.5t62 -202.5t-62 -202.5t-169 -71.5q-102 0 -163.5 66t-66.5 187h-120v-241h-63v524h63v-231h121q7 116 68 179.5t161 63.5zM486 38q76 0 122 59t46 165t-46 165t-122 59t-122 -59t-46 -165t46 -165t122 -59z" />
    <glyph glyph-name="uni044F" unicode="&#x44f;" horiz-adv-x="531" 
d="M233 524h225v-524h-64v225h-136l-148 -225h-76l160 227q-68 8 -105.5 46.5t-37.5 100.5q0 71 47.5 110.5t134.5 39.5zM394 269v206h-154q-61 0 -93.5 -27.5t-32.5 -75.5t32.5 -75.5t93.5 -27.5h154z" />
    <glyph glyph-name="uni0451" unicode="&#x451;" horiz-adv-x="539" 
d="M157 616v100h59v-100h-59zM317 616v100h60v-100h-60zM40 262q0 133 65 203.5t170 70.5q108 0 167 -71t59 -210v-10h-398q4 -100 52 -155t127 -55q56 0 96 28t56 75l59 -5q-20 -68 -74.5 -106.5t-136.5 -38.5q-111 0 -176.5 70t-65.5 204zM104 289h334q-1 92 -45.5 146
t-117.5 54q-72 0 -119 -52.5t-52 -147.5z" />
    <glyph glyph-name="uni0454" unicode="&#x454;" horiz-adv-x="520" 
d="M426 168l61 -4q-15 -85 -73 -130.5t-141 -45.5q-108 0 -170.5 71t-62.5 203t62 203t168 71q82 0 139.5 -44t72.5 -126l-60 -5q-13 62 -54.5 94t-97.5 32q-70 0 -115 -52t-51 -146h221v-44h-222q4 -98 50 -153t120 -55q57 0 98.5 34t54.5 97z" />
    <glyph glyph-name="uni0456" unicode="&#x456;" horiz-adv-x="210" 
d="M72 616v103h66v-103h-66zM74 0v524h62v-524h-62z" />
    <glyph glyph-name="uni0457" unicode="&#x457;" horiz-adv-x="201" 
d="M5 616v100h56v-100h-56zM139 616v100h57v-100h-57zM69 0v524h63v-524h-63z" />
    <glyph glyph-name="uni045E" unicode="&#x45e;" horiz-adv-x="527" 
d="M263 598q-62 0 -94.5 34t-34.5 91h43q9 -86 86 -86q78 0 87 86h43q-2 -57 -34.5 -91t-95.5 -34zM438 524h68l-209 -594q-27 -82 -57.5 -112t-96.5 -30q-24 0 -51 3v49q30 -2 47 -2q40 0 61 21t41 82l19 59h-34l-204 524h68l186 -498z" />
    <glyph glyph-name="uni0490" unicode="&#x490;" horiz-adv-x="531" 
d="M88 0v700h347v170h61v-224h-342v-646h-66z" />
    <glyph glyph-name="uni0491" unicode="&#x491;" horiz-adv-x="429" 
d="M73 0v524h265v147h59v-198h-261v-473h-63z" />
    <glyph glyph-name="uni04C1" unicode="&#x4c1;" horiz-adv-x="993" 
d="M497 760q-64 0 -98.5 32t-36.5 86h44q9 -79 91 -79t91 79h44q-2 -54 -36.5 -86t-98.5 -32zM967 0h-78l-245 329h-116v-329h-65v329h-114l-245 -329h-78l271 359l-262 341h75l237 -319h116v319h65v-319h118l237 319h75l-262 -341z" />
    <glyph glyph-name="uni04C2" unicode="&#x4c2;" horiz-adv-x="782" 
d="M391 598q-62 0 -95 34t-35 91h44q3 -36 23 -61t63 -25q77 0 86 86h44q-2 -57 -35 -91t-95 -34zM770 0h-79l-191 241h-78v-241h-62v241h-78l-191 -241h-79l221 270l-214 254h77l184 -233h80v233h62v-233h80l184 233h77l-214 -254z" />
    <glyph glyph-name="Wgrave" unicode="&#x1e80;" horiz-adv-x="944" 
d="M504 764h-53l-106 114h69zM846 700h70l-187 -700h-99l-158 654l-160 -654h-99l-184 700h71l165 -651l160 651h96l158 -651z" />
    <glyph glyph-name="wgrave" unicode="&#x1e81;" horiz-adv-x="828" 
d="M454 595h-52l-96 139h67zM735 524h68l-167 -524h-89l-132 490l-133 -490h-91l-165 524h70l143 -479l133 479h89l130 -474z" />
    <glyph glyph-name="Wacute" unicode="&#x1e82;" horiz-adv-x="944" 
d="M600 878l-106 -114h-53l90 114h69zM846 700h70l-187 -700h-99l-158 654l-160 -654h-99l-184 700h71l165 -651l160 651h96l158 -651z" />
    <glyph glyph-name="wacute" unicode="&#x1e83;" horiz-adv-x="828" 
d="M522 734l-96 -139h-51l80 139h67zM735 524h68l-167 -524h-89l-132 490l-133 -490h-91l-165 524h70l143 -479l133 479h89l130 -474z" />
    <glyph glyph-name="Wdieresis" unicode="&#x1e84;" horiz-adv-x="944" 
d="M415 853v-85h-65v85h65zM595 853v-85h-65v85h65zM846 700h70l-187 -700h-99l-158 654l-160 -654h-99l-184 700h71l165 -651l160 651h96l158 -651z" />
    <glyph glyph-name="wdieresis" unicode="&#x1e85;" horiz-adv-x="828" 
d="M364 716v-100h-60v100h60zM524 716v-100h-59v100h59zM735 524h68l-167 -524h-89l-132 490l-133 -490h-91l-165 524h70l143 -479l133 479h89l130 -474z" />
    <glyph glyph-name="uni1E9E" unicode="&#x1e9e;" horiz-adv-x="635" 
d="M522 351q70 -55 70 -157q0 -98 -63 -150t-169 -52q-43 0 -80 8v51q37 -7 69 -7q77 0 127 39t50 118q0 77 -47.5 114.5t-125.5 37.5q-35 0 -81 -10v49l191 256h-178q-65 0 -103 -42t-38 -125v-481h-66v490q0 210 213 210h244v-44l-198 -260q116 12 185 -45z" />
    <glyph glyph-name="Ygrave" unicode="&#x1ef2;" horiz-adv-x="636" 
d="M350 764h-53l-106 114h69zM544 700h73l-266 -405v-295h-66v294l-266 406h77l222 -352z" />
    <glyph glyph-name="ygrave" unicode="&#x1ef3;" horiz-adv-x="527" 
d="M303 595h-52l-95 139h66zM438 524h68l-209 -594q-27 -82 -57.5 -112t-96.5 -30q-24 0 -51 3v49q30 -2 47 -2q40 0 61 21t41 82l19 59h-34l-204 524h68l186 -498z" />
    <glyph glyph-name="endash" unicode="&#x2013;" horiz-adv-x="548" 
d="M60 323h427v-49h-427v49z" />
    <glyph glyph-name="emdash" unicode="&#x2014;" horiz-adv-x="677" 
d="M60 323h556v-49h-556v49z" />
    <glyph glyph-name="quoteleft" unicode="&#x2018;" horiz-adv-x="168" 
d="M110 712v-190h-63v53l35 137h28z" />
    <glyph glyph-name="quoteright" unicode="&#x2019;" horiz-adv-x="168" 
d="M57 510v190h63v-53l-34 -137h-29z" />
    <glyph glyph-name="quotesinglbase" unicode="&#x201a;" horiz-adv-x="168" 
d="M57 -94v190h63v-53l-34 -137h-29z" />
    <glyph glyph-name="quotedblleft" unicode="&#x201c;" horiz-adv-x="294" 
d="M110 712v-190h-63v53l35 137h28zM237 712v-190h-63v53l35 137h28z" />
    <glyph glyph-name="quotedblright" unicode="&#x201d;" horiz-adv-x="294" 
d="M57 510v190h63v-53l-34 -137h-29zM184 510v190h63v-53l-35 -137h-28z" />
    <glyph glyph-name="quotedblbase" unicode="&#x201e;" horiz-adv-x="294" 
d="M57 -94v190h63v-53l-34 -137h-29zM184 -94v190h63v-53l-35 -137h-28z" />
    <glyph glyph-name="dagger" unicode="&#x2020;" horiz-adv-x="415" 
d="M357 524v-48h-120v-527h-60v527h-120v48h120v176h60v-176h120z" />
    <glyph glyph-name="daggerdbl" unicode="&#x2021;" horiz-adv-x="423" 
d="M361 476h-120v-293h120v-48h-120v-186h-60v186h-120v48h120v293h-120v48h120v176h60v-176h120v-48z" />
    <glyph glyph-name="bullet" unicode="&#x2022;" horiz-adv-x="359" 
d="M179 221q-41 0 -67.5 26.5t-26.5 67.5t26.5 67.5t67.5 25.5q41 1 68 -26t27 -67q0 -41 -27 -67.5t-68 -26.5z" />
    <glyph glyph-name="ellipsis" unicode="&#x2026;" horiz-adv-x="566" 
d="M65 0v96h77v-96h-77zM245 0v96h76v-96h-76zM425 0v96h76v-96h-76z" />
    <glyph glyph-name="perthousand" unicode="&#x2030;" horiz-adv-x="1106" 
d="M32 541q0 77 41 121t111 44t111 -44t41 -121q0 -78 -41 -122t-111 -44t-111 44t-41 122zM117 0l469 700h47l-468 -700h-48zM80 541q0 -59 27 -92.5t77 -33.5q49 0 76.5 33.5t27.5 92.5t-27.5 92t-76.5 33q-50 0 -77 -33t-27 -92zM415 161q0 76 40.5 120.5t111.5 44.5
t111 -44.5t40 -120.5q0 -77 -40 -122t-111 -45t-111.5 45t-40.5 122zM778 161q0 76 40.5 120.5t111.5 44.5t111.5 -44.5t40.5 -120.5q0 -77 -40.5 -122t-111.5 -45t-111.5 45t-40.5 122zM462 161q0 -59 27.5 -93.5t77.5 -34.5q49 0 76.5 34.5t27.5 93.5q0 58 -27.5 92.5
t-76.5 34.5q-50 0 -77.5 -34.5t-27.5 -92.5zM825 161q0 -59 27.5 -93.5t77.5 -34.5q49 0 76.5 34.5t27.5 93.5q0 58 -27.5 92.5t-76.5 34.5q-50 0 -77.5 -34.5t-27.5 -92.5z" />
    <glyph glyph-name="guilsinglleft" unicode="&#x2039;" horiz-adv-x="265" 
d="M220 451l-138 -171l138 -171h-66l-121 153v36l121 153h66z" />
    <glyph glyph-name="guilsinglright" unicode="&#x203a;" horiz-adv-x="265" 
d="M111 451l121 -153v-36l-121 -153h-66l138 171l-138 171h66z" />
    <glyph glyph-name="fraction" unicode="&#x2044;" horiz-adv-x="163" 
d="M-178 0l468 700h52l-468 -700h-52z" />
    <glyph glyph-name="uni2070" unicode="&#x2070;" horiz-adv-x="431" 
d="M46 548q0 105 44.5 165t124.5 60q81 0 125 -60t44 -165t-44 -165t-125 -60q-80 0 -124.5 60t-44.5 165zM99 548q0 -85 30.5 -134t85.5 -49q56 0 86.5 49t30.5 134t-30.5 133.5t-86.5 48.5q-55 0 -85.5 -48.5t-30.5 -133.5z" />
    <glyph glyph-name="uni2074" unicode="&#x2074;" horiz-adv-x="421" 
d="M319 476h73v-42h-73v-101h-52v101h-242v40l210 290h84v-288zM77 476h190v262z" />
    <glyph glyph-name="uni2075" unicode="&#x2075;" horiz-adv-x="388" 
d="M208 614q65 0 104 -37t39 -104q0 -70 -43.5 -108.5t-115.5 -38.5q-64 0 -107.5 31t-51.5 87l50 4q7 -39 37 -59.5t72 -20.5q46 0 76.5 27t30.5 78q0 52 -30 78t-76 26q-70 0 -104 -49l-46 4l19 232h266v-42h-226l-13 -153q43 45 119 45z" />
    <glyph glyph-name="uni2076" unicode="&#x2076;" horiz-adv-x="416" 
d="M229 610q64 0 106 -37t42 -104q0 -68 -43 -106.5t-117 -38.5q-171 0 -171 215q0 115 45 175t127 60q62 0 99.5 -32.5t42.5 -86.5l-50 -4q-4 36 -28 58.5t-64 22.5q-66 0 -98 -65q-21 -48 -21 -127q36 70 130 70zM217 366q49 0 78.5 28t29.5 75t-29.5 75t-78.5 28t-79 -28
t-30 -75t30 -75t79 -28z" />
    <glyph glyph-name="uni2077" unicode="&#x2077;" horiz-adv-x="334" 
d="M21 764h297v-36q-127 -196 -172 -395h-56q45 194 178 389h-247v42z" />
    <glyph glyph-name="uni2078" unicode="&#x2078;" horiz-adv-x="410" 
d="M264 558q50 -11 79 -40.5t29 -73.5q0 -57 -47 -88.5t-120 -31.5t-120 31.5t-47 88.5q0 44 29 73.5t80 40.5q-98 22 -98 104q0 54 44 83t112 29t112 -29t44 -83q0 -41 -25.5 -67.5t-71.5 -36.5zM101 655q0 -38 28.5 -58.5t75.5 -20.5t76 20.5t29 58.5t-29 58.5t-76 20.5
t-75.5 -20.5t-28.5 -58.5zM205 364q52 0 83.5 22.5t31.5 63.5t-31.5 63.5t-83.5 22.5t-83.5 -22.5t-31.5 -63.5t31.5 -63.5t83.5 -22.5z" />
    <glyph glyph-name="uni2079" unicode="&#x2079;" horiz-adv-x="416" 
d="M199 774q170 0 170 -215q0 -235 -170 -235q-63 0 -100.5 32t-42.5 87l49 4q4 -36 28.5 -58.5t65.5 -22.5q70 0 100 73q18 44 18 123q-36 -71 -131 -71q-63 0 -105 37t-42 102q0 68 43 106t117 38zM199 529q49 0 78.5 27.5t29.5 73.5t-29.5 74t-78.5 28t-78.5 -28
t-29.5 -74t29.5 -73.5t78.5 -27.5z" />
    <glyph glyph-name="uni2080" unicode="&#x2080;" horiz-adv-x="431" 
d="M46 98q0 105 44.5 165t124.5 60q81 0 125 -60t44 -165t-44 -165t-125 -60q-80 0 -124.5 60t-44.5 165zM99 98q0 -85 30.5 -134t85.5 -49q56 0 86.5 49t30.5 134t-30.5 133.5t-86.5 48.5q-55 0 -85.5 -48.5t-30.5 -133.5z" />
    <glyph glyph-name="uni2081" unicode="&#x2081;" horiz-adv-x="256" 
d="M123 315h43v-431h-52v367l-80 -68v57z" />
    <glyph glyph-name="uni2082" unicode="&#x2082;" horiz-adv-x="347" 
d="M87 -77h232v-42h-300v39l149 151q33 34 48 51t27.5 40.5t12.5 46.5q0 36 -22 54.5t-58 18.5q-88 0 -97 -111l-50 4q4 75 44 112t103 37q60 0 96.5 -30t36.5 -85q0 -39 -21.5 -73t-74.5 -86z" />
    <glyph glyph-name="uni2083" unicode="&#x2083;" horiz-adv-x="364" 
d="M279 117q51 -31 51 -103q0 -65 -44 -101t-116 -36q-66 0 -107.5 32t-48.5 96l50 3q10 -89 106 -89q48 0 78 25t30 70q0 42 -27 66.5t-79 24.5q-34 0 -65 -6v36l145 138h-218v42h284v-37l-153 -137q71 5 114 -24z" />
    <glyph glyph-name="uni2084" unicode="&#x2084;" horiz-adv-x="421" 
d="M319 27h73v-42h-73v-101h-52v101h-242v40l210 290h84v-288zM77 27h190v262z" />
    <glyph glyph-name="uni2085" unicode="&#x2085;" horiz-adv-x="388" 
d="M208 165q65 0 104 -37t39 -104q0 -70 -43.5 -108.5t-115.5 -38.5q-64 0 -107.5 31t-51.5 87l50 4q7 -39 37 -59.5t72 -20.5q46 0 76.5 27t30.5 78q0 52 -30 78t-76 26q-70 0 -104 -49l-46 4l19 232h266v-42h-226l-13 -153q43 45 119 45z" />
    <glyph glyph-name="uni2086" unicode="&#x2086;" horiz-adv-x="416" 
d="M229 160q64 0 106 -37t42 -104q0 -68 -43 -106.5t-117 -38.5q-171 0 -171 215q0 115 45 175t127 60q62 0 99.5 -32.5t42.5 -86.5l-50 -4q-4 36 -28 58.5t-64 22.5q-66 0 -98 -65q-21 -48 -21 -127q36 70 130 70zM217 -84q49 0 78.5 28t29.5 75t-29.5 75t-78.5 28t-79 -28
t-30 -75t30 -75t79 -28z" />
    <glyph glyph-name="uni2087" unicode="&#x2087;" horiz-adv-x="334" 
d="M21 315h297v-36q-127 -196 -172 -395h-56q45 194 178 389h-247v42z" />
    <glyph glyph-name="uni2088" unicode="&#x2088;" horiz-adv-x="410" 
d="M264 108q50 -11 79 -40.5t29 -73.5q0 -57 -47 -88.5t-120 -31.5t-120 31.5t-47 88.5q0 44 29 73.5t80 40.5q-98 22 -98 104q0 54 44 83t112 29t112 -29t44 -83q0 -41 -25.5 -67.5t-71.5 -36.5zM101 205q0 -38 28.5 -58.5t75.5 -20.5t76 20.5t29 58.5t-29 58.5t-76 20.5
t-75.5 -20.5t-28.5 -58.5zM205 -86q52 0 83.5 22.5t31.5 63.5t-31.5 63.5t-83.5 22.5t-83.5 -22.5t-31.5 -63.5t31.5 -63.5t83.5 -22.5z" />
    <glyph glyph-name="uni2089" unicode="&#x2089;" horiz-adv-x="416" 
d="M199 324q170 0 170 -215q0 -235 -170 -235q-63 0 -100.5 32t-42.5 87l49 4q4 -36 28.5 -58.5t65.5 -22.5q70 0 100 73q18 44 18 123q-36 -71 -131 -71q-63 0 -105 37t-42 102q0 68 43 106t117 38zM199 79q49 0 78.5 27.5t29.5 73.5t-29.5 74t-78.5 28t-78.5 -28
t-29.5 -74t29.5 -73.5t78.5 -27.5z" />
    <glyph glyph-name="Euro" unicode="&#x20ac;" horiz-adv-x="626" 
d="M534 208l59 -2q-16 -97 -79 -157.5t-165 -60.5q-115 0 -185.5 77t-86.5 205h-66v37h63q-1 12 -1 37t1 37h-61v37h64q16 128 83.5 205t181.5 77q94 0 159 -52t84 -141l-59 -4q-16 67 -65 106.5t-117 39.5q-85 0 -137 -64t-66 -167h291v-37h-295q0 -6 -0.5 -18.5
t-0.5 -18.5t0.5 -18.5t0.5 -18.5h293v-37h-289q15 -103 69 -167t140 -64q74 0 122.5 47t61.5 122z" />
    <glyph glyph-name="uni20B4" unicode="&#x20b4;" horiz-adv-x="521" 
d="M392 393q-22 -17 -55 -34l-89 -45h245v-33h-308q-74 -47 -74 -119q0 -63 41.5 -93.5t104.5 -30.5q69 0 114.5 35t49.5 109l59 -3q-13 -191 -222 -191q-97 0 -153.5 44.5t-56.5 127.5q0 72 51 121h-65v33h109q22 13 43 24l110 55h-262v34h316q52 42 52 105q0 55 -35 86.5
t-93 31.5q-53 0 -96 -28t-48 -93l-59 4q4 47 24.5 81.5t51 52t62 25.5t65.5 8q83 0 137 -42.5t54 -123.5q0 -63 -37 -107h65v-34h-101z" />
    <glyph glyph-name="uni20BD" unicode="&#x20bd;" horiz-adv-x="586" 
d="M330 296h-174v-82h225v-41h-225v-173h-63v173h-63v41h63v82h-63v48h63v344h63h173q93 0 153.5 -49.5t60.5 -148.5t-60 -146.5t-153 -47.5zM156 637v-293h166q72 0 115 37t43 109t-43.5 109.5t-114.5 37.5h-166z" />
    <glyph glyph-name="uni2116" unicode="&#x2116;" horiz-adv-x="1129" 
d="M906 333q-78 0 -124 51t-46 139q0 87 46 138t124 51q77 0 123 -51t46 -138q0 -88 -46 -139t-123 -51zM554 40v660h64v-700h-111l-355 660v-660h-64v700h111zM906 668q-53 0 -83.5 -39.5t-30.5 -105.5q0 -67 30.5 -106.5t83.5 -39.5q52 0 82.5 40t30.5 106t-30.5 105.5
t-82.5 39.5zM748 223v45h315v-45h-315z" />
    <glyph glyph-name="trademark" unicode="&#x2122;" horiz-adv-x="771" 
d="M16 666v34h269v-34h-113v-335h-42v335h-114zM645 700h72v-369h-41v341l-116 -341h-59l-116 339v-339h-41v369h72l115 -345z" />
    <glyph glyph-name="oneeighth" unicode="&#x215b;" horiz-adv-x="741" 
d="M98 340v300l-69 -50v51l79 59h38v-360h-48zM507 700h52l-468 -700h-52zM613 184q43 -8 68.5 -33t25.5 -61q0 -48 -41 -75t-105 -27t-105 26.5t-41 75.5q0 37 25 61.5t69 32.5q-85 18 -85 87q0 46 38.5 70.5t98.5 24.5q59 0 97.5 -24.5t38.5 -70.5q0 -69 -84 -87zM471 264
q0 -30 25 -46.5t65 -16.5t65 16.5t25 46.5q0 32 -24.5 48.5t-65.5 16.5t-65.5 -16.5t-24.5 -48.5zM561 25q44 0 71.5 18.5t27.5 52.5q0 33 -27.5 51.5t-71.5 18.5q-45 0 -72.5 -18.5t-27.5 -51.5q0 -34 27.5 -52.5t72.5 -18.5z" />
    <glyph glyph-name="threeeighths" unicode="&#x215c;" horiz-adv-x="844" 
d="M292 445q0 -56 -39 -86.5t-103 -30.5q-57 0 -94 27.5t-43 82.5l47 3q4 -38 28 -56.5t62 -18.5q42 0 68 21t26 58q0 34 -23.5 55t-67.5 21q-25 0 -59 -7v34l125 114h-188v38h251v-35l-131 -110q63 3 99 -23q42 -28 42 -87zM610 700h52l-468 -700h-52zM716 184
q43 -8 68.5 -33t25.5 -61q0 -48 -41 -75t-105 -27t-105 27t-41 75q0 37 25 61.5t69 32.5q-85 18 -85 87q0 46 38.5 70.5t98.5 24.5q59 0 97.5 -24.5t38.5 -70.5q0 -69 -84 -87zM574 264q0 -30 25 -46.5t65 -16.5t65 16.5t25 46.5q0 32 -24.5 48.5t-65.5 16.5t-65.5 -16.5
t-24.5 -48.5zM664 25q44 0 71.5 18.5t27.5 52.5q0 33 -27.5 51.5t-71.5 18.5t-71.5 -18.5t-27.5 -51.5q0 -34 27.5 -52.5t71.5 -18.5z" />
    <glyph glyph-name="fiveeighths" unicode="&#x215d;" horiz-adv-x="861" 
d="M308 456q0 -60 -38.5 -93t-101.5 -33q-57 0 -95.5 26.5t-46.5 75.5l43 2q7 -32 33.5 -49.5t65.5 -17.5q42 0 69 22.5t27 65.5t-27 65t-68 22q-64 0 -95 -41l-38 2l17 199h234v-38h-202l-11 -128q38 41 106 41q58 0 93 -32t35 -89zM627 700h52l-469 -700h-52zM732 184
q44 -8 69.5 -33t25.5 -61q0 -48 -41.5 -75t-105.5 -27t-105 27t-41 75q0 37 25.5 61.5t69.5 32.5q-85 18 -85 87q0 46 38.5 70.5t97.5 24.5q60 0 98.5 -24.5t38.5 -70.5q0 -69 -85 -87zM591 264q0 -30 24.5 -46.5t64.5 -16.5t65 16.5t25 46.5q0 32 -24.5 48.5t-65.5 16.5
t-65 -16.5t-24 -48.5zM680 25q45 0 72.5 18.5t27.5 52.5q0 33 -27.5 51.5t-72.5 18.5q-44 0 -71.5 -18.5t-27.5 -51.5q0 -34 27.5 -52.5t71.5 -18.5z" />
    <glyph glyph-name="seveneighths" unicode="&#x215e;" horiz-adv-x="798" 
d="M129 340h-50q38 163 151 322h-211v38h258v-33q-110 -161 -148 -327zM564 700h52l-468 -700h-53zM670 184q43 -8 68.5 -33t25.5 -61q0 -48 -41 -75t-105 -27t-105 26.5t-41 75.5q0 37 25 61.5t69 32.5q-85 18 -85 87q0 46 38.5 70.5t98.5 24.5q59 0 97.5 -24.5t38.5 -70.5
q0 -69 -84 -87zM528 264q0 -30 25 -46.5t65 -16.5t64.5 16.5t24.5 46.5q0 32 -24 48.5t-65 16.5t-65.5 -16.5t-24.5 -48.5zM618 25q44 0 71.5 18.5t27.5 52.5q0 33 -27.5 51.5t-71.5 18.5q-45 0 -72.5 -18.5t-27.5 -51.5q0 -34 27.5 -52.5t72.5 -18.5z" />
    <glyph glyph-name="arrowleft" unicode="&#x2190;" horiz-adv-x="749" 
d="M675 382v-52h-498l235 -231l-82 1l-256 256l256 257h82l-235 -231h498z" />
    <glyph glyph-name="arrowup" unicode="&#x2191;" horiz-adv-x="661" 
d="M587 503v-81l-228 232v-656h-57v656l-228 -232v82l257 256z" />
    <glyph glyph-name="arrowright" unicode="&#x2192;" horiz-adv-x="749" 
d="M418 613l257 -257l-256 -256l-82 -1l235 231h-498v52h498l-235 231h81z" />
    <glyph glyph-name="arrowdown" unicode="&#x2193;" horiz-adv-x="661" 
d="M359 46l228 232v-81l-256 -257l-257 256v82l228 -232v656h57v-656z" />
    <glyph glyph-name="arrowboth" unicode="&#x2194;" horiz-adv-x="977" 
d="M680 580l224 -224l-224 -224h-81l201 198h-623l201 -198h-81l-223 224l223 224h81l-201 -198h623l-201 198h81z" />
    <glyph glyph-name="arrowupdn" unicode="&#x2195;" horiz-adv-x="585" 
d="M511 473l-195 200v-638l195 199v-80l-224 -224l-213 213v81l185 -188v636l-185 -188v80l213 214l224 -224v-81z" />
    <glyph glyph-name="uni2196" unicode="&#x2196;" horiz-adv-x="616" 
d="M542 153l-39 -40l-371 371l3 -329l-61 60v363h363l58 -57l-324 3z" />
    <glyph glyph-name="uni2197" unicode="&#x2197;" horiz-adv-x="616" 
d="M179 578h363v-363l-61 -60l3 329l-371 -371l-39 40l371 371l-325 -3z" />
    <glyph glyph-name="uni2198" unicode="&#x2198;" horiz-adv-x="616" 
d="M481 551l61 -60v-362h-363l-59 56l325 -2l-371 371l39 40l371 -371z" />
    <glyph glyph-name="uni2199" unicode="&#x2199;" horiz-adv-x="616" 
d="M542 554l-371 -371l324 2l-58 -56h-363v362l61 60l-3 -328l371 371z" />
    <glyph glyph-name="partialdiff" unicode="&#x2202;" horiz-adv-x="533" 
d="M243 756q118 0 179 -95.5t61 -305.5q0 -189 -64.5 -278t-173.5 -89q-95 0 -150 62.5t-55 181.5q0 109 59 176t155 67q111 0 166 -92q-4 170 -49.5 247t-130.5 77q-89 0 -146 -81l-36 38q69 92 185 92zM241 38q79 0 125 65.5t53 194.5q-17 60 -58.5 94t-95.5 34
q-75 0 -118.5 -54t-43.5 -140q0 -95 38 -144.5t100 -49.5z" />
    <glyph glyph-name="emptyset" unicode="&#x2205;" horiz-adv-x="565" 
d="M527 517l-81 -81q45 -55 45 -137q0 -96 -58 -151t-151 -55q-81 0 -136 43l-81 -82l-27 27l81 81q-45 53 -45 137q0 97 58 151.5t150 54.5q81 0 137 -42l81 81zM130 299q0 -58 28 -98l223 224q-39 30 -99 30q-70 0 -111 -42t-41 -114zM435 299q0 58 -28 98l-223 -223
q39 -31 98 -31q71 0 112 42t41 114z" />
    <glyph glyph-name="product" unicode="&#x220f;" horiz-adv-x="618" 
d="M530 700v-781h-62v731h-319v-731h-61v781h442z" />
    <glyph glyph-name="summation" unicode="&#x2211;" horiz-adv-x="477" 
d="M107 -31h345v-50h-415v44l232 367l-221 326v44h397v-50h-326l217 -320z" />
    <glyph glyph-name="minus" unicode="&#x2212;" horiz-adv-x="492" 
d="M60 358h371v-47h-371v47z" />
    <glyph glyph-name="radical" unicode="&#x221a;" horiz-adv-x="547" 
d="M457 712h56l-206 -799h-77l-123 407h-78v48h119l120 -411z" />
    <glyph glyph-name="infinity" unicode="&#x221e;" horiz-adv-x="595" 
d="M434 463q57 0 92 -34.5t35 -100.5t-35 -101t-92 -35q-41 0 -72 21.5t-65 75.5q-34 -54 -65 -75.5t-72 -21.5q-56 0 -91.5 35t-35.5 101t35.5 100.5t91.5 34.5q42 0 73 -21.5t64 -76.5q34 55 65 76.5t72 21.5zM163 233q30 0 56.5 20.5t56.5 73.5q-30 53 -56.5 73.5
t-56.5 20.5q-36 0 -58.5 -24t-22.5 -69q0 -44 22.5 -69.5t58.5 -25.5zM431 233q36 0 58.5 25.5t22.5 69.5q0 45 -22.5 69t-58.5 24q-60 0 -112 -94q52 -94 112 -94z" />
    <glyph glyph-name="integral" unicode="&#x222b;" horiz-adv-x="385" 
d="M266 724q28 0 45 -5v-43q-14 3 -38 3q-56 0 -56 -79v-569q0 -118 -104 -118q-23 0 -45 5v43q12 -3 38 -3q56 0 56 79v569q0 118 104 118z" />
    <glyph glyph-name="approxequal" unicode="&#x2248;" horiz-adv-x="523" 
d="M172 415q-29 0 -43.5 -21t-14.5 -53h-42q0 52 25.5 86t72.5 34q28 0 54.5 -13.5t44 -30t40 -30t42.5 -13.5q28 0 42.5 21.5t14.5 53.5h42q0 -52 -25 -86t-73 -34q-35 0 -67.5 21.5t-60.5 43t-52 21.5zM351 227q28 0 42.5 21t14.5 53h42q0 -52 -25 -85.5t-73 -33.5
q-35 0 -67.5 21.5t-60.5 43t-52 21.5q-28 0 -43 -21t-15 -53h-42q0 52 25.5 85.5t72.5 33.5q35 0 67.5 -21.5t60.5 -43t53 -21.5z" />
    <glyph glyph-name="notequal" unicode="&#x2260;" horiz-adv-x="508" 
d="M439 388h-137l-52 -120h189v-46h-209l-38 -88h-45l38 88h-117v46h137l52 120h-189v45h209l38 89h45l-39 -89h118v-45z" />
    <glyph glyph-name="lessequal" unicode="&#x2264;" horiz-adv-x="493" 
d="M411 560v-57l-302 -124l302 -95v-57l-350 118v64zM61 130v45h350v-45h-350z" />
    <glyph glyph-name="greaterequal" unicode="&#x2265;" horiz-adv-x="493" 
d="M82 560l350 -151v-64l-350 -118v57l302 95l-302 124v57zM82 130v45h350v-45h-350z" />
    <glyph glyph-name="uni2460" unicode="&#x2460;" 
d="M406 -12q-158 0 -259 99.5t-101 262.5t101 262.5t259 99.5t259 -99.5t101 -262.5t-101 -262.5t-259 -99.5zM406 24q142 0 232 89.5t90 236.5t-90 236.5t-232 89.5t-232 -89.5t-90 -236.5t90 -236.5t232 -89.5zM332 439v50l69 39h39v-356h-48v302z" />
    <glyph glyph-name="uni2461" unicode="&#x2461;" 
d="M406 -12q-158 0 -259 99.5t-101 262.5t101 262.5t259 99.5t259 -99.5t101 -262.5t-101 -262.5t-259 -99.5zM406 24q142 0 232 89.5t90 236.5t-90 236.5t-232 89.5t-232 -89.5t-90 -236.5t90 -236.5t232 -89.5zM289 173v35l115 120q27 28 38.5 40.5t22 32.5t10.5 38
q0 28 -17 43t-43 15q-65 0 -72 -89l-45 4q4 62 35.5 92.5t81.5 30.5q48 0 77.5 -25t29.5 -71q0 -31 -17 -59t-58 -70l-93 -99h177v-38h-242z" />
    <glyph glyph-name="uni2462" unicode="&#x2462;" 
d="M406 -12q-158 0 -259 99.5t-101 262.5t101 262.5t259 99.5t259 -99.5t101 -262.5t-101 -262.5t-259 -99.5zM406 24q142 0 232 89.5t90 236.5t-90 236.5t-232 89.5t-232 -89.5t-90 -236.5t90 -236.5t232 -89.5zM279 273l46 3q7 -72 80 -72q37 0 59.5 20t22.5 56
q0 33 -20.5 53t-59.5 20q-20 0 -53 -6v33l110 110h-169v38h230v-35l-114 -107q123 0 123 -106q0 -54 -36 -84t-93 -30q-53 0 -87 27t-39 80z" />
    <glyph glyph-name="uni2463" unicode="&#x2463;" 
d="M406 -12q-158 0 -259 99.5t-101 262.5t101 262.5t259 99.5t259 -99.5t101 -262.5t-101 -262.5t-259 -99.5zM406 24q142 0 232 89.5t90 236.5t-90 236.5t-232 89.5t-232 -89.5t-90 -236.5t90 -236.5t232 -89.5zM248 255v36l167 237h76v-234h60v-39h-60v-83h-47v83h-196z
M295 294h149v210z" />
    <glyph glyph-name="uni2464" unicode="&#x2464;" 
d="M406 -12q-158 0 -259 99.5t-101 262.5t101 262.5t259 99.5t259 -99.5t101 -262.5t-101 -262.5t-259 -99.5zM406 24q142 0 232 89.5t90 236.5t-90 236.5t-232 89.5t-232 -89.5t-90 -236.5t90 -236.5t232 -89.5zM279 265l46 4q5 -31 28 -48t56 -17q34 0 57.5 22t23.5 62
q0 41 -23 62t-58 21q-55 0 -79 -40l-43 4l15 193h216v-38h-180l-9 -122q35 38 93 38q52 0 83.5 -31t31.5 -87q0 -58 -35 -90t-93 -32q-52 0 -87.5 26t-42.5 73z" />
    <glyph glyph-name="uni2465" unicode="&#x2465;" 
d="M406 -12q-158 0 -259 99.5t-101 262.5t101 262.5t259 99.5t259 -99.5t101 -262.5t-101 -262.5t-259 -99.5zM406 24q142 0 232 89.5t90 236.5t-90 236.5t-232 89.5t-232 -89.5t-90 -236.5t90 -236.5t232 -89.5zM272 343q0 93 36.5 142t103.5 49q50 0 80.5 -26t35.5 -72
l-46 -3q-2 28 -20.5 45.5t-49.5 17.5q-89 0 -93 -152q29 57 102 57q53 0 86.5 -30.5t33.5 -85.5q0 -56 -35.5 -87.5t-95.5 -31.5q-138 0 -138 177zM327 285q0 -36 23 -58.5t60 -22.5t60 22.5t23 58.5q0 37 -22.5 59t-60.5 22t-60.5 -22t-22.5 -59z" />
    <glyph glyph-name="uni2466" unicode="&#x2466;" 
d="M406 -12q-158 0 -259 99.5t-101 262.5t101 262.5t259 99.5t259 -99.5t101 -262.5t-101 -262.5t-259 -99.5zM406 24q142 0 232 89.5t90 236.5t-90 236.5t-232 89.5t-232 -89.5t-90 -236.5t90 -236.5t232 -89.5zM290 490v38h239v-33q-100 -160 -133 -323h-52
q35 160 139 318h-193z" />
    <glyph glyph-name="uni2467" unicode="&#x2467;" 
d="M406 -12q-158 0 -259 99.5t-101 262.5t101 262.5t259 99.5t259 -99.5t101 -262.5t-101 -262.5t-259 -99.5zM406 24q142 0 232 89.5t90 236.5t-90 236.5t-232 89.5t-231.5 -89.5t-89.5 -236.5t89.5 -236.5t231.5 -89.5zM269 265q0 73 88 93q-78 16 -78 84q0 45 36 68.5
t91 23.5t91 -24t36 -68q0 -67 -78 -84q87 -19 87 -93q0 -47 -38.5 -73t-97.5 -26q-60 0 -98.5 26t-38.5 73zM325 436q0 -29 22 -45t59 -16t59 16t22 45q0 30 -22 45.5t-59 15.5t-59 -15.5t-22 -45.5zM316 271q0 -32 25 -50t65 -18t65 18t25 50t-25 49t-65 17t-65 -17
t-25 -49z" />
    <glyph glyph-name="uni2468" unicode="&#x2468;" 
d="M406 -12q-158 0 -259 99.5t-101 262.5t101 262.5t259 99.5t259 -99.5t101 -262.5t-101 -262.5t-259 -99.5zM408 24q142 0 232 89.5t90 236.5t-90 236.5t-232 89.5t-232 -89.5t-90 -236.5t90 -236.5t232 -89.5zM271 416q0 55 35.5 86.5t94.5 31.5q140 0 140 -176
q0 -95 -36 -143.5t-103 -48.5q-51 0 -81.5 26t-35.5 72l46 3q2 -28 21 -45.5t50 -17.5q89 0 91 155q-28 -57 -102 -57q-52 0 -86 30.5t-34 83.5zM319 416q0 -36 23 -57.5t61 -21.5q37 0 60 21.5t23 57.5t-23 58t-60 22q-38 0 -61 -22t-23 -58z" />
    <glyph glyph-name="uni24EA" unicode="&#x24ea;" 
d="M406 -12q-158 0 -259 99.5t-101 262.5t101 262.5t259 99.5t259 -99.5t101 -262.5t-101 -262.5t-259 -99.5zM406 24q142 0 232 89.5t90 236.5t-90 236.5t-232 89.5t-232 -89.5t-90 -236.5t90 -236.5t232 -89.5zM267 350q0 86 36.5 135t102.5 49t102 -49t36 -135t-36 -135
t-102 -49t-102.5 49t-36.5 135zM315 350q0 -68 24 -107t67 -39t67 39t24 107t-24 107t-67 39t-67 -39t-24 -107z" />
    <glyph glyph-name="uni24FF" unicode="&#x24ff;" 
d="M406 -12q-158 0 -259 99.5t-101 262.5t101 262.5t259 99.5t259 -99.5t101 -262.5t-101 -262.5t-259 -99.5zM267 350q0 -86 36.5 -135t102.5 -49t102 49t36 135t-36 135t-102 49t-102.5 -49t-36.5 -135zM315 350q0 68 24 107t67 39t67 -39t24 -107t-24 -107t-67 -39
t-67 39t-24 107z" />
    <glyph glyph-name="lozenge" unicode="&#x25ca;" horiz-adv-x="474" 
d="M273 700l163 -350l-163 -350h-72l-163 350l163 350h72zM237 39l141 311l-141 311l-141 -311z" />
    <glyph glyph-name="uni2776" unicode="&#x2776;" 
d="M406 -12q-158 0 -259 99.5t-101 262.5t101 262.5t259 99.5t259 -99.5t101 -262.5t-101 -262.5t-259 -99.5zM332 439l60 35v-302h48v356h-39l-69 -39v-50z" />
    <glyph glyph-name="uni2777" unicode="&#x2777;" 
d="M406 -12q-158 0 -259 99.5t-101 262.5t101 262.5t259 99.5t259 -99.5t101 -262.5t-101 -262.5t-259 -99.5zM289 173h242v38h-177l93 99q41 42 58 70t17 59q0 46 -29.5 71t-77.5 25q-50 0 -81.5 -30.5t-35.5 -92.5l45 -4q7 89 72 89q26 0 43 -15t17 -43q0 -18 -10.5 -38
t-22 -32.5t-38.5 -40.5l-115 -120v-35z" />
    <glyph glyph-name="uni2778" unicode="&#x2778;" 
d="M406 -12q-158 0 -259 99.5t-101 262.5t101 262.5t259 99.5t259 -99.5t101 -262.5t-101 -262.5t-259 -99.5zM279 273q5 -53 39 -80t87 -27q57 0 93 30t36 84q0 106 -123 106l114 107v35h-230v-38h169l-110 -110v-33q33 6 53 6q39 0 59.5 -20t20.5 -53q0 -36 -22.5 -56
t-59.5 -20q-73 0 -80 72z" />
    <glyph glyph-name="uni2779" unicode="&#x2779;" 
d="M406 -12q-158 0 -259 99.5t-101 262.5t101 262.5t259 99.5t259 -99.5t101 -262.5t-101 -262.5t-259 -99.5zM248 255h196v-83h47v83h60v39h-60v234h-76l-167 -237v-36zM295 294l149 210v-210h-149z" />
    <glyph glyph-name="uni277A" unicode="&#x277a;" 
d="M406 -12q-158 0 -259 99.5t-101 262.5t101 262.5t259 99.5t259 -99.5t101 -262.5t-101 -262.5t-259 -99.5zM279 265q7 -47 42.5 -73t87.5 -26q58 0 93 32t35 90q0 56 -31.5 87t-83.5 31q-58 0 -93 -38l9 122h180v38h-216l-15 -193l43 -4q24 40 79 40q35 0 58 -21t23 -62
q0 -40 -23.5 -62t-57.5 -22q-33 0 -56 17t-28 48z" />
    <glyph glyph-name="uni277B" unicode="&#x277b;" 
d="M406 -12q-158 0 -259 99.5t-101 262.5t101 262.5t259 99.5t259 -99.5t101 -262.5t-101 -262.5t-259 -99.5zM272 343q0 -177 138 -177q60 0 95.5 31.5t35.5 87.5q0 55 -33.5 85.5t-86.5 30.5q-73 0 -102 -57q4 152 93 152q31 0 49.5 -17.5t20.5 -45.5l46 3q-5 46 -35.5 72
t-80.5 26q-67 0 -103.5 -49t-36.5 -142zM327 285q0 37 22.5 59t60.5 22t60.5 -22t22.5 -59q0 -36 -23 -58.5t-60 -22.5t-60 22.5t-23 58.5z" />
    <glyph glyph-name="uni277C" unicode="&#x277c;" 
d="M406 -12q-158 0 -259 99.5t-101 262.5t101 262.5t259 99.5t259 -99.5t101 -262.5t-101 -262.5t-259 -99.5zM290 490h193q-104 -158 -139 -318h52q33 163 133 323v33h-239v-38z" />
    <glyph glyph-name="uni277D" unicode="&#x277d;" 
d="M406 -12q-158 0 -259 99.5t-101 262.5t101 262.5t259 99.5t259 -99.5t101 -262.5t-101 -262.5t-259 -99.5zM269 265q0 -47 38.5 -73t98.5 -26q59 0 97.5 26t38.5 73q0 74 -87 93q78 17 78 84q0 44 -36 68t-91 24t-91 -23.5t-36 -68.5q0 -68 78 -84q-88 -20 -88 -93z
M325 436q0 30 22 45.5t59 15.5t59 -15.5t22 -45.5q0 -29 -22 -45t-59 -16t-59 16t-22 45zM316 271q0 31 25 48.5t65 17.5t65 -17.5t25 -48.5q0 -32 -25 -50t-65 -18t-65 18t-25 50z" />
    <glyph glyph-name="uni277E" unicode="&#x277e;" 
d="M406 -12q-158 0 -259 99.5t-101 262.5t101 262.5t259 99.5t259 -99.5t101 -262.5t-101 -262.5t-259 -99.5zM271 416q0 -53 34 -83.5t86 -30.5q74 0 102 57q-2 -155 -91 -155q-31 0 -50 17.5t-21 45.5l-46 -3q5 -46 35.5 -72t81.5 -26q67 0 103 48.5t36 143.5
q0 176 -140 176q-59 0 -94.5 -31.5t-35.5 -86.5zM319 416q0 36 23 58t61 22q37 0 60 -22t23 -58t-23 -57.5t-60 -21.5q-38 0 -61 21.5t-23 57.5z" />
    <glyph glyph-name="i.loclTRK" horiz-adv-x="218" 
d="M76 616v103h66v-103h-66zM78 0v524h63v-524h-63z" />
    <glyph glyph-name="zero.osf" horiz-adv-x="583" 
d="M46 283q0 136 65 214.5t180 78.5t180 -78.5t65 -214.5q0 -137 -64.5 -215t-180.5 -78q-115 0 -180 78.5t-65 214.5zM109 283q0 -112 47.5 -177t134.5 -65t135 65t48 177t-48 177t-135 65t-134.5 -65t-47.5 -177z" />
    <glyph glyph-name="one.osf" horiz-adv-x="479" 
d="M290 51h155v-51h-389v51h172v444l-149 -94v63l162 102h49v-515z" />
    <glyph glyph-name="two.osf" horiz-adv-x="502" 
d="M110 51h364v-51h-452v47l240 202q51 44 72 64t41.5 52t20.5 62q0 48 -38 73t-99 25q-70 0 -113 -36t-50 -111l-59 5q7 96 67 144.5t155 48.5q91 0 145 -39t54 -109q0 -51 -33.5 -96t-114.5 -112z" />
    <glyph glyph-name="three.osf" horiz-adv-x="526" 
d="M422 242q67 -53 67 -157q0 -101 -64.5 -158.5t-172.5 -57.5q-98 0 -160 50.5t-71 149.5l60 5q7 -78 53.5 -116t117.5 -38q78 0 126 43.5t48 121.5q0 71 -43.5 113.5t-126.5 42.5q-44 0 -99 -9v45l234 238h-340v51h421v-46l-240 -235q123 9 190 -43z" />
    <glyph glyph-name="four.osf" horiz-adv-x="579" 
d="M441 78h105v-51h-105v-148h-63v148h-351v47l312 492h102v-488zM91 78h287v454z" />
    <glyph glyph-name="five.osf" horiz-adv-x="536" 
d="M282 330q97 0 157 -60.5t60 -167.5q0 -109 -64.5 -171t-169.5 -62q-95 0 -159.5 49t-77.5 136l60 5q11 -67 59 -103t118 -36q72 0 121.5 46.5t49.5 135.5q0 90 -48.5 134.5t-120.5 44.5q-52 0 -97 -22t-71 -64l-55 5l29 366h390v-51h-342l-20 -260q67 75 181 75z" />
    <glyph glyph-name="six.osf" horiz-adv-x="573" 
d="M311 451q97 0 159.5 -62t62.5 -169q0 -108 -63 -170t-171 -62q-249 0 -249 345q0 184 65 281.5t186 97.5q90 0 144.5 -52.5t62.5 -137.5l-61 -5q-5 64 -44 104t-102 40q-109 0 -157 -123q-30 -78 -30 -219q22 63 74.5 97.5t122.5 34.5zM299 39q77 0 124 49.5t47 131.5
t-47 132t-124 50t-124 -50t-47 -132t47 -131.5t124 -49.5z" />
    <glyph glyph-name="seven.osf" horiz-adv-x="511" 
d="M32 566h450v-45q-200 -317 -274 -642h-65q74 322 278 636h-389v51z" />
    <glyph glyph-name="eight.osf" horiz-adv-x="567" 
d="M364 364q77 -17 119.5 -65t42.5 -118q0 -90 -68 -141.5t-175 -51.5t-175 51.5t-68 141.5q0 70 43.5 118t120.5 65q-69 16 -108.5 58.5t-39.5 110.5q0 85 64 132t163 47t163 -47t64 -132q0 -136 -146 -169zM118 525q0 -67 45.5 -102.5t119.5 -35.5t119.5 35.5t45.5 102.5
t-45.5 102t-119.5 35t-119.5 -35t-45.5 -102zM283 38q80 0 130.5 39.5t50.5 110.5t-50.5 110t-130.5 39t-130.5 -39t-50.5 -110t50.5 -110.5t130.5 -39.5z" />
    <glyph glyph-name="nine.osf" horiz-adv-x="573" 
d="M274 576q249 0 249 -337q0 -181 -64 -275t-185 -94q-92 0 -146.5 50.5t-61.5 134.5l60 5q5 -62 44 -100.5t104 -38.5q109 0 156 120q29 73 29 216q-22 -60 -74.5 -93.5t-124.5 -33.5q-95 0 -157.5 60t-62.5 163q0 104 63.5 163.5t170.5 59.5zM274 179q77 0 124 48t47 126
q0 77 -47 124.5t-124 47.5t-124 -47.5t-47 -124.5q0 -78 47 -126t124 -48z" />
    <glyph glyph-name="zero.subs" horiz-adv-x="431" 
d="M46 98q0 105 44.5 165t124.5 60q81 0 125 -60t44 -165t-44 -165t-125 -60q-80 0 -124.5 60t-44.5 165zM99 98q0 -85 30.5 -134t85.5 -49q56 0 86.5 49t30.5 134t-30.5 133.5t-86.5 48.5q-55 0 -85.5 -48.5t-30.5 -133.5z" />
    <glyph glyph-name="one.subs" horiz-adv-x="256" 
d="M123 315h43v-431h-52v367l-80 -68v57z" />
    <glyph glyph-name="two.subs" horiz-adv-x="347" 
d="M87 -77h232v-42h-300v39l149 151q33 34 48 51t27.5 40.5t12.5 46.5q0 36 -22 54.5t-58 18.5q-88 0 -97 -111l-50 4q4 75 44 112t103 37q60 0 96.5 -30t36.5 -85q0 -39 -21.5 -73t-74.5 -86z" />
    <glyph glyph-name="three.subs" horiz-adv-x="364" 
d="M279 117q51 -31 51 -103q0 -65 -44 -101t-116 -36q-66 0 -107.5 32t-48.5 96l50 3q10 -89 106 -89q48 0 78 25t30 70q0 42 -27 66.5t-79 24.5q-34 0 -65 -6v36l145 138h-218v42h284v-37l-153 -137q71 5 114 -24z" />
    <glyph glyph-name="four.subs" horiz-adv-x="421" 
d="M319 27h73v-42h-73v-101h-52v101h-242v40l210 290h84v-288zM77 27h190v262z" />
    <glyph glyph-name="five.subs" horiz-adv-x="388" 
d="M208 165q65 0 104 -37t39 -104q0 -70 -43.5 -108.5t-115.5 -38.5q-64 0 -107.5 31t-51.5 87l50 4q7 -39 37 -59.5t72 -20.5q46 0 76.5 27t30.5 78q0 52 -30 78t-76 26q-70 0 -104 -49l-46 4l19 232h266v-42h-226l-13 -153q43 45 119 45z" />
    <glyph glyph-name="six.subs" horiz-adv-x="416" 
d="M229 160q64 0 106 -37t42 -104q0 -68 -43 -106.5t-117 -38.5q-171 0 -171 215q0 115 45 175t127 60q62 0 99.5 -32.5t42.5 -86.5l-50 -4q-4 36 -28 58.5t-64 22.5q-66 0 -98 -65q-21 -48 -21 -127q36 70 130 70zM217 -84q49 0 78.5 28t29.5 75t-29.5 75t-78.5 28t-79 -28
t-30 -75t30 -75t79 -28z" />
    <glyph glyph-name="seven.subs" horiz-adv-x="334" 
d="M21 315h297v-36q-127 -196 -172 -395h-56q45 194 178 389h-247v42z" />
    <glyph glyph-name="eight.subs" horiz-adv-x="410" 
d="M264 108q50 -11 79 -40.5t29 -73.5q0 -57 -47 -88.5t-120 -31.5t-120 31.5t-47 88.5q0 44 29 73.5t80 40.5q-98 22 -98 104q0 54 44 83t112 29t112 -29t44 -83q0 -41 -25.5 -67.5t-71.5 -36.5zM101 205q0 -38 28.5 -58.5t75.5 -20.5t76 20.5t29 58.5t-29 58.5t-76 20.5
t-75.5 -20.5t-28.5 -58.5zM205 -86q52 0 83.5 22.5t31.5 63.5t-31.5 63.5t-83.5 22.5t-83.5 -22.5t-31.5 -63.5t31.5 -63.5t83.5 -22.5z" />
    <glyph glyph-name="nine.subs" horiz-adv-x="416" 
d="M199 324q170 0 170 -215q0 -235 -170 -235q-63 0 -100.5 32t-42.5 87l49 4q4 -36 28.5 -58.5t65.5 -22.5q70 0 100 73q18 44 18 123q-36 -71 -131 -71q-63 0 -105 37t-42 102q0 68 43 106t117 38zM199 79q49 0 78.5 27.5t29.5 73.5t-29.5 74t-78.5 28t-78.5 -28
t-29.5 -74t29.5 -73.5t78.5 -27.5z" />
    <glyph glyph-name="zero.tf" horiz-adv-x="630" 
d="M75 350q0 169 63 265.5t177 96.5t177 -96.5t63 -265.5t-63 -265.5t-177 -96.5t-177 96.5t-63 265.5zM136 350q0 -144 46.5 -228t132.5 -84t132.5 84t46.5 228q0 143 -46.5 226.5t-132.5 83.5t-132.5 -83.5t-46.5 -226.5z" />
    <glyph glyph-name="one.tf" horiz-adv-x="630" 
d="M371 51h185v-51h-462v51h214v574l-193 -145v64l206 156h50v-649z" />
    <glyph glyph-name="two.tf" horiz-adv-x="630" 
d="M167 50h364v-50h-446v46l232 258q52 56 75 84t42.5 68t19.5 79q0 62 -38 94.5t-98 32.5q-69 0 -111 -47.5t-49 -143.5l-59 5q7 118 66 177t153 59q90 0 143.5 -46.5t53.5 -130.5q0 -63 -32.5 -118t-113.5 -144z" />
    <glyph glyph-name="three.tf" horiz-adv-x="630" 
d="M460 374q73 -53 73 -166q0 -102 -64 -161t-170 -59q-97 0 -158.5 51.5t-70.5 152.5l60 5q7 -81 53 -119.5t116 -38.5q76 0 123.5 44.5t47.5 124.5q0 74 -42.5 117.5t-124.5 43.5q-45 0 -98 -10v45l230 245h-335v51h416v-46l-236 -241q115 8 180 -39z" />
    <glyph glyph-name="four.tf" horiz-adv-x="630" 
d="M466 220h104v-50h-104v-170h-61v170h-348v46l307 484h102v-480zM120 220h285v448z" />
    <glyph glyph-name="five.tf" horiz-adv-x="630" 
d="M336 458q96 0 155.5 -62t59.5 -170q0 -111 -63.5 -174.5t-168.5 -63.5q-94 0 -157.5 50t-76.5 139l60 5q11 -69 58.5 -106t115.5 -37q71 0 119.5 48t48.5 139q0 92 -47.5 137.5t-118.5 45.5q-50 0 -95 -22.5t-71 -65.5l-55 5l29 374h387v-51h-339l-20 -268q67 77 179 77z
" />
    <glyph glyph-name="six.tf" horiz-adv-x="630" 
d="M346 451q96 0 158 -62t62 -169q0 -108 -62.5 -170t-168.5 -62q-245 0 -245 345q0 183 64 281t183 98q89 0 142.5 -52t61.5 -138l-59 -5q-5 64 -43.5 104.5t-101.5 40.5q-100 0 -147 -105q-38 -80 -39 -238q22 63 74 97.5t121 34.5zM335 38q77 0 123 50t46 132
q0 83 -46 133t-123 50t-123 -50t-46 -133q0 -82 46 -132t123 -50z" />
    <glyph glyph-name="seven.tf" horiz-adv-x="630" 
d="M89 700h445v-45q-195 -319 -269 -655h-68q71 322 277 649h-385v51z" />
    <glyph glyph-name="eight.tf" horiz-adv-x="630" 
d="M394 364q76 -17 118.5 -65t42.5 -118q0 -90 -67 -141.5t-173 -51.5t-173 51.5t-67 141.5q0 70 42.5 118t119.5 65q-68 16 -107 58.5t-39 110.5q0 85 63 132t161 47q97 0 160.5 -47t63.5 -132q0 -69 -38.5 -111.5t-106.5 -57.5zM151 525q0 -68 45.5 -103.5t118.5 -35.5
t118.5 35.5t45.5 103.5t-45.5 103t-118.5 35t-118.5 -35t-45.5 -103zM315 37q79 0 129 40t50 111t-50 110.5t-129 39.5t-129 -39.5t-50 -110.5t50 -111t129 -40z" />
    <glyph glyph-name="nine.tf" horiz-adv-x="630" 
d="M295 712q245 0 245 -345q0 -186 -62.5 -282.5t-182.5 -96.5q-91 0 -144.5 52t-61.5 138l59 5q5 -65 43.5 -105t103.5 -40q103 0 150 113q34 82 34 235q-23 -62 -75 -96.5t-122 -34.5q-94 0 -156 61.5t-62 166.5q0 106 62.5 167.5t168.5 61.5zM295 303q76 0 122.5 49.5
t46.5 130.5q0 80 -46.5 129.5t-122.5 49.5t-122.5 -49.5t-46.5 -129.5q0 -81 46.5 -130.5t122.5 -49.5z" />
    <glyph glyph-name="zero.tosf" horiz-adv-x="630" 
d="M75 283q0 137 63.5 215t176.5 78t176.5 -78t63.5 -215t-63.5 -215t-176.5 -78t-176.5 78t-63.5 215zM136 283q0 -112 46.5 -177.5t132.5 -65.5t132.5 65.5t46.5 177.5t-46.5 177.5t-132.5 65.5t-132.5 -65.5t-46.5 -177.5z" />
    <glyph glyph-name="one.tosf" horiz-adv-x="630" 
d="M375 51h196v-51h-475v51h217v446l-189 -96v63l202 102h49v-515z" />
    <glyph glyph-name="two.tosf" horiz-adv-x="630" 
d="M174 51h356v-51h-444v47l235 203q49 43 70 63.5t41 52t20 61.5q0 48 -37 73t-97 25q-68 0 -109.5 -36t-48.5 -111l-59 5q7 96 65.5 144.5t151.5 48.5q89 0 142.5 -39t53.5 -109q0 -51 -33 -96.5t-112 -111.5z" />
    <glyph glyph-name="three.tosf" horiz-adv-x="630" 
d="M459 243q72 -54 72 -160q0 -100 -66.5 -157t-176.5 -57q-101 0 -165 50t-73 149l60 5q7 -78 55.5 -115.5t122.5 -37.5q80 0 130 43t50 120q0 71 -45 114t-131 43q-47 0 -101 -10v45l241 240h-351v51h433v-46l-245 -236q121 7 190 -41z" />
    <glyph glyph-name="four.tosf" horiz-adv-x="630" 
d="M466 93h106v-51h-106v-163h-63v163h-355v47l316 477h102v-473zM112 93h291v437z" />
    <glyph glyph-name="five.tosf" horiz-adv-x="630" 
d="M333 327q97 0 157 -60.5t60 -165.5q0 -109 -64 -170.5t-170 -61.5q-95 0 -159 49t-77 135l61 5q10 -66 58.5 -102t116.5 -36q72 0 121.5 46t49.5 135t-48.5 133t-120.5 44q-50 0 -95.5 -22t-71.5 -63l-55 5l29 368h389v-51h-341l-20 -263q65 75 180 75z" />
    <glyph glyph-name="six.tosf" horiz-adv-x="630" 
d="M345 451q95 0 156.5 -62t61.5 -169q0 -108 -62 -170t-168 -62q-244 0 -244 345q0 183 64 281t183 98q88 0 141 -52t61 -138l-59 -5q-5 64 -43 104.5t-100 40.5q-94 0 -143 -96q-41 -79 -42 -246q22 62 73.5 96.5t120.5 34.5zM333 38q76 0 122 50t46 132q0 83 -46 133
t-122 50t-122 -50t-46 -133q0 -82 46 -132t122 -50z" />
    <glyph glyph-name="seven.tosf" horiz-adv-x="630" 
d="M84 566h441v-45q-196 -317 -268 -642h-65q72 322 272 636h-380v51z" />
    <glyph glyph-name="eight.tosf" horiz-adv-x="630" 
d="M394 364q75 -17 117 -65t42 -118q0 -90 -66.5 -141.5t-171.5 -51.5t-171.5 51.5t-66.5 141.5q0 70 42 118t118 65q-68 16 -106.5 58t-38.5 111q0 85 63 132t160 47t160 -47t63 -132q0 -68 -38 -110.5t-106 -58.5zM154 525q0 -67 44.5 -102.5t116.5 -35.5t116.5 35.5
t44.5 102.5t-44.5 102t-116.5 35t-116.5 -35t-44.5 -102zM315 38q78 0 127 39.5t49 110.5t-49 110t-127 39t-127 -39t-49 -110t49 -110.5t127 -39.5z" />
    <glyph glyph-name="nine.tosf" horiz-adv-x="630" 
d="M295 575q244 0 244 -336q0 -182 -62.5 -276t-181.5 -94q-90 0 -143.5 50.5t-61.5 135.5l59 5q6 -63 44 -102t102 -39q103 0 149 110q19 45 26.5 95.5t6.5 132.5q-22 -60 -73.5 -94t-121.5 -34q-93 0 -154.5 60.5t-61.5 162.5q0 104 62 163.5t167 59.5zM295 177
q76 0 122.5 48t46.5 127q0 78 -46.5 125.5t-122.5 47.5t-122 -47.5t-46 -125.5q0 -79 46 -127t122 -48z" />
    <glyph glyph-name="zero.zero" horiz-adv-x="591" 
d="M295 712q117 0 181.5 -96.5t64.5 -265.5t-64.5 -265.5t-181.5 -96.5t-181 96.5t-64 265.5t64 265.5t181 96.5zM295 661q-86 0 -133.5 -84t-47.5 -227q0 -111 29 -189l284 420q-47 80 -132 80zM295 39q87 0 134.5 84t47.5 227q0 115 -30 190l-284 -420q48 -81 132 -81z
" />
    <glyph glyph-name="zero.osf.zero" horiz-adv-x="583" 
d="M291 576q115 0 180 -78.5t65 -214.5q0 -137 -64.5 -215t-180.5 -78q-115 0 -180 78.5t-65 214.5t65 214.5t180 78.5zM291 525q-87 0 -134.5 -65t-47.5 -177q0 -83 25 -139l292 316q-49 65 -135 65zM291 41q87 0 135 65t48 177q0 82 -26 140l-292 -316q47 -66 135 -66z
" />
    <glyph glyph-name="zero.tf.zero" horiz-adv-x="630" 
d="M315 712q114 0 177 -96.5t63 -265.5t-63 -265.5t-177 -96.5t-177 96.5t-63 265.5t63 265.5t177 96.5zM315 660q-86 0 -132.5 -83.5t-46.5 -226.5q0 -111 29 -187l281 416q-47 81 -131 81zM315 38q86 0 132.5 84t46.5 228q0 111 -29 187l-281 -416q47 -83 131 -83z" />
    <glyph glyph-name="zero.tosf.zero" horiz-adv-x="630" 
d="M315 576q113 0 176.5 -78t63.5 -215t-63.5 -215t-176.5 -78t-176.5 78t-63.5 215t63.5 215t176.5 78zM315 526q-86 0 -132.5 -65.5t-46.5 -177.5q0 -82 25 -138l288 313q-47 68 -134 68zM315 40q86 0 132.5 65.5t46.5 177.5q0 82 -25 138l-288 -313q47 -68 134 -68z" />
    <glyph glyph-name="zero.dnom" horiz-adv-x="381" 
d="M190 366q71 0 110 -50.5t39 -138.5t-39 -138.5t-110 -50.5q-70 0 -109 50.5t-39 138.5t39 138.5t109 50.5zM190 26q48 0 75 40.5t27 110.5t-27 110.5t-75 40.5t-74 -40.5t-26 -110.5t26 -110.5t74 -40.5z" />
    <glyph glyph-name="one.dnom" horiz-adv-x="217" 
d="M108 360h38v-360h-48v300l-69 -50v51z" />
    <glyph glyph-name="two.dnom" horiz-adv-x="308" 
d="M80 38h200v-38h-262v35l128 125q29 27 42 41t24 34t11 39q0 29 -19 44.5t-50 15.5q-34 0 -55.5 -23t-25.5 -68l-46 3q5 63 39.5 94.5t87.5 31.5q52 0 84 -25.5t32 -72.5q0 -32 -18.5 -61.5t-63.5 -71.5z" />
    <glyph glyph-name="three.dnom" horiz-adv-x="320" 
d="M250 192q42 -28 42 -87q0 -56 -39 -86.5t-103 -30.5q-57 0 -94 27.5t-43 82.5l47 3q4 -38 28 -56.5t62 -18.5q42 0 68 21t26 58q0 34 -23.5 55t-67.5 21q-25 0 -59 -7v34l125 114h-188v38h251v-35l-131 -110q63 3 99 -23z" />
    <glyph glyph-name="four.dnom" horiz-adv-x="364" 
d="M276 123h62v-38h-62v-85h-47v85h-209v35l179 240h77v-237zM68 123h161v214z" />
    <glyph glyph-name="five.dnom" horiz-adv-x="337" 
d="M180 235q58 0 93 -32t35 -89q0 -60 -38.5 -93t-101.5 -33q-57 0 -95.5 26.5t-46.5 75.5l43 3q7 -32 33.5 -50t65.5 -18q41 0 67 22.5t26 65.5q0 44 -25.5 65.5t-66.5 21.5q-64 0 -95 -41l-38 3l17 198h234v-37h-202l-11 -129q36 41 106 41z" />
    <glyph glyph-name="six.dnom" horiz-adv-x="362" 
d="M201 230q58 0 94.5 -31.5t36.5 -88.5t-38 -89.5t-102 -32.5q-72 0 -111 45t-39 137q0 95 40.5 145.5t110.5 50.5q53 0 86 -27.5t38 -73.5l-45 -4q-3 30 -24 48.5t-55 18.5q-57 0 -85 -55q-18 -37 -18 -101q31 58 111 58zM192 26q41 0 67 23.5t26 61.5t-25.5 61t-67.5 23
q-43 0 -68 -23t-25 -61t25 -61.5t68 -23.5z" />
    <glyph glyph-name="seven.dnom" horiz-adv-x="291" 
d="M19 360h258v-33q-110 -161 -148 -327h-50q38 163 151 322h-211v38z" />
    <glyph glyph-name="eight.dnom" horiz-adv-x="361" 
d="M232 184q44 -8 69.5 -33t25.5 -61q0 -48 -41.5 -75t-105.5 -27t-105 27t-41 75q0 37 25.5 61.5t69.5 32.5q-85 18 -85 87q0 46 38.5 70.5t97.5 24.5q60 0 98.5 -24.5t38.5 -70.5q0 -69 -85 -87zM91 264q0 -30 24.5 -46.5t64.5 -16.5t65 16.5t25 46.5q0 32 -24.5 48.5
t-65.5 16.5t-65 -16.5t-24 -48.5zM180 25q45 0 72.5 18.5t27.5 52.5q0 33 -27.5 51.5t-72.5 18.5q-44 0 -71.5 -18.5t-27.5 -51.5q0 -34 27.5 -52.5t71.5 -18.5z" />
    <glyph glyph-name="nine.dnom" horiz-adv-x="362" 
d="M169 366q150 0 150 -182q0 -97 -39 -146.5t-111 -49.5q-55 0 -87.5 27t-37.5 74l45 4q3 -29 24.5 -48t55.5 -19q56 0 82 51q20 37 20 107q-31 -57 -111 -57q-57 0 -94 31t-37 86q0 56 37.5 89t102.5 33zM170 162q42 0 67 22.5t25 59.5q0 38 -25 61t-67 23t-67.5 -23
t-25.5 -61q0 -37 25.5 -59.5t67.5 -22.5z" />
    <glyph glyph-name="zero.numr" horiz-adv-x="381" 
d="M190 712q71 0 110 -50.5t39 -138.5t-39 -138.5t-110 -50.5q-70 0 -109 50.5t-39 138.5t39 138.5t109 50.5zM190 372q48 0 75 40.5t27 110.5t-27 110.5t-75 40.5t-74 -40.5t-26 -110.5t26 -110.5t74 -40.5z" />
    <glyph glyph-name="one.numr" horiz-adv-x="217" 
d="M108 700h38v-360h-48v300l-69 -50v51z" />
    <glyph glyph-name="two.numr" horiz-adv-x="308" 
d="M80 378h200v-38h-262v35l128 125q29 27 42 41t24 34t11 39q0 29 -19 44.5t-50 15.5q-34 0 -55.5 -23t-25.5 -68l-46 3q5 63 39.5 94.5t87.5 31.5q52 0 84 -25.5t32 -72.5q0 -32 -18.5 -61.5t-63.5 -71.5z" />
    <glyph glyph-name="three.numr" horiz-adv-x="320" 
d="M250 532q42 -28 42 -87q0 -56 -39 -86.5t-103 -30.5q-57 0 -94 27.5t-43 82.5l47 3q4 -38 28 -56.5t62 -18.5q42 0 68 21t26 58q0 34 -23.5 55t-67.5 21q-25 0 -59 -7v34l125 114h-188v38h251v-35l-131 -110q63 3 99 -23z" />
    <glyph glyph-name="four.numr" horiz-adv-x="364" 
d="M276 463h62v-38h-62v-85h-47v85h-209v35l179 240h77v-237zM68 463h161v214z" />
    <glyph glyph-name="five.numr" horiz-adv-x="337" 
d="M180 577q58 0 93 -32t35 -89q0 -60 -38.5 -93t-101.5 -33q-57 0 -95.5 26.5t-46.5 75.5l43 2q7 -32 33.5 -49.5t65.5 -17.5q42 0 69 22.5t27 65.5t-27 65t-68 22q-64 0 -95 -41l-38 2l17 199h234v-38h-202l-11 -128q38 41 106 41z" />
    <glyph glyph-name="six.numr" horiz-adv-x="362" 
d="M201 576q58 0 94.5 -31.5t36.5 -88.5t-38 -89.5t-102 -32.5q-72 0 -111 45t-39 137q0 95 40.5 145.5t110.5 50.5q53 0 86 -27.5t38 -73.5l-45 -4q-3 30 -24 48.5t-55 18.5q-57 0 -85 -55q-18 -37 -18 -101q31 58 111 58zM192 372q41 0 67 23.5t26 61.5t-25.5 61t-67.5 23
q-43 0 -68 -23t-25 -61t25 -61.5t68 -23.5z" />
    <glyph glyph-name="seven.numr" horiz-adv-x="291" 
d="M19 700h258v-33q-110 -161 -148 -327h-50q38 163 151 322h-211v38z" />
    <glyph glyph-name="eight.numr" horiz-adv-x="361" 
d="M232 530q44 -8 69.5 -33t25.5 -61q0 -48 -41.5 -75t-105.5 -27t-105 27t-41 75q0 37 25.5 61.5t69.5 32.5q-85 18 -85 87q0 46 38.5 70.5t97.5 24.5q60 0 98.5 -24.5t38.5 -70.5q0 -69 -85 -87zM91 610q0 -30 24.5 -46.5t64.5 -16.5t65 16.5t25 46.5q0 32 -24.5 48.5
t-65.5 16.5t-65 -16.5t-24 -48.5zM180 371q45 0 72.5 18.5t27.5 52.5q0 33 -27.5 51.5t-72.5 18.5q-44 0 -71.5 -18.5t-27.5 -51.5q0 -34 27.5 -52.5t71.5 -18.5z" />
    <glyph glyph-name="nine.numr" horiz-adv-x="362" 
d="M169 712q150 0 150 -182q0 -97 -39 -146.5t-111 -49.5q-55 0 -87.5 27t-37.5 74l45 4q3 -29 24.5 -48t55.5 -19q56 0 82 51q20 37 20 107q-31 -57 -111 -57q-57 0 -94 31t-37 86q0 56 37.5 89t102.5 33zM170 508q42 0 67 22.5t25 59.5q0 38 -25 61t-67 23t-67.5 -23
t-25.5 -61q0 -37 25.5 -59.5t67.5 -22.5z" />
    <glyph glyph-name="zero.sups" horiz-adv-x="431" 
d="M46 548q0 105 44.5 165t124.5 60q81 0 125 -60t44 -165t-44 -165t-125 -60q-80 0 -124.5 60t-44.5 165zM99 548q0 -85 30.5 -134t85.5 -49q56 0 86.5 49t30.5 134t-30.5 133.5t-86.5 48.5q-55 0 -85.5 -48.5t-30.5 -133.5z" />
    <glyph glyph-name="one.sups" horiz-adv-x="256" 
d="M123 764h43v-431h-52v367l-80 -68v57z" />
    <glyph glyph-name="two.sups" horiz-adv-x="347" 
d="M87 373h232v-42h-300v39l149 151q33 34 48 51t27.5 40.5t12.5 46.5q0 36 -22 54.5t-58 18.5q-88 0 -97 -111l-50 4q4 75 44 112t103 37q60 0 96.5 -30t36.5 -85q0 -39 -21.5 -73t-74.5 -86z" />
    <glyph glyph-name="three.sups" horiz-adv-x="364" 
d="M279 566q51 -32 51 -103q0 -65 -44 -101t-116 -36q-66 0 -107.5 32t-48.5 96l50 3q10 -89 106 -89q48 0 78 25t30 70q0 42 -27 66.5t-79 24.5q-34 0 -65 -6v36l145 138h-218v42h284v-37l-153 -137q71 5 114 -24z" />
    <glyph glyph-name="four.sups" horiz-adv-x="421" 
d="M319 476h73v-42h-73v-101h-52v101h-242v40l210 290h84v-288zM77 476h190v262z" />
    <glyph glyph-name="five.sups" horiz-adv-x="388" 
d="M208 614q65 0 104 -37t39 -104q0 -70 -43.5 -108.5t-115.5 -38.5q-64 0 -107.5 31t-51.5 87l50 4q7 -39 37 -59.5t72 -20.5q46 0 76.5 27t30.5 78q0 52 -30 78t-76 26q-70 0 -104 -49l-46 4l19 232h266v-42h-226l-13 -153q43 45 119 45z" />
    <glyph glyph-name="six.sups" horiz-adv-x="416" 
d="M229 610q64 0 106 -37t42 -104q0 -68 -43 -106.5t-117 -38.5q-171 0 -171 215q0 115 45 175t127 60q62 0 99.5 -32.5t42.5 -86.5l-50 -4q-4 36 -28 58.5t-64 22.5q-66 0 -98 -65q-21 -48 -21 -127q36 70 130 70zM217 366q49 0 78.5 28t29.5 75t-29.5 75t-78.5 28t-79 -28
t-30 -75t30 -75t79 -28z" />
    <glyph glyph-name="seven.sups" horiz-adv-x="334" 
d="M21 764h297v-36q-127 -196 -172 -395h-56q45 194 178 389h-247v42z" />
    <glyph glyph-name="eight.sups" horiz-adv-x="410" 
d="M264 558q50 -11 79 -40.5t29 -73.5q0 -57 -47 -88.5t-120 -31.5t-120 31.5t-47 88.5q0 44 29 73.5t80 40.5q-98 22 -98 104q0 54 44 83t112 29t112 -29t44 -83q0 -41 -25.5 -67.5t-71.5 -36.5zM101 655q0 -38 28.5 -58.5t75.5 -20.5t76 20.5t29 58.5t-29 58.5t-76 20.5
t-75.5 -20.5t-28.5 -58.5zM205 364q52 0 83.5 22.5t31.5 63.5t-31.5 63.5t-83.5 22.5t-83.5 -22.5t-31.5 -63.5t31.5 -63.5t83.5 -22.5z" />
    <glyph glyph-name="nine.sups" horiz-adv-x="416" 
d="M199 774q170 0 170 -215q0 -235 -170 -235q-63 0 -100.5 32t-42.5 87l49 4q4 -36 28.5 -58.5t65.5 -22.5q70 0 100 73q18 44 18 123q-36 -71 -131 -71q-63 0 -105 37t-42 102q0 68 43 106t117 38zM199 529q49 0 78.5 27.5t29.5 73.5t-29.5 74t-78.5 28t-78.5 -28
t-29.5 -74t29.5 -73.5t78.5 -27.5z" />
    <glyph glyph-name="exclamdown.case" horiz-adv-x="267" 
d="M95 700h77v-96h-77v96zM159 510l9 -510h-69l9 510h51z" />
    <glyph glyph-name="questiondown.case" horiz-adv-x="483" 
d="M295 700v-96h-77v96h77zM233 -12q-89 0 -143 43.5t-54 131.5q0 60 27.5 104.5t90.5 94.5q43 34 57.5 58t14.5 70v18h62v-21q0 -61 -18.5 -92t-63.5 -65q-54 -45 -80 -80.5t-26 -85.5q0 -62 35.5 -92.5t97.5 -30.5q74 0 117.5 44t50.5 132l60 -4q-7 -112 -68 -168.5
t-160 -56.5z" />
    <glyph glyph-name="braceleft.case" horiz-adv-x="321" 
d="M194 485q0 -122 -90 -140v-4q90 -18 90 -140v-127q0 -58 20.5 -83t67.5 -25h6v-44h-9q-70 0 -105 33.5t-35 112.5v125q0 73 -24.5 100.5t-66.5 27.5h-7v44h7q42 0 66.5 27.5t24.5 100.5v125q0 79 35 113t105 34h9v-45h-6q-47 0 -67.5 -25t-20.5 -83v-127z" />
    <glyph glyph-name="braceright.case" horiz-adv-x="321" 
d="M273 365h7v-44h-7q-42 0 -66.5 -27.5t-24.5 -100.5v-125q0 -79 -35 -112.5t-105 -33.5h-9v44h6q47 0 67.5 25t20.5 83v127q0 121 90 140v4q-90 19 -90 140v127q0 58 -20.5 83t-67.5 25h-6v45h9q70 0 105 -34t35 -113v-125q0 -73 24.5 -100.5t66.5 -27.5z" />
    <glyph glyph-name="bracketleft.case" horiz-adv-x="275" 
d="M243 716h-94v-746h94v-48h-151v843h151v-49z" />
    <glyph glyph-name="bracketright.case" horiz-adv-x="275" 
d="M184 765v-843h-151v48h93v746h-93v49h151z" />
    <glyph glyph-name="parenleft.case" horiz-adv-x="293" 
d="M115 349q0 -264 166 -428h-56q-71 65 -121 171.5t-50 256.5t50 256.5t121 171.5h56q-166 -164 -166 -428z" />
    <glyph glyph-name="parenright.case" horiz-adv-x="293" 
d="M68 777q72 -65 122 -171.5t50 -256.5t-50 -256.5t-122 -171.5h-56q167 165 167 428t-167 428h56z" />
    <glyph glyph-name="emdash.case" horiz-adv-x="677" 
d="M60 380h556v-49h-556v49z" />
    <glyph glyph-name="endash.case" horiz-adv-x="548" 
d="M60 380h427v-49h-427v49z" />
    <glyph glyph-name="hyphen.case" horiz-adv-x="369" 
d="M60 380h248v-49h-248v49z" />
    <glyph glyph-name="guillemotleft.case" horiz-adv-x="417" 
d="M220 521l-138 -171l138 -171h-66l-121 153v36l121 153h66zM372 521l-138 -171l138 -171h-66l-121 153v36l121 153h66z" />
    <glyph glyph-name="guillemotright.case" horiz-adv-x="417" 
d="M111 521l121 -153v-36l-121 -153h-66l138 171l-138 171h66zM263 521l121 -153v-36l-121 -153h-66l138 171l-138 171h66z" />
    <glyph glyph-name="guilsinglleft.case" horiz-adv-x="265" 
d="M220 521l-138 -171l138 -171h-66l-121 153v36l121 153h66z" />
    <glyph glyph-name="guilsinglright.case" horiz-adv-x="265" 
d="M111 521l121 -153v-36l-121 -153h-66l138 171l-138 171h66z" />
    <glyph glyph-name="arrowup.ss01" 
d="M406 -12q-152 0 -256 100.5t-104 261.5t104 261.5t256 100.5t256 -100.5t104 -261.5t-104 -261.5t-256 -100.5zM240 331l145 141v-309h42v309l145 -141l-1 58l-165 157l-166 -157v-58z" />
    <glyph glyph-name="uni2197.ss01" 
d="M406 -12q-152 0 -256 100.5t-104 261.5t104 261.5t256 100.5t256 -100.5t104 -261.5t-104 -261.5t-256 -100.5zM259 230l28 -28l221 222l-1 -204l40 42v228h-229l-41 -40l204 3z" />
    <glyph glyph-name="arrowright.ss01" 
d="M406 -12q-152 0 -256 100.5t-104 261.5t104 261.5t256 100.5t256 -100.5t104 -261.5t-104 -261.5t-256 -100.5zM225 331h301l-143 -146h58l157 165l-157 166h-58l142 -146h-300v-39z" />
    <glyph glyph-name="uni2198.ss01" 
d="M406 -12q-152 0 -256 100.5t-104 261.5t104 261.5t256 100.5t256 -100.5t104 -261.5t-104 -261.5t-256 -100.5zM259 470l222 -223l-204 3l41 -40h229v228l-40 42l1 -204l-221 222z" />
    <glyph glyph-name="arrowdown.ss01" 
d="M406 -12q-152 0 -256 100.5t-104 261.5t104 261.5t256 100.5t256 -100.5t104 -261.5t-104 -261.5t-256 -100.5zM240 369v-58l166 -157l165 157l1 58l-145 -141v309h-42v-309z" />
    <glyph glyph-name="uni2199.ss01" 
d="M406 -12q-152 0 -256 100.5t-104 261.5t104 261.5t256 100.5t256 -100.5t104 -261.5t-104 -261.5t-256 -100.5zM553 470l-28 28l-222 -222l2 204l-40 -42v-228h229l40 40l-203 -3z" />
    <glyph glyph-name="arrowleft.ss01" 
d="M406 -12q-152 0 -256 100.5t-104 261.5t104 261.5t256 100.5t256 -100.5t104 -261.5t-104 -261.5t-256 -100.5zM587 331v39h-300l142 146h-58l-157 -166l157 -165h58l-143 146h301z" />
    <glyph glyph-name="uni2196.ss01" 
d="M406 -12q-152 0 -256 100.5t-104 261.5t104 261.5t256 100.5t256 -100.5t104 -261.5t-104 -261.5t-256 -100.5zM553 230l-222 223l203 -3l-40 40h-229v-228l40 -42l-2 204l222 -222z" />
    <glyph glyph-name="arrowboth.ss01" 
d="M406 -12q-152 0 -256 100.5t-104 261.5t104 261.5t256 100.5t256 -100.5t104 -261.5t-104 -261.5t-256 -100.5zM168 350l126 -133h53l-112 114h342l-112 -114h53l126 133l-127 133h-52l112 -114h-342l112 114h-52z" />
    <glyph glyph-name="arrowupdn.ss01" 
d="M406 -12q-152 0 -256 100.5t-104 261.5t104 261.5t256 100.5t256 -100.5t104 -261.5t-104 -261.5t-256 -100.5zM273 239l133 -126l133 127v52l-113 -111v340l113 -112v53l-133 127l-133 -126v-54l112 111v-338l-112 110v-53z" />
    <glyph glyph-name="at.case" horiz-adv-x="871" 
d="M537 545h51v-220q0 -69 21 -102.5t67 -33.5q53 0 81.5 44t28.5 124q0 143 -100 243t-250 100q-146 0 -248.5 -103t-102.5 -250q0 -158 99.5 -256t261.5 -98q119 0 204 44l20 -30q-92 -48 -224 -48q-180 0 -289 106t-109 282q0 166 112 276.5t276 110.5
q168 0 277.5 -107.5t109.5 -267.5q0 -100 -42 -154t-115 -54q-47 0 -79 23.5t-43 66.5q-18 -47 -55 -73t-82 -26q-69 0 -113 55.5t-44 150.5q0 96 44 151.5t113 55.5q43 0 77.5 -23.5t52.5 -65.5v79zM419 184q55 0 86.5 44.5t31.5 119.5t-32 120t-86 45t-86 -45t-32 -120
t31.5 -119.5t86.5 -44.5z" />
    <glyph glyph-name="russianfonts" horiz-adv-x="609" 
d="M54 213q0 -65 13 -114q12 -51 32 -80.5t41 -29.5q38 0 85.5 44.5t88.5 121.5q41 78 60 148q2 6 8 31v-288l-34 -23v-23h173v23l-35 23v322l35 24v23h-139q-6 -22 -16 -49q-11 -32 -33 -91q-51 -128 -97 -176q-28 -30 -43 -30q-8 0 -8 40q0 47 17 115q17 65 54 127.5
t77 94.5q37 30 73 39.5t92 9.5h23v6q0 33 -16 72q-17 44 -48 72t-69 28q-66 0 -143 -46q-84 -49 -137.5 -155t-53.5 -259z" />
    </font>
</defs>
</svg>
