<svg xmlns="http://www.w3.org/2000/svg">
<defs>
<font id="UntitledSans-Light" horiz-adv-x="1157" >
  <font-face 
    font-family="Copyright Klim Type Foundry"
    font-weight="300"
    font-stretch="normal"
    units-per-em="2048"
    panose-1="2 11 3 3 3 2 2 6 2 3"
    ascent="1638"
    descent="-410"
    x-height="1024"
    cap-height="1462"
    bbox="-401 -449 2136 1954"
    underline-thickness="81"
    underline-position="-244"
    unicode-range="U+000D-F6C3"
  />
<missing-glyph horiz-adv-x="2412" 
d="M1964 961q12 0 32 2q15 1 36 6v-113q-27 -8 -51 -12q-21 -4 -58 -4q-86 0 -129 43t-43 129v256h-74v106h74v133h152v-133h116v-106h-116v-238q0 -34 15 -52q14 -17 46 -17zM502 1374h153v-82q22 46 64 71q44 26 98 26q92 0 144 -54q51 -52 51 -149v-338h-154v303
q0 60 -24 90q-25 31 -72 31q-52 0 -79 -36q-28 -37 -28 -103v-285h-153v526zM1366 838q-126 0 -200 74t-74 202q0 126 74 200q75 75 200 75q123 0 198 -75q74 -74 74 -200t-74 -201t-198 -75zM1366 1278q-60 0 -91 -42q-32 -43 -32 -122q0 -81 32 -125q31 -43 91 -43
q55 0 87 44t32 124q0 76 -31 121q-30 43 -88 43zM379 848h-174v174h174v-174zM2032 733v-112q-21 5 -36 6q-20 2 -32 2q-31 0 -46 -18t-15 -52v-31h116v-106h-116v-422h-152v422h-74v106h74v50q0 86 43 129t129 43q31 0 58 -5q24 -5 51 -12zM1012 0h-152v84q-21 -43 -64 -70
q-42 -26 -100 -26q-106 0 -168 75q-63 77 -63 201t63 200q63 77 168 77q52 0 96 -26q44 -25 66 -69v297h154v-743zM1479 166h147q-24 -86 -90 -132q-65 -46 -166 -46q-127 0 -202 74q-76 75 -76 200t78 200q80 77 200 77q121 0 193 -74q71 -72 71 -193v-47h-395
q7 -62 41 -96q33 -33 90 -33q43 0 70 18t39 52zM1370 432q-51 0 -84 -30t-43 -85h242q-1 50 -33 83q-30 32 -82 32zM739 96q57 0 90 42t33 116v18q0 74 -33 116t-90 42t-90 -44t-33 -122t33 -123t90 -45z" />
    <glyph glyph-name="f_idieresis" unicode="f&#xef;" horiz-adv-x="1130" 
d="M219 0v928h-151v96h151v160q0 152 86 241q85 88 236 88q39 0 84 -9q46 -9 67 -23v-101q-29 14 -70 21q-50 8 -92 8q-101 0 -147 -56q-47 -58 -47 -177v-152h225v-96h-225v-928h-117zM1090 1260h-138v180h138v-180zM815 0v1024h121v-1024h-121z" />
    <glyph glyph-name=".notdef" horiz-adv-x="2412" 
d="M1964 961q12 0 32 2q15 1 36 6v-113q-27 -8 -51 -12q-21 -4 -58 -4q-86 0 -129 43t-43 129v256h-74v106h74v133h152v-133h116v-106h-116v-238q0 -34 15 -52q14 -17 46 -17zM502 1374h153v-82q22 46 64 71q44 26 98 26q92 0 144 -54q51 -52 51 -149v-338h-154v303
q0 60 -24 90q-25 31 -72 31q-52 0 -79 -36q-28 -37 -28 -103v-285h-153v526zM1366 838q-126 0 -200 74t-74 202q0 126 74 200q75 75 200 75q123 0 198 -75q74 -74 74 -200t-74 -201t-198 -75zM1366 1278q-60 0 -91 -42q-32 -43 -32 -122q0 -81 32 -125q31 -43 91 -43
q55 0 87 44t32 124q0 76 -31 121q-30 43 -88 43zM379 848h-174v174h174v-174zM2032 733v-112q-21 5 -36 6q-20 2 -32 2q-31 0 -46 -18t-15 -52v-31h116v-106h-116v-422h-152v422h-74v106h74v50q0 86 43 129t129 43q31 0 58 -5q24 -5 51 -12zM1012 0h-152v84q-21 -43 -64 -70
q-42 -26 -100 -26q-106 0 -168 75q-63 77 -63 201t63 200q63 77 168 77q52 0 96 -26q44 -25 66 -69v297h154v-743zM1479 166h147q-24 -86 -90 -132q-65 -46 -166 -46q-127 0 -202 74q-76 75 -76 200t78 200q80 77 200 77q121 0 193 -74q71 -72 71 -193v-47h-395
q7 -62 41 -96q33 -33 90 -33q43 0 70 18t39 52zM1370 432q-51 0 -84 -30t-43 -85h242q-1 50 -33 83q-30 32 -82 32zM739 96q57 0 90 42t33 116v18q0 74 -33 116t-90 42t-90 -44t-33 -122t33 -123t90 -45z" />
    <glyph glyph-name=".null" horiz-adv-x="0" 
 />
    <glyph glyph-name="nonmarkingreturn" unicode="&#xd;" horiz-adv-x="452" 
 />
    <glyph glyph-name="NULL" horiz-adv-x="0" 
 />
    <glyph glyph-name="NULL" horiz-adv-x="0" 
 />
    <glyph glyph-name="space" unicode=" " horiz-adv-x="450" 
 />
    <glyph glyph-name="exclam" unicode="!" horiz-adv-x="608" 
d="M258 424l-25 1038h144l-25 -1038h-94zM393 0h-178v178h178v-178z" />
    <glyph glyph-name="quotedbl" unicode="&#x22;" horiz-adv-x="802" 
d="M608 967h-100l-19 540h136zM297 967h-100l-19 540h135z" />
    <glyph glyph-name="numbersign" unicode="#" horiz-adv-x="1478" 
d="M856 82h-113l101 401h-340l-101 -401h-114l100 401h-254l19 95h260l84 333h-273l17 97h280l101 401h114l-100 -401h340l100 401h113l-100 -401h253l-16 -97h-262l-84 -333h274l-18 -95h-281zM612 911l-84 -333h340l84 333h-340z" />
    <glyph glyph-name="dollar" unicode="$" horiz-adv-x="1327" 
d="M1186 393q0 -169 -129 -285q-130 -116 -332 -128v-203h-107v205q-218 18 -354 137t-143 307h117q15 -146 113 -231q100 -87 267 -103v596l-98 21q-184 39 -268 129t-84 241q0 172 125 285q126 114 325 121v192h107v-196q192 -16 302 -113q110 -96 128 -264h-117
q-15 115 -95 182q-81 67 -218 84v-582l113 -22q178 -39 263 -130t85 -243zM285 1079q0 -110 59 -166q62 -59 209 -88l65 -14v563q-152 -7 -243 -88q-90 -80 -90 -207zM1069 389q0 110 -67 174q-66 63 -205 90l-72 15v-578q157 7 251 89q93 81 93 210z" />
    <glyph glyph-name="percent" unicode="%" horiz-adv-x="1712" 
d="M471 852q-129 0 -222 93t-93 224q0 132 93 225t222 93q132 0 226 -92t94 -226q0 -133 -94 -225t-226 -92zM334 2l921 1460h127l-921 -1460h-127zM471 1382q-87 0 -146 -62q-61 -64 -61 -151q0 -88 61 -151q60 -62 146 -62q91 0 151 62q60 61 60 151q0 91 -61 152t-150 61
zM1237 -27q-130 0 -223 93q-92 92 -92 223t93 225t222 94q133 0 226 -93t93 -226q0 -131 -93 -223q-95 -93 -226 -93zM1237 504q-86 0 -146 -63q-61 -64 -61 -152q0 -87 61 -150q60 -61 146 -61q91 0 151 61t60 150q0 88 -62 152q-62 63 -149 63z" />
    <glyph glyph-name="ampersand" unicode="&#x26;" horiz-adv-x="1458" 
d="M1407 0h-162l-174 174q-96 -96 -220 -147q-127 -52 -263 -52q-201 0 -332 111t-131 285q0 131 74 226t260 191q-97 103 -137 185q-41 84 -41 168q0 149 102 248q101 98 264 98q159 0 254 -89q94 -88 94 -237q0 -117 -79 -208t-269 -185l428 -432q54 82 85 179
q33 103 40 212h111q-7 -130 -50 -250q-42 -119 -114 -215zM649 1382q-107 0 -175 -65t-68 -174q0 -72 36 -137q39 -70 131 -162q172 79 238 150q66 70 66 169q0 93 -65 156t-163 63zM248 375q0 -125 99 -209t241 -84q122 0 227 42q103 41 184 122l-467 467
q-163 -83 -223 -158q-61 -76 -61 -180z" />
    <glyph glyph-name="quotesingle" unicode="'" horiz-adv-x="491" 
d="M297 967h-100l-19 540h135z" />
    <glyph glyph-name="parenleft" unicode="(" horiz-adv-x="765" 
d="M303 643q0 -219 85 -438t245 -426h-121q-165 208 -247 423q-83 219 -83 441q0 223 84 442q84 220 246 422h121q-162 -220 -246 -440q-84 -219 -84 -424z" />
    <glyph glyph-name="parenright" unicode=")" horiz-adv-x="765" 
d="M463 643q0 205 -84 424q-84 220 -246 440h121q162 -202 246 -422q84 -219 84 -442q0 -222 -83 -441q-82 -215 -247 -423h-121q160 207 245 426t85 438z" />
    <glyph glyph-name="asterisk" unicode="*" horiz-adv-x="819" 
d="M360 1204v283h99v-283l262 88l31 -92l-267 -90l162 -221l-78 -62l-159 230l-160 -230l-78 62l162 221l-266 90l30 92z" />
    <glyph glyph-name="plus" unicode="+" horiz-adv-x="1351" 
d="M1204 737v-108h-473v-477h-108v477h-478v108h478v475h108v-475h473z" />
    <glyph glyph-name="comma" unicode="," horiz-adv-x="606" 
d="M291 0h-76v178h176v-221q0 -123 -68 -194q-69 -72 -186 -72v82q78 0 116 45q38 46 38 139v43z" />
    <glyph glyph-name="hyphen" unicode="-" horiz-adv-x="919" 
d="M741 514h-563v111h563v-111z" />
    <glyph glyph-name="period" unicode="." horiz-adv-x="606" 
d="M391 0h-176v178h176v-178z" />
    <glyph glyph-name="slash" unicode="/" horiz-adv-x="1007" 
d="M229 -221h-118l667 1728h119z" />
    <glyph glyph-name="zero" unicode="0" horiz-adv-x="1359" 
d="M680 -25q-250 0 -405 210q-154 209 -154 546t154 546q155 210 405 210t404 -210q155 -211 155 -546t-155 -546q-154 -210 -404 -210zM680 1370q-206 0 -320 -171t-114 -468t114 -468t320 -171q205 0 319 171q115 172 115 468q0 295 -115 468q-114 171 -319 171z" />
    <glyph glyph-name="one" unicode="1" horiz-adv-x="700" 
d="M358 1163h-311v84q173 0 258 50q84 50 113 173h63v-1470h-123v1163z" />
    <glyph glyph-name="two" unicode="2" horiz-adv-x="1142" 
d="M594 1487q200 0 322 -119t122 -299q0 -94 -37 -172q-40 -84 -114 -154q-64 -61 -177 -138q-118 -81 -120 -81q-240 -170 -307 -253q-69 -86 -68 -160h840v-111h-967v66q0 137 109 275q108 137 358 294q219 145 291 236q74 94 74 196q0 141 -86 224t-240 83
q-152 0 -250 -98q-99 -99 -111 -254h-114q11 206 140 335q130 130 335 130z" />
    <glyph glyph-name="three" unicode="3" horiz-adv-x="1228" 
d="M811 748q129 -18 213 -117t84 -234q0 -185 -135 -303q-136 -119 -357 -119q-227 0 -365 120q-139 120 -155 327h123q12 -158 117 -248t280 -90q172 0 273 84q100 84 100 227q0 134 -92 214q-91 79 -250 79h-166v113h160q146 0 226 71q81 72 81 205q0 137 -88 219t-239 82
q-159 0 -257 -97q-100 -98 -110 -253h-119q15 210 145 334q131 125 341 125q205 0 329 -116q123 -115 123 -296q0 -127 -75 -219t-187 -108z" />
    <glyph glyph-name="four" unicode="4" horiz-adv-x="1327" 
d="M784 1462h146v-938h325v-102h-325v-422h-121v422h-727v104zM809 524v797l-596 -797h596z" />
    <glyph glyph-name="five" unicode="5" horiz-adv-x="1222" 
d="M993 473q0 173 -100 279t-272 106q-110 0 -199 -48q-88 -48 -141 -134h-111l80 786h794v-112h-704l-55 -541q53 71 144 114q94 44 189 44q220 0 357 -141q137 -142 137 -355q0 -220 -136 -357q-137 -139 -355 -139q-214 0 -354 124q-139 123 -156 331h120
q12 -157 119 -252q106 -94 273 -94q173 0 271 107q99 108 99 282z" />
    <glyph glyph-name="six" unicode="6" horiz-adv-x="1263" 
d="M680 1374q-209 0 -327 -196q-117 -194 -117 -533q38 147 155 239q119 93 279 93q209 0 342 -139t133 -355q0 -225 -135 -366q-136 -142 -353 -142q-239 0 -388 201q-148 200 -148 531q0 343 157 562q156 218 402 218q188 0 308 -105q121 -106 145 -288h-115
q-29 142 -113 211t-225 69zM285 477q0 -170 104 -280q105 -111 268 -111q165 0 268 109q101 107 101 282q0 173 -101 280t-268 107q-163 0 -268 -108q-104 -107 -104 -279z" />
    <glyph glyph-name="seven" unicode="7" horiz-adv-x="1153" 
d="M913 1350h-858v112h1006v-78q-246 -299 -366 -634q-119 -335 -124 -750h-133q5 371 126 716q122 345 349 634z" />
    <glyph glyph-name="eight" unicode="8" horiz-adv-x="1296" 
d="M182 1087q0 178 130 289t335 111q206 0 336 -110q129 -109 129 -290q0 -123 -64 -211q-66 -90 -184 -135q132 -23 223 -121q93 -101 93 -223q0 -188 -147 -305t-386 -117t-385 117q-145 117 -145 305q0 123 92 223q91 98 223 121q-119 44 -185 136q-65 91 -65 210z
M301 1092q0 -135 95 -212t251 -77q158 0 253 77t95 212q0 133 -95 210q-94 76 -253 76q-157 0 -251 -76q-95 -77 -95 -210zM246 391q0 -141 108 -224q109 -83 293 -83q186 0 295 83t109 224q0 138 -109 220q-108 81 -295 81q-185 0 -293 -81t-108 -220z" />
    <glyph glyph-name="nine" unicode="9" horiz-adv-x="1263" 
d="M584 88q207 0 326 197q118 196 118 532q-37 -145 -156 -238q-120 -94 -278 -94q-208 0 -342 140q-133 139 -133 354q0 226 135 367t352 141q240 0 388 -201q149 -202 149 -530q0 -343 -157 -562t-402 -219q-189 0 -309 105t-144 289h115q29 -143 112 -211q85 -70 226 -70
zM979 985q0 170 -105 281q-104 110 -268 110q-165 0 -267 -108q-101 -107 -101 -283q0 -172 101 -279q102 -108 267 -108q162 0 268 109q105 108 105 278z" />
    <glyph glyph-name="colon" unicode=":" horiz-adv-x="606" 
d="M391 713h-176v178h176v-178zM391 0h-176v178h176v-178z" />
    <glyph glyph-name="semicolon" unicode=";" horiz-adv-x="606" 
d="M291 0h-76v178h176v-221q0 -123 -68 -194q-69 -72 -186 -72v82q78 0 116 45q38 46 38 139v43zM391 713h-176v178h176v-178z" />
    <glyph glyph-name="less" unicode="&#x3c;" horiz-adv-x="1351" 
d="M1100 152l-895 462v127l895 461v-129l-774 -395l774 -395v-131z" />
    <glyph glyph-name="equal" unicode="=" horiz-adv-x="1351" 
d="M1184 793h-1018v112h1018v-112zM1184 424h-1018v111h1018v-111z" />
    <glyph glyph-name="greater" unicode="&#x3e;" horiz-adv-x="1351" 
d="M1145 741v-127l-895 -462v131l774 395l-774 395v129z" />
    <glyph glyph-name="question" unicode="?" horiz-adv-x="1132" 
d="M584 1487q200 0 321 -118t121 -298q0 -73 -22 -135t-68 -123q-22 -29 -67 -74q-32 -32 -136 -114q-93 -73 -121 -125q-27 -50 -32 -125h-121q4 97 54 180q48 81 171 176q130 99 177 175q48 76 48 163q0 139 -86 223q-85 84 -239 84q-156 0 -253 -97t-108 -255h-117
q12 207 143 335t335 128zM608 0h-178v178h178v-178z" />
    <glyph glyph-name="at" unicode="@" horiz-adv-x="1878" 
d="M1223 893h110l-104 -594q-12 -66 14 -101q27 -36 88 -36q137 0 225 129q89 130 89 340q0 261 -179 420q-178 159 -469 159q-329 0 -542 -217t-213 -549q0 -320 209 -505t548 -185q118 0 238 23q117 23 213 63l35 -86q-105 -47 -232 -72q-130 -26 -254 -26
q-387 0 -626 211q-240 211 -240 577q0 178 64 340q63 159 182 281q118 121 277 184q162 64 341 64q333 0 546 -193q212 -192 212 -489q0 -250 -126 -406q-125 -155 -308 -155q-83 0 -139 40q-57 41 -72 107q-38 -64 -104 -102q-68 -39 -146 -39q-137 0 -218 93t-81 247
q0 204 119 350q118 145 297 145q74 0 138 -41q62 -40 85 -102zM877 182q93 0 169 68q74 67 97 180l14 92q23 132 -25 208q-48 77 -151 77q-128 0 -217 -115q-88 -113 -88 -272q0 -111 54 -174q55 -64 147 -64z" />
    <glyph glyph-name="A" unicode="A" horiz-adv-x="1413" 
d="M1372 0h-131l-174 436h-727l-174 -436h-125l596 1462h139zM707 1335h-7l-317 -792h641z" />
    <glyph glyph-name="B" unicode="B" horiz-adv-x="1353" 
d="M1253 406q0 -196 -131 -301q-130 -105 -372 -105h-545v1462h471q245 0 375 -100q131 -101 131 -287q0 -100 -67 -193q-66 -91 -163 -120q142 -33 222 -128q79 -94 79 -228zM328 1352v-549h366q176 0 267 70q92 71 92 206t-90 204t-267 69h-368zM743 696h-415v-585h420
q182 0 279 75q99 76 99 215t-100 217t-283 78z" />
    <glyph glyph-name="C" unicode="C" horiz-adv-x="1380" 
d="M750 1374q-236 0 -373 -173t-137 -468q0 -296 137 -471q137 -174 373 -174q170 0 276 83q105 82 135 237h123q-35 -204 -176 -318q-142 -115 -358 -115q-281 0 -460 210q-179 211 -179 548q0 336 179 545t460 209q216 0 358 -115q141 -114 176 -317h-123
q-30 154 -135 236q-106 83 -276 83z" />
    <glyph glyph-name="D" unicode="D" horiz-adv-x="1511" 
d="M205 1462h493q313 0 508 -202q195 -203 195 -529q0 -328 -195 -529q-196 -202 -508 -202h-493v1462zM1272 731q0 286 -154 454q-153 167 -420 167h-370v-1241h370q267 0 420 167q154 168 154 453z" />
    <glyph glyph-name="E" unicode="E" horiz-adv-x="1296" 
d="M1153 111v-111h-948v1462h952v-110h-829v-568h739v-110h-739v-563h825z" />
    <glyph glyph-name="F" unicode="F" horiz-adv-x="1239" 
d="M328 0h-123v1462h895v-110h-772v-582h706v-111h-706v-659z" />
    <glyph glyph-name="G" unicode="G" horiz-adv-x="1509" 
d="M768 -25q-288 0 -473 210q-184 209 -184 548q0 335 185 544q186 210 474 210q223 0 368 -115q144 -114 181 -319h-125q-30 153 -141 237t-283 84q-243 0 -387 -174q-143 -173 -143 -467q0 -296 140 -470q141 -175 382 -175q204 0 335 120q130 120 130 314v90h-381v109
h500v-721h-101l-16 264q-40 -124 -172 -207q-130 -82 -289 -82z" />
    <glyph glyph-name="H" unicode="H" horiz-adv-x="1570" 
d="M328 0h-123v1462h123v-663h915v663h123v-1462h-123v688h-915v-688z" />
    <glyph glyph-name="I" unicode="I" horiz-adv-x="532" 
d="M328 0h-123v1462h123v-1462z" />
    <glyph glyph-name="J" unicode="J" horiz-adv-x="1124" 
d="M479 80q168 0 255 111t87 323v948h123v-948q0 -251 -124 -394q-125 -145 -341 -145q-196 0 -322 117q-127 118 -134 311h122q7 -150 99 -237q91 -86 235 -86z" />
    <glyph glyph-name="K" unicode="K" horiz-adv-x="1415" 
d="M1337 0h-149l-625 729l-235 -233v-496h-123v1462h123v-825l821 825h158l-656 -647z" />
    <glyph glyph-name="L" unicode="L" horiz-adv-x="1257" 
d="M1130 0h-925v1462h123v-1351h802v-111z" />
    <glyph glyph-name="M" unicode="M" horiz-adv-x="1787" 
d="M1460 1356l-510 -1356h-112l-508 1356h-4v-1356h-121v1462h209l483 -1306h4l483 1306h199v-1462h-119v1356h-4z" />
    <glyph glyph-name="N" unicode="N" horiz-adv-x="1527" 
d="M205 1462h160l833 -1241h4v1241h121v-1462h-117l-876 1311h-4v-1311h-121v1462z" />
    <glyph glyph-name="O" unicode="O" horiz-adv-x="1517" 
d="M760 1487q290 0 468 -211q179 -212 179 -545q0 -335 -179 -546q-178 -210 -468 -210q-291 0 -470 210q-179 211 -179 546q0 336 180 546t469 210zM760 88q242 0 380 173q138 172 138 470q0 295 -138 469t-380 174q-244 0 -382 -174t-138 -469q0 -297 138 -470t382 -173z
" />
    <glyph glyph-name="P" unicode="P" horiz-adv-x="1306" 
d="M1206 1040q0 -204 -128 -314t-367 -110h-383v-616h-123v1462h506q239 0 367 -108t128 -314zM328 1352v-625h387q183 0 274 79q92 80 92 234q0 153 -92 233q-91 79 -274 79h-387z" />
    <glyph glyph-name="Q" unicode="Q" horiz-adv-x="1517" 
d="M1176 131l147 -158l-76 -73l-157 166q-73 -46 -156 -68q-86 -23 -174 -23q-291 0 -470 210q-179 211 -179 546q0 336 180 546t469 210q290 0 468 -211q179 -212 179 -545q0 -191 -59 -343q-61 -156 -172 -257zM760 1374q-244 0 -382 -174t-138 -469q0 -297 138 -470
t382 -173q69 0 132 15q56 13 120 47l-185 194l78 76l193 -205q87 83 134 217q46 132 46 299q0 295 -138 469t-380 174z" />
    <glyph glyph-name="R" unicode="R" horiz-adv-x="1386" 
d="M328 618v-618h-123v1462h528q240 0 369 -108t129 -314q0 -158 -98 -268t-254 -137l419 -635h-143l-405 618h-422zM328 1352v-625h405q180 0 275 82q96 83 96 231t-97 230t-274 82h-405z" />
    <glyph glyph-name="S" unicode="S" horiz-adv-x="1331" 
d="M694 -25q-257 0 -414 119t-169 334h118q16 -167 137 -256q119 -88 328 -88q178 0 285 83q106 82 106 222q0 110 -68 172q-69 63 -212 90l-283 58q-188 37 -275 127t-87 241q0 179 136 294q137 116 351 116q235 0 371 -99q138 -100 156 -286h-121q-21 130 -128 203
t-278 73q-165 0 -267 -84q-101 -83 -101 -217q0 -109 59 -165t215 -89l291 -59q188 -39 274 -129q86 -91 86 -242q0 -182 -143 -300t-367 -118z" />
    <glyph glyph-name="T" unicode="T" horiz-adv-x="1406" 
d="M764 0h-123v1352h-557v110h1239v-110h-559v-1352z" />
    <glyph glyph-name="U" unicode="U" horiz-adv-x="1507" 
d="M1327 1462v-862q0 -300 -149 -462q-150 -163 -424 -163t-424 164q-150 163 -150 465v858h123v-880q0 -241 118 -368q119 -128 333 -128q213 0 332 128q118 127 118 368v880h123z" />
    <glyph glyph-name="V" unicode="V" horiz-adv-x="1423" 
d="M782 0h-143l-598 1462h127l543 -1343h4l542 1343h125z" />
    <glyph glyph-name="W" unicode="W" horiz-adv-x="1957" 
d="M1481 0h-146l-354 1284h-4l-356 -1284h-144l-416 1462h134l360 -1304h4l354 1304h140l356 -1304h4l359 1304h124z" />
    <glyph glyph-name="X" unicode="X" horiz-adv-x="1404" 
d="M1364 0h-147l-525 684l-514 -684h-137l584 772l-527 690h150l450 -596l447 596h137l-516 -680z" />
    <glyph glyph-name="Y" unicode="Y" horiz-adv-x="1312" 
d="M717 610v-610h-123v610l-553 852h137l484 -739h4l469 739h137z" />
    <glyph glyph-name="Z" unicode="Z" horiz-adv-x="1349" 
d="M1223 1462v-102l-944 -1249h948v-111h-1110v88l948 1264h-915v110h1073z" />
    <glyph glyph-name="bracketleft" unicode="[" horiz-adv-x="790" 
d="M635 1407h-301v-1528h301v-100h-412v1728h412v-100z" />
    <glyph glyph-name="backslash" unicode="\" horiz-adv-x="1007" 
d="M778 -221l-667 1728h118l668 -1728h-119z" />
    <glyph glyph-name="bracketright" unicode="]" horiz-adv-x="790" 
d="M156 1507h411v-1728h-411v100h301v1528h-301v100z" />
    <glyph glyph-name="asciicircum" unicode="^" horiz-adv-x="864" 
d="M57 997l330 490h90l328 -490h-121l-252 375l-252 -375h-123z" />
    <glyph glyph-name="underscore" unicode="_" horiz-adv-x="892" 
d="M825 -227h-757v108h757v-108z" />
    <glyph glyph-name="grave" unicode="`" 
d="M604 1507l119 -315h-72l-217 315h170z" />
    <glyph glyph-name="a" unicode="a" horiz-adv-x="1105" 
d="M946 0h-123q-11 38 -15 87q-5 55 -5 93q-33 -89 -133 -146t-232 -57q-142 0 -233 81q-92 81 -92 212q0 128 86 205q84 75 260 98l344 45v68q0 126 -69 192t-197 66q-114 0 -182 -55q-69 -55 -79 -154h-116q15 144 118 229t259 85q182 0 283 -90q100 -89 100 -257v-514
q0 -59 7 -102q8 -51 19 -86zM236 268q0 -86 58 -138t159 -52q147 0 248 91q102 92 102 236v111l-309 -35q-146 -21 -202 -70t-56 -143z" />
    <glyph glyph-name="b" unicode="b" horiz-adv-x="1239" 
d="M662 -25q-116 0 -213 59q-98 60 -142 152v-186h-112v1507h118v-673q40 94 134 155q93 60 215 60q200 0 330 -150q130 -149 130 -387t-130 -387q-130 -150 -330 -150zM649 948q-161 0 -252 -114q-92 -115 -92 -310v-22q0 -195 92 -311q91 -115 252 -115q162 0 257 119
t95 317t-95 317t-257 119z" />
    <glyph glyph-name="c" unicode="c" horiz-adv-x="1083" 
d="M582 -25q-210 0 -337 147q-128 148 -128 390q0 241 128 389t337 148q163 0 264 -88q103 -89 127 -246h-113q-28 116 -95 172q-69 57 -183 57q-162 0 -255 -116q-94 -117 -94 -316t93 -316q92 -116 256 -116q114 0 183 57q67 56 95 172h113q-24 -159 -127 -247
q-102 -87 -264 -87z" />
    <glyph glyph-name="d" unicode="d" horiz-adv-x="1239" 
d="M578 -25q-200 0 -331 150q-130 149 -130 387t130 387q130 150 331 150q121 0 214 -60q94 -61 134 -155v673h118v-1507h-112v186q-44 -93 -141 -152t-213 -59zM590 948q-162 0 -257 -119t-95 -317t95 -317t257 -119q161 0 252 115q92 116 92 311v22q0 195 -92 310
q-92 114 -252 114z" />
    <glyph glyph-name="e" unicode="e" horiz-adv-x="1120" 
d="M885 291h112q-33 -149 -142 -232q-109 -84 -261 -84q-215 0 -346 145t-131 386q0 243 130 392q131 151 335 151q195 0 309 -138q113 -137 113 -362v-57h-771q1 -194 99 -304q96 -108 262 -108q109 0 180 52q72 52 111 159zM582 944q-142 0 -233 -93q-90 -91 -111 -261
h647q-6 169 -85 261q-80 93 -218 93z" />
    <glyph glyph-name="f" unicode="f" horiz-adv-x="604" 
d="M219 0v928h-151v96h151v219q0 127 75 199q74 71 202 71q22 0 51 -3q31 -3 45 -7v-100q-4 0 -12.5 1t-17.5 2t-17 1q-38 2 -60 2q-69 0 -109 -42q-40 -41 -40 -122v-221h225v-96h-225v-928h-117z" />
    <glyph glyph-name="g" unicode="g" horiz-adv-x="1232" 
d="M573 -289q167 0 256 90q89 91 89 262v152q-43 -91 -136 -147q-92 -56 -213 -56q-201 0 -329 144q-127 143 -127 376q0 227 128 372t328 145q119 0 214 -59q97 -60 141 -152v186h114v-961q0 -215 -123 -334q-122 -118 -342 -118q-178 0 -290 74t-140 213h123
q24 -94 100 -141q74 -46 207 -46zM578 117q156 0 255 109q99 110 99 282v51q0 173 -99 281t-255 108q-160 0 -254 -112q-95 -113 -95 -304q0 -186 96 -302q94 -113 253 -113z" />
    <glyph glyph-name="h" unicode="h" horiz-adv-x="1193" 
d="M313 1507v-680q38 105 125 163q89 59 209 59q169 0 266 -103t97 -284v-662h-119v637q0 152 -68 232q-67 79 -200 79q-146 0 -228 -98t-82 -281v-569h-118v1507h118z" />
    <glyph glyph-name="i" unicode="i" horiz-adv-x="507" 
d="M326 1260h-146v180h146v-180zM313 0h-118v1024h118v-1024z" />
    <glyph glyph-name="j" unicode="j" horiz-adv-x="507" 
d="M326 1260h-146v180h146v-180zM68 -377q-12 0 -36 2q-17 1 -34 6v101q23 -2 32 -3q6 -1 19 -1q83 0 114 32q32 34 32 115v1149h118v-1137q0 -138 -59 -200q-61 -64 -186 -64z" />
    <glyph glyph-name="k" unicode="k" horiz-adv-x="1097" 
d="M1024 0h-154l-415 510l-142 -133v-377h-118v1507h118v-999l543 516h152l-465 -436z" />
    <glyph glyph-name="l" unicode="l" horiz-adv-x="507" 
d="M313 1507v-1507h-118v1507h118z" />
    <glyph glyph-name="m" unicode="m" horiz-adv-x="1818" 
d="M635 1049q121 0 198 -57t111 -173q46 110 136 169q93 61 208 61q170 0 259 -100t89 -287v-662h-120v637q0 159 -60 235t-182 76q-140 0 -219 -100q-80 -101 -80 -279v-569h-121v637q0 160 -59 235q-60 76 -183 76q-140 0 -219 -100q-80 -101 -80 -279v-569h-118v1024h112
v-197q38 103 125 162q88 60 203 60z" />
    <glyph glyph-name="n" unicode="n" horiz-adv-x="1193" 
d="M195 1024h112v-197q34 100 127 161t213 61q169 0 266 -103t97 -284v-662h-119v637q0 152 -68 232q-67 79 -200 79q-146 0 -228 -98t-82 -281v-569h-118v1024z" />
    <glyph glyph-name="o" unicode="o" horiz-adv-x="1171" 
d="M586 1049q208 0 339 -149q130 -148 130 -388q0 -243 -130 -389q-131 -148 -339 -148t-339 148q-130 146 -130 389q0 240 130 388q131 149 339 149zM586 944q-163 0 -258 -116t-95 -316t95 -316t258 -116t258 116q94 115 94 316t-94 316q-95 116 -258 116z" />
    <glyph glyph-name="p" unicode="p" horiz-adv-x="1239" 
d="M662 -25q-114 0 -208 59q-96 60 -141 152v-551h-118v1389h112v-197q40 96 137 159q96 63 218 63q200 0 330 -150q130 -149 130 -387t-130 -387q-130 -150 -330 -150zM649 948q-161 0 -252 -114q-92 -115 -92 -310v-22q0 -195 92 -311q91 -115 252 -115q162 0 257 119
t95 317t-95 317t-257 119z" />
    <glyph glyph-name="q" unicode="q" horiz-adv-x="1239" 
d="M578 -25q-200 0 -331 150q-130 149 -130 387t130 387q130 150 331 150q121 0 217 -63q97 -63 137 -159v197h112v-1389h-118v551q-45 -92 -141 -152q-94 -59 -207 -59zM590 948q-162 0 -257 -119t-95 -317t95 -317t257 -119q161 0 252 115q92 116 92 311v22q0 195 -92 310
q-92 114 -252 114z" />
    <glyph glyph-name="r" unicode="r" horiz-adv-x="751" 
d="M639 1049q13 0 41 -2l41 -5v-110q-15 5 -37 6q-30 2 -45 2q-141 0 -233 -115q-93 -116 -93 -303v-522h-118v1024h112v-250q30 124 121 200q90 75 211 75z" />
    <glyph glyph-name="s" unicode="s" horiz-adv-x="1034" 
d="M530 -25q-185 0 -300 86q-114 85 -126 238h115q11 -107 93 -165t218 -58q121 0 196 54t75 146q0 68 -47 109q-46 40 -146 61l-180 37q-152 30 -217 95q-64 64 -64 174q0 126 103 212q101 85 258 85q168 0 268 -73q98 -71 113 -212h-113q-10 88 -80 136q-69 48 -188 48
q-111 0 -181 -53q-69 -53 -69 -141q0 -68 44 -106q43 -37 149 -58l204 -41q136 -29 197 -94t61 -176q0 -130 -108 -217t-275 -87z" />
    <glyph glyph-name="t" unicode="t" horiz-adv-x="731" 
d="M477 88q38 0 74 7q43 8 84 22v-105q-35 -12 -85 -21q-39 -7 -81 -7q-132 0 -198 67q-66 68 -66 203v674h-156v96h156v264h119v-264h282v-96h-284v-684q0 -81 37 -118q38 -38 118 -38z" />
    <glyph glyph-name="u" unicode="u" horiz-adv-x="1183" 
d="M989 1024v-1024h-112v195q-38 -104 -125 -161q-89 -59 -207 -59q-174 0 -267 101q-94 102 -94 286v662h121v-641q0 -154 67 -235q65 -78 197 -78q144 0 223 100q78 99 78 285v569h119z" />
    <glyph glyph-name="v" unicode="v" horiz-adv-x="1077" 
d="M616 0h-137l-411 1024h122l355 -905h4l340 905h121z" />
    <glyph glyph-name="w" unicode="w" horiz-adv-x="1513" 
d="M694 1024h131l252 -887h4l254 887h113l-307 -1024h-127l-254 881h-6l-250 -881h-131l-305 1024h116l256 -887h4z" />
    <glyph glyph-name="x" unicode="x" horiz-adv-x="1105" 
d="M543 446l-322 -446h-129l389 528l-368 496h143l301 -410l295 410h129l-360 -489l395 -535h-144z" />
    <glyph glyph-name="y" unicode="y" horiz-adv-x="1073" 
d="M262 -274q70 0 116 52q45 51 107 208l-417 1038h127l350 -874h4l330 874h127l-420 -1063q-83 -214 -148 -276q-68 -65 -176 -66q-18 0 -42 3q-29 4 -46 7v107q25 -7 43 -8q28 -2 45 -2z" />
    <glyph glyph-name="z" unicode="z" horiz-adv-x="1044" 
d="M907 1024v-92l-645 -836h668v-96h-817v78l649 850h-623v96h768z" />
    <glyph glyph-name="braceleft" unicode="{" horiz-adv-x="837" 
d="M180 592h-112v102h112q51 0 77 28t26 81v502q0 104 52 153t163 49h184v-100h-174q-65 0 -90 -23t-25 -73v-508q0 -70 -29 -106q-30 -37 -94 -54q64 -17 94 -54q29 -36 29 -106v-508q0 -50 25 -73t90 -23h174v-100h-184q-111 0 -163 49t-52 154v501q0 53 -26 81t-77 28z
" />
    <glyph glyph-name="bar" unicode="|" horiz-adv-x="602" 
d="M246 -221v1728h110v-1728h-110z" />
    <glyph glyph-name="braceright" unicode="}" horiz-adv-x="837" 
d="M657 592q-50 0 -76 -28t-26 -81v-501q0 -105 -52 -154t-163 -49h-184v100h174q65 0 90 23q24 23 24 73v508q0 69 30 106t93 54q-63 17 -93 54t-30 106v508q0 51 -24 73q-25 23 -90 23h-174v100h184q111 0 163 -49t52 -153v-502q0 -53 26 -81t76 -28h113v-102h-113z" />
    <glyph glyph-name="asciitilde" unicode="~" horiz-adv-x="999" 
d="M469 588q-45 39 -69 53q-21 12 -42 12q-42 0 -65 -38t-27 -119h-88q0 124 47 194t133 70q37 0 73 -18q40 -20 99 -72q49 -42 69 -54q21 -12 42 -12q45 0 68 39q22 39 24 119h88q0 -125 -47 -195q-46 -69 -133 -69q-39 0 -73 17q-37 19 -99 73z" />
    <glyph glyph-name="twosuperior" horiz-adv-x="720" 
d="M371 1479q116 0 190 -68t74 -168q0 -50 -20 -95q-20 -44 -60 -83q-20 -19 -50 -42q-28 -22 -116 -77q-101 -61 -146 -107q-42 -43 -42 -85h456v-92h-577v47q0 83 56 155q59 76 200 164q115 72 154 119q38 46 38 96q0 66 -43 105q-42 38 -116 38q-75 0 -121 -48
q-47 -48 -51 -121h-107q6 117 83 189q78 73 198 73z" />
    <glyph glyph-name="threesuperior" horiz-adv-x="757" 
d="M502 1063q74 -11 119 -62t45 -122q0 -103 -78 -167q-79 -65 -207 -65q-130 0 -211 67q-79 66 -90 181h106q6 -73 59 -117q52 -43 136 -43q83 0 130 40q48 41 48 108q0 63 -45 100q-44 37 -123 37h-84v88h80q71 0 111 36q41 36 41 99q0 67 -43 107q-44 41 -115 41
q-77 0 -123 -46q-46 -47 -51 -120h-105q6 115 82 185q77 71 197 71t192 -66t72 -170q0 -71 -40 -121q-40 -51 -103 -61z" />
    <glyph glyph-name="onesuperior" horiz-adv-x="669" 
d="M412 750h213v-88h-535v88h211v514h-207v82q128 0 178 23q54 25 72 97h68v-716z" />
    <glyph glyph-name="uni00A0" unicode="&#xa0;" horiz-adv-x="450" 
 />
    <glyph glyph-name="exclamdown" unicode="&#xa1;" horiz-adv-x="608" 
d="M352 1038l25 -1038h-144l25 1038h94zM393 1284h-178v178h178v-178z" />
    <glyph glyph-name="cent" unicode="&#xa2;" horiz-adv-x="1126" 
d="M907 315h111q-24 -146 -121 -234q-95 -86 -246 -97v-201h-102v203q-193 21 -308 165q-116 145 -116 369q0 221 116 367q115 145 308 168v252h102v-250q148 -11 245 -99q98 -89 122 -233h-111q-22 104 -88 164q-65 59 -168 67v-872q101 7 168 68q66 60 88 163zM242 520
q0 -181 82 -297t225 -137v868q-143 -22 -225 -139q-82 -116 -82 -295z" />
    <glyph glyph-name="sterling" unicode="&#xa3;" horiz-adv-x="1277" 
d="M365 111h800v-111h-1032v111h23q105 0 171 102t66 256q0 37 -6 73q-6 35 -18 76h-197v105h154q0 1 -32 62q-31 59 -48 104q-18 50 -25 89q-8 46 -8 91q0 169 129 293q130 125 328 125q209 0 330 -124q123 -126 133 -339h-115q-12 168 -103 261q-90 91 -245 91
q-150 0 -242 -89t-92 -220q0 -43 9 -86q9 -42 30 -92q9 -21 40 -86q30 -61 38 -80h452v-105h-413q11 -38 15 -74q5 -42 5 -77q0 -108 -40 -203q-41 -97 -107 -153z" />
    <glyph glyph-name="yen" unicode="&#xa5;" horiz-adv-x="1329" 
d="M1159 440v-104h-434v-336h-121v336h-434v104h434v205h-434v107h381l-479 710h135l461 -684h4l448 684h137l-479 -710h383v-107h-436v-205h434z" />
    <glyph glyph-name="section" unicode="&#xa7;" horiz-adv-x="1150" 
d="M825 236q49 -44 72 -100q23 -55 23 -124q0 -128 -100 -213q-99 -84 -259 -84q-166 0 -269 81t-118 224h111q12 -89 88 -146q75 -56 188 -56q112 0 180 53t68 141q0 67 -34 113q-35 47 -124 102l-235 146q-146 89 -203 165t-57 175q0 75 38 140t111 114q-49 46 -72 101
q-22 53 -22 124q0 130 98 212q100 83 256 83q169 0 269 -73q97 -70 112 -212h-110q-12 86 -84 134t-187 48q-111 0 -176 -52t-65 -140q0 -70 32 -115q33 -47 123 -102l236 -144q147 -91 203 -166q57 -77 57 -176q0 -75 -38 -140q-36 -62 -112 -113zM461 475l219 -135l3 -2
q3 -2 9.5 -6t13.5 -8q12 -7 37 -25q62 30 94 79q31 47 31 111q0 68 -41 118q-42 51 -157 122l-217 133q-2 2 -26 17q-35 22 -38 24q-60 -29 -94 -80q-33 -49 -33 -110q0 -68 41 -118q42 -52 158 -120z" />
    <glyph glyph-name="dieresis" unicode="&#xa8;" 
d="M823 1260h-135v180h135v-180zM469 1260h-135v180h135v-180z" />
    <glyph glyph-name="copyright" unicode="&#xa9;" horiz-adv-x="1781" 
d="M891 1489q313 0 534 -222q222 -224 222 -538q0 -310 -222 -532t-534 -222q-150 0 -290 58q-138 57 -245 164t-165 244t-58 288q0 153 58 291q59 140 165 246q108 109 245 166q138 57 290 57zM891 1401q-277 0 -472 -197q-196 -198 -196 -475q0 -274 196 -470t472 -196
t472 196t196 470q0 277 -196 475q-195 197 -472 197zM903 1073q-136 0 -212 -91q-77 -92 -77 -249t77 -248q77 -90 212 -90q99 0 160 46q62 47 78 128h114q-24 -137 -116 -212q-90 -74 -236 -74q-181 0 -295 126t-114 324q0 199 114 325t295 126q145 0 237 -75
q91 -74 115 -212h-114q-18 82 -79 130q-59 46 -159 46z" />
    <glyph glyph-name="ordfeminine" unicode="&#xaa;" horiz-adv-x="798" 
d="M553 903q-24 -61 -88 -96t-150 -35q-95 0 -157 54t-62 143q0 86 58 136q57 49 176 66l219 27v41q0 78 -41 117q-40 39 -119 39q-68 0 -109 -34q-43 -36 -49 -93h-104q7 98 81 158q73 59 183 59q129 0 198 -63q68 -62 68 -179v-315q0 -38 5 -76q5 -36 12 -64h-109
q-6 22 -9 52q-3 28 -3 63zM338 854q89 0 149 56q62 57 62 145v65l-187 -22q-86 -12 -120 -42q-35 -30 -35 -85q0 -53 35 -85t96 -32zM686 528h-573v88h573v-88z" />
    <glyph glyph-name="guillemotleft" unicode="&#xab;" horiz-adv-x="1005" 
d="M651 485l221 -391h-96l-264 391l264 394h96zM274 485l220 -391h-95l-266 391l266 394h95z" />
    <glyph glyph-name="registered" unicode="&#xae;" horiz-adv-x="1169" 
d="M113 1014q0 200 137 337q136 136 336 136q198 0 335 -135q136 -135 136 -338t-136 -339t-335 -136q-200 0 -336 136q-137 137 -137 339zM180 1014q0 -178 117 -296t289 -118q171 0 288 118t117 296q0 176 -117 294q-116 117 -288 117q-173 0 -289 -117
q-117 -118 -117 -294zM492 956v-186h-89v502h209q87 0 133 -40q48 -42 48 -116q0 -52 -27 -90q-26 -36 -76 -53l123 -203h-98l-115 186h-108zM492 1198v-166h108q54 0 78 21t24 63q0 41 -25 62q-24 20 -77 20h-108z" />
    <glyph glyph-name="macron" unicode="&#xaf;" 
d="M860 1260h-561v102h561v-102z" />
    <glyph glyph-name="degree" unicode="&#xb0;" horiz-adv-x="720" 
d="M641 1210q0 -117 -80 -197q-79 -79 -201 -79q-121 0 -200 79q-80 80 -80 197q0 118 80 198q79 79 200 79q122 0 201 -79q80 -80 80 -198zM547 1210q0 80 -53 131q-54 52 -134 52q-79 0 -133 -52q-53 -51 -53 -131q0 -77 53 -130q52 -52 133 -52q82 0 134 52q53 53 53 130
z" />
    <glyph glyph-name="acute" unicode="&#xb4;" 
d="M723 1507l-217 -315h-72l119 315h170z" />
    <glyph glyph-name="paragraph" unicode="&#xb6;" horiz-adv-x="1222" 
d="M682 -260h-119v952q-228 0 -355 102q-128 102 -128 283q0 182 127 284q126 101 356 101h459v-1722h-119v1606h-221v-1606z" />
    <glyph glyph-name="periodcentered" unicode="&#xb7;" horiz-adv-x="532" 
d="M354 485h-176v179h176v-179z" />
    <glyph glyph-name="cedilla" unicode="&#xb8;" 
d="M778 -221q0 -79 -62 -123q-63 -45 -159 -45q-50 0 -91 10q-44 11 -79 29v88q36 -19 82 -32q40 -11 88 -11q56 0 88 19q33 20 33 55q0 50 -55 65t-125 -8l-37 39l119 196h79l-92 -145q92 8 151 -29q60 -37 60 -108z" />
    <glyph glyph-name="ordmasculine" unicode="&#xba;" horiz-adv-x="839" 
d="M420 770q-145 0 -233 98q-89 100 -89 260q0 158 89 258q89 99 233 99q143 0 233 -99t90 -258q0 -161 -90 -260q-89 -98 -233 -98zM420 1395q-99 0 -156 -72t-57 -195q0 -127 56 -198q57 -72 157 -72t157 72q56 71 56 198q0 122 -58 195q-57 72 -155 72zM707 528h-574v88
h574v-88z" />
    <glyph glyph-name="guillemotright" unicode="&#xbb;" horiz-adv-x="1005" 
d="M133 870h96l265 -393l-265 -391h-96l221 391zM512 870h94l266 -393l-266 -391h-94l219 391z" />
    <glyph glyph-name="onequarter" unicode="&#xbc;" horiz-adv-x="1900" 
d="M1518 1489l-1055 -1514h-123l1057 1514h121zM473 750h213v-88h-534v88h210v514h-206v82q128 0 178 23q54 25 72 97h67v-716zM1440 801h125v-514h168v-86h-168v-201h-107v201h-399v88zM1458 287v403l-295 -403h295z" />
    <glyph glyph-name="onehalf" unicode="&#xbd;" horiz-adv-x="1923" 
d="M473 750h213v-88h-534v88h210v514h-206v82q128 0 178 23q54 25 72 97h67v-716zM1538 1489l-1055 -1514h-123l1057 1514h121zM1485 817q117 0 190 -67q74 -68 74 -168q0 -54 -19 -96q-19 -43 -61 -83q-20 -19 -50 -42q-22 -17 -116 -76q-99 -60 -146 -108q-42 -44 -42 -85
h457v-92h-578v47q0 84 56 156q59 76 200 164q119 75 155 118q37 44 37 97q0 65 -43 104q-44 39 -116 39q-75 0 -121 -48t-51 -122h-107q6 117 83 189q78 73 198 73z" />
    <glyph glyph-name="threequarters" unicode="&#xbe;" horiz-adv-x="1939" 
d="M1499 801h125v-514h168v-86h-168v-201h-106v201h-400v88zM1518 287v403l-295 -403h295zM1577 1489l-1055 -1514h-123l1057 1514h121zM563 1063q74 -11 119 -62t45 -122q0 -103 -78 -167q-79 -65 -207 -65q-130 0 -211 67q-79 66 -90 181h107q6 -74 58 -117t136 -43
q83 0 130 40q49 41 49 108q0 62 -46 100q-44 37 -122 37h-84v88h80q69 0 110 36t41 99q0 67 -43 107q-44 41 -115 41q-77 0 -123 -46q-47 -47 -51 -120h-104q6 115 82 185q77 71 196 71q121 0 193 -66t72 -170q0 -71 -40 -121t-104 -61z" />
    <glyph glyph-name="questiondown" unicode="&#xbf;" horiz-adv-x="1132" 
d="M549 -25q-201 0 -322 118t-121 298q0 71 23 135q22 62 68 123q25 33 66 74q37 37 136 115q93 73 121 125q29 53 33 124h121q-4 -97 -54 -180q-48 -81 -171 -176q-132 -101 -178 -175q-48 -76 -48 -163q0 -139 86 -223q85 -84 240 -84q156 0 253 97q96 96 107 255h117
q-12 -208 -142 -335q-131 -128 -335 -128zM524 1462h178v-178h-178v178z" />
    <glyph glyph-name="Agrave" unicode="&#xc0;" horiz-adv-x="1413" 
d="M1372 0h-131l-174 436h-727l-174 -436h-125l596 1462h139zM707 1335h-7l-317 -792h641zM629 1870l119 -295h-72l-223 295h176z" />
    <glyph glyph-name="Aacute" unicode="&#xc1;" horiz-adv-x="1413" 
d="M1372 0h-131l-174 436h-727l-174 -436h-125l596 1462h139zM707 1335h-7l-317 -792h641zM967 1870l-224 -295h-71l119 295h176z" />
    <glyph glyph-name="Acircumflex" unicode="&#xc2;" horiz-adv-x="1413" 
d="M1372 0h-131l-174 436h-727l-174 -436h-125l596 1462h139zM707 1335h-7l-317 -792h641zM446 1571l185 299h155l183 -299h-82l-178 203l-179 -203h-84z" />
    <glyph glyph-name="Atilde" unicode="&#xc3;" horiz-adv-x="1413" 
d="M1372 0h-131l-174 436h-727l-174 -436h-125l596 1462h139zM707 1335h-7l-317 -792h641zM676 1673q-45 39 -69 53q-23 13 -42 13q-42 0 -65 -38q-22 -37 -27 -120h-88q0 125 47 195q46 69 133 69q39 0 73 -17q37 -19 99 -73q45 -39 69 -53q21 -12 42 -12q45 0 67 40
q24 42 25 119h88q0 -126 -47 -196t-133 -70q-37 0 -73 18q-40 20 -99 72z" />
    <glyph glyph-name="Adieresis" unicode="&#xc4;" horiz-adv-x="1413" 
d="M1372 0h-131l-174 436h-727l-174 -436h-125l596 1462h139zM707 1335h-7l-317 -792h641zM952 1620h-135v180h135v-180zM598 1620h-135v180h135v-180z" />
    <glyph glyph-name="Aring" unicode="&#xc5;" horiz-adv-x="1413" 
d="M1067 436h-727l-174 -436h-125l567 1391q-62 30 -102 91q-39 60 -39 130q0 100 72 172q71 71 170 71q102 0 170 -71q69 -72 69 -172q0 -72 -39 -132q-40 -61 -102 -91l565 -1389h-131zM854 1612q0 60 -42 104q-42 43 -103 43q-60 0 -104 -44t-44 -103q0 -60 44 -104
t104 -44q61 0 103 43t42 105zM707 1335h-7l-317 -792h641z" />
    <glyph glyph-name="AE" unicode="&#xc6;" horiz-adv-x="2217" 
d="M2075 0h-949v436h-651l-303 -436h-131l1022 1462h1016v-110h-830v-568h740v-110h-740v-563h826v-111zM1126 543v827l-575 -827h575z" />
    <glyph glyph-name="Ccedilla" unicode="&#xc7;" horiz-adv-x="1380" 
d="M942 -221q0 -79 -62 -123q-63 -45 -159 -45q-50 0 -91 10q-44 11 -79 29v88q36 -19 82 -32q40 -11 88 -11q56 0 88 19q33 20 33 55q0 50 -56 65q-54 15 -124 -8l-37 39l67 112q-261 23 -421 231t-160 525q0 336 179 545t460 209q216 0 358 -115q141 -114 176 -317h-123
q-30 154 -135 236q-106 83 -276 83q-236 0 -373 -173t-137 -468q0 -296 137 -471q137 -174 373 -174q170 0 276 83q105 82 135 237h123q-35 -199 -171 -313q-137 -114 -345 -120l-37 -59q92 8 151 -29q60 -37 60 -108z" />
    <glyph glyph-name="Egrave" unicode="&#xc8;" horiz-adv-x="1296" 
d="M1153 111v-111h-948v1462h952v-110h-829v-568h739v-110h-739v-563h825zM614 1870l119 -295h-71l-224 295h176z" />
    <glyph glyph-name="Eacute" unicode="&#xc9;" horiz-adv-x="1296" 
d="M1153 111v-111h-948v1462h952v-110h-829v-568h739v-110h-739v-563h825zM928 1870l-223 -295h-72l119 295h176z" />
    <glyph glyph-name="Ecircumflex" unicode="&#xca;" horiz-adv-x="1296" 
d="M1153 111v-111h-948v1462h952v-110h-829v-568h739v-110h-739v-563h825zM420 1571l184 299h156l182 -299h-82l-178 203l-178 -203h-84z" />
    <glyph glyph-name="Edieresis" unicode="&#xcb;" horiz-adv-x="1296" 
d="M1153 111v-111h-948v1462h952v-110h-829v-568h739v-110h-739v-563h825zM926 1620h-135v180h135v-180zM571 1620h-135v180h135v-180z" />
    <glyph glyph-name="Igrave" unicode="&#xcc;" horiz-adv-x="532" 
d="M328 0h-123v1462h123v-1462zM197 1870l118 -295h-71l-224 295h177z" />
    <glyph glyph-name="Iacute" unicode="&#xcd;" horiz-adv-x="532" 
d="M328 0h-123v1462h123v-1462zM524 1870l-223 -295h-72l119 295h176z" />
    <glyph glyph-name="Icircumflex" unicode="&#xce;" horiz-adv-x="532" 
d="M328 0h-123v1462h123v-1462zM6 1571l184 299h156l182 -299h-82l-178 203l-178 -203h-84z" />
    <glyph glyph-name="Idieresis" unicode="&#xcf;" horiz-adv-x="532" 
d="M328 0h-123v1462h123v-1462zM512 1620h-135v180h135v-180zM158 1620h-135v180h135v-180z" />
    <glyph glyph-name="Eth" unicode="&#xd0;" horiz-adv-x="1531" 
d="M1421 731q0 -329 -194 -529q-196 -202 -508 -202h-494v688h-174v111h174v663h494q313 0 508 -202q194 -201 194 -529zM348 688v-577h371q267 0 420 167q153 166 153 453t-153 454t-420 167h-371v-553h342v-111h-342z" />
    <glyph glyph-name="Ntilde" unicode="&#xd1;" horiz-adv-x="1527" 
d="M205 1462h160l833 -1241h4v1241h121v-1462h-117l-876 1311h-4v-1311h-121v1462zM727 1673q-45 39 -69 53q-23 13 -42 13q-42 0 -65 -38q-23 -37 -27 -120h-88q0 125 47 195q47 69 133 69q39 0 73 -17q37 -19 99 -73q45 -39 69 -53q21 -12 42 -12q46 0 68 40q23 41 24 119
h88q0 -126 -47 -196t-133 -70q-37 0 -73 18q-40 20 -99 72z" />
    <glyph glyph-name="Ograve" unicode="&#xd2;" horiz-adv-x="1517" 
d="M760 1487q290 0 468 -211q179 -212 179 -545q0 -335 -179 -546q-178 -210 -468 -210q-291 0 -470 210q-179 211 -179 546q0 336 180 546t469 210zM760 88q242 0 380 173q138 172 138 470q0 295 -138 469t-380 174q-244 0 -382 -174t-138 -469q0 -297 138 -470t382 -173z
M698 1870l119 -295h-72l-223 295h176z" />
    <glyph glyph-name="Oacute" unicode="&#xd3;" horiz-adv-x="1517" 
d="M760 1487q290 0 468 -211q179 -212 179 -545q0 -335 -179 -546q-178 -210 -468 -210q-291 0 -470 210q-179 211 -179 546q0 336 180 546t469 210zM760 88q242 0 380 173q138 172 138 470q0 295 -138 469t-380 174q-244 0 -382 -174t-138 -469q0 -297 138 -470t382 -173z
M1012 1870l-224 -295h-71l119 295h176z" />
    <glyph glyph-name="Ocircumflex" unicode="&#xd4;" horiz-adv-x="1517" 
d="M760 1487q290 0 468 -211q179 -212 179 -545q0 -335 -179 -546q-178 -210 -468 -210q-291 0 -470 210q-179 211 -179 546q0 336 180 546t469 210zM760 88q242 0 380 173q138 172 138 470q0 295 -138 469t-380 174q-244 0 -382 -174t-138 -469q0 -297 138 -470t382 -173z
M498 1571l184 299h156l182 -299h-82l-178 203l-178 -203h-84z" />
    <glyph glyph-name="Otilde" unicode="&#xd5;" horiz-adv-x="1517" 
d="M760 1487q290 0 468 -211q179 -212 179 -545q0 -335 -179 -546q-178 -210 -468 -210q-291 0 -470 210q-179 211 -179 546q0 336 180 546t469 210zM760 88q242 0 380 173q138 172 138 470q0 295 -138 469t-380 174q-244 0 -382 -174t-138 -469q0 -297 138 -470t382 -173z
M727 1673q-45 39 -69 53q-23 13 -42 13q-42 0 -65 -38q-23 -37 -27 -120h-88q0 125 47 195q47 69 133 69q39 0 73 -17q37 -19 99 -73q45 -39 69 -53q21 -12 42 -12q46 0 68 40q23 41 24 119h88q0 -126 -47 -196t-133 -70q-37 0 -73 18q-40 20 -99 72z" />
    <glyph glyph-name="Odieresis" unicode="&#xd6;" horiz-adv-x="1517" 
d="M760 1487q290 0 468 -211q179 -212 179 -545q0 -335 -179 -546q-178 -210 -468 -210q-291 0 -470 210q-179 211 -179 546q0 336 180 546t469 210zM760 88q242 0 380 173q138 172 138 470q0 295 -138 469t-380 174q-244 0 -382 -174t-138 -469q0 -297 138 -470t382 -173z
M1004 1620h-136v180h136v-180zM649 1620h-135v180h135v-180z" />
    <glyph glyph-name="multiply" unicode="&#xd7;" horiz-adv-x="1351" 
d="M1139 295l-76 -76l-381 381l-385 -385l-78 78l385 385l-385 385l76 76l385 -385l383 383l78 -78l-383 -383z" />
    <glyph glyph-name="Oslash" unicode="&#xd8;" horiz-adv-x="1517" 
d="M1407 731q0 -335 -179 -546q-178 -210 -468 -210q-113 0 -215 35q-99 34 -180 103l-129 -174l-80 59l137 184q-89 102 -135 243q-47 143 -47 306q0 336 180 546t469 210q111 0 213 -35q99 -34 182 -102l127 172l80 -60l-135 -184q87 -98 134 -242q46 -139 46 -305z
M760 1374q-244 0 -382 -174t-138 -469q0 -142 31 -254q31 -111 94 -196l722 976q-68 59 -148 88t-179 29zM760 88q242 0 380 173q138 172 138 470q0 134 -31 252q-30 114 -92 199l-723 -977q62 -56 147 -87q83 -30 181 -30z" />
    <glyph glyph-name="Ugrave" unicode="&#xd9;" horiz-adv-x="1507" 
d="M1327 1462v-862q0 -300 -149 -462q-150 -163 -424 -163t-424 164q-150 163 -150 465v858h123v-880q0 -241 118 -368q119 -128 333 -128q213 0 332 128q118 127 118 368v880h123zM702 1870l119 -295h-71l-224 295h176z" />
    <glyph glyph-name="Uacute" unicode="&#xda;" horiz-adv-x="1507" 
d="M1327 1462v-862q0 -300 -149 -462q-150 -163 -424 -163t-424 164q-150 163 -150 465v858h123v-880q0 -241 118 -368q119 -128 333 -128q213 0 332 128q118 127 118 368v880h123zM975 1870l-223 -295h-72l119 295h176z" />
    <glyph glyph-name="Ucircumflex" unicode="&#xdb;" horiz-adv-x="1507" 
d="M1327 1462v-862q0 -300 -149 -462q-150 -163 -424 -163t-424 164q-150 163 -150 465v858h123v-880q0 -241 118 -368q119 -128 333 -128q213 0 332 128q118 127 118 368v880h123zM494 1571l184 299h156l182 -299h-82l-178 203l-178 -203h-84z" />
    <glyph glyph-name="Udieresis" unicode="&#xdc;" horiz-adv-x="1507" 
d="M1327 1462v-862q0 -300 -149 -462q-150 -163 -424 -163t-424 164q-150 163 -150 465v858h123v-880q0 -241 118 -368q119 -128 333 -128q213 0 332 128q118 127 118 368v880h123zM999 1620h-135v180h135v-180zM645 1620h-135v180h135v-180z" />
    <glyph glyph-name="Yacute" unicode="&#xdd;" horiz-adv-x="1312" 
d="M717 610v-610h-123v610l-553 852h137l484 -739h4l469 739h137zM905 1870l-223 -295h-72l119 295h176z" />
    <glyph glyph-name="Thorn" unicode="&#xde;" horiz-adv-x="1306" 
d="M1206 752q0 -205 -128 -315q-127 -109 -367 -109h-383v-328h-123v1462h123v-288h383q238 0 367 -109q128 -108 128 -313zM328 1063v-625h387q183 0 274 79q92 80 92 235q0 152 -92 232q-91 79 -274 79h-387z" />
    <glyph glyph-name="germandbls" unicode="&#xdf;" horiz-adv-x="1245" 
d="M1014 1196q0 -109 -64 -193t-155 -106q144 -33 239 -152q94 -118 94 -274q0 -223 -138 -354q-139 -131 -355 -131q-35 0 -64 3q-25 3 -55 11v104q31 -9 53 -11q27 -3 60 -3q167 0 277 105t110 276q0 158 -108 260q-109 103 -277 103h-84v108h84q122 0 196 68t74 182
q0 110 -70 174t-196 64q-150 0 -237 -111t-87 -299v-1020h-116v1024q0 229 120 368q121 140 320 140q171 0 275 -92t104 -244z" />
    <glyph glyph-name="agrave" unicode="&#xe0;" horiz-adv-x="1105" 
d="M946 0h-123q-11 38 -15 87q-5 55 -5 93q-33 -89 -133 -146t-232 -57q-142 0 -233 81q-92 81 -92 212q0 128 86 205q84 75 260 98l344 45v68q0 126 -69 192t-197 66q-114 0 -182 -55q-69 -55 -79 -154h-116q15 144 118 229t259 85q182 0 283 -90q100 -89 100 -257v-514
q0 -59 7 -102q8 -51 19 -86zM236 268q0 -86 58 -138t159 -52q147 0 248 91q102 92 102 236v111l-309 -35q-146 -21 -202 -70t-56 -143zM485 1507l119 -315h-72l-217 315h170z" />
    <glyph glyph-name="aacute" unicode="&#xe1;" horiz-adv-x="1105" 
d="M946 0h-123q-11 38 -15 87q-5 55 -5 93q-33 -89 -133 -146t-232 -57q-142 0 -233 81q-92 81 -92 212q0 128 86 205q84 75 260 98l344 45v68q0 126 -69 192t-197 66q-114 0 -182 -55q-69 -55 -79 -154h-116q15 144 118 229t259 85q182 0 283 -90q100 -89 100 -257v-514
q0 -59 7 -102q8 -51 19 -86zM236 268q0 -86 58 -138t159 -52q147 0 248 91q102 92 102 236v111l-309 -35q-146 -21 -202 -70t-56 -143zM786 1507l-217 -315h-71l118 315h170z" />
    <glyph glyph-name="acircumflex" unicode="&#xe2;" horiz-adv-x="1105" 
d="M946 0h-123q-11 38 -15 87q-5 55 -5 93q-33 -89 -133 -146t-232 -57q-142 0 -233 81q-92 81 -92 212q0 128 86 205q84 75 260 98l344 45v68q0 126 -69 192t-197 66q-114 0 -182 -55q-69 -55 -79 -154h-116q15 144 118 229t259 85q182 0 283 -90q100 -89 100 -257v-514
q0 -59 7 -102q8 -51 19 -86zM236 268q0 -86 58 -138t159 -52q147 0 248 91q102 92 102 236v111l-309 -35q-146 -21 -202 -70t-56 -143zM287 1186l188 321h146l188 -321h-82l-178 233l-178 -233h-84z" />
    <glyph glyph-name="atilde" unicode="&#xe3;" horiz-adv-x="1105" 
d="M946 0h-123q-11 38 -15 87q-5 55 -5 93q-33 -89 -133 -146t-232 -57q-142 0 -233 81q-92 81 -92 212q0 128 86 205q84 75 260 98l344 45v68q0 126 -69 192t-197 66q-114 0 -182 -55q-69 -55 -79 -154h-116q15 144 118 229t259 85q182 0 283 -90q100 -89 100 -257v-514
q0 -59 7 -102q8 -51 19 -86zM236 268q0 -86 58 -138t159 -52q147 0 248 91q102 92 102 236v111l-309 -35q-146 -21 -202 -70t-56 -143zM518 1307q-42 39 -68 56q-20 13 -42 13q-44 0 -66 -40q-23 -41 -27 -128h-88q0 125 47 195t134 70q34 0 72 -19q36 -18 100 -76
q42 -39 68 -56q20 -13 42 -13q45 0 68 41q22 40 24 125h88q0 -125 -47 -195t-133 -70q-35 0 -73 19q-36 18 -99 78z" />
    <glyph glyph-name="adieresis" unicode="&#xe4;" horiz-adv-x="1105" 
d="M946 0h-123q-11 38 -15 87q-5 55 -5 93q-33 -89 -133 -146t-232 -57q-142 0 -233 81q-92 81 -92 212q0 128 86 205q84 75 260 98l344 45v68q0 126 -69 192t-197 66q-114 0 -182 -55q-69 -55 -79 -154h-116q15 144 118 229t259 85q182 0 283 -90q100 -89 100 -257v-514
q0 -59 7 -102q8 -51 19 -86zM236 268q0 -86 58 -138t159 -52q147 0 248 91q102 92 102 236v111l-309 -35q-146 -21 -202 -70t-56 -143zM793 1260h-136v180h136v-180zM438 1260h-135v180h135v-180z" />
    <glyph glyph-name="aring" unicode="&#xe5;" horiz-adv-x="1105" 
d="M946 0h-123q-11 38 -15 87q-5 55 -5 93q-33 -89 -133 -146t-232 -57q-142 0 -233 81q-92 81 -92 212q0 128 86 205q84 75 260 98l344 45v68q0 126 -69 192t-197 66q-114 0 -182 -55q-69 -55 -79 -154h-116q15 144 118 229t259 85q182 0 283 -90q100 -89 100 -257v-514
q0 -59 7 -102q8 -51 19 -86zM236 268q0 -86 58 -138t159 -52q147 0 248 91q102 92 102 236v111l-309 -35q-146 -21 -202 -70t-56 -143zM549 1178q-79 0 -135 56q-58 58 -58 134q0 80 57 137q58 58 136 58q79 0 135 -57q55 -56 55 -138q0 -80 -55 -135t-135 -55zM549 1262
q44 0 75 31t31 75q0 48 -30 79q-30 32 -76 32q-45 0 -77 -33q-32 -34 -32 -78q0 -43 32 -75q31 -31 77 -31z" />
    <glyph glyph-name="ae" unicode="&#xe6;" horiz-adv-x="1798" 
d="M1561 291h112q-33 -148 -141 -232t-260 -84q-137 0 -247 61q-108 60 -165 173q-63 -114 -167 -173t-240 -59q-149 0 -244 82q-96 82 -96 215q0 144 110 226t297 82h283v106q0 126 -69 192t-197 66q-114 0 -182 -55q-69 -55 -79 -154h-116q15 144 118 229t259 85
q129 0 219 -57t127 -158q65 101 163 158t211 57q197 0 311 -141q113 -140 113 -369v-58h-770q4 -190 101 -297q96 -106 260 -106q108 0 179 51t110 160zM1257 946q-141 0 -233 -96q-93 -97 -109 -268h646q-5 170 -84 267t-220 97zM236 272q0 -88 60 -140q59 -52 167 -52
q155 0 247 88q93 88 93 240v75h-275q-145 0 -219 -53q-73 -52 -73 -158z" />
    <glyph glyph-name="ccedilla" unicode="&#xe7;" horiz-adv-x="1083" 
d="M768 -221q0 -79 -62 -123q-63 -45 -159 -45q-50 0 -91 10q-44 11 -79 29v88q36 -19 82 -32q40 -11 88 -11q56 0 88 19q33 20 33 55q0 50 -56 65q-55 15 -125 -8l-36 39l69 115q-188 23 -295 165q-108 144 -108 367q0 241 128 389t337 148q163 0 264 -88q103 -89 127 -246
h-113q-28 116 -95 172q-69 57 -183 57q-162 0 -255 -116q-94 -117 -94 -316t93 -316q92 -116 256 -116q114 0 183 57q67 56 95 172h113q-24 -155 -123 -242q-100 -88 -256 -92l-37 -59q92 8 151 -29q60 -37 60 -108z" />
    <glyph glyph-name="egrave" unicode="&#xe8;" horiz-adv-x="1120" 
d="M885 291h112q-33 -149 -142 -232q-109 -84 -261 -84q-215 0 -346 145t-131 386q0 243 130 392q131 151 335 151q195 0 309 -138q113 -137 113 -362v-57h-771q1 -194 99 -304q96 -108 262 -108q109 0 180 52q72 52 111 159zM582 944q-142 0 -233 -93q-90 -91 -111 -261
h647q-6 169 -85 261q-80 93 -218 93zM512 1507l119 -315h-72l-217 315h170z" />
    <glyph glyph-name="eacute" unicode="&#xe9;" horiz-adv-x="1120" 
d="M885 291h112q-33 -149 -142 -232q-109 -84 -261 -84q-215 0 -346 145t-131 386q0 243 130 392q131 151 335 151q195 0 309 -138q113 -137 113 -362v-57h-771q1 -194 99 -304q96 -108 262 -108q109 0 180 52q72 52 111 159zM582 944q-142 0 -233 -93q-90 -91 -111 -261
h647q-6 169 -85 261q-80 93 -218 93zM829 1507l-217 -315h-71l118 315h170z" />
    <glyph glyph-name="ecircumflex" unicode="&#xea;" horiz-adv-x="1120" 
d="M885 291h112q-33 -149 -142 -232q-109 -84 -261 -84q-215 0 -346 145t-131 386q0 243 130 392q131 151 335 151q195 0 309 -138q113 -137 113 -362v-57h-771q1 -194 99 -304q96 -108 262 -108q109 0 180 52q72 52 111 159zM582 944q-142 0 -233 -93q-90 -91 -111 -261
h647q-6 169 -85 261q-80 93 -218 93zM322 1186l188 321h145l189 -321h-82l-178 233l-178 -233h-84z" />
    <glyph glyph-name="edieresis" unicode="&#xeb;" horiz-adv-x="1120" 
d="M885 291h112q-33 -149 -142 -232q-109 -84 -261 -84q-215 0 -346 145t-131 386q0 243 130 392q131 151 335 151q195 0 309 -138q113 -137 113 -362v-57h-771q1 -194 99 -304q96 -108 262 -108q109 0 180 52q72 52 111 159zM582 944q-142 0 -233 -93q-90 -91 -111 -261
h647q-6 169 -85 261q-80 93 -218 93zM827 1260h-135v180h135v-180zM473 1260h-135v180h135v-180z" />
    <glyph glyph-name="igrave" unicode="&#xec;" horiz-adv-x="507" 
d="M195 0v1024h118v-1024h-118zM182 1507l119 -315h-72l-217 315h170z" />
    <glyph glyph-name="iacute" unicode="&#xed;" horiz-adv-x="507" 
d="M195 0v1024h118v-1024h-118zM494 1507l-218 -315h-71l119 315h170z" />
    <glyph glyph-name="icircumflex" unicode="&#xee;" horiz-adv-x="507" 
d="M195 0v1024h118v-1024h-118zM-6 1186l188 321h146l188 -321h-82l-178 233l-178 -233h-84z" />
    <glyph glyph-name="idieresis" unicode="&#xef;" horiz-adv-x="507" 
d="M195 0v1024h118v-1024h-118zM500 1260h-135v180h135v-180zM145 1260h-135v180h135v-180z" />
    <glyph glyph-name="eth" unicode="&#xf0;" horiz-adv-x="1171" 
d="M1055 537q0 -256 -130 -408q-131 -154 -339 -154t-339 149q-130 148 -130 390q0 241 130 387q131 148 339 148q80 0 152 -30q74 -31 124 -85q-53 95 -109 174q-48 68 -116 141l-309 -98l-23 78l266 84q-54 49 -111 92q-58 43 -134 90v12h151q69 -43 105 -72
q48 -38 100 -87l184 59l23 -78l-144 -45q149 -166 229 -358q81 -195 81 -389zM586 944q-163 0 -258 -116t-95 -314q0 -199 95 -317q94 -117 258 -117q162 0 256 117q94 116 94 317q0 199 -94 314q-95 116 -256 116z" />
    <glyph glyph-name="ntilde" unicode="&#xf1;" horiz-adv-x="1193" 
d="M195 1024h112v-197q34 100 127 161t213 61q169 0 266 -103t97 -284v-662h-119v637q0 152 -68 232q-67 79 -200 79q-146 0 -228 -98t-82 -281v-569h-118v1024zM580 1307q-40 37 -69 56q-20 13 -42 13q-44 0 -66 -40q-21 -39 -26 -128h-88q0 125 47 195t133 70q35 0 73 -19
q34 -17 99 -76q40 -37 69 -56q20 -13 42 -13q44 0 67 41q24 42 25 125h88q0 -125 -47 -195t-133 -70q-35 0 -73 19q-36 18 -99 78z" />
    <glyph glyph-name="ograve" unicode="&#xf2;" horiz-adv-x="1171" 
d="M586 1049q208 0 339 -149q130 -148 130 -388q0 -243 -130 -389q-131 -148 -339 -148t-339 148q-130 146 -130 389q0 240 130 388q131 149 339 149zM586 944q-163 0 -258 -116t-95 -316t95 -316t258 -116t258 116q94 115 94 316t-94 316q-95 116 -258 116zM543 1507
l119 -315h-72l-217 315h170z" />
    <glyph glyph-name="oacute" unicode="&#xf3;" horiz-adv-x="1171" 
d="M586 1049q208 0 339 -149q130 -148 130 -388q0 -243 -130 -389q-131 -148 -339 -148t-339 148q-130 146 -130 389q0 240 130 388q131 149 339 149zM586 944q-163 0 -258 -116t-95 -316t95 -316t258 -116t258 116q94 115 94 316t-94 316q-95 116 -258 116zM811 1507
l-217 -315h-72l119 315h170z" />
    <glyph glyph-name="ocircumflex" unicode="&#xf4;" horiz-adv-x="1171" 
d="M586 1049q208 0 339 -149q130 -148 130 -388q0 -243 -130 -389q-131 -148 -339 -148t-339 148q-130 146 -130 389q0 240 130 388q131 149 339 149zM586 944q-163 0 -258 -116t-95 -316t95 -316t258 -116t258 116q94 115 94 316t-94 316q-95 116 -258 116zM326 1186
l188 321h145l189 -321h-82l-178 233l-178 -233h-84z" />
    <glyph glyph-name="otilde" unicode="&#xf5;" horiz-adv-x="1171" 
d="M586 1049q208 0 339 -149q130 -148 130 -388q0 -243 -130 -389q-131 -148 -339 -148t-339 148q-130 146 -130 389q0 240 130 388q131 149 339 149zM586 944q-163 0 -258 -116t-95 -316t95 -316t258 -116t258 116q94 115 94 316t-94 316q-95 116 -258 116zM555 1307
q-40 37 -69 56q-20 13 -42 13q-43 0 -65 -40q-23 -41 -27 -128h-88q0 125 47 195t133 70q35 0 73 -19q34 -17 99 -76q40 -37 69 -56q20 -13 42 -13q45 0 68 41q22 40 24 125h88q0 -125 -47 -195t-133 -70q-35 0 -73 19q-36 18 -99 78z" />
    <glyph glyph-name="odieresis" unicode="&#xf6;" horiz-adv-x="1171" 
d="M586 1049q208 0 339 -149q130 -148 130 -388q0 -243 -130 -389q-131 -148 -339 -148t-339 148q-130 146 -130 389q0 240 130 388q131 149 339 149zM586 944q-163 0 -258 -116t-95 -316t95 -316t258 -116t258 116q94 115 94 316t-94 316q-95 116 -258 116zM831 1260h-135
v180h135v-180zM477 1260h-135v180h135v-180z" />
    <glyph glyph-name="divide" unicode="&#xf7;" horiz-adv-x="1351" 
d="M764 1028h-174v174h174v-174zM1204 627h-1059v110h1059v-110zM764 160h-174v174h174v-174z" />
    <glyph glyph-name="oslash" unicode="&#xf8;" horiz-adv-x="1171" 
d="M1055 512q0 -243 -130 -389q-131 -148 -339 -148q-79 0 -150 23q-70 23 -127 68l-100 -136l-72 50l109 145q-64 73 -96 170q-33 99 -33 217q0 240 130 388q131 149 339 149q82 0 152 -24t128 -71l97 129l71 -49l-104 -139q62 -74 93 -172q32 -101 32 -211zM586 944
q-163 0 -258 -116t-95 -316q0 -90 21 -165q22 -77 59 -132l490 655q-45 38 -100 56q-54 18 -117 18zM586 80q163 0 258 116q94 115 94 316q0 90 -19 162q-19 74 -57 129l-489 -653q45 -36 97 -53q51 -17 116 -17z" />
    <glyph glyph-name="ugrave" unicode="&#xf9;" horiz-adv-x="1183" 
d="M989 1024v-1024h-112v195q-38 -104 -125 -161q-89 -59 -207 -59q-174 0 -267 101q-94 102 -94 286v662h121v-641q0 -154 67 -235q65 -78 197 -78q144 0 223 100q78 99 78 285v569h119zM520 1507l119 -315h-72l-217 315h170z" />
    <glyph glyph-name="uacute" unicode="&#xfa;" horiz-adv-x="1183" 
d="M989 1024v-1024h-112v195q-38 -104 -125 -161q-89 -59 -207 -59q-174 0 -267 101q-94 102 -94 286v662h121v-641q0 -154 67 -235q65 -78 197 -78q144 0 223 100q78 99 78 285v569h119zM831 1507l-217 -315h-71l119 315h169z" />
    <glyph glyph-name="ucircumflex" unicode="&#xfb;" horiz-adv-x="1183" 
d="M989 1024v-1024h-112v195q-38 -104 -125 -161q-89 -59 -207 -59q-174 0 -267 101q-94 102 -94 286v662h121v-641q0 -154 67 -235q65 -78 197 -78q144 0 223 100q78 99 78 285v569h119zM332 1186l188 321h146l188 -321h-82l-178 233l-178 -233h-84z" />
    <glyph glyph-name="udieresis" unicode="&#xfc;" horiz-adv-x="1183" 
d="M989 1024v-1024h-112v195q-38 -104 -125 -161q-89 -59 -207 -59q-174 0 -267 101q-94 102 -94 286v662h121v-641q0 -154 67 -235q65 -78 197 -78q144 0 223 100q78 99 78 285v569h119zM838 1260h-136v180h136v-180zM483 1260h-135v180h135v-180z" />
    <glyph glyph-name="yacute" unicode="&#xfd;" horiz-adv-x="1073" 
d="M262 -274q70 0 116 52q45 51 107 208l-417 1038h127l350 -874h4l330 874h127l-420 -1063q-83 -214 -148 -276q-68 -65 -176 -66q-18 0 -42 3q-29 4 -46 7v107q25 -7 43 -8q28 -2 45 -2zM786 1507l-217 -315h-71l118 315h170z" />
    <glyph glyph-name="thorn" unicode="&#xfe;" horiz-adv-x="1239" 
d="M662 -25q-114 0 -208 59q-96 60 -141 152v-551h-118v1872h118v-673q40 94 134 155q93 60 215 60q200 0 330 -150q130 -149 130 -387t-130 -387q-130 -150 -330 -150zM649 948q-161 0 -252 -114q-92 -115 -92 -310v-22q0 -195 92 -311q91 -115 252 -115q162 0 257 119
t95 317t-95 317t-257 119z" />
    <glyph glyph-name="ydieresis" unicode="&#xff;" horiz-adv-x="1073" 
d="M262 -274q70 0 116 52q45 51 107 208l-417 1038h127l350 -874h4l330 874h127l-420 -1063q-83 -214 -148 -276q-68 -65 -176 -66q-18 0 -42 3q-29 4 -46 7v107q25 -7 43 -8q28 -2 45 -2zM793 1260h-136v180h136v-180zM438 1260h-135v180h135v-180z" />
    <glyph glyph-name="Amacron" unicode="&#x100;" horiz-adv-x="1413" 
d="M1372 0h-131l-174 436h-727l-174 -436h-125l596 1462h139zM707 1335h-7l-317 -792h641zM987 1618h-561v102h561v-102z" />
    <glyph glyph-name="amacron" unicode="&#x101;" horiz-adv-x="1105" 
d="M946 0h-123q-11 38 -15 87q-5 55 -5 93q-33 -89 -133 -146t-232 -57q-142 0 -233 81q-92 81 -92 212q0 128 86 205q84 75 260 98l344 45v68q0 126 -69 192t-197 66q-114 0 -182 -55q-69 -55 -79 -154h-116q15 144 118 229t259 85q182 0 283 -90q100 -89 100 -257v-514
q0 -59 7 -102q8 -51 19 -86zM236 268q0 -86 58 -138t159 -52q147 0 248 91q102 92 102 236v111l-309 -35q-146 -21 -202 -70t-56 -143zM829 1260h-561v102h561v-102z" />
    <glyph glyph-name="Abreve" unicode="&#x102;" horiz-adv-x="1413" 
d="M1372 0h-131l-174 436h-727l-174 -436h-125l596 1462h139zM707 1335h-7l-317 -792h641zM709 1567q-120 0 -192 83q-73 84 -73 220h105q0 -94 41 -146q40 -51 119 -51q75 0 116 50t41 147h105q0 -138 -72 -221q-72 -82 -190 -82z" />
    <glyph glyph-name="abreve" unicode="&#x103;" horiz-adv-x="1105" 
d="M946 0h-123q-11 38 -15 87q-5 55 -5 93q-33 -89 -133 -146t-232 -57q-142 0 -233 81q-92 81 -92 212q0 128 86 205q84 75 260 98l344 45v68q0 126 -69 192t-197 66q-114 0 -182 -55q-69 -55 -79 -154h-116q15 144 118 229t259 85q182 0 283 -90q100 -89 100 -257v-514
q0 -59 7 -102q8 -51 19 -86zM236 268q0 -86 58 -138t159 -52q147 0 248 91q102 92 102 236v111l-309 -35q-146 -21 -202 -70t-56 -143zM549 1204q-120 0 -192 83t-72 220h96q4 -100 46 -152t122 -52q78 0 120 52t46 152h96q0 -139 -72 -221t-190 -82z" />
    <glyph glyph-name="Aogonek" unicode="&#x104;" horiz-adv-x="1413" 
d="M1343 -293v-86q-19 -7 -35 -8q-26 -2 -48 -2q-71 0 -118 41q-46 40 -46 110q0 53 25 106q25 52 112 155l-166 413h-727l-174 -436h-125l596 1462h139l596 -1462h-59q-71 -90 -93 -134q-24 -46 -24 -87q0 -38 24 -59t66 -21q13 0 33 2q13 1 24 6zM707 1335h-7l-317 -792
h641z" />
    <glyph glyph-name="aogonek" unicode="&#x105;" horiz-adv-x="1105" 
d="M930 -293v-86q-18 -7 -36 -8q-26 -2 -48 -2q-71 0 -118 41q-46 40 -46 110q0 49 25 104q23 50 110 157q-5 28 -10 76q-4 37 -4 81q-33 -89 -133 -146t-232 -57q-142 0 -233 81q-92 81 -92 212q0 128 86 205q84 75 260 98l344 45v68q0 126 -69 192t-197 66
q-114 0 -182 -55q-69 -55 -79 -154h-116q15 144 118 229t259 85q182 0 283 -90q100 -89 100 -257v-514q0 -59 7 -102q8 -51 19 -86h-47q-71 -90 -93 -134q-24 -46 -24 -87q0 -38 24 -59t66 -21q13 0 33 2q14 1 25 6zM236 268q0 -86 58 -138t159 -52q147 0 248 91
q102 92 102 236v111l-309 -35q-146 -21 -202 -70t-56 -143z" />
    <glyph glyph-name="Cacute" unicode="&#x106;" horiz-adv-x="1380" 
d="M750 1374q-236 0 -373 -173t-137 -468q0 -296 137 -471q137 -174 373 -174q170 0 276 83q105 82 135 237h123q-35 -204 -176 -318q-142 -115 -358 -115q-281 0 -460 210q-179 211 -179 548q0 336 179 545t460 209q216 0 358 -115q141 -114 176 -317h-123
q-30 154 -135 236q-106 83 -276 83zM993 1870l-223 -295h-72l119 295h176z" />
    <glyph glyph-name="cacute" unicode="&#x107;" horiz-adv-x="1083" 
d="M582 -25q-210 0 -337 147q-128 148 -128 390q0 241 128 389t337 148q163 0 264 -88q103 -89 127 -246h-113q-28 116 -95 172q-69 57 -183 57q-162 0 -255 -116q-94 -117 -94 -316t93 -316q92 -116 256 -116q114 0 183 57q67 56 95 172h113q-24 -159 -127 -247
q-102 -87 -264 -87zM831 1507l-217 -315h-71l119 315h169z" />
    <glyph glyph-name="Ccircumflex" unicode="&#x108;" horiz-adv-x="1380" 
d="M750 1374q-236 0 -373 -173t-137 -468q0 -296 137 -471q137 -174 373 -174q170 0 276 83q105 82 135 237h123q-35 -204 -176 -318q-142 -115 -358 -115q-281 0 -460 210q-179 211 -179 548q0 336 179 545t460 209q216 0 358 -115q141 -114 176 -317h-123
q-30 154 -135 236q-106 83 -276 83zM485 1571l185 299h155l183 -299h-82l-178 203l-179 -203h-84z" />
    <glyph glyph-name="ccircumflex" unicode="&#x109;" horiz-adv-x="1083" 
d="M582 -25q-210 0 -337 147q-128 148 -128 390q0 241 128 389t337 148q163 0 264 -88q103 -89 127 -246h-113q-28 116 -95 172q-69 57 -183 57q-162 0 -255 -116q-94 -117 -94 -316t93 -316q92 -116 256 -116q114 0 183 57q67 56 95 172h113q-24 -159 -127 -247
q-102 -87 -264 -87zM324 1186l188 321h145l189 -321h-82l-178 233l-178 -233h-84z" />
    <glyph glyph-name="Cdotaccent" unicode="&#x10a;" horiz-adv-x="1380" 
d="M750 1374q-236 0 -373 -173t-137 -468q0 -296 137 -471q137 -174 373 -174q170 0 276 83q105 82 135 237h123q-35 -204 -176 -318q-142 -115 -358 -115q-281 0 -460 210q-179 211 -179 548q0 336 179 545t460 209q216 0 358 -115q141 -114 176 -317h-123
q-30 154 -135 236q-106 83 -276 83zM819 1620h-143v180h143v-180z" />
    <glyph glyph-name="cdotaccent" unicode="&#x10b;" horiz-adv-x="1083" 
d="M582 -25q-210 0 -337 147q-128 148 -128 390q0 241 128 389t337 148q163 0 264 -88q103 -89 127 -246h-113q-28 116 -95 172q-69 57 -183 57q-162 0 -255 -116q-94 -117 -94 -316t93 -316q92 -116 256 -116q114 0 183 57q67 56 95 172h113q-24 -159 -127 -247
q-102 -87 -264 -87zM657 1260h-143v180h143v-180z" />
    <glyph glyph-name="Ccaron" unicode="&#x10c;" horiz-adv-x="1380" 
d="M750 1374q-236 0 -373 -173t-137 -468q0 -296 137 -471q137 -174 373 -174q170 0 276 83q105 82 135 237h123q-35 -204 -176 -318q-142 -115 -358 -115q-281 0 -460 210q-179 211 -179 548q0 336 179 545t460 209q216 0 358 -115q141 -114 176 -317h-123
q-30 154 -135 236q-106 83 -276 83zM569 1870l179 -203l178 203h82l-183 -299h-155l-185 299h84z" />
    <glyph glyph-name="ccaron" unicode="&#x10d;" horiz-adv-x="1083" 
d="M582 -25q-210 0 -337 147q-128 148 -128 390q0 241 128 389t337 148q163 0 264 -88q103 -89 127 -246h-113q-28 116 -95 172q-69 57 -183 57q-162 0 -255 -116q-94 -117 -94 -316t93 -316q92 -116 256 -116q114 0 183 57q67 56 95 172h113q-24 -159 -127 -247
q-102 -87 -264 -87zM408 1507l178 -233l178 233h82l-189 -321h-145l-188 321h84z" />
    <glyph glyph-name="Dcaron" unicode="&#x10e;" horiz-adv-x="1511" 
d="M205 1462h493q313 0 508 -202q195 -203 195 -529q0 -328 -195 -529q-196 -202 -508 -202h-493v1462zM1272 731q0 286 -154 454q-153 167 -420 167h-370v-1241h370q267 0 420 167q154 168 154 453zM518 1870l178 -203l178 203h82l-182 -299h-156l-184 299h84z" />
    <glyph glyph-name="dcaron" unicode="&#x10f;" horiz-adv-x="1239" 
d="M578 -25q-200 0 -331 150q-130 149 -130 387t130 387q130 150 331 150q121 0 214 -60q94 -61 134 -155v673h118v-1507h-112v186q-44 -93 -141 -152t-213 -59zM590 948q-162 0 -257 -119t-95 -317t95 -317t257 -119q161 0 252 115q92 116 92 311v22q0 195 -92 310
q-92 114 -252 114zM1417 1507l-147 -430h-62l56 430h153z" />
    <glyph glyph-name="Dcroat" unicode="&#x110;" horiz-adv-x="1531" 
d="M1421 731q0 -329 -194 -529q-196 -202 -508 -202h-494v688h-174v111h174v663h494q313 0 508 -202q194 -201 194 -529zM348 688v-577h371q267 0 420 167q153 166 153 453t-153 454t-420 167h-371v-553h342v-111h-342z" />
    <glyph glyph-name="dcroat" unicode="&#x111;" horiz-adv-x="1259" 
d="M932 0v186q-44 -93 -141 -152t-213 -59q-200 0 -331 150q-130 149 -130 387t130 387q130 150 331 150q121 0 214 -60q94 -61 134 -155v383h-271v90h271v200h118v-200h173v-90h-173v-1217h-112zM590 76q161 0 252 115q92 116 92 311v22q0 195 -92 310q-92 114 -252 114
q-162 0 -257 -119t-95 -317t95 -317t257 -119z" />
    <glyph glyph-name="Emacron" unicode="&#x112;" horiz-adv-x="1296" 
d="M1153 111v-111h-948v1462h952v-110h-829v-568h739v-110h-739v-563h825zM963 1618h-562v102h562v-102z" />
    <glyph glyph-name="emacron" unicode="&#x113;" horiz-adv-x="1120" 
d="M885 291h112q-33 -149 -142 -232q-109 -84 -261 -84q-215 0 -346 145t-131 386q0 243 130 392q131 151 335 151q195 0 309 -138q113 -137 113 -362v-57h-771q1 -194 99 -304q96 -108 262 -108q109 0 180 52q72 52 111 159zM582 944q-142 0 -233 -93q-90 -91 -111 -261
h647q-6 169 -85 261q-80 93 -218 93zM864 1260h-561v102h561v-102z" />
    <glyph glyph-name="Ebreve" unicode="&#x114;" horiz-adv-x="1296" 
d="M1153 111v-111h-948v1462h952v-110h-829v-568h739v-110h-739v-563h825zM682 1567q-120 0 -192 83q-72 82 -72 220h104q0 -94 41 -146q41 -51 119 -51q76 0 117 50t41 147h104q0 -138 -72 -221q-72 -82 -190 -82z" />
    <glyph glyph-name="ebreve" unicode="&#x115;" horiz-adv-x="1120" 
d="M885 291h112q-33 -149 -142 -232q-109 -84 -261 -84q-215 0 -346 145t-131 386q0 243 130 392q131 151 335 151q195 0 309 -138q113 -137 113 -362v-57h-771q1 -194 99 -304q96 -108 262 -108q109 0 180 52q72 52 111 159zM582 944q-142 0 -233 -93q-90 -91 -111 -261
h647q-6 169 -85 261q-80 93 -218 93zM584 1204q-120 0 -192 83q-73 84 -73 220h97q4 -100 46 -152t122 -52q77 0 119 52q43 53 47 152h96q0 -139 -72 -221t-190 -82z" />
    <glyph glyph-name="Edotaccent" unicode="&#x116;" horiz-adv-x="1296" 
d="M1153 111v-111h-948v1462h952v-110h-829v-568h739v-110h-739v-563h825zM754 1620h-144v180h144v-180z" />
    <glyph glyph-name="edotaccent" unicode="&#x117;" horiz-adv-x="1120" 
d="M885 291h112q-33 -149 -142 -232q-109 -84 -261 -84q-215 0 -346 145t-131 386q0 243 130 392q131 151 335 151q195 0 309 -138q113 -137 113 -362v-57h-771q1 -194 99 -304q96 -108 262 -108q109 0 180 52q72 52 111 159zM582 944q-142 0 -233 -93q-90 -91 -111 -261
h647q-6 169 -85 261q-80 93 -218 93zM655 1260h-143v180h143v-180z" />
    <glyph glyph-name="Eogonek" unicode="&#x118;" horiz-adv-x="1296" 
d="M1083 -293v-86q-19 -7 -35 -8q-26 -2 -49 -2q-70 0 -117 41q-46 40 -46 110q0 53 23 100q24 50 93 138h-747v1462h952v-110h-829v-568h739v-110h-739v-563h825v-111h-100q-73 -94 -94 -134q-23 -45 -23 -87q0 -39 23 -59q24 -21 67 -21q13 0 33 2q13 1 24 6z" />
    <glyph glyph-name="eogonek" unicode="&#x119;" horiz-adv-x="1120" 
d="M809 -293v-86q-18 -7 -36 -8q-26 -2 -48 -2q-71 0 -118 41q-46 40 -46 110q0 55 26 109q26 53 77 109q-9 -1 -24 -2.5t-17 -1.5q-11 -1 -29 -1q-215 0 -346 145t-131 386q0 243 130 392q131 151 335 151q195 0 309 -138q113 -137 113 -362v-57h-771q1 -192 99 -303
q96 -109 262 -109q109 0 180 52q72 52 111 159h112q-18 -75 -62 -139q-46 -66 -142 -142q-64 -52 -98 -108q-33 -55 -33 -117q0 -42 23 -64t67 -22q12 0 32 2q14 1 25 6zM582 944q-142 0 -233 -93q-90 -91 -111 -261h647q-6 169 -85 261q-80 93 -218 93z" />
    <glyph glyph-name="Ecaron" unicode="&#x11a;" horiz-adv-x="1296" 
d="M1153 111v-111h-948v1462h952v-110h-829v-568h739v-110h-739v-563h825zM504 1870l178 -203l178 203h82l-182 -299h-156l-184 299h84z" />
    <glyph glyph-name="ecaron" unicode="&#x11b;" horiz-adv-x="1120" 
d="M885 291h112q-33 -149 -142 -232q-109 -84 -261 -84q-215 0 -346 145t-131 386q0 243 130 392q131 151 335 151q195 0 309 -138q113 -137 113 -362v-57h-771q1 -194 99 -304q96 -108 262 -108q109 0 180 52q72 52 111 159zM582 944q-142 0 -233 -93q-90 -91 -111 -261
h647q-6 169 -85 261q-80 93 -218 93zM406 1507l178 -233l178 233h82l-189 -321h-145l-188 321h84z" />
    <glyph glyph-name="Gcircumflex" unicode="&#x11c;" horiz-adv-x="1509" 
d="M768 -25q-288 0 -473 210q-184 209 -184 548q0 335 185 544q186 210 474 210q223 0 368 -115q144 -114 181 -319h-125q-30 153 -141 237t-283 84q-243 0 -387 -174q-143 -173 -143 -467q0 -296 140 -470q141 -175 382 -175q204 0 335 120q130 120 130 314v90h-381v109
h500v-721h-101l-16 264q-40 -124 -172 -207q-130 -82 -289 -82zM518 1571l184 299h156l182 -299h-82l-178 203l-178 -203h-84z" />
    <glyph glyph-name="gcircumflex" unicode="&#x11d;" horiz-adv-x="1232" 
d="M573 -289q167 0 256 90q89 91 89 262v152q-43 -91 -136 -147q-92 -56 -213 -56q-201 0 -329 144q-127 143 -127 376q0 227 128 372t328 145q119 0 214 -59q97 -60 141 -152v186h114v-961q0 -215 -123 -334q-122 -118 -342 -118q-178 0 -290 74t-140 213h123
q24 -94 100 -141q74 -46 207 -46zM578 117q156 0 255 109q99 110 99 282v51q0 173 -99 281t-255 108q-160 0 -254 -112q-95 -113 -95 -304q0 -186 96 -302q94 -113 253 -113zM326 1186l188 321h145l189 -321h-82l-178 233l-178 -233h-84z" />
    <glyph glyph-name="Gbreve" unicode="&#x11e;" horiz-adv-x="1509" 
d="M768 -25q-288 0 -473 210q-184 209 -184 548q0 335 185 544q186 210 474 210q223 0 368 -115q144 -114 181 -319h-125q-30 153 -141 237t-283 84q-243 0 -387 -174q-143 -173 -143 -467q0 -296 140 -470q141 -175 382 -175q204 0 335 120q130 120 130 314v90h-381v109
h500v-721h-101l-16 264q-40 -124 -172 -207q-130 -82 -289 -82zM780 1567q-119 0 -191 83q-73 84 -73 220h105q0 -94 41 -146q40 -51 118 -51q76 0 117 50t41 147h104q0 -140 -71 -221q-72 -82 -191 -82z" />
    <glyph glyph-name="gbreve" unicode="&#x11f;" horiz-adv-x="1232" 
d="M573 -289q167 0 256 90q89 91 89 262v152q-43 -91 -136 -147q-92 -56 -213 -56q-201 0 -329 144q-127 143 -127 376q0 227 128 372t328 145q119 0 214 -59q97 -60 141 -152v186h114v-961q0 -215 -123 -334q-122 -118 -342 -118q-178 0 -290 74t-140 213h123
q24 -94 100 -141q74 -46 207 -46zM578 117q156 0 255 109q99 110 99 282v51q0 173 -99 281t-255 108q-160 0 -254 -112q-95 -113 -95 -304q0 -186 96 -302q94 -113 253 -113zM588 1204q-120 0 -192 83t-72 220h96q4 -100 46 -152t122 -52q78 0 120 52t46 152h96
q0 -139 -72 -221t-190 -82z" />
    <glyph glyph-name="Gdotaccent" unicode="&#x120;" horiz-adv-x="1509" 
d="M768 -25q-288 0 -473 210q-184 209 -184 548q0 335 185 544q186 210 474 210q223 0 368 -115q144 -114 181 -319h-125q-30 153 -141 237t-283 84q-243 0 -387 -174q-143 -173 -143 -467q0 -296 140 -470q141 -175 382 -175q204 0 335 120q130 120 130 314v90h-381v109
h500v-721h-101l-16 264q-40 -124 -172 -207q-130 -82 -289 -82zM850 1620h-143v180h143v-180z" />
    <glyph glyph-name="gdotaccent" unicode="&#x121;" horiz-adv-x="1232" 
d="M573 -289q167 0 256 90q89 91 89 262v152q-43 -91 -136 -147q-92 -56 -213 -56q-201 0 -329 144q-127 143 -127 376q0 227 128 372t328 145q119 0 214 -59q97 -60 141 -152v186h114v-961q0 -215 -123 -334q-122 -118 -342 -118q-178 0 -290 74t-140 213h123
q24 -94 100 -141q74 -46 207 -46zM578 117q156 0 255 109q99 110 99 282v51q0 173 -99 281t-255 108q-160 0 -254 -112q-95 -113 -95 -304q0 -186 96 -302q94 -113 253 -113zM659 1260h-143v180h143v-180z" />
    <glyph glyph-name="Gcommaaccent" unicode="&#x122;" horiz-adv-x="1509" 
d="M768 -25q-288 0 -473 210q-184 209 -184 548q0 335 185 544q186 210 474 210q223 0 368 -115q144 -114 181 -319h-125q-30 153 -141 237t-283 84q-243 0 -387 -174q-143 -173 -143 -467q0 -296 140 -470q141 -175 382 -175q204 0 335 120q130 120 130 314v90h-381v109
h500v-721h-101l-16 264q-40 -124 -172 -207q-130 -82 -289 -82zM776 -248h-86v133h172v-135q0 -100 -45 -149q-45 -50 -137 -50v68q51 0 74 31q22 29 22 102z" />
    <glyph glyph-name="gcommaaccent" unicode="&#x123;" horiz-adv-x="1232" 
d="M573 -289q167 0 256 90q89 91 89 262v152q-43 -91 -136 -147q-92 -56 -213 -56q-201 0 -329 144q-127 143 -127 376q0 227 128 372t328 145q119 0 214 -59q97 -60 141 -152v186h114v-961q0 -215 -123 -334q-122 -118 -342 -118q-178 0 -290 74t-140 213h123
q24 -94 100 -141q74 -46 207 -46zM578 117q156 0 255 109q99 110 99 282v51q0 173 -99 281t-255 108q-160 0 -254 -112q-95 -113 -95 -304q0 -186 96 -302q94 -113 253 -113zM582 1335h86v-133h-172v135q0 101 45 150t137 49v-68q-52 0 -74 -30q-22 -29 -22 -103z" />
    <glyph glyph-name="Hcircumflex" unicode="&#x124;" horiz-adv-x="1570" 
d="M328 0h-123v1462h123v-663h915v663h123v-1462h-123v688h-915v-688zM524 1571l185 299h155l183 -299h-82l-179 203l-178 -203h-84z" />
    <glyph glyph-name="hcircumflex" unicode="&#x125;" horiz-adv-x="1193" 
d="M313 1507v-680q38 105 125 163q89 59 209 59q169 0 266 -103t97 -284v-662h-119v637q0 152 -68 232q-67 79 -200 79q-146 0 -228 -98t-82 -281v-569h-118v1507h118zM348 1571l184 299h156l182 -299h-82l-178 203l-178 -203h-84z" />
    <glyph glyph-name="Hbar" unicode="&#x126;" horiz-adv-x="1611" 
d="M1264 606h-916v-606h-123v1036h-174v111h174v315h123v-315h916v315h122v-315h175v-111h-175v-1036h-122v606zM348 1036v-319h916v319h-916z" />
    <glyph glyph-name="hbar" unicode="&#x127;" horiz-adv-x="1214" 
d="M643 948q-145 0 -227 -98t-82 -281v-569h-119v1217h-172v88h172v202h119v-202h270v-88h-270v-390q38 105 125 163q89 59 209 59q169 0 266 -103q96 -102 96 -284v-662h-119v637q0 153 -67 232t-201 79z" />
    <glyph glyph-name="Itilde" unicode="&#x128;" horiz-adv-x="532" 
d="M328 0h-123v1462h123v-1462zM233 1673q-47 41 -68 53q-23 13 -42 13q-43 0 -66 -38q-21 -36 -26 -120h-88q0 125 47 195q47 69 133 69q39 0 73 -17q37 -19 99 -73q45 -39 69 -53q21 -12 42 -12q45 0 67 40q24 42 25 119h88q0 -126 -47 -196t-133 -70q-37 0 -73 18
q-42 21 -100 72z" />
    <glyph glyph-name="itilde" unicode="&#x129;" horiz-adv-x="507" 
d="M223 1309q-29 42 -47 55q-16 12 -33 12q-43 0 -65 -40q-23 -41 -27 -128h-88q0 125 47 195t133 70q37 0 68 -20q32 -21 74 -79q30 -41 47 -53q16 -12 33 -12q44 0 67 41q24 42 25 125h88q0 -125 -47 -195t-133 -70q-37 0 -68 20q-32 21 -74 79zM195 0v1024h118v-1024
h-118z" />
    <glyph glyph-name="Imacron" unicode="&#x12a;" horiz-adv-x="532" 
d="M328 0h-123v1462h123v-1462zM547 1618h-561v102h561v-102z" />
    <glyph glyph-name="imacron" unicode="&#x12b;" horiz-adv-x="507" 
d="M494 1260h-480v102h480v-102zM195 0v1024h118v-1024h-118z" />
    <glyph glyph-name="Ibreve" unicode="&#x12c;" horiz-adv-x="532" 
d="M328 0h-123v1462h123v-1462zM268 1567q-119 0 -191 83q-73 84 -73 220h105q0 -94 41 -146q40 -51 118 -51q76 0 117 50t41 147h104q0 -140 -71 -221q-72 -82 -191 -82z" />
    <glyph glyph-name="ibreve" unicode="&#x12d;" horiz-adv-x="507" 
d="M195 0v1024h118v-1024h-118zM256 1204q-119 0 -191 83q-73 84 -73 220h96q4 -100 46 -152t122 -52q78 0 120 52t46 152h96q0 -139 -72 -221t-190 -82z" />
    <glyph glyph-name="Iogonek" unicode="&#x12e;" horiz-adv-x="532" 
d="M330 -293v-86q-18 -7 -36 -8q-26 -2 -48 -2q-71 0 -118 41q-46 40 -46 110q0 53 28 107t99 131h-4v1462h123v-1462q-71 -58 -108 -113q-38 -58 -38 -108q0 -38 24 -59t66 -21q13 0 33 2q14 1 25 6z" />
    <glyph glyph-name="iogonek" unicode="&#x12f;" horiz-adv-x="507" 
d="M326 1260h-146v180h146v-180zM242 -389q-71 0 -118 41q-46 40 -46 110q0 56 27 111q25 52 94 127h-4v1024h118v-1024q-64 -49 -100 -109q-35 -58 -35 -112q0 -38 24 -59t66 -21q13 0 33 2q14 1 25 6v-86q-18 -7 -36 -8q-26 -2 -48 -2z" />
    <glyph glyph-name="Idotaccent" unicode="&#x130;" horiz-adv-x="532" 
d="M328 0h-123v1462h123v-1462zM338 1620h-143v180h143v-180z" />
    <glyph glyph-name="dotlessi" unicode="&#x131;" horiz-adv-x="507" 
d="M195 0v1024h118v-1024h-118z" />
    <glyph glyph-name="Jcircumflex" unicode="&#x134;" horiz-adv-x="1124" 
d="M479 80q168 0 255 111t87 323v948h123v-948q0 -251 -124 -394q-125 -145 -341 -145q-196 0 -322 117q-127 118 -134 311h122q7 -150 99 -237q91 -86 235 -86zM612 1571l185 299h155l183 -299h-82l-179 203l-178 -203h-84z" />
    <glyph glyph-name="jcircumflex" unicode="&#x135;" horiz-adv-x="507" 
d="M68 -377q-12 0 -36 2q-17 1 -34 6v101q23 -2 32 -3q6 -1 19 -1q83 0 114 32q32 34 32 115v1149h118v-1137q0 -138 -59 -200q-61 -64 -186 -64zM-10 1186l188 321h146l188 -321h-82l-178 233l-178 -233h-84z" />
    <glyph glyph-name="Kcommaaccent" unicode="&#x136;" horiz-adv-x="1415" 
d="M1337 0h-149l-625 729l-235 -233v-496h-123v1462h123v-825l821 825h158l-656 -647zM690 -248h-86v133h172v-135q0 -100 -45 -149q-45 -50 -137 -50v68q51 0 74 31q22 29 22 102z" />
    <glyph glyph-name="kcommaaccent" unicode="&#x137;" horiz-adv-x="1097" 
d="M1024 0h-154l-415 510l-142 -133v-377h-118v1507h118v-999l543 516h152l-465 -436zM600 -248h-86v133h172v-135q0 -100 -45 -149q-45 -50 -137 -50v68q51 0 74 31q22 29 22 102z" />
    <glyph glyph-name="kgreenlandic" unicode="&#x138;" horiz-adv-x="1097" 
d="M1024 0h-154l-415 510l-142 -133v-377h-118v1024h118v-516l543 516h152l-465 -436z" />
    <glyph glyph-name="Lacute" unicode="&#x139;" horiz-adv-x="1257" 
d="M1130 0h-925v1462h123v-1351h802v-111zM543 1870l-224 -295h-71l119 295h176z" />
    <glyph glyph-name="lacute" unicode="&#x13a;" horiz-adv-x="507" 
d="M313 1507v-1507h-118v1507h118zM535 1870l-224 -295h-71l118 295h177z" />
    <glyph glyph-name="Lcommaaccent" unicode="&#x13b;" horiz-adv-x="1257" 
d="M1130 0h-925v1462h123v-1351h802v-111zM674 -248h-86v133h172v-135q0 -100 -45 -149q-45 -50 -137 -50v68q50 0 73 31t23 102z" />
    <glyph glyph-name="lcommaaccent" unicode="&#x13c;" horiz-adv-x="507" 
d="M313 1507v-1507h-118v1507h118zM258 -248h-86v133h172v-135q0 -100 -45 -149q-45 -50 -137 -50v68q51 0 74 31q22 29 22 102z" />
    <glyph glyph-name="Lcaron" unicode="&#x13d;" horiz-adv-x="1257" 
d="M1130 0h-925v1462h123v-1351h802v-111zM868 1462l-147 -430h-62l56 430h153z" />
    <glyph glyph-name="lcaron" unicode="&#x13e;" horiz-adv-x="509" 
d="M313 1507v-1507h-118v1507h118zM686 1507l-147 -430h-62l55 430h154z" />
    <glyph glyph-name="Ldot" unicode="&#x13f;" horiz-adv-x="1257" 
d="M1130 0h-925v1462h123v-1351h802v-111zM967 709h-144v180h144v-180z" />
    <glyph glyph-name="ldot" unicode="&#x140;" horiz-adv-x="792" 
d="M313 1507v-1507h-118v1507h118zM707 606h-144v180h144v-180z" />
    <glyph glyph-name="Lslash" unicode="&#x141;" horiz-adv-x="1277" 
d="M348 111h803v-111h-926v637l-174 -64v103l174 63v723h123v-686l350 125v-102l-350 -125v-563z" />
    <glyph glyph-name="lslash" unicode="&#x142;" horiz-adv-x="661" 
d="M602 1051v-117l-213 -123v-811h-119v756l-211 -123v115l211 122v637h119v-581z" />
    <glyph glyph-name="Nacute" unicode="&#x143;" horiz-adv-x="1527" 
d="M205 1462h160l833 -1241h4v1241h121v-1462h-117l-876 1311h-4v-1311h-121v1462zM1004 1870l-224 -295h-71l118 295h177z" />
    <glyph glyph-name="nacute" unicode="&#x144;" horiz-adv-x="1193" 
d="M195 1024h112v-197q34 100 127 161t213 61q169 0 266 -103t97 -284v-662h-119v637q0 152 -68 232q-67 79 -200 79q-146 0 -228 -98t-82 -281v-569h-118v1024zM848 1507l-217 -315h-72l119 315h170z" />
    <glyph glyph-name="Ncommaaccent" unicode="&#x145;" horiz-adv-x="1527" 
d="M205 1462h160l833 -1241h4v1241h121v-1462h-117l-876 1311h-4v-1311h-121v1462zM762 -248h-86v133h172v-135q0 -100 -45 -149q-45 -50 -137 -50v68q50 0 73 31t23 102z" />
    <glyph glyph-name="ncommaaccent" unicode="&#x146;" horiz-adv-x="1193" 
d="M195 1024h112v-197q34 100 127 161t213 61q169 0 266 -103t97 -284v-662h-119v637q0 152 -68 232q-67 79 -200 79q-146 0 -228 -98t-82 -281v-569h-118v1024zM614 -248h-86v133h172v-135q0 -100 -45 -149q-45 -50 -137 -50v68q51 0 74 31q22 29 22 102z" />
    <glyph glyph-name="Ncaron" unicode="&#x147;" horiz-adv-x="1527" 
d="M205 1462h160l833 -1241h4v1241h121v-1462h-117l-876 1311h-4v-1311h-121v1462zM580 1870l178 -203l178 203h82l-182 -299h-156l-184 299h84z" />
    <glyph glyph-name="ncaron" unicode="&#x148;" horiz-adv-x="1193" 
d="M195 1024h112v-197q34 100 127 161t213 61q169 0 266 -103t97 -284v-662h-119v637q0 152 -68 232q-67 79 -200 79q-146 0 -228 -98t-82 -281v-569h-118v1024zM432 1507l178 -233l178 233h82l-188 -321h-145l-189 321h84z" />
    <glyph glyph-name="Eng" unicode="&#x14a;" horiz-adv-x="1527" 
d="M1077 -377q-12 0 -36 2q-16 1 -33 6v101q22 -1 31 -3q6 -1 20 -1q83 0 112 32q31 34 31 115v131l-872 1305h-4v-1311h-121v1462h160l833 -1241h4v1241h121v-1575q0 -138 -59 -200q-61 -64 -187 -64z" />
    <glyph glyph-name="eng" unicode="&#x14b;" horiz-adv-x="1193" 
d="M764 -377q-12 0 -36 2q-17 1 -34 6v101q23 -2 32 -3q6 -1 19 -1q83 0 114 32q32 34 32 115v762q0 152 -68 232q-67 79 -200 79q-146 0 -228 -98t-82 -281v-569h-118v1024h112v-197q34 100 127 161t213 61q169 0 266 -103t97 -284v-775q0 -137 -60 -200q-61 -64 -186 -64z
" />
    <glyph glyph-name="Omacron" unicode="&#x14c;" horiz-adv-x="1517" 
d="M760 1487q290 0 468 -211q179 -212 179 -545q0 -335 -179 -546q-178 -210 -468 -210q-291 0 -470 210q-179 211 -179 546q0 336 180 546t469 210zM760 88q242 0 380 173q138 172 138 470q0 295 -138 469t-380 174q-244 0 -382 -174t-138 -469q0 -297 138 -470t382 -173z
M1038 1618h-561v102h561v-102z" />
    <glyph glyph-name="omacron" unicode="&#x14d;" horiz-adv-x="1171" 
d="M586 1049q208 0 339 -149q130 -148 130 -388q0 -243 -130 -389q-131 -148 -339 -148t-339 148q-130 146 -130 389q0 240 130 388q131 149 339 149zM586 944q-163 0 -258 -116t-95 -316t95 -316t258 -116t258 116q94 115 94 316t-94 316q-95 116 -258 116zM866 1260h-561
v102h561v-102z" />
    <glyph glyph-name="Obreve" unicode="&#x14e;" horiz-adv-x="1517" 
d="M760 1487q290 0 468 -211q179 -212 179 -545q0 -335 -179 -546q-178 -210 -468 -210q-291 0 -470 210q-179 211 -179 546q0 336 180 546t469 210zM760 88q242 0 380 173q138 172 138 470q0 295 -138 469t-380 174q-244 0 -382 -174t-138 -469q0 -297 138 -470t382 -173z
M760 1567q-120 0 -192 83q-72 82 -72 220h104q0 -94 41 -146q41 -51 119 -51q76 0 117 50t41 147h104q0 -138 -72 -221q-72 -82 -190 -82z" />
    <glyph glyph-name="obreve" unicode="&#x14f;" horiz-adv-x="1171" 
d="M586 1049q208 0 339 -149q130 -148 130 -388q0 -243 -130 -389q-131 -148 -339 -148t-339 148q-130 146 -130 389q0 240 130 388q131 149 339 149zM586 944q-163 0 -258 -116t-95 -316t95 -316t258 -116t258 116q94 115 94 316t-94 316q-95 116 -258 116zM588 1204
q-120 0 -192 83t-72 220h96q4 -100 46 -152t122 -52q78 0 120 52t46 152h96q0 -139 -72 -221t-190 -82z" />
    <glyph glyph-name="Ohungarumlaut" unicode="&#x150;" horiz-adv-x="1517" 
d="M760 1487q290 0 468 -211q179 -212 179 -545q0 -335 -179 -546q-178 -210 -468 -210q-291 0 -470 210q-179 211 -179 546q0 336 180 546t469 210zM760 88q242 0 380 173q138 172 138 470q0 295 -138 469t-380 174q-244 0 -382 -174t-138 -469q0 -297 138 -470t382 -173z
M913 1575h-69l119 295h163zM625 1575h-72l121 295h162z" />
    <glyph glyph-name="ohungarumlaut" unicode="&#x151;" horiz-adv-x="1171" 
d="M586 1049q208 0 339 -149q130 -148 130 -388q0 -243 -130 -389q-131 -148 -339 -148t-339 148q-130 146 -130 389q0 240 130 388q131 149 339 149zM586 944q-163 0 -258 -116t-95 -316t95 -316t258 -116t258 116q94 115 94 316t-94 316q-95 116 -258 116zM762 1192h-70
l119 315h164zM473 1192h-72l121 315h162z" />
    <glyph glyph-name="OE" unicode="&#x152;" horiz-adv-x="2275" 
d="M2132 0h-1319q-313 0 -508 203q-194 201 -194 528q0 330 194 530q195 201 508 201h1323v-110h-829v-568h739v-110h-739v-563h825v-111zM240 731q0 -287 153 -453q153 -167 420 -167h371v1241h-371q-267 0 -420 -167t-153 -454z" />
    <glyph glyph-name="oe" unicode="&#x153;" horiz-adv-x="1931" 
d="M1694 291h114q-33 -149 -142 -232q-110 -84 -261 -84q-137 0 -244 67q-104 65 -172 200q-72 -135 -171 -201t-232 -66q-208 0 -339 148q-130 146 -130 389q0 240 130 388q131 149 339 149q131 0 234 -68q101 -67 171 -205q67 135 168 204t232 69q198 0 311 -139t113 -367
v-58h-771q4 -189 101 -298q95 -107 260 -107q109 0 179 51q71 51 110 160zM1391 944q-141 0 -233 -95q-91 -94 -109 -265h645q-5 171 -84 265q-80 95 -219 95zM586 944q-163 0 -258 -116t-95 -316t95 -316t258 -116q162 0 256 117q94 116 94 317q0 199 -94 314
q-95 116 -256 116z" />
    <glyph glyph-name="Racute" unicode="&#x154;" horiz-adv-x="1386" 
d="M328 618v-618h-123v1462h528q240 0 369 -108t129 -314q0 -158 -98 -268t-254 -137l419 -635h-143l-405 618h-422zM328 1352v-625h405q180 0 275 82q96 83 96 231t-97 230t-274 82h-405zM922 1870l-224 -295h-71l118 295h177z" />
    <glyph glyph-name="racute" unicode="&#x155;" horiz-adv-x="751" 
d="M639 1049q13 0 41 -2l41 -5v-110q-15 5 -37 6q-30 2 -45 2q-141 0 -233 -115q-93 -116 -93 -303v-522h-118v1024h112v-250q30 124 121 200q90 75 211 75zM670 1507l-217 -315h-72l119 315h170z" />
    <glyph glyph-name="Rcommaaccent" unicode="&#x156;" horiz-adv-x="1386" 
d="M328 618v-618h-123v1462h528q240 0 369 -108t129 -314q0 -158 -98 -268t-254 -137l419 -635h-143l-405 618h-422zM328 1352v-625h405q180 0 275 82q96 83 96 231t-97 230t-274 82h-405zM680 -248h-86v133h172v-135q0 -100 -45 -149q-45 -50 -137 -50v68q50 0 73 31
t23 102z" />
    <glyph glyph-name="rcommaaccent" unicode="&#x157;" horiz-adv-x="751" 
d="M639 1049q13 0 41 -2l41 -5v-110q-15 5 -37 6q-30 2 -45 2q-141 0 -233 -115q-93 -116 -93 -303v-522h-118v1024h112v-250q30 124 121 200q90 75 211 75zM260 -248h-86v133h172v-135q0 -100 -45 -149q-45 -50 -137 -50v68q51 0 74 31q22 29 22 102z" />
    <glyph glyph-name="Rcaron" unicode="&#x158;" horiz-adv-x="1386" 
d="M328 618v-618h-123v1462h528q240 0 369 -108t129 -314q0 -158 -98 -268t-254 -137l419 -635h-143l-405 618h-422zM328 1352v-625h405q180 0 275 82q96 83 96 231t-97 230t-274 82h-405zM498 1870l178 -203l178 203h82l-182 -299h-156l-184 299h84z" />
    <glyph glyph-name="rcaron" unicode="&#x159;" horiz-adv-x="751" 
d="M639 1049q13 0 41 -2l41 -5v-110q-15 5 -37 6q-30 2 -45 2q-141 0 -233 -115q-93 -116 -93 -303v-522h-118v1024h112v-250q30 124 121 200q90 75 211 75zM254 1507l178 -233l178 233h82l-188 -321h-146l-188 321h84z" />
    <glyph glyph-name="Sacute" unicode="&#x15a;" horiz-adv-x="1331" 
d="M694 -25q-257 0 -414 119t-169 334h118q16 -167 137 -256q119 -88 328 -88q178 0 285 83q106 82 106 222q0 110 -68 172q-69 63 -212 90l-283 58q-188 37 -275 127t-87 241q0 179 136 294q137 116 351 116q235 0 371 -99q138 -100 156 -286h-121q-21 130 -128 203
t-278 73q-165 0 -267 -84q-101 -83 -101 -217q0 -109 59 -165t215 -89l291 -59q188 -39 274 -129q86 -91 86 -242q0 -182 -143 -300t-367 -118zM909 1870l-223 -295h-72l119 295h176z" />
    <glyph glyph-name="sacute" unicode="&#x15b;" horiz-adv-x="1034" 
d="M530 -25q-185 0 -300 86q-114 85 -126 238h115q11 -107 93 -165t218 -58q121 0 196 54t75 146q0 68 -47 109q-46 40 -146 61l-180 37q-152 30 -217 95q-64 64 -64 174q0 126 103 212q101 85 258 85q168 0 268 -73q98 -71 113 -212h-113q-10 88 -80 136q-69 48 -188 48
q-111 0 -181 -53q-69 -53 -69 -141q0 -68 44 -106q43 -37 149 -58l204 -41q136 -29 197 -94t61 -176q0 -130 -108 -217t-275 -87zM762 1507l-217 -315h-72l119 315h170z" />
    <glyph glyph-name="Scircumflex" unicode="&#x15c;" horiz-adv-x="1331" 
d="M694 -25q-257 0 -414 119t-169 334h118q16 -167 137 -256q119 -88 328 -88q178 0 285 83q106 82 106 222q0 110 -68 172q-69 63 -212 90l-283 58q-188 37 -275 127t-87 241q0 179 136 294q137 116 351 116q235 0 371 -99q138 -100 156 -286h-121q-21 130 -128 203
t-278 73q-165 0 -267 -84q-101 -83 -101 -217q0 -109 59 -165t215 -89l291 -59q188 -39 274 -129q86 -91 86 -242q0 -182 -143 -300t-367 -118zM422 1571l184 299h156l182 -299h-82l-178 203l-178 -203h-84z" />
    <glyph glyph-name="scircumflex" unicode="&#x15d;" horiz-adv-x="1034" 
d="M530 -25q-185 0 -300 86q-114 85 -126 238h115q11 -107 93 -165t218 -58q121 0 196 54t75 146q0 68 -47 109q-46 40 -146 61l-180 37q-152 30 -217 95q-64 64 -64 174q0 126 103 212q101 85 258 85q168 0 268 -73q98 -71 113 -212h-113q-10 88 -80 136q-69 48 -188 48
q-111 0 -181 -53q-69 -53 -69 -141q0 -68 44 -106q43 -37 149 -58l204 -41q136 -29 197 -94t61 -176q0 -130 -108 -217t-275 -87zM262 1186l189 321h145l188 -321h-82l-178 233l-178 -233h-84z" />
    <glyph glyph-name="Scedilla" unicode="&#x15e;" horiz-adv-x="1331" 
d="M866 -221q0 -79 -62 -123q-63 -45 -159 -45q-50 0 -91 10q-44 11 -79 29v88q36 -19 82 -32q40 -11 88 -11q56 0 88 19q33 20 33 55q0 50 -55 65t-125 -8l-37 39l69 112q-229 18 -363 137t-144 314h118q16 -167 137 -256q119 -88 328 -88q178 0 285 83q106 82 106 222
q0 110 -68 172q-69 63 -212 90l-283 58q-188 37 -275 127t-87 241q0 179 136 294q137 116 351 116q235 0 371 -99q138 -100 156 -286h-121q-21 130 -128 203t-278 73q-165 0 -267 -84q-101 -83 -101 -217q0 -109 59 -165t215 -89l291 -59q188 -39 274 -129q86 -91 86 -242
q0 -182 -143 -300t-367 -118h-2l-37 -59q92 8 151 -29q60 -37 60 -108z" />
    <glyph glyph-name="scedilla" unicode="&#x15f;" horiz-adv-x="1034" 
d="M707 -221q0 -78 -63 -123t-159 -45q-50 0 -91 10q-44 11 -79 29v88q36 -19 82 -32q40 -11 88 -11q56 0 88 19q33 20 33 55q0 50 -55 65t-125 -8l-37 39l70 115q-158 17 -251 99q-93 83 -104 220h115q11 -107 93 -165t218 -58q121 0 196 54t75 146q0 68 -47 109
q-46 40 -146 61l-180 37q-152 30 -217 95q-64 64 -64 174q0 126 103 212q101 85 258 85q168 0 268 -73q98 -71 113 -212h-113q-10 88 -80 136q-69 48 -188 48q-111 0 -181 -53q-69 -53 -69 -141q0 -68 44 -106q43 -37 149 -58l204 -41q136 -29 197 -94t61 -176
q0 -130 -108 -217t-273 -87l-36 -59q91 8 150 -29q61 -38 61 -108z" />
    <glyph glyph-name="Scaron" unicode="&#x160;" horiz-adv-x="1331" 
d="M694 -25q-257 0 -414 119t-169 334h118q16 -167 137 -256q119 -88 328 -88q178 0 285 83q106 82 106 222q0 110 -68 172q-69 63 -212 90l-283 58q-188 37 -275 127t-87 241q0 179 136 294q137 116 351 116q235 0 371 -99q138 -100 156 -286h-121q-21 130 -128 203
t-278 73q-165 0 -267 -84q-101 -83 -101 -217q0 -109 59 -165t215 -89l291 -59q188 -39 274 -129q86 -91 86 -242q0 -182 -143 -300t-367 -118zM506 1870l178 -203l178 203h82l-182 -299h-156l-184 299h84z" />
    <glyph glyph-name="scaron" unicode="&#x161;" horiz-adv-x="1034" 
d="M530 -25q-185 0 -300 86q-114 85 -126 238h115q11 -107 93 -165t218 -58q121 0 196 54t75 146q0 68 -47 109q-46 40 -146 61l-180 37q-152 30 -217 95q-64 64 -64 174q0 126 103 212q101 85 258 85q168 0 268 -73q98 -71 113 -212h-113q-10 88 -80 136q-69 48 -188 48
q-111 0 -181 -53q-69 -53 -69 -141q0 -68 44 -106q43 -37 149 -58l204 -41q136 -29 197 -94t61 -176q0 -130 -108 -217t-275 -87zM330 1507l178 -233l178 233h82l-188 -321h-146l-188 321h84z" />
    <glyph glyph-name="Tcommaaccent" unicode="&#x162;" horiz-adv-x="1406" 
d="M870 -221q0 -79 -62 -123q-63 -45 -159 -45q-50 0 -91 10q-44 11 -79 29v88q36 -19 82 -32q40 -11 88 -11q56 0 88 19q33 20 33 55q0 50 -55 65t-125 -8l-37 39l88 145v1342h-557v110h1239v-110h-559v-1352h-51l-54 -84q92 8 151 -29q60 -37 60 -108z" />
    <glyph glyph-name="tcommaaccent" unicode="&#x163;" horiz-adv-x="731" 
d="M582 -221q0 -78 -63 -123t-159 -45q-50 0 -91 10q-44 11 -79 29v88q36 -19 82 -32q40 -11 88 -11q57 0 89 19t32 55q0 50 -55 65t-125 -8l-37 39l84 137q-71 27 -107 90t-36 162v674h-156v96h156v264h119v-264h282v-96h-284v-684q0 -81 37 -118q38 -38 118 -38q38 0 74 7
q43 8 84 22v-105q-35 -12 -85 -21q-39 -7 -81 -7q-15 0 -23 1q-12 1 -30 3l-45 -72q91 8 150 -29q61 -38 61 -108z" />
    <glyph glyph-name="Tcaron" unicode="&#x164;" horiz-adv-x="1406" 
d="M764 0h-123v1352h-557v110h1239v-110h-559v-1352zM526 1870l179 -203l178 203h82l-183 -299h-155l-185 299h84z" />
    <glyph glyph-name="tcaron" unicode="&#x165;" horiz-adv-x="731" 
d="M477 88q38 0 74 7q43 8 84 22v-105q-35 -12 -85 -21q-39 -7 -81 -7q-132 0 -198 67q-66 68 -66 203v674h-156v96h156v264h119v-264h282v-96h-284v-684q0 -81 37 -118q38 -38 118 -38zM657 1589l-147 -430h-61l55 430h153z" />
    <glyph glyph-name="Tbar" unicode="&#x166;" horiz-adv-x="1406" 
d="M1030 799v-111h-266v-688h-123v688h-266v111h266v553h-557v110h1239v-110h-559v-553h266z" />
    <glyph glyph-name="tbar" unicode="&#x167;" horiz-adv-x="796" 
d="M680 117v-105q-35 -12 -85 -21q-39 -7 -81 -7q-132 0 -198 67q-66 68 -66 203v313h-156v97h156v264h-156v96h156v264h119v-264h282v-96h-284v-264h278v-97h-278v-323q0 -81 37 -118q38 -38 118 -38q38 0 74 7q43 8 84 22z" />
    <glyph glyph-name="Utilde" unicode="&#x168;" horiz-adv-x="1507" 
d="M1327 1462v-862q0 -300 -149 -462q-150 -163 -424 -163t-424 164q-150 163 -150 465v858h123v-880q0 -241 118 -368q119 -128 333 -128q213 0 332 128q118 127 118 368v880h123zM723 1673q-45 39 -69 53q-23 13 -42 13q-42 0 -65 -38q-23 -37 -27 -120h-88q0 125 47 195
q47 69 133 69q39 0 73 -17q37 -19 99 -73q45 -39 69 -53q21 -12 42 -12q46 0 68 40q23 41 24 119h88q0 -126 -47 -196t-133 -70q-37 0 -73 18q-40 20 -99 72z" />
    <glyph glyph-name="utilde" unicode="&#x169;" horiz-adv-x="1183" 
d="M989 1024v-1024h-112v195q-38 -104 -125 -161q-89 -59 -207 -59q-174 0 -267 101q-94 102 -94 286v662h121v-641q0 -154 67 -235q65 -78 197 -78q144 0 223 100q78 99 78 285v569h119zM563 1307q-42 39 -68 56q-20 13 -42 13q-44 0 -66 -40q-23 -41 -27 -128h-88
q0 125 47 195t134 70q34 0 72 -19q36 -18 100 -76q42 -39 68 -56q20 -13 42 -13q45 0 68 41q22 40 24 125h88q0 -125 -47 -195t-133 -70q-34 0 -72 19t-100 78z" />
    <glyph glyph-name="Umacron" unicode="&#x16a;" horiz-adv-x="1507" 
d="M1327 1462v-862q0 -300 -149 -462q-150 -163 -424 -163t-424 164q-150 163 -150 465v858h123v-880q0 -241 118 -368q119 -128 333 -128q213 0 332 128q118 127 118 368v880h123zM1034 1618h-561v102h561v-102z" />
    <glyph glyph-name="umacron" unicode="&#x16b;" horiz-adv-x="1183" 
d="M989 1024v-1024h-112v195q-38 -104 -125 -161q-89 -59 -207 -59q-174 0 -267 101q-94 102 -94 286v662h121v-641q0 -154 67 -235q65 -78 197 -78q144 0 223 100q78 99 78 285v569h119zM874 1260h-561v102h561v-102z" />
    <glyph glyph-name="Ubreve" unicode="&#x16c;" horiz-adv-x="1507" 
d="M1327 1462v-862q0 -300 -149 -462q-150 -163 -424 -163t-424 164q-150 163 -150 465v858h123v-880q0 -241 118 -368q119 -128 333 -128q213 0 332 128q118 127 118 368v880h123zM756 1567q-120 0 -192 83q-72 82 -72 220h104q0 -94 41 -146q41 -51 119 -51q75 0 116 50
t41 147h105q0 -138 -72 -221q-72 -82 -190 -82z" />
    <glyph glyph-name="ubreve" unicode="&#x16d;" horiz-adv-x="1183" 
d="M989 1024v-1024h-112v195q-38 -104 -125 -161q-89 -59 -207 -59q-174 0 -267 101q-94 102 -94 286v662h121v-641q0 -154 67 -235q65 -78 197 -78q144 0 223 100q78 99 78 285v569h119zM594 1204q-120 0 -192 83t-72 220h96q4 -100 46 -152t122 -52q78 0 120 52t46 152h96
q0 -139 -72 -221t-190 -82z" />
    <glyph glyph-name="Uring" unicode="&#x16e;" horiz-adv-x="1507" 
d="M1327 1462v-862q0 -300 -149 -462q-150 -163 -424 -163t-424 164q-150 163 -150 465v858h123v-880q0 -241 118 -368q119 -128 333 -128q213 0 332 128q118 127 118 368v880h123zM995 1710q0 -100 -69 -172t-170 -72q-98 0 -170 72t-72 172t72 172t170 72q101 0 170 -72
t69 -172zM901 1710q0 62 -42 105t-103 43q-60 0 -104 -44t-44 -104q0 -59 44 -103t104 -44q61 0 103 43q42 44 42 104z" />
    <glyph glyph-name="uring" unicode="&#x16f;" horiz-adv-x="1183" 
d="M989 1024v-1024h-112v195q-38 -104 -125 -161q-89 -59 -207 -59q-174 0 -267 101q-94 102 -94 286v662h121v-641q0 -154 67 -235q65 -78 197 -78q144 0 223 100q78 99 78 285v569h119zM594 1178q-79 0 -135 56q-58 58 -58 134q0 80 57 137q58 58 136 58q80 0 135 -57
q55 -56 55 -138q0 -80 -55 -135t-135 -55zM594 1262q44 0 75 31t31 75q0 48 -30 79q-30 32 -76 32t-77 -33q-32 -34 -32 -78q0 -43 32 -75q31 -31 77 -31z" />
    <glyph glyph-name="Uhungarumlaut" unicode="&#x170;" horiz-adv-x="1507" 
d="M1327 1462v-862q0 -300 -149 -462q-150 -163 -424 -163t-424 164q-150 163 -150 465v858h123v-880q0 -241 118 -368q119 -128 333 -128q213 0 332 128q118 127 118 368v880h123zM889 1575h-70l119 295h164zM600 1575h-72l121 295h162z" />
    <glyph glyph-name="uhungarumlaut" unicode="&#x171;" horiz-adv-x="1183" 
d="M989 1024v-1024h-112v195q-38 -104 -125 -161q-89 -59 -207 -59q-174 0 -267 101q-94 102 -94 286v662h121v-641q0 -154 67 -235q65 -78 197 -78q144 0 223 100q78 99 78 285v569h119zM741 1192h-69l119 315h163zM453 1192h-72l121 315h162z" />
    <glyph glyph-name="Uogonek" unicode="&#x172;" horiz-adv-x="1507" 
d="M1028 -293v-86q-18 -7 -36 -8q-26 -2 -48 -2q-70 0 -117 42t-47 111q0 56 24 108q23 51 77 114q-44 -6 -65 -8q-32 -3 -62 -3q-274 0 -424 164q-150 163 -150 465v858h123v-880q0 -241 118 -368q119 -128 333 -128q213 0 332 128q118 127 118 368v880h123v-862
q0 -215 -80 -363q-79 -145 -233 -212q-66 -53 -99 -117q-34 -65 -34 -129q0 -39 23 -59q24 -21 67 -21q13 0 33 2q13 1 24 6z" />
    <glyph glyph-name="uogonek" unicode="&#x173;" horiz-adv-x="1183" 
d="M987 -293v-86q-18 -7 -36 -8q-26 -2 -48 -2q-71 0 -118 41q-46 40 -46 110q0 51 26 105q25 51 112 158v170q-38 -104 -125 -161q-89 -59 -207 -59q-174 0 -267 101q-94 102 -94 286v662h121v-641q0 -154 67 -235q65 -78 197 -78q144 0 223 100q78 99 78 285v569h119
v-1024h-33q-71 -90 -93 -134q-23 -45 -23 -87q0 -39 23 -59q24 -21 67 -21q13 0 33 2q13 1 24 6z" />
    <glyph glyph-name="Wcircumflex" unicode="&#x174;" horiz-adv-x="1957" 
d="M1481 0h-146l-354 1284h-4l-356 -1284h-144l-416 1462h134l360 -1304h4l354 1304h140l356 -1304h4l359 1304h124zM719 1571l184 299h156l182 -299h-82l-178 203l-178 -203h-84z" />
    <glyph glyph-name="wcircumflex" unicode="&#x175;" horiz-adv-x="1513" 
d="M694 1024h131l252 -887h4l254 887h113l-307 -1024h-127l-254 881h-6l-250 -881h-131l-305 1024h116l256 -887h4zM498 1186l188 321h145l189 -321h-82l-178 233l-178 -233h-84z" />
    <glyph glyph-name="Ycircumflex" unicode="&#x176;" horiz-adv-x="1312" 
d="M717 610v-610h-123v610l-553 852h137l484 -739h4l469 739h137zM395 1571l185 299h155l183 -299h-82l-179 203l-178 -203h-84z" />
    <glyph glyph-name="ycircumflex" unicode="&#x177;" horiz-adv-x="1073" 
d="M262 -274q70 0 116 52q45 51 107 208l-417 1038h127l350 -874h4l330 874h127l-420 -1063q-83 -214 -148 -276q-68 -65 -176 -66q-18 0 -42 3q-29 4 -46 7v107q25 -7 43 -8q28 -2 45 -2zM287 1186l188 321h146l188 -321h-82l-178 233l-178 -233h-84z" />
    <glyph glyph-name="Ydieresis" unicode="&#x178;" horiz-adv-x="1312" 
d="M717 610v-610h-123v610l-553 852h137l484 -739h4l469 739h137zM901 1620h-135v180h135v-180zM547 1620h-135v180h135v-180z" />
    <glyph glyph-name="Zacute" unicode="&#x179;" horiz-adv-x="1349" 
d="M1223 1462v-102l-944 -1249h948v-111h-1110v88l948 1264h-915v110h1073zM920 1870l-224 -295h-71l118 295h177z" />
    <glyph glyph-name="zacute" unicode="&#x17a;" horiz-adv-x="1044" 
d="M907 1024v-92l-645 -836h668v-96h-817v78l649 850h-623v96h768zM774 1507l-217 -315h-72l119 315h170z" />
    <glyph glyph-name="Zdotaccent" unicode="&#x17b;" horiz-adv-x="1349" 
d="M1223 1462v-102l-944 -1249h948v-111h-1110v88l948 1264h-915v110h1073zM745 1620h-143v180h143v-180z" />
    <glyph glyph-name="zdotaccent" unicode="&#x17c;" horiz-adv-x="1044" 
d="M907 1024v-92l-645 -836h668v-96h-817v78l649 850h-623v96h768zM606 1260h-143v180h143v-180z" />
    <glyph glyph-name="Zcaron" unicode="&#x17d;" horiz-adv-x="1349" 
d="M1223 1462v-102l-944 -1249h948v-111h-1110v88l948 1264h-915v110h1073zM496 1870l178 -203l178 203h82l-182 -299h-156l-184 299h84z" />
    <glyph glyph-name="zcaron" unicode="&#x17e;" horiz-adv-x="1044" 
d="M907 1024v-92l-645 -836h668v-96h-817v78l649 850h-623v96h768zM356 1507l179 -233l178 233h82l-189 -321h-145l-189 321h84z" />
    <glyph glyph-name="florin" unicode="&#x192;" horiz-adv-x="1034" 
d="M782 827v-94h-260l-172 -958h-117l173 958h-185v94h201l72 404q27 141 108 220q82 81 201 81q32 0 64 -7q31 -7 69 -20v-112q-29 14 -65 23q-29 7 -68 7q-77 0 -126 -54q-51 -56 -69 -159l-69 -383h243z" />
    <glyph glyph-name="AEacute" unicode="&#x1fc;" horiz-adv-x="2217" 
d="M2075 0h-949v436h-651l-303 -436h-131l1022 1462h1016v-110h-830v-568h740v-110h-740v-563h826v-111zM1126 543v827l-575 -827h575zM1778 1870l-224 -295h-71l119 295h176z" />
    <glyph glyph-name="aeacute" unicode="&#x1fd;" horiz-adv-x="1798" 
d="M1561 291h112q-33 -148 -141 -232t-260 -84q-137 0 -247 61q-108 60 -165 173q-63 -114 -167 -173t-240 -59q-149 0 -244 82q-96 82 -96 215q0 144 110 226t297 82h283v106q0 126 -69 192t-197 66q-114 0 -182 -55q-69 -55 -79 -154h-116q15 144 118 229t259 85
q129 0 219 -57t127 -158q65 101 163 158t211 57q197 0 311 -141q113 -140 113 -369v-58h-770q4 -190 101 -297q96 -106 260 -106q108 0 179 51t110 160zM1257 946q-141 0 -233 -96q-93 -97 -109 -268h646q-5 170 -84 267t-220 97zM236 272q0 -88 60 -140q59 -52 167 -52
q155 0 247 88q93 88 93 240v75h-275q-145 0 -219 -53q-73 -52 -73 -158zM1116 1507l-217 -315h-72l119 315h170z" />
    <glyph glyph-name="Oslashacute" unicode="&#x1fe;" horiz-adv-x="1517" 
d="M1407 731q0 -335 -179 -546q-178 -210 -468 -210q-113 0 -215 35q-99 34 -180 103l-129 -174l-80 59l137 184q-89 102 -135 243q-47 143 -47 306q0 336 180 546t469 210q111 0 213 -35q99 -34 182 -102l127 172l80 -60l-135 -184q87 -98 134 -242q46 -139 46 -305z
M760 1374q-244 0 -382 -174t-138 -469q0 -142 31 -254q31 -111 94 -196l722 976q-68 59 -148 88t-179 29zM760 88q242 0 380 173q138 172 138 470q0 134 -31 252q-30 114 -92 199l-723 -977q62 -56 147 -87q83 -30 181 -30zM1012 1870l-224 -295h-71l119 295h176z" />
    <glyph glyph-name="oslashacute" unicode="&#x1ff;" horiz-adv-x="1171" 
d="M1055 512q0 -243 -130 -389q-131 -148 -339 -148q-79 0 -150 23q-70 23 -127 68l-100 -136l-72 50l109 145q-64 73 -96 170q-33 99 -33 217q0 240 130 388q131 149 339 149q82 0 152 -24t128 -71l97 129l71 -49l-104 -139q62 -74 93 -172q32 -101 32 -211zM586 944
q-163 0 -258 -116t-95 -316q0 -90 21 -165q22 -77 59 -132l490 655q-45 38 -100 56q-54 18 -117 18zM586 80q163 0 258 116q94 115 94 316q0 90 -19 162q-19 74 -57 129l-489 -653q45 -36 97 -53q51 -17 116 -17zM836 1507l-217 -315h-72l119 315h170z" />
    <glyph glyph-name="Scommaaccent" unicode="&#x218;" horiz-adv-x="1331" 
d="M694 -25q-257 0 -414 119t-169 334h118q16 -167 137 -256q119 -88 328 -88q178 0 285 83q106 82 106 222q0 110 -68 172q-69 63 -212 90l-283 58q-188 37 -275 127t-87 241q0 179 136 294q137 116 351 116q235 0 371 -99q138 -100 156 -286h-121q-21 130 -128 203
t-278 73q-165 0 -267 -84q-101 -83 -101 -217q0 -109 59 -165t215 -89l291 -59q188 -39 274 -129q86 -91 86 -242q0 -182 -143 -300t-367 -118zM668 -248h-86v133h172v-135q0 -100 -45 -149q-45 -50 -138 -50v68q51 0 74 31t23 102z" />
    <glyph glyph-name="scommaaccent" unicode="&#x219;" horiz-adv-x="1034" 
d="M530 -25q-185 0 -300 86q-114 85 -126 238h115q11 -107 93 -165t218 -58q121 0 196 54t75 146q0 68 -47 109q-46 40 -146 61l-180 37q-152 30 -217 95q-64 64 -64 174q0 126 103 212q101 85 258 85q168 0 268 -73q98 -71 113 -212h-113q-10 88 -80 136q-69 48 -188 48
q-111 0 -181 -53q-69 -53 -69 -141q0 -68 44 -106q43 -37 149 -58l204 -41q136 -29 197 -94t61 -176q0 -130 -108 -217t-275 -87zM537 -248h-86v133h172v-135q0 -100 -45 -149q-45 -50 -138 -50v68q51 0 74 31t23 102z" />
    <glyph glyph-name="uni021A" unicode="&#x21a;" horiz-adv-x="1406" 
d="M764 0h-123v1352h-557v110h1239v-110h-559v-1352zM698 -248h-86v133h172v-135q0 -100 -45 -149q-45 -50 -137 -50v68q51 0 74 31q22 29 22 102z" />
    <glyph glyph-name="uni021B" unicode="&#x21b;" horiz-adv-x="731" 
d="M477 88q38 0 74 7q43 8 84 22v-105q-35 -12 -85 -21q-39 -7 -81 -7q-132 0 -198 67q-66 68 -66 203v674h-156v96h156v264h119v-264h282v-96h-284v-684q0 -81 37 -118q38 -38 118 -38zM422 -248h-86v133h172v-135q0 -100 -45 -149q-45 -50 -137 -50v68q50 0 73 31t23 102z
" />
    <glyph glyph-name="uni0237" unicode="&#x237;" horiz-adv-x="507" 
d="M68 -377q-12 0 -36 2q-17 1 -34 6v101q23 -2 32 -3q6 -1 19 -1q83 0 114 32q32 34 32 115v1149h118v-1137q0 -138 -59 -200q-61 -64 -186 -64z" />
    <glyph glyph-name="circumflex" unicode="&#x2c6;" 
d="M317 1186l189 321h145l189 -321h-82l-178 233l-179 -233h-84z" />
    <glyph glyph-name="caron" unicode="&#x2c7;" 
d="M401 1507l179 -233l178 233h82l-189 -321h-145l-189 321h84z" />
    <glyph glyph-name="breve" unicode="&#x2d8;" 
d="M580 1204q-120 0 -192 83q-73 84 -73 220h97q4 -100 46 -152t122 -52q77 0 119 52t46 152h97q0 -139 -72 -221t-190 -82z" />
    <glyph glyph-name="dotaccent" unicode="&#x2d9;" 
d="M651 1260h-143v180h143v-180z" />
    <glyph glyph-name="ring" unicode="&#x2da;" 
d="M580 1178q-80 0 -136 56q-57 57 -57 134q0 81 56 137q58 58 137 58q80 0 135 -57q55 -56 55 -138q0 -80 -55 -135t-135 -55zM580 1262q43 0 74 31q32 32 32 75q0 46 -31 79q-30 32 -75 32q-46 0 -77 -33q-32 -34 -32 -78q0 -43 32 -75q31 -31 77 -31z" />
    <glyph glyph-name="ogonek" unicode="&#x2db;" 
d="M647 -389q-71 0 -118 41q-46 40 -46 110q0 51 26 105q27 55 114 160h98q-82 -105 -111 -157q-26 -46 -26 -91q0 -39 23 -59q24 -21 67 -21q13 0 33 2q13 1 24 6v-86q-18 -7 -36 -8q-26 -2 -48 -2z" />
    <glyph glyph-name="tilde" unicode="&#x2dc;" 
d="M547 1307q-40 37 -69 56q-20 13 -42 13q-43 0 -65 -40q-23 -41 -27 -128h-88q0 125 47 195t133 70q35 0 73 -19q34 -17 99 -76q40 -37 69 -56q20 -13 42 -13q44 0 67 41q24 42 25 125h88q0 -125 -47 -195t-133 -70q-35 0 -73 19q-36 18 -99 78z" />
    <glyph glyph-name="hungarumlaut" unicode="&#x2dd;" 
d="M649 1192h-69l118 315h164zM360 1192h-71l121 315h161z" />
    <glyph glyph-name="Wgrave" unicode="&#x1e80;" horiz-adv-x="1957" 
d="M1481 0h-146l-354 1284h-4l-356 -1284h-144l-416 1462h134l360 -1304h4l354 1304h140l356 -1304h4l359 1304h124zM920 1870l118 -295h-71l-224 295h177z" />
    <glyph glyph-name="wgrave" unicode="&#x1e81;" horiz-adv-x="1513" 
d="M694 1024h131l252 -887h4l254 887h113l-307 -1024h-127l-254 881h-6l-250 -881h-131l-305 1024h116l256 -887h4zM700 1507l119 -315h-71l-218 315h170z" />
    <glyph glyph-name="Wacute" unicode="&#x1e82;" horiz-adv-x="1957" 
d="M1481 0h-146l-354 1284h-4l-356 -1284h-144l-416 1462h134l360 -1304h4l354 1304h140l356 -1304h4l359 1304h124zM1243 1870l-223 -295h-72l119 295h176z" />
    <glyph glyph-name="wacute" unicode="&#x1e83;" horiz-adv-x="1513" 
d="M694 1024h131l252 -887h4l254 887h113l-307 -1024h-127l-254 881h-6l-250 -881h-131l-305 1024h116l256 -887h4zM989 1507l-217 -315h-72l119 315h170z" />
    <glyph glyph-name="Wdieresis" unicode="&#x1e84;" horiz-adv-x="1957" 
d="M1481 0h-146l-354 1284h-4l-356 -1284h-144l-416 1462h134l360 -1304h4l354 1304h140l356 -1304h4l359 1304h124zM1225 1620h-135v180h135v-180zM870 1620h-135v180h135v-180z" />
    <glyph glyph-name="wdieresis" unicode="&#x1e85;" horiz-adv-x="1513" 
d="M694 1024h131l252 -887h4l254 887h113l-307 -1024h-127l-254 881h-6l-250 -881h-131l-305 1024h116l256 -887h4zM1004 1260h-136v180h136v-180zM649 1260h-135v180h135v-180z" />
    <glyph glyph-name="Ygrave" unicode="&#x1ef2;" horiz-adv-x="1312" 
d="M717 610v-610h-123v610l-553 852h137l484 -739h4l469 739h137zM582 1870l118 -295h-71l-223 295h176z" />
    <glyph glyph-name="ygrave" unicode="&#x1ef3;" horiz-adv-x="1073" 
d="M262 -274q70 0 116 52q45 51 107 208l-417 1038h127l350 -874h4l330 874h127l-420 -1063q-83 -214 -148 -276q-68 -65 -176 -66q-18 0 -42 3q-29 4 -46 7v107q25 -7 43 -8q28 -2 45 -2zM477 1507l119 -315h-72l-217 315h170z" />
    <glyph glyph-name="endash" unicode="&#x2013;" horiz-adv-x="1386" 
d="M1208 514h-1030v104h1030v-104z" />
    <glyph glyph-name="emdash" unicode="&#x2014;" horiz-adv-x="2054" 
d="M1876 514h-1698v104h1698v-104z" />
    <glyph glyph-name="quoteleft" unicode="&#x2018;" horiz-adv-x="606" 
d="M309 1210h82v-163h-178v194q0 122 69 194t185 72v-82q-80 0 -119 -46q-39 -47 -39 -138v-31z" />
    <glyph glyph-name="quoteright" unicode="&#x2019;" horiz-adv-x="606" 
d="M297 1343h-82v164h178v-194q0 -123 -68 -194q-69 -72 -186 -72v81q80 0 119 47t39 138v30z" />
    <glyph glyph-name="quotesinglbase" unicode="&#x201a;" horiz-adv-x="606" 
d="M297 66h-82v163h178v-194q0 -123 -68 -194q-69 -72 -186 -72v81q80 0 119 47t39 138v31z" />
    <glyph glyph-name="quotedblleft" unicode="&#x201c;" horiz-adv-x="1019" 
d="M723 1210h82v-163h-178v194q0 123 68 194q69 72 186 72v-82q-80 0 -119 -46q-39 -47 -39 -138v-31zM309 1210h82v-163h-178v194q0 122 69 194t185 72v-82q-80 0 -119 -46q-39 -47 -39 -138v-31z" />
    <glyph glyph-name="quotedblright" unicode="&#x201d;" horiz-adv-x="1019" 
d="M297 1343h-82v164h178v-194q0 -123 -68 -194q-69 -72 -186 -72v81q80 0 119 47t39 138v30zM711 1343h-82v164h178v-194q0 -122 -69 -194t-185 -72v81q80 0 119 47t39 138v30z" />
    <glyph glyph-name="quotedblbase" unicode="&#x201e;" horiz-adv-x="1019" 
d="M297 66h-82v163h178v-194q0 -123 -68 -194q-69 -72 -186 -72v81q80 0 119 47t39 138v31zM711 66h-82v163h178v-194q0 -122 -69 -194t-185 -72v81q80 0 119 47t39 138v31z" />
    <glyph glyph-name="dagger" unicode="&#x2020;" horiz-adv-x="735" 
d="M657 1249v-94h-241v-537h-99v537h-239v94h239v238h99v-238h241z" />
    <glyph glyph-name="daggerdbl" unicode="&#x2021;" horiz-adv-x="735" 
d="M657 950v-94h-241v-238h-99v238h-239v94h239v205h-239v94h239v238h99v-238h241v-94h-241v-205h241z" />
    <glyph glyph-name="bullet" unicode="&#x2022;" horiz-adv-x="851" 
d="M428 354q-101 0 -176 73q-74 72 -74 175q0 101 74 173q75 73 176 73q102 0 174 -72t72 -174q0 -103 -72 -175q-73 -73 -174 -73z" />
    <glyph glyph-name="ellipsis" unicode="&#x2026;" horiz-adv-x="1343" 
d="M1128 0h-176v178h176v-178zM760 0h-176v178h176v-178zM391 0h-176v178h176v-178z" />
    <glyph glyph-name="guilsinglleft" unicode="&#x2039;" horiz-adv-x="626" 
d="M274 485l220 -391h-95l-266 391l266 394h95z" />
    <glyph glyph-name="guilsinglright" unicode="&#x203a;" horiz-adv-x="626" 
d="M133 870h94l267 -393l-267 -391h-94l219 391z" />
    <glyph glyph-name="fraction" unicode="&#x2044;" horiz-adv-x="376" 
d="M776 1489l-1055 -1514h-122l1056 1514h121z" />
    <glyph glyph-name="uni2070" unicode="&#x2070;" horiz-adv-x="839" 
d="M745 1063q0 -185 -91 -300q-92 -116 -236 -116t-234 116q-90 115 -90 300q0 183 89 301q88 117 235 117q144 0 236 -117q91 -116 91 -301zM207 1063q0 -151 55 -236q56 -86 156 -86q102 0 159 85q56 84 56 237q0 155 -56 239t-159 84q-100 0 -156 -86q-55 -85 -55 -237z
" />
    <glyph glyph-name="uni2074" unicode="&#x2074;" horiz-adv-x="821" 
d="M457 1462h125v-514h168v-86h-168v-200h-107v200h-399v88zM475 948v404l-295 -404h295z" />
    <glyph glyph-name="uni2075" unicode="&#x2075;" horiz-adv-x="759" 
d="M561 922q0 84 -47 134t-129 50q-51 0 -95 -22q-42 -21 -69 -62h-100l43 440h465v-92h-381l-27 -250q27 33 75 54q46 20 99 20q123 0 199 -76t76 -196q0 -121 -79 -199q-80 -78 -206 -78q-127 0 -208 69t-91 185h115q5 -74 55 -120t129 -46q83 0 129 51q47 52 47 138z" />
    <glyph glyph-name="uni2076" unicode="&#x2076;" horiz-adv-x="778" 
d="M414 1389q-100 0 -158 -94q-57 -93 -57 -248q23 68 82 108q61 41 137 41q118 0 193 -75t75 -193q0 -123 -79 -202t-204 -79q-137 0 -223 111q-86 112 -86 291q0 189 89 311q88 121 231 121q108 0 179 -60t87 -164h-102q-16 66 -57 99t-107 33zM223 924q0 -84 51 -136
q51 -53 129 -53q81 0 131 53t50 136q0 81 -50 134q-49 52 -131 52q-81 0 -130 -52q-50 -53 -50 -134z" />
    <glyph glyph-name="uni2077" unicode="&#x2077;" horiz-adv-x="716" 
d="M518 1372h-450v90h569v-80q-134 -163 -195 -332q-62 -171 -63 -388h-117q1 190 67 371t189 339z" />
    <glyph glyph-name="uni2078" unicode="&#x2078;" horiz-adv-x="794" 
d="M702 881q0 -107 -84 -170q-85 -64 -223 -64q-137 0 -220 65t-83 169q0 68 49 123t117 67q-61 24 -96 73t-35 111q0 100 76 163q77 63 192 63q119 0 195 -63t76 -163q0 -64 -34 -111q-36 -50 -95 -73q67 -12 116 -67t49 -123zM563 1255q0 63 -45 101q-44 37 -123 37
q-77 0 -121 -37q-45 -38 -45 -101q0 -66 46 -103q47 -38 120 -38q75 0 122 38q46 37 46 103zM592 883q0 69 -52 108q-53 39 -145 39q-91 0 -141 -40q-51 -40 -51 -107q0 -70 52 -110t140 -40q93 0 145 40t52 110z" />
    <glyph glyph-name="uni2079" unicode="&#x2079;" horiz-adv-x="778" 
d="M367 739q99 0 158 94t59 248q-24 -69 -85 -110t-139 -41q-116 0 -191 78t-75 194q0 123 79 201t204 78q137 0 223 -111q86 -112 86 -291q0 -189 -90 -311q-90 -121 -231 -121q-110 0 -179 60q-70 61 -86 163h105q15 -69 54 -99q41 -32 108 -32zM559 1204q0 82 -51 134
q-51 53 -131 53q-79 0 -129 -53q-49 -52 -49 -134q0 -86 48 -137t130 -51q80 0 131 52t51 136z" />
    <glyph glyph-name="uni2080" unicode="&#x2080;" horiz-adv-x="839" 
d="M745 115q0 -185 -91 -300q-92 -116 -236 -116t-234 116q-90 115 -90 300q0 183 89 301q88 116 235 116q145 0 236 -116t91 -301zM207 115q0 -151 55 -236q56 -86 156 -86q102 0 159 85q56 84 56 237q0 154 -56 238q-57 85 -159 85q-100 0 -156 -86q-55 -85 -55 -237z" />
    <glyph glyph-name="uni2081" unicode="&#x2081;" horiz-adv-x="669" 
d="M412 -199h213v-88h-535v88h211v514h-207v82q126 0 178 24q54 25 72 97h68v-717z" />
    <glyph glyph-name="uni2082" unicode="&#x2082;" horiz-adv-x="720" 
d="M371 530q117 0 190 -67q74 -68 74 -168q0 -50 -20 -95q-20 -44 -60 -83q-20 -19 -50 -42q-28 -22 -116 -77q-99 -60 -146 -108q-42 -43 -42 -85h456v-92h-577v47q0 84 56 156q59 76 200 164q115 72 154 119q38 46 38 96q0 65 -43 104q-44 39 -116 39q-75 0 -121 -48
t-51 -122h-107q6 118 83 190t198 72z" />
    <glyph glyph-name="uni2083" unicode="&#x2083;" horiz-adv-x="757" 
d="M502 115q74 -11 119 -62t45 -123q0 -102 -78 -167q-77 -64 -207 -64t-211 67q-79 66 -90 181h106q6 -73 59 -117q52 -43 136 -43q83 0 130 40q48 40 48 107q0 64 -45 101q-44 37 -123 37h-84v88h80q71 0 111 36q41 36 41 99q0 66 -43 106q-44 41 -115 41q-77 0 -123 -46
t-51 -120h-105q6 116 82 186t197 70t192 -65q72 -66 72 -170q0 -71 -40 -121q-40 -51 -103 -61z" />
    <glyph glyph-name="uni2084" unicode="&#x2084;" horiz-adv-x="821" 
d="M457 514h125v-514h168v-86h-168v-201h-107v201h-399v88zM475 0v403l-295 -403h295z" />
    <glyph glyph-name="uni2085" unicode="&#x2085;" horiz-adv-x="759" 
d="M561 -25q0 85 -47 135t-129 50q-51 0 -95 -22q-42 -21 -69 -62h-100l43 440h465v-92h-381l-27 -250q26 31 75 53q48 21 99 21q123 0 199 -76t76 -197q0 -120 -79 -198q-80 -78 -206 -78q-127 0 -208 69t-91 185h115q5 -74 55 -120t129 -46q83 0 129 51q47 52 47 137z" />
    <glyph glyph-name="uni2086" unicode="&#x2086;" horiz-adv-x="778" 
d="M414 440q-101 0 -158 -93t-57 -249q23 69 82 109q61 41 137 41q118 0 193 -75t75 -193q0 -123 -79 -202t-204 -79q-137 0 -223 111q-86 112 -86 290q0 190 89 312q87 120 231 120q110 0 179 -59q71 -60 87 -164h-102q-16 66 -57 99q-39 32 -107 32zM223 -25
q0 -83 51 -135q51 -53 129 -53q81 0 131 53t50 135t-50 135q-49 52 -131 52q-81 0 -130 -52q-50 -53 -50 -135z" />
    <glyph glyph-name="uni2087" unicode="&#x2087;" horiz-adv-x="716" 
d="M518 424h-450v90h569v-80q-133 -162 -195 -333t-63 -388h-117q1 191 67 372t189 339z" />
    <glyph glyph-name="uni2088" unicode="&#x2088;" horiz-adv-x="794" 
d="M702 -68q0 -107 -84 -170t-223 -63q-138 0 -220 64q-83 65 -83 169q0 68 49 123q50 56 117 68q-61 24 -96 73t-35 111q0 100 76 163q75 62 192 62q120 0 195 -62q76 -63 76 -163q0 -64 -34 -111q-36 -50 -95 -73q66 -12 116 -68q49 -55 49 -123zM563 307q0 63 -45 101
q-43 36 -123 36q-78 0 -121 -36q-45 -38 -45 -101q0 -66 46 -103q47 -38 120 -38q75 0 122 38q46 37 46 103zM592 -66q0 70 -52 109t-145 39q-91 0 -141 -40q-51 -40 -51 -108q0 -69 52 -109t140 -40q93 0 145 40t52 109z" />
    <glyph glyph-name="uni2089" unicode="&#x2089;" horiz-adv-x="778" 
d="M367 -209q99 0 158 93q59 94 59 249q-24 -69 -85 -110t-139 -41q-117 0 -191 77q-75 78 -75 195q0 123 79 201q78 77 204 77q138 0 223 -110q86 -112 86 -291q0 -189 -90 -311q-90 -121 -231 -121q-111 0 -179 59q-70 61 -86 164h105q15 -69 54 -99q41 -32 108 -32z
M559 256q0 82 -51 134t-131 52t-129 -52t-49 -134q0 -86 48 -137t130 -51q80 0 131 52t51 136z" />
    <glyph glyph-name="Euro" unicode="&#x20ac;" horiz-adv-x="1427" 
d="M1208 408h119q-33 -205 -162 -319t-331 -114q-219 0 -376 151t-202 406h-154v105h140q-2 36 -3 56q-1 14 -1 40q0 23 1 35q1 17 3 53h-140v105h152q45 256 202 409q157 152 378 152q202 0 331 -114t162 -316h-119q-28 155 -123 236t-251 81q-178 0 -296 -118t-157 -330
h537l-23 -105h-526q-2 -36 -3 -53q-1 -12 -1 -35q0 -26 1 -40q1 -20 3 -56h483l-23 -105h-446q39 -210 157 -327t294 -117q156 0 250 82q96 84 124 238z" />
    <glyph glyph-name="trademark" unicode="&#x2122;" horiz-adv-x="1691" 
d="M430 1368v-543h-113v543h-223v94h561v-94h-225zM1311 1360l-168 -535h-86l-170 535h-6v-535h-97v637h164l152 -491h6l151 491h164v-637h-106v535h-4z" />
    <glyph glyph-name="uni2153" unicode="&#x2153;" horiz-adv-x="1896" 
d="M1538 1489l-1055 -1514h-123l1057 1514h121zM473 750h213v-88h-534v88h210v514h-206v82q128 0 178 23q54 25 72 97h67v-716zM1593 401q75 -11 119 -61q45 -51 45 -123q0 -102 -78 -167q-77 -64 -206 -64q-131 0 -211 66q-80 67 -91 181h107q6 -73 58 -116t137 -43
q83 0 130 40q48 40 48 107q0 63 -45 101q-43 36 -123 36h-84v88h80q69 0 110 36t41 100q0 66 -43 106q-44 41 -114 41q-77 0 -123 -46q-48 -48 -52 -120h-104q6 116 82 186t197 70t192 -65q72 -66 72 -170q0 -71 -40 -121q-41 -51 -104 -62z" />
    <glyph glyph-name="uni2154" unicode="&#x2154;" horiz-adv-x="1935" 
d="M1577 1489l-1055 -1514h-123l1057 1514h121zM1632 401q75 -11 119 -61q45 -51 45 -123q0 -102 -78 -167q-77 -64 -207 -64q-131 0 -211 66q-79 66 -90 181h107q6 -73 58 -116t136 -43q83 0 130 40q49 41 49 107q0 63 -45 101q-43 36 -123 36h-84v88h80q70 0 110 36
q41 36 41 100q0 66 -43 106q-44 41 -115 41q-76 0 -122 -46q-48 -48 -52 -120h-104q6 116 82 186t196 70q122 0 193 -65q72 -66 72 -170q0 -71 -40 -121q-41 -51 -104 -62zM432 1479q117 0 191 -68q73 -67 73 -168q0 -53 -19 -95q-19 -43 -61 -83q-20 -19 -50 -42
q-32 -25 -115 -77q-104 -62 -147 -107q-42 -43 -42 -85h457v-92h-578v47q0 81 57 155q60 77 199 164q117 74 155 119q38 46 38 96q0 66 -43 105q-42 38 -117 38q-74 0 -121 -48t-51 -121h-106q6 117 82 189q78 73 198 73z" />
    <glyph glyph-name="uni215B" unicode="&#x215b;" horiz-adv-x="1931" 
d="M1794 219q0 -107 -84 -170t-223 -63q-138 0 -220 64q-83 65 -83 169q0 68 49 123q50 56 117 68q-63 25 -97 72t-34 112q0 101 75 163t193 62q119 0 194 -62q76 -63 76 -163q0 -65 -34 -112q-35 -49 -95 -72q67 -12 117 -68q49 -55 49 -123zM1655 594q0 62 -45 100
q-44 37 -123 37q-77 0 -121 -37q-45 -38 -45 -100q0 -67 46 -104t120 -37q76 0 122 37t46 104zM1683 221q0 70 -52 109q-53 39 -144 39t-141 -40q-52 -41 -52 -108q0 -68 53 -109q52 -40 140 -40q92 0 144 40t52 109zM1538 1489l-1055 -1514h-123l1057 1514h121zM473 750
h213v-88h-534v88h210v514h-206v82q128 0 178 23q54 25 72 97h67v-716z" />
    <glyph glyph-name="uni215C" unicode="&#x215c;" horiz-adv-x="1970" 
d="M1833 219q0 -107 -84 -170t-223 -63q-138 0 -220 64q-83 65 -83 169q0 68 49 123q50 56 117 68q-63 25 -97 72q-35 49 -35 112q0 100 76 163q75 62 193 62q119 0 194 -62q76 -63 76 -163q0 -65 -34 -112q-35 -49 -95 -72q67 -12 117 -68q49 -55 49 -123zM1694 594
q0 62 -45 100q-44 37 -123 37q-77 0 -121 -37q-45 -38 -45 -100q0 -67 46 -104t120 -37q76 0 122 37t46 104zM1722 221q0 70 -52 109t-144 39t-142 -40q-51 -41 -51 -108q0 -69 52 -109t141 -40q92 0 144 40t52 109zM1577 1489l-1055 -1514h-123l1057 1514h121zM563 1063
q74 -11 119 -62t45 -122q0 -103 -78 -167q-79 -65 -207 -65q-130 0 -211 67q-79 66 -90 181h107q6 -74 58 -117t136 -43q83 0 130 40q49 41 49 108q0 62 -46 100q-44 37 -122 37h-84v88h80q69 0 110 36t41 99q0 67 -43 107q-44 41 -115 41q-77 0 -123 -46q-47 -47 -51 -120
h-104q6 115 82 185q77 71 196 71q121 0 193 -66t72 -170q0 -71 -40 -121t-104 -61z" />
    <glyph glyph-name="uni215D" unicode="&#x215d;" horiz-adv-x="1941" 
d="M1548 1489l-1054 -1514h-123l1056 1514h121zM1804 219q0 -107 -84 -170t-223 -63q-138 0 -220 64q-83 65 -83 169q0 68 49 123q50 56 117 68q-62 24 -96 72q-35 49 -35 112q0 100 76 163q75 62 192 62q120 0 195 -62t75 -163q0 -66 -33 -112q-34 -48 -96 -72
q67 -12 117 -68q49 -55 49 -123zM1665 594q0 62 -45 100q-44 37 -123 37q-77 0 -121 -37q-45 -38 -45 -100q0 -67 46 -104t120 -37q76 0 122 37t46 104zM1694 221q0 70 -53 109t-144 39t-141 -40q-51 -41 -51 -108q0 -69 52 -109t140 -40q92 0 144 40q53 41 53 109zM623 922
q0 83 -48 134q-47 50 -129 50q-51 0 -95 -22q-40 -20 -68 -62h-101l43 440h465v-92h-381l-26 -250q28 34 74 54t100 20q122 0 198 -76t76 -196q0 -121 -79 -199q-80 -78 -206 -78t-207 69q-82 70 -92 185h115q5 -74 55 -120t129 -46q82 0 129 51q48 53 48 138z" />
    <glyph glyph-name="uni215E" unicode="&#x215e;" horiz-adv-x="1808" 
d="M1671 219q0 -107 -84 -170t-223 -63q-138 0 -220 64q-83 65 -83 169q0 68 49 123q50 56 117 68q-63 25 -97 72t-34 112q0 101 75 163t193 62q120 0 195 -62t75 -163q0 -66 -33 -112q-35 -48 -96 -72q67 -12 117 -68q49 -55 49 -123zM1532 594q0 62 -45 100
q-44 37 -123 37q-77 0 -121 -37q-45 -38 -45 -100q0 -67 46 -104t120 -37q76 0 122 37t46 104zM1561 221q0 70 -53 109q-52 39 -144 39q-91 0 -141 -40q-52 -41 -52 -108q0 -68 53 -109q52 -40 140 -40q92 0 144 40q53 41 53 109zM1415 1489l-1055 -1514h-122l1056 1514h121
zM580 1372h-451v90h569v-80q-132 -161 -194 -332q-63 -174 -64 -388h-116q2 193 66 371q65 179 190 339z" />
    <glyph glyph-name="minus" unicode="&#x2212;" horiz-adv-x="1351" 
d="M1204 629h-1059v108h1059v-108z" />
    <glyph glyph-name="commaaccent" unicode="&#xf6c3;" 
d="M584 -248h-86v133h172v-135q0 -100 -45 -149q-45 -50 -138 -50v68q51 0 74 31t23 102z" />
    <glyph glyph-name="idotaccent" horiz-adv-x="507" 
d="M195 0v1024h118v-1024h-118zM326 1260h-144v180h144v-180z" />
    <glyph glyph-name="a.ord" horiz-adv-x="798" 
d="M553 764q-24 -61 -88 -96t-150 -35q-95 0 -157 54t-62 142q0 87 58 137q57 49 176 66l219 27v41q0 78 -41 117q-39 38 -119 38q-69 0 -109 -33q-43 -35 -49 -94h-104q7 99 81 159q73 59 183 59q129 0 198 -63q68 -62 68 -179v-316q0 -37 5 -75q5 -36 12 -64h-109
q-6 23 -9 51q-3 29 -3 64zM338 715q89 0 149 56q62 57 62 144v66l-187 -23q-86 -12 -120 -42q-35 -30 -35 -85q0 -53 35 -85q34 -31 96 -31z" />
    <glyph glyph-name="b.ord" horiz-adv-x="884" 
d="M483 631q-78 0 -139 40q-62 41 -90 103v-127h-107v993h111v-430q28 59 90 97q59 36 135 36q135 0 220 -99q85 -98 85 -257q0 -160 -85 -258t-220 -98zM463 1260q-96 0 -153 -72q-56 -71 -56 -193v-16q0 -122 56 -193t153 -71q95 0 154 75q59 76 59 197q0 122 -59 198
q-59 75 -154 75z" />
    <glyph glyph-name="c.ord" horiz-adv-x="784" 
d="M416 631q-145 0 -231 98q-87 99 -87 260q0 160 88 258q88 99 230 99q113 0 186 -61q71 -60 88 -171h-104q-17 72 -59 107q-41 34 -111 34q-97 0 -153 -71t-56 -195q0 -126 56 -197q58 -73 153 -73q69 0 111 36q43 37 59 107h104q-17 -111 -88 -171q-72 -60 -186 -60z" />
    <glyph glyph-name="d.ord" horiz-adv-x="884" 
d="M401 631q-135 0 -220 98t-85 258q0 159 85 257q85 99 220 99q77 0 136 -36q62 -38 90 -97v430h110v-993h-106v127q-28 -62 -90 -103q-61 -40 -140 -40zM422 1260q-96 0 -155 -75q-58 -74 -58 -198q0 -123 58 -197q59 -75 155 -75t152 71q57 72 57 193v16q0 121 -57 193
t-152 72z" />
    <glyph glyph-name="e.ord" horiz-adv-x="804" 
d="M600 846h102q-23 -102 -97 -158q-75 -57 -181 -57q-149 0 -237 97q-89 98 -89 257q0 163 88 261q89 100 230 100q136 0 215 -94q78 -93 78 -246v-43h-504q5 -117 62 -180q58 -64 157 -64q66 0 110 32q43 31 66 95zM416 1255q-88 0 -141 -56q-54 -57 -66 -161h391
q-1 100 -50 159q-48 58 -134 58z" />
    <glyph glyph-name="f.ord" horiz-adv-x="471" 
d="M164 647v596h-96v84h96v133q0 88 52 137q53 50 146 50q11 0 39 -2q8 -1 20 -3t17 -2v-90q-22 2 -39 3q-11 1 -32 1q-48 0 -70 -23q-23 -25 -23 -73v-131h144v-84h-144v-596h-110z" />
    <glyph glyph-name="g.ord" horiz-adv-x="876" 
d="M416 473q103 0 155 55q54 57 54 160v103q-24 -59 -85 -96q-60 -36 -139 -36q-135 0 -219 95q-84 94 -84 247t85 247q86 95 218 95q77 0 138 -37q62 -38 92 -100v121h106v-631q0 -148 -85 -227q-86 -80 -236 -80q-126 0 -202 51q-76 50 -97 148h110q17 -58 63 -86
q47 -29 126 -29zM418 748q96 0 156 66q61 67 61 171v35q0 104 -61 171q-60 66 -156 66q-97 0 -154 -69t-57 -187q0 -116 57 -185q56 -68 154 -68z" />
    <glyph glyph-name="h.ord" horiz-adv-x="860" 
d="M258 1640v-436q24 65 83 103q56 36 136 36q113 0 177 -68q65 -70 65 -190v-438h-111v414q0 95 -41 145q-40 49 -123 49q-88 0 -137 -60q-49 -59 -49 -171v-377h-111v993h111z" />
    <glyph glyph-name="i.ord" horiz-adv-x="405" 
d="M264 1468h-125v136h125v-136zM147 647v680h111v-680h-111z" />
    <glyph glyph-name="j.ord" horiz-adv-x="405" 
d="M264 1468h-125v136h125v-136zM78 399q-2 0 -26 2q-6 1 -17 3t-15 2v88q10 0 16 -1t19 -1q54 0 73 19t19 71v745h111v-741q0 -96 -44 -142q-44 -45 -136 -45z" />
    <glyph glyph-name="k.ord" horiz-adv-x="804" 
d="M739 647h-133l-260 322l-88 -84v-238h-111v993h111v-636l336 323h133l-301 -289z" />
    <glyph glyph-name="l.ord" horiz-adv-x="405" 
d="M258 1640v-993h-111v993h111z" />
    <glyph glyph-name="m.ord" horiz-adv-x="1277" 
d="M467 1343q81 0 131 -35q52 -37 76 -108q34 69 93 106t136 37q113 0 173 -66q61 -67 61 -192v-438h-111v416q0 99 -37 145q-38 47 -112 47q-83 0 -131 -61q-48 -62 -48 -170v-377h-110v416q0 97 -37 144q-37 48 -113 48q-84 0 -132 -61q-48 -62 -48 -170v-377h-111v680
h107v-123q24 64 82 102q56 37 131 37z" />
    <glyph glyph-name="n.ord" horiz-adv-x="860" 
d="M147 1327h107v-123q23 65 84 102t139 37q113 0 177 -68q65 -70 65 -190v-438h-111v414q0 95 -41 145q-40 49 -123 49q-88 0 -137 -60q-49 -59 -49 -171v-377h-111v680z" />
    <glyph glyph-name="o.ord" horiz-adv-x="839" 
d="M420 631q-145 0 -233 98q-89 100 -89 260q0 158 89 258q89 99 233 99q143 0 233 -99t90 -258q0 -161 -90 -260q-89 -98 -233 -98zM420 1255q-100 0 -156 -71q-57 -72 -57 -195q0 -127 56 -198q57 -72 157 -72t157 72q56 71 56 198q0 122 -58 195q-56 71 -155 71z" />
    <glyph glyph-name="p.ord" horiz-adv-x="886" 
d="M483 631q-73 0 -135 38t-90 97v-358h-111v919h107v-125q29 64 90 104t139 40q133 0 219 -100t86 -257q0 -161 -85 -259q-85 -99 -220 -99zM463 1257q-96 0 -153 -70q-56 -69 -56 -190v-18q0 -123 56 -192q57 -70 153 -70q98 0 155 74q58 75 58 198t-58 196
q-57 72 -155 72z" />
    <glyph glyph-name="q.ord" horiz-adv-x="886" 
d="M403 631q-135 0 -220 99q-85 98 -85 259q0 157 86 257t219 100q79 0 140 -40t90 -104v125h106v-919h-110v358q-28 -59 -90 -97t-136 -38zM424 1257q-99 0 -156 -72t-57 -196q0 -125 57 -198q57 -74 156 -74q96 0 153 70q56 69 56 192v18q0 121 -56 190q-57 70 -153 70z
" />
    <glyph glyph-name="r.ord" horiz-adv-x="573" 
d="M469 1341q17 0 26 -1q3 0 6.5 -0.5t6.5 -1t7 -1t7 -0.5v-102q-7 1 -20 3q-8 1 -37 1q-92 0 -150 -70q-57 -69 -57 -186v-336h-111v680h107v-162q21 83 79 129q59 47 136 47z" />
    <glyph glyph-name="s.ord" horiz-adv-x="749" 
d="M385 631q-130 0 -208 56t-89 159h107q6 -62 57 -96q52 -35 131 -35q75 0 118 31q44 32 44 88q0 39 -28 64q-27 24 -91 36l-121 22q-102 21 -147 66t-45 121q0 88 69 145q70 58 180 58q118 0 191 -52q72 -51 82 -145h-100q-7 52 -55 83q-46 30 -118 30q-65 0 -106 -32
t-41 -83q0 -39 28 -62q24 -20 95 -36l133 -27q88 -18 133 -64q43 -44 43 -122q0 -91 -74 -148q-73 -57 -188 -57z" />
    <glyph glyph-name="t.ord" horiz-adv-x="548" 
d="M362 729q27 0 48 4q26 5 53 12v-88q-29 -11 -57 -15q-32 -5 -62 -5q-94 0 -140 46t-46 138v424h-103v82h103v174h108v-174h178v-82h-180v-420q0 -47 25 -72q24 -24 73 -24z" />
    <glyph glyph-name="u.ord" horiz-adv-x="849" 
d="M702 647h-106v121q-22 -64 -81 -102q-58 -37 -134 -37q-115 0 -178 67q-64 69 -64 191v440h113v-420q0 -97 40 -144q40 -48 120 -48q86 0 134 61q48 62 48 174v377h108v-680z" />
    <glyph glyph-name="v.ord" horiz-adv-x="790" 
d="M463 647h-125l-270 680h112l219 -573h4l209 573h111z" />
    <glyph glyph-name="w.ord" horiz-adv-x="1089" 
d="M492 1327h112l154 -559h2l158 559h104l-205 -680h-115l-157 553h-2l-156 -553h-115l-204 680h108l158 -559h4z" />
    <glyph glyph-name="x.ord" horiz-adv-x="808" 
d="M399 924l-200 -277h-119l258 350l-242 330h129l183 -250l180 250h121l-242 -326l260 -354h-129z" />
    <glyph glyph-name="y.ord" horiz-adv-x="788" 
d="M197 492q47 0 75 30q29 31 68 125l-272 682h114l219 -555h2l205 555h113l-277 -698q-49 -133 -100 -181q-53 -50 -137 -51q-10 0 -34 2q-7 1 -17 3t-13 2v92q10 -2 30 -5q8 -1 24 -1z" />
    <glyph glyph-name="z.ord" horiz-adv-x="753" 
d="M641 1327v-82l-408 -514h424v-84h-559v72l410 522h-395v86h528z" />
    <glyph glyph-name="caron.Slovak" 
d="M666 1507l-148 -430h-61l55 430h154z" />
    <glyph glyph-name="commaturn" 
d="M573 1335h86v-133h-172v135q0 101 45 150t138 49v-68q-52 0 -74 -30q-23 -31 -23 -103z" />
    <glyph glyph-name="grave.cap" 
d="M604 1870l119 -295h-72l-223 295h176z" />
    <glyph glyph-name="acute.cap" 
d="M729 1870l-223 -295h-72l119 295h176z" />
    <glyph glyph-name="circumflex.cap" 
d="M317 1571l185 299h155l183 -299h-82l-178 203l-179 -203h-84z" />
    <glyph glyph-name="caron.cap" 
d="M401 1870l179 -203l178 203h82l-183 -299h-155l-185 299h84z" />
    <glyph glyph-name="tilde.cap" 
d="M547 1673q-45 39 -69 53q-23 13 -42 13q-42 0 -65 -38q-23 -37 -27 -120h-88q0 125 47 195q46 69 133 69q39 0 73 -17q37 -19 99 -73q45 -39 69 -53q21 -12 42 -12q45 0 67 40q24 42 25 119h88q0 -126 -47 -196t-133 -70q-37 0 -73 18q-40 20 -99 72z" />
    <glyph glyph-name="macron.cap" 
d="M860 1618h-561v102h561v-102z" />
    <glyph glyph-name="breve.cap" 
d="M580 1567q-120 0 -192 83q-73 84 -73 220h105q0 -94 41 -146q41 -51 119 -51q75 0 116 50t41 147h105q0 -138 -72 -221q-72 -82 -190 -82z" />
    <glyph glyph-name="dotaccent.cap" 
d="M651 1620h-143v180h143v-180z" />
    <glyph glyph-name="dieresis.cap" 
d="M823 1620h-135v180h135v-180zM469 1620h-135v180h135v-180z" />
    <glyph glyph-name="ring.cap" 
d="M819 1710q0 -100 -69 -172t-170 -72q-98 0 -170 72t-72 172t72 172t170 72q101 0 170 -72t69 -172zM725 1710q0 62 -42 105t-103 43q-60 0 -104 -44t-44 -104q0 -59 44 -103t104 -44q61 0 103 43q42 44 42 104z" />
    <glyph glyph-name="hungarumlaut.cap" 
d="M649 1575h-69l118 295h164zM360 1575h-71l121 295h161z" />
    <glyph glyph-name="guilsinglleft.cap" horiz-adv-x="626" 
d="M274 641l220 -391h-95l-266 391l266 393h95z" />
    <glyph glyph-name="guilsinglright.cap" horiz-adv-x="626" 
d="M133 1034h94l267 -393l-267 -391h-94l219 391z" />
    <glyph glyph-name="guillemotleft.cap" horiz-adv-x="1005" 
d="M651 641l221 -391h-96l-264 391l264 393h96zM274 641l220 -391h-95l-266 391l266 393h95z" />
    <glyph glyph-name="guillemotright.cap" horiz-adv-x="1005" 
d="M133 1034h96l265 -393l-265 -391h-96l221 391zM512 1034h94l266 -393l-266 -391h-94l219 391z" />
    <glyph glyph-name="slash.cap" horiz-adv-x="1007" 
d="M229 -154h-118l667 1729h119z" />
    <glyph glyph-name="backslash.cap" horiz-adv-x="1007" 
d="M778 -154l-667 1729h118l668 -1729h-119z" />
    <glyph glyph-name="bar.cap" horiz-adv-x="602" 
d="M246 -154v1729h110v-1729h-110z" />
    <glyph glyph-name="periodcentered.cap" horiz-adv-x="532" 
d="M354 608h-176v178h176v-178z" />
    <glyph glyph-name="bullet.cap" horiz-adv-x="851" 
d="M428 477q-101 0 -176 73q-74 72 -74 175q0 101 74 173q75 73 176 73q102 0 174 -72t72 -174q0 -103 -72 -175q-73 -73 -174 -73z" />
    <glyph glyph-name="hyphen.cap" horiz-adv-x="919" 
d="M741 637h-563v111h563v-111z" />
    <glyph glyph-name="endash.cap" horiz-adv-x="1386" 
d="M1208 637h-1030v104h1030v-104z" />
    <glyph glyph-name="emdash.cap" horiz-adv-x="2054" 
d="M1876 637h-1698v104h1698v-104z" />
    <glyph glyph-name="parenleft.cap" horiz-adv-x="765" 
d="M303 711q0 -220 85 -439t245 -426h-121q-165 208 -247 423q-83 219 -83 442t84 442q84 220 246 422h121q-162 -220 -246 -440q-84 -219 -84 -424z" />
    <glyph glyph-name="parenright.cap" horiz-adv-x="765" 
d="M463 709q0 205 -84 424q-84 220 -246 440h121q162 -202 246 -422q84 -219 84 -442t-83 -442q-82 -215 -247 -423h-121q160 207 245 426t85 439z" />
    <glyph glyph-name="bracketleft.cap" horiz-adv-x="790" 
d="M635 1475h-301v-1528h301v-101h-412v1729h412v-100z" />
    <glyph glyph-name="bracketright.cap" horiz-adv-x="790" 
d="M156 1573h411v-1729h-411v101h301v1528h-301v100z" />
    <glyph glyph-name="braceleft.cap" horiz-adv-x="837" 
d="M180 659h-112v103h112q51 0 77 28t26 80v502q0 105 52 154t163 49h184v-100h-174q-65 0 -90 -23t-25 -74v-508q0 -69 -29 -105q-30 -37 -94 -54q63 -17 94 -55q29 -36 29 -105v-508q0 -51 25 -74q23 -22 90 -22h174v-101h-184q-110 0 -163 50q-52 49 -52 153v502
q0 53 -26 81q-25 27 -77 27z" />
    <glyph glyph-name="braceright.cap" horiz-adv-x="837" 
d="M657 657q-51 0 -76 -27q-26 -28 -26 -81v-502q0 -104 -52 -153q-53 -50 -163 -50h-184v101h174q67 0 90 22q24 23 24 74v508q0 67 30 105q31 39 93 55q-63 17 -93 54t-30 105v508q0 52 -24 74q-25 23 -90 23h-174v100h184q111 0 163 -49t52 -154v-502q0 -53 26 -81
q25 -27 76 -27h113v-103h-113z" />
    <glyph glyph-name="at.cap" horiz-adv-x="1878" 
d="M1223 1102h110l-104 -594q-12 -66 14 -101q27 -36 88 -36q137 0 225 129q89 130 89 340q0 261 -179 420q-178 159 -469 159q-329 0 -542 -217q-213 -218 -213 -549q0 -321 209 -506q208 -184 548 -184q118 0 238 23q117 22 213 63l35 -86q-110 -49 -232 -73
q-125 -25 -254 -25q-387 0 -626 211q-240 212 -240 577q0 178 64 340q63 159 182 281q118 121 277 184q162 64 341 64q333 0 546 -193q212 -192 212 -489q0 -250 -126 -406q-125 -155 -308 -155q-84 0 -139 39q-57 40 -72 108q-38 -64 -104 -102q-68 -39 -146 -39
q-137 0 -218 93t-81 247q0 204 119 350q118 145 297 145q74 0 138 -41q62 -40 85 -102zM877 391q93 0 169 68q74 67 97 180l14 92q23 132 -25 208q-48 77 -151 77q-128 0 -217 -115q-88 -113 -88 -272q0 -111 54 -174q55 -64 147 -64z" />
    <glyph glyph-name="Euro.lt" horiz-adv-x="1351" 
d="M1167 408h119q-33 -205 -162 -319t-331 -114q-219 0 -376 151t-202 406h-154v105h140q-2 36 -3 56q-1 14 -1 40q0 23 1 35q1 17 3 53h-140v105h152q45 256 202 409q157 152 378 152q202 0 331 -114t162 -316h-119q-28 155 -123 236t-251 81q-178 0 -296 -118t-157 -330
h537l-23 -105h-526q-2 -36 -3 -53q-1 -12 -1 -35q0 -26 1 -40q1 -20 3 -56h483l-23 -105h-446q39 -210 157 -327q119 -117 294 -117q156 0 250 82q96 84 124 238z" />
    <glyph glyph-name="dollar.lt" horiz-adv-x="1351" 
d="M1190 393q0 -169 -129 -285q-130 -116 -332 -128v-203h-106v205q-219 18 -355 137t-143 307h117q15 -146 113 -231q100 -87 268 -103v596l-99 21q-184 39 -268 129t-84 241q0 172 125 285q126 114 326 121v192h106v-196q192 -16 302 -113q110 -96 128 -264h-117
q-15 115 -95 182q-81 67 -218 84v-582l113 -22q178 -39 263 -130t85 -243zM289 1079q0 -110 59 -166q62 -59 209 -88l66 -14v563q-153 -7 -244 -88q-90 -80 -90 -207zM1073 389q0 111 -66 174t-206 90l-72 15v-578q157 7 251 89q93 81 93 210z" />
    <glyph glyph-name="cent.lt" horiz-adv-x="1351" 
d="M1034 315h111q-24 -146 -121 -234q-95 -86 -246 -97v-201h-102v203q-193 21 -308 165q-116 145 -116 369q0 221 116 367q115 145 308 168v252h102v-250q148 -11 245 -99q98 -89 122 -233h-111q-22 104 -88 164q-65 59 -168 67v-872q101 7 168 68q66 60 88 163zM369 520
q0 -181 82 -297t225 -137v868q-143 -22 -225 -139q-82 -116 -82 -295z" />
    <glyph glyph-name="sterling.lt" horiz-adv-x="1351" 
d="M393 111h801v-111h-1032v111h22q105 0 171 102q67 104 67 256q0 37 -6 73q-5 27 -19 76h-196v105h153q0 3 -31 62q-34 66 -49 104q-16 45 -24 89q-8 46 -8 91q0 169 129 293q130 125 327 125q210 0 331 -124q121 -125 132 -339h-114q-12 168 -103 261q-90 91 -246 91
q-149 0 -241 -89t-92 -220q0 -43 9 -86q10 -46 29 -92q9 -21 40 -86q30 -61 38 -80h453v-105h-414q12 -45 16 -74q5 -42 5 -77q0 -108 -40 -203q-41 -96 -108 -153z" />
    <glyph glyph-name="yen.lt" horiz-adv-x="1351" 
d="M1171 440v-104h-434v-336h-121v336h-434v104h434v205h-434v107h381l-479 710h135l461 -684h4l449 684h137l-479 -710h383v-107h-437v-205h434z" />
    <glyph glyph-name="florin.lt" horiz-adv-x="1351" 
d="M991 827v-94h-260l-172 -958h-117l172 958h-184v94h201l71 404q27 139 109 220q83 81 201 81q32 0 64 -7q31 -7 69 -20v-112q-29 14 -65 23q-29 7 -68 7q-76 0 -126 -54q-51 -56 -69 -159l-69 -383h243z" />
    <glyph glyph-name="zero.slash" horiz-adv-x="1359" 
d="M680 -25q-250 0 -405 210q-154 209 -154 546t154 546q155 210 405 210t404 -210q155 -211 155 -546t-155 -546q-154 -210 -404 -210zM680 1370q-206 0 -320 -171t-114 -468q0 -178 42 -313t124 -217l465 1118q-45 25 -93 38t-104 13zM680 92q205 0 319 171
q115 172 115 468q0 173 -41 308q-40 133 -119 216l-465 -1114q42 -25 89 -37q46 -12 102 -12z" />
    <glyph glyph-name="zero.lt" horiz-adv-x="1351" 
d="M1235 731q0 -335 -155 -546q-154 -210 -404 -210t-405 210q-154 209 -154 546t154 546q155 210 405 210t404 -210q155 -211 155 -546zM242 731q0 -297 114 -468t320 -171q205 0 319 171q115 172 115 468q0 295 -115 468q-114 171 -319 171q-206 0 -320 -171t-114 -468z
" />
    <glyph glyph-name="zero.slash.lt" horiz-adv-x="1351" 
d="M1235 731q0 -335 -155 -546q-154 -210 -404 -210t-405 210q-154 209 -154 546t154 546q155 210 405 210t404 -210q155 -211 155 -546zM676 1370q-206 0 -320 -171t-114 -468q0 -178 42 -313t124 -217l464 1118q-46 26 -92 38q-48 13 -104 13zM676 92q205 0 319 171
q115 172 115 468q0 173 -41 308q-40 133 -119 216l-465 -1114q43 -25 88 -37q47 -12 103 -12z" />
    <glyph glyph-name="one.lt" horiz-adv-x="1351" 
d="M764 102h440v-102h-1036v102h473v1059h-422v86q239 0 345 44q105 43 138 177h62v-1366z" />
    <glyph glyph-name="two.lt" horiz-adv-x="1351" 
d="M698 1487q201 0 323 -119t122 -299q0 -94 -37 -172q-39 -82 -115 -154q-64 -61 -177 -138q-118 -81 -120 -81q-240 -170 -307 -253q-69 -86 -68 -160h840v-111h-966v66q0 138 108 275t358 294q219 145 291 236q74 94 74 196q0 141 -86 224t-240 83q-151 0 -249 -98
q-99 -99 -111 -254h-115q10 204 141 335q130 130 334 130z" />
    <glyph glyph-name="three.lt" horiz-adv-x="1351" 
d="M862 748q129 -18 213 -117t84 -234q0 -185 -135 -303q-136 -119 -356 -119q-228 0 -366 120q-139 120 -155 327h123q12 -158 117 -248t281 -90q172 0 272 84t100 227q0 134 -92 214q-91 79 -250 79h-166v113h160q147 0 227 71t80 205q0 137 -88 219t-239 82
q-159 0 -257 -97q-100 -98 -110 -253h-119q15 210 145 334q131 125 341 125q205 0 329 -116q123 -115 123 -296q0 -129 -74 -219q-75 -91 -188 -108z" />
    <glyph glyph-name="four.lt" horiz-adv-x="1351" 
d="M786 1462h148v-938h326v-102h-326v-422h-123v422h-725v104zM811 524v799l-594 -799h594z" />
    <glyph glyph-name="five.lt" horiz-adv-x="1351" 
d="M1057 473q0 172 -101 279q-100 106 -272 106q-110 0 -199 -48q-88 -48 -141 -134h-111l80 786h795v-112h-705l-55 -541q52 71 145 114q94 44 189 44q220 0 356 -141q138 -143 138 -355q0 -218 -137 -357t-355 -139q-213 0 -353 124q-141 124 -157 331h121
q12 -157 119 -252q106 -94 272 -94q173 0 271 107q100 109 100 282z" />
    <glyph glyph-name="six.lt" horiz-adv-x="1351" 
d="M723 1374q-209 0 -327 -196q-117 -194 -117 -533q38 147 155 239q119 93 279 93q209 0 342 -139t133 -355q0 -225 -135 -366q-136 -142 -353 -142q-240 0 -388 201q-148 200 -148 531q0 343 157 562q156 218 402 218q188 0 308 -105q121 -106 145 -288h-115
q-29 142 -113 211t-225 69zM328 477q0 -170 104 -280q105 -111 268 -111q165 0 268 109q101 107 101 282q0 173 -101 280t-268 107q-163 0 -268 -108q-104 -107 -104 -279z" />
    <glyph glyph-name="seven.lt" horiz-adv-x="1351" 
d="M1077 1352h-923v110h1073v-78q-280 -339 -416 -678q-138 -343 -139 -706h-135q6 339 142 678q137 341 398 674z" />
    <glyph glyph-name="eight.lt" horiz-adv-x="1351" 
d="M209 1087q0 178 130 289q131 111 335 111q206 0 336 -110q129 -109 129 -290q0 -122 -65 -211q-66 -91 -183 -135q132 -23 223 -121q92 -100 92 -223q0 -189 -146 -305q-147 -117 -386 -117q-240 0 -385 117q-146 117 -146 305q0 122 93 223q91 98 223 121
q-121 45 -186 136q-64 89 -64 210zM328 1092q0 -135 95 -212t251 -77q158 0 253 77t95 212q0 133 -95 210q-94 76 -253 76q-157 0 -251 -76q-95 -77 -95 -210zM272 391q0 -141 109 -224t293 -83q186 0 295 83q108 83 108 224q0 139 -108 220t-295 81q-185 0 -293 -81
q-109 -82 -109 -220z" />
    <glyph glyph-name="nine.lt" horiz-adv-x="1351" 
d="M629 88q207 0 326 197q118 196 118 532q-38 -146 -155 -238q-120 -94 -279 -94q-208 0 -342 140q-133 139 -133 354q0 226 135 367t352 141q239 0 388 -201q149 -202 149 -530q0 -343 -157 -562t-402 -219q-188 0 -308 105q-121 106 -145 289h115q29 -143 112 -211
q85 -70 226 -70zM1024 985q0 171 -104 281t-269 110t-267 -108q-101 -107 -101 -283q0 -172 101 -279q102 -108 267 -108q163 0 269 109q104 107 104 278z" />
    <glyph glyph-name="period.tab" horiz-adv-x="675" 
d="M426 0h-176v178h176v-178z" />
    <glyph glyph-name="comma.tab" horiz-adv-x="675" 
d="M328 0h-76v178h176v-221q0 -122 -69 -194t-185 -72v82q78 0 116 45q38 46 38 139v43z" />
    <glyph glyph-name="colon.tab" horiz-adv-x="675" 
d="M426 713h-176v178h176v-178zM426 0h-176v178h176v-178z" />
    <glyph glyph-name="semicolon.tab" horiz-adv-x="675" 
d="M328 0h-76v178h176v-221q0 -122 -69 -194t-185 -72v82q78 0 116 45q38 46 38 139v43zM428 713h-176v178h176v-178z" />
    <glyph glyph-name="space.tab" horiz-adv-x="675" 
 />
    <glyph glyph-name="zero.dnom" horiz-adv-x="839" 
d="M745 401q0 -185 -91 -300t-236 -115q-144 0 -234 115t-90 300q0 183 89 301q89 117 235 117q144 0 236 -117q91 -116 91 -301zM207 401q0 -150 55 -235q56 -86 156 -86q102 0 159 85q56 84 56 236q0 155 -56 239q-57 85 -159 85q-100 0 -156 -86q-55 -85 -55 -238z" />
    <glyph glyph-name="one.dnom" horiz-adv-x="669" 
d="M412 88h213v-88h-535v88h211v514h-207v82q126 0 178 24q54 25 72 97h68v-717z" />
    <glyph glyph-name="two.dnom" horiz-adv-x="720" 
d="M371 817q117 0 190 -67q74 -68 74 -168q0 -51 -20 -96q-20 -44 -60 -83q-20 -19 -50 -42q-22 -17 -116 -76q-99 -60 -146 -108q-42 -43 -42 -85h456v-92h-577v47q0 84 56 156q59 76 200 164q117 73 154 118q38 46 38 97q0 65 -43 104q-44 39 -116 39q-75 0 -121 -48
t-51 -122h-107q6 117 83 189q78 73 198 73z" />
    <glyph glyph-name="three.dnom" horiz-adv-x="757" 
d="M502 401q75 -11 119 -61q45 -51 45 -123q0 -102 -78 -167q-77 -64 -207 -64q-131 0 -211 66q-79 66 -90 181h106q6 -72 59 -116q52 -43 136 -43q83 0 130 40q48 40 48 107q0 63 -45 101q-43 36 -123 36h-84v88h80q71 0 111 36q41 36 41 100q0 66 -43 106q-44 41 -115 41
q-77 0 -123 -46q-46 -47 -51 -120h-105q6 116 82 186t197 70t192 -65q72 -66 72 -170q0 -71 -40 -121q-41 -52 -103 -62z" />
    <glyph glyph-name="four.dnom" horiz-adv-x="821" 
d="M457 801h125v-514h168v-86h-168v-201h-107v201h-399v88zM475 287v403l-295 -403h295z" />
    <glyph glyph-name="five.dnom" horiz-adv-x="759" 
d="M561 262q0 84 -47 134t-129 50q-53 0 -95 -21q-40 -20 -69 -63h-100l43 441h465v-92h-381l-27 -250q26 31 75 53q48 21 99 21q123 0 199 -76t76 -197t-79 -199q-78 -77 -206 -77t-208 68q-80 69 -91 186h115q5 -74 55 -120t129 -46q83 0 129 51q47 52 47 137z" />
    <glyph glyph-name="six.dnom" horiz-adv-x="778" 
d="M414 727q-101 0 -158 -93t-57 -249q23 69 82 109q61 41 137 41q118 0 193 -75t75 -194q0 -122 -79 -201t-204 -79q-138 0 -223 110q-86 112 -86 291q0 189 89 311q88 121 231 121q110 0 179 -59q71 -60 87 -164h-102q-16 65 -57 98t-107 33zM223 262q0 -82 51 -135
t129 -53q81 0 131 53t50 135q0 81 -50 134t-131 53q-80 0 -130 -53t-50 -134z" />
    <glyph glyph-name="seven.dnom" horiz-adv-x="716" 
d="M518 711h-450v90h569v-80q-133 -162 -195 -333t-63 -388h-117q1 191 67 372t189 339z" />
    <glyph glyph-name="eight.dnom" horiz-adv-x="794" 
d="M702 219q0 -107 -84 -170t-223 -63q-138 0 -220 64q-83 65 -83 169q0 68 49 123q50 56 117 68q-62 24 -96 72q-35 49 -35 112q0 100 76 163q75 62 192 62q120 0 195 -62q76 -63 76 -163q0 -65 -34 -112q-35 -49 -95 -72q66 -12 116 -68q49 -55 49 -123zM563 594
q0 62 -45 100q-44 37 -123 37q-77 0 -121 -37q-45 -38 -45 -100q0 -67 46 -104t120 -37q76 0 122 37t46 104zM592 221q0 70 -52 109q-53 39 -145 39q-91 0 -141 -40q-51 -41 -51 -108q0 -69 52 -109t140 -40q93 0 145 40t52 109z" />
    <glyph glyph-name="nine.dnom" horiz-adv-x="778" 
d="M367 78q99 0 158 93q59 94 59 249q-24 -70 -85 -111t-139 -41q-116 0 -191 78t-75 195q0 122 79 200t204 78q138 0 223 -110q86 -112 86 -291q0 -190 -90 -312q-89 -120 -231 -120q-111 0 -179 59q-70 61 -86 164h105q15 -69 54 -99q41 -32 108 -32zM559 543
q0 81 -51 134q-51 52 -131 52t-129 -52t-49 -134q0 -86 48 -137q49 -52 130 -52q80 0 131 53t51 136z" />
    <glyph glyph-name="percent.lt" horiz-adv-x="1351" 
d="M352 852q-132 0 -223 93q-92 94 -92 224q0 131 92 225q91 93 223 93q133 0 227 -92q93 -91 93 -226q0 -133 -93 -225q-94 -92 -227 -92zM135 2l922 1460h127l-922 -1460h-127zM352 1382q-87 0 -146 -62q-61 -64 -61 -151q0 -88 61 -151q60 -62 146 -62q89 0 149 62
q60 61 60 151q0 91 -60 152t-149 61zM995 -27q-130 0 -223 93q-92 92 -92 223q0 132 92 226q92 93 223 93q134 0 227 -93t93 -226q0 -131 -93 -223q-95 -93 -227 -93zM995 504q-86 0 -146 -63q-61 -64 -61 -152q0 -87 61 -150q60 -61 146 -61q89 0 149 60t60 151
q0 89 -60 152t-149 63z" />
    <glyph glyph-name="thinspace" horiz-adv-x="133" 
 />
    </font>
</defs>
</svg>
