<?xml version="1.0" encoding="UTF-8"?>
<svg id="Layer_1" data-name="Layer 1" xmlns="http://www.w3.org/2000/svg" xmlns:xlink="http://www.w3.org/1999/xlink" viewBox="0 0 805.37 564.04">
  <defs>
    <style>
      .cls-1, .cls-2, .cls-3, .cls-4, .cls-5, .cls-6, .cls-7, .cls-8, .cls-9, .cls-10, .cls-11, .cls-12, .cls-13, .cls-14, .cls-15, .cls-16, .cls-17 {
        stroke-width: 0px;
      }

      .cls-1, .cls-18 {
        fill: #1f1f1f;
      }

      .cls-19, .cls-20, .cls-21, .cls-18, .cls-22, .cls-23 {
        stroke: #000;
      }

      .cls-19, .cls-21, .cls-24, .cls-16 {
        fill: #fff;
      }

      .cls-19, .cls-25, .cls-26, .cls-22, .cls-27, .cls-28, .cls-23, .cls-29 {
        stroke-miterlimit: 10;
      }

      .cls-2 {
        fill: #eef1f4;
      }

      .cls-20, .cls-30, .cls-21, .cls-31, .cls-32, .cls-33, .cls-24, .cls-34, .cls-18, .cls-35, .cls-36, .cls-37, .cls-38, .cls-39 {
        stroke-linecap: round;
        stroke-linejoin: round;
      }

      .cls-20, .cls-30, .cls-31, .cls-33, .cls-34, .cls-35, .cls-22, .cls-37, .cls-29, .cls-39 {
        fill: none;
      }

      .cls-3 {
        fill: #454545;
      }

      .cls-30, .cls-25, .cls-38 {
        stroke: #ff9600;
      }

      .cls-31, .cls-32, .cls-26 {
        stroke: #007800;
      }

      .cls-4, .cls-25, .cls-26, .cls-27, .cls-38, .cls-23 {
        fill: #ffc600;
      }

      .cls-32, .cls-7 {
        fill: #00a600;
      }

      .cls-33, .cls-24, .cls-36, .cls-28 {
        stroke: #00a3ef;
      }

      .cls-5 {
        fill: #ff6d45;
      }

      .cls-34 {
        stroke: #ff8f00;
      }

      .cls-6 {
        fill: #000;
      }

      .cls-8 {
        fill: #00bd1e;
      }

      .cls-9 {
        fill: #ff9600;
      }

      .cls-35 {
        stroke: #bf0000;
      }

      .cls-36, .cls-28, .cls-11 {
        fill: #00daff;
      }

      .cls-10 {
        fill: #ffdb00;
      }

      .cls-27 {
        stroke: #e30000;
      }

      .cls-37 {
        stroke: #ff960e;
      }

      .cls-12 {
        fill: red;
      }

      .cls-13 {
        fill: #00a3ef;
      }

      .cls-14 {
        fill: #00efff;
      }

      .cls-15 {
        fill: #ff316a;
      }

      .cls-40 {
        isolation: isolate;
        opacity: .3;
      }

      .cls-29, .cls-39 {
        stroke: #c42351;
      }

      .cls-17 {
        fill: #007800;
      }
    </style>
  </defs>
  <g id="Calque_1" data-name="Calque 1">
    <g id="Calque_9" data-name="Calque 9">
      <rect class="cls-2" width="805.37" height="564.04"/>
      <image class="cls-40" width="2000" height="971" transform="translate(68.54 119.79) scale(.33)" xlink:href="../Documents/IIM2/BAP/1 semestre/BAP/58595cd74f6ae202fedf284d.png"/>
    </g>
  </g>
  <g id="Calque_13" data-name="Calque 13">
    <g id="Calque_2" data-name="Calque 2">
      <path class="cls-11" d="M328.31,297.13c-.06.41-.14.9-.23,1.45-1.26,7.23-5.69,25.22-18.55,25.22-1.62,0-6.09.25-10.93-4.3-.35-.32-.71-.66-1.05-1.03-.17-.18-.35-.37-.52-.57-1.38-1.58-2.77-3.58-4.11-6.12-1.62-3.05-3.16-6.88-4.54-11.69h-.15l-5.08.03h-.75v-125.71h.75c18.02.03,48.45.68,54.62,7.8.27.31.52.64.76.98.02.02.04.05.05.08,1.64,2.39,2.51,5.52,3.18,9.94,0,.02.01.05.01.09.61,4.04,1.04,9.16,1.73,15.79.01.02.01.03.01.05.2,2.05.44,4.24.71,6.59v.03c.02.2.05.41.07.61.3,2.55,1.4,36.46-3.24,63.22-.44,2.55-3.52,12.56-4.42,14.8-.98,2.46-7.57,4.37-8.32,2.74h0Z"/>
      <path class="cls-14" d="M282.4,258.37v41.51h.34l.66.03h.31l.78.04h.22l.77-.04h.24l.34-.03,4.76-.25,8.87-.73.33-.02.43.12h.03l.27.09,2.32-.38s.02-.01.03-.01l9.14-1.51,3.32-.55c-1.39-26.14-17.43-38.84-33.16-38.27h0Z"/>
      <path class="cls-33" d="M287.13,299.9v.06c-1.6.01-3.17.01-4.73,0v-.04h3.08s.24-.01.24-.01h1.41s0,0,0,0Z"/>
      <path class="cls-33" d="M282.4,174.18h.38c15.05,0,21.76.77,29.87,1.26,6.17.37,11.58,1.15,21.86,4.18,6.6,1.95,8.15,16.79,9.02,29.86v.03c2.8,42.28-1.24,69.29-5.5,82.22-2.29,6.95-10.04,5.43-10.04,5.43,0,0-4.22,26.41-18.69,26.41-2.25,0-9.98.48-16.59-11.98-1.61-3.05-3.16-6.86-4.54-11.66h0"/>
      <path class="cls-33" d="M315.66,297.3s-.05.01-.1.02c-.07,0-.17.02-.3.04-.22.03-.54.07-.93.12-.38.05-.83.1-1.35.17-.21.02-.43.05-.67.08-1.21.14-2.73.3-4.5.47-.28.03-.56.05-.85.08-.31.03-.63.06-.96.09-1.3.11-5.06.61-6.58.72-.06,0-.13.01-.2.01h-.11c-3.66.25-7.39.71-11.98.8"/>
      <path class="cls-11" d="M237.51,297.12c.06.41.14.9.23,1.45,1.26,7.23,5.69,25.22,18.55,25.22,1.62,0,6.09.25,10.93-4.3.35-.32.71-.66,1.05-1.03.17-.18.35-.37.52-.57,1.38-1.58,2.77-3.58,4.11-6.12,1.62-3.05,3.16-6.88,4.54-11.69h.15l5.08.03h.75v-125.71h-.75c-18.02.03-48.45.68-54.62,7.8-.27.31-.52.64-.76.98-.02.02-.04.05-.05.08-1.64,2.39-2.51,5.52-3.18,9.94,0,.02,0,.05,0,.09-.61,4.04-1.04,9.16-1.73,15.79,0,.02,0,.03,0,.05-.2,2.05-.44,4.24-.71,6.59v.03c-.02.2-.05.41-.07.61-.32,2.75-.54,34.7.33,62.79.22,7.22,2.49,12.59,5.63,14.97,2.6,1.97,8.72,4.63,10.03,3h0Z"/>
      <path class="cls-14" d="M283.42,258.36v41.51h-.34l-.66.03h-.31l-.78.04h-.22l-.77-.04h-.24l-.34-.03-4.76-.25-8.87-.73-.33-.02-.43.12h-.03l-.27.09-2.32-.38s-.02-.01-.03-.01l-9.14-1.51-3.32-.55c1.39-26.14,17.43-38.84,33.16-38.27h0Z"/>
      <path class="cls-33" d="M278.69,299.89v.06c1.6.01,3.17.01,4.73,0v-.04h-3.08s-.24-.01-.24-.01h-1.41s0,0,0,0Z"/>
      <path class="cls-33" d="M283.42,174.17h-.38c-15.05,0-21.75.77-29.86,1.26-6.17.37-11.59,1.15-21.87,4.18-6.6,1.95-8.15,16.79-9.02,29.86,0,.02,0,0,0,.03-.99,15-1.51,49.93-.82,64.67.11,2.27.6,12.85,4.26,17.95,4.79,6.67,12.09,5.03,12.09,5.03,0,0,4.22,26.41,18.69,26.41,2.25,0,9.98.48,16.59-11.98,1.61-3.05,3.16-6.86,4.54-11.66h0"/>
      <path class="cls-33" d="M250.16,297.3s.05.01.1.02c.07,0,.17.02.3.04.22.03.54.07.93.12.38.05.83.1,1.35.17.21.02.43.05.67.08,1.21.14,2.73.3,4.5.47.28.03.56.05.85.08.31.03.63.06.96.09,1.3.11,5.06.61,6.58.72.06,0,.13.01.2.01h.11c3.66.25,7.39.71,11.98.8"/>
      <ellipse class="cls-19" cx="305.7" cy="214.87" rx="13" ry="15.38"/>
      <ellipse class="cls-6" cx="303.33" cy="215.49" rx="4.12" ry="5.25"/>
      <ellipse class="cls-19" cx="256.2" cy="214.87" rx="13" ry="15.38"/>
      <ellipse class="cls-6" cx="258.58" cy="215.49" rx="4.12" ry="5.25"/>
      <path class="cls-20" d="M301.26,190.65c4.29-4.02,9.2-1.26,9.69.19"/>
      <path class="cls-20" d="M254.7,188.06c3.3-3.1,7.58-2.57,9.44-1.52"/>
      <g>
        <path class="cls-20" d="M251.35,237.26s25.5,16.13,64.82,3.38"/>
        <path class="cls-20" d="M311.34,238.36s4.75,1.42,7.57,4.57"/>
        <path class="cls-20" d="M255.73,235.26s-4.75,1.42-7.57,4.57"/>
      </g>
    </g>
    <path class="cls-36" d="M341.05,218.91s45.12,24.58,19.06,50.63c0,0,7.23,18.96-12.03,18.88"/>
    <path class="cls-33" d="M360.11,269.54c-2.97,2.34-5.93,4.68-8.9,7.02"/>
    <path class="cls-24" d="M348.78,255.54l-3.75,4.51-.57-13.45s6.54,6.1,4.31,8.94h.01Z"/>
    <path class="cls-28" d="M348.29,288.44s-19.11-.41-12.55-16.83c1.38-3.46,9.46-11.71,9.46-11.71"/>
    <path class="cls-36" d="M225.04,218.91s-45.12,24.58-19.06,50.63c0,0-7.23,18.96,12.03,18.88"/>
    <path class="cls-33" d="M205.98,269.54c2.97,2.34,5.93,4.68,8.9,7.02"/>
    <path class="cls-24" d="M217.3,255.54l3.75,4.51.57-13.45s-6.54,6.1-4.31,8.94h-.01Z"/>
    <path class="cls-28" d="M217.79,288.44s18.82-.3,12.55-16.83c-2.05-5.41-9.46-11.71-9.46-11.71"/>
    <path class="cls-13" d="M226.39,292.25c3.63.24,7.54-3.71,7.97-6.29,1.07-6.5-2-11.92-3.76-15.1,1.02,2.54,1.1,9.31-.22,11.71s-3.67,4.6-6.36,5.1c.69,1.63,1.37,3.26,2.37,4.59h0Z"/>
    <path class="cls-13" d="M333.87,291.8c-5.45-3.33.4-17.08.4-17.08,0,0-.19,4.04.99,7.19.96,2.56,1.52,2.98,4.33,4.43-.34.81-1.41,4.99-1.41,4.99,0,0-1.57,2.14-4.3.47h0Z"/>
    <path class="cls-13" d="M344.62,246.2s-2.1-2.84-8.77-5.48c3.66,9.8,3.96,18.92-.38,30.33,5.41-5.41,9.73-11.15,9.73-11.15l-.58-13.7h0Z"/>
  </g>
  <g id="Calque_11" data-name="Calque 11">
    <g>
      <path class="cls-27" d="M524.54,299.98c-3.74.12-7.38.13-10.84.06"/>
      <path class="cls-12" d="M524.54,299.98c1.38,4.81,2.92,8.64,4.54,11.69,6.61,12.5,14.36,12.02,16.61,12.02,13.84,0,17.91-20.82,18.78-26.67-.07,2.42,15.09,6.61,20.04-12.06,3.31-12.47.27-47.72.26-47.74-9.59-35.54-37.78-90.04-63.91-90.24-27.08-1.73-60.56,50.13-71.74,90.09-4.46,15.95-9.53,60.52,5.37,76.65,3.46,3.75,15.5,2.54,10.34-17.58,0,0,1.59,4.55,3.62,5.5,2.58,1.21,5.67-.63,5.42-4.35.59,4.44,4.22,26.41,18.69,26.41,2.25,0,9.98.48,16.59-11.98,1.61-3.05,3.16-6.87,4.54-11.67M551.05,296.96c-8.61,1.9-17.82,2.75-26.51,3.02M513.7,300.04c-15.1-.28-26.36-1.92-26.8-1.98M564.48,296.97l-50.78,3.07,10.84-.06-10.84.06,50.78-3.07Z"/>
      <path class="cls-5" d="M486.9,297.81c1.71-51.87,61.65-52.71,64.4-1.06l-15.05,2.49-15.91.83-19.19-.59-14.26-1.67h0Z"/>
      <path class="cls-35" d="M524.54,299.99c1.38,4.81,2.92,8.64,4.54,11.69,6.61,12.5,14.36,12.02,16.61,12.02,13.84,0,17.91-20.82,18.78-26.67-.06,1.79,9.61,4.38,15.97-2.85s5.62-21.4,4.35-56.89c0,0,0,.02,0,0-10.55-37.53-36.75-90.38-65.63-90.38-27.3,0-61.93,57.11-70.02,90.16h0c-3.98,16.25-11.03,60.25,5.37,76.65,3.61,3.6,15.5,2.54,10.34-17.58,0,0,1.59,4.55,3.62,5.5,2.58,1.21,5.67-.63,5.42-4.35.59,4.44,4.22,26.41,18.69,26.41,2.25,0,9.98.48,16.59-11.98,1.61-3.05,3.16-6.87,4.54-11.67M551.05,296.96c-8.61,1.9-17.82,2.75-26.51,3.02M513.7,300.04c-15.1-.28-26.25-1.91-26.69-1.97M513.7,300.04l10.84-.06-10.84.06"/>
      <path class="cls-35" d="M463.55,258.46c-1.29,4.46-2.39,14.43,2.58,23.26,2.7,4.78,4.62,8.35,6.45,11.61.49.87.91,1.67,1.09,2.45.21.92.21,1.46.21,1.46"/>
    </g>
    <path class="cls-20" d="M541.5,174.27c5.88.19,5.92,5.01,5.97,5.48"/>
    <path class="cls-20" d="M493.68,177.89c2.1-4.01,6.32-4.92,8.42-4.54"/>
    <path class="cls-19" d="M542.09,188.17c-7.18,0-13,6.88-13,15.37,0,4.55,1.67,8.63,4.32,11.45.15.16.34.26.56.3,1.85.33,11.03,1.97,12.93,2.31.23.04.46,0,.66-.1,4.45-2.43,7.54-7.77,7.54-13.95,0-8.49-5.82-15.37-13-15.37h0Z"/>
    <path class="cls-6" d="M502.32,223.24s-.32,14.01,6.47,16.69c4.5,1.77,11.34,1.92,14.5,2.01,2.89.08,7.6.18,10.87-7.48,2.73-6.37,4.81-11.31,4.81-11.31,0,0-9.06,2.35-12,2.55-3.56.25-10.72-.36-14.24-.91-2.63-.41-10.41-1.54-10.41-1.54h0Z"/>
    <ellipse class="cls-6" cx="539.72" cy="204.17" rx="4.12" ry="5.25"/>
    <path class="cls-19" d="M495.22,188.17c7.18,0,13,6.88,13,15.37,0,4.55-1.67,8.63-4.32,11.45-.15.16-.34.26-.56.3-1.85.33-11.03,1.97-12.93,2.31-.23.04-.46,0-.66-.1-4.45-2.43-7.54-7.77-7.54-13.95,0-8.49,5.82-15.37,13-15.37h.01Z"/>
    <ellipse class="cls-6" cx="497.59" cy="204.17" rx="4.12" ry="5.25"/>
    <path class="cls-16" d="M507.22,228.98l-.82-5.18,5.47,1.47,8.04.43,8.21-.19,3.87-.69-.71,4.39c-.07.58-.32.98-.61.98l-22.86-.31c-.27,0-.5-.36-.59-.89h0Z"/>
    <path class="cls-20" d="M499.17,222.64s21.36,6.51,39.61.33"/>
    <path class="cls-20" d="M537.51,220.47s.51,2.31,3.24,4.34"/>
    <path class="cls-12" d="M575.09,224.14s12.57-13.06,5.17-37.96c0,0-1.69-13.86,7.15-7.05,1.64,1.26,1.06,5.28,1.06,5.28,0,0-.05-17.73,11.2-16.41,4.71.55,3.85,4.65,5.73,7.53,0,0,10.5,26.82-22.29,72.62"/>
    <g>
      <path class="cls-35" d="M580.3,180.45c.41-1.38,1.2-2.32,2.14-2.84,1.38-.76,3.09-.56,4.31.58.26.24.48.57.66.94.94,1.85,1.07,4.91,1.08,5.35v.04h0c.01-.18.03-.39.05-.58,0-.25.03-.48.05-.72.78-8.81,3.53-13.05,6.51-14.63,3.55-1.89,7.41,0,8.65,2.42h0c12.94,27.96-17.91,72.48-18.88,74.66"/>
      <path class="cls-35" d="M575.59,222.64c2.61-3.84,9.23-14.86,7.23-24.79-1.09-5.39-1.82-9.38-2.55-13.03-.21-1.06-.22-2-.19-2.8.02-.46.05-.66.19-1.47"/>
    </g>
  </g>
  <g id="Calque_10" data-name="Calque 10">
    <g>
      <path class="cls-23" d="M406.03,299.49c-3.74.12-7.38.13-10.84.06"/>
      <path class="cls-1" d="M406.03,299.49c1.38,4.81,2.92,8.64,4.54,11.69,6.61,12.5,14.36,12.02,16.61,12.02,13.84,0,17.91-20.82,18.78-26.67-.11,3.58,20.16-53.45,22.44-60.08.02-.05-.01-.07-.01-.07.94-2.38,8.22-20.63,6.2-25.39-2.16-5.09-15.31-12.41-32.28-26.22-10.18-8.29-8.93-6.01-29.84-23.04-4.12-3.36-8.38-7.31-12.06-7.34-3.3-.03-5.53,2.78-9.2,5.3-6.82,4.69-15.63,11.41-24.35,18.42-11,8.85-21.58,15.99-28.7,21.71-6.71,5.4-10.85,6.61-12.56,10.29-2.3,4.97,4.51,20.52,11.45,40.19,5.97,16.92,18.32,46.48,18.32,46.48,0,0,4.22,26.41,18.69,26.41,2.25,0,9.98.48,16.59-11.98,1.61-3.05,3.16-6.87,4.54-11.67M432.54,296.47c-8.61,1.9-17.82,2.75-26.51,3.02M395.19,299.55c-15.1-.28-26.36-1.92-26.8-1.98M445.97,296.48l-50.78,3.07,10.84-.06-10.84.06,50.78-3.07Z"/>
      <path class="cls-3" d="M368.39,297.32c1.71-51.87,61.65-52.71,64.4-1.06l-15.05,2.49-15.91.83-19.19-.59-14.26-1.67h.01Z"/>
      <path class="cls-20" d="M406.03,299.49c1.38,4.81,2.92,8.64,4.54,11.69,6.61,12.5,14.36,12.02,16.61,12.02,13.84,0,17.91-20.82,18.78-26.67-.12,3.75,27.1-75.33,28.8-81.07.82-2.77-.15-5.76-2.44-7.52l-67.48-52.09c-2.5-1.93-5.98-1.95-8.5-.04l-68.81,52.06c-2.44,1.85-3.4,5.07-2.36,7.95,2.73,7.6,30.21,80.98,30.21,80.98,0,0,4.22,26.41,18.69,26.41,2.25,0,9.98.48,16.59-11.98,1.61-3.05,3.16-6.87,4.54-11.67M432.54,296.47c-8.61,1.9-17.82,2.75-26.51,3.02M395.19,299.55c-15.1-.28-26.25-1.91-26.69-1.97M445.97,296.48l-50.78,3.07,10.84-.06-10.84.06,50.78-3.07Z"/>
    </g>
    <path class="cls-18" d="M467.87,233.37c7.34,3.35,7.16,16.74,4.49,24.36-2.67,7.61-8.75,16.13-21.5,14.02-13.59-2.25-15.29-12.64-16.2-20.66-.91-8.02.86-19.38,5.91-20.97,13.38-4.23,11.29,12.26,11.58,15.47.29,3.21,2.87,6.75,6.02,6.04"/>
    <path class="cls-18" d="M332.67,233.37c-7.34,3.35-7.16,16.74-4.49,24.36,2.67,7.62,8.75,16.13,21.5,14.02,13.59-2.25,15.29-12.64,16.2-20.66.91-8.02-.86-19.38-5.91-20.97-13.38-4.23-11.29,12.26-11.58,15.47s-2.87,6.75-6.02,6.04"/>
    <ellipse class="cls-19" cx="425.5" cy="204.42" rx="13" ry="16.5"/>
    <ellipse class="cls-6" cx="423.13" cy="206.17" rx="4.12" ry="5.25"/>
    <ellipse class="cls-19" cx="376" cy="204.42" rx="13" ry="16.5"/>
    <ellipse class="cls-6" cx="378.38" cy="206.17" rx="4.12" ry="5.25"/>
    <path class="cls-20" d="M414.68,178.7c2.77-2.6,6.6-2.12,8.95-.2"/>
    <path class="cls-20" d="M378.63,178.7c3.3-3.1,6.83-2.2,8.69-1.15"/>
    <path class="cls-6" d="M429.32,227.79c0,9.9-6.33,18.49-15.63,22.84,0,0-.01,0-.05.03-1.11.52-2.27.98-3.47,1.37-3.22,1.06-6.71,1.64-10.35,1.64,0,0-.3,0-.8-.02-15.92-.36-28.69-11.79-28.7-25.85,1.93-1.44,3.94-1.55,3.94-1.55h54.29s.29,0,.72.12c.04.47.05.94.05,1.42h0Z"/>
    <path class="cls-16" d="M380.92,230.25l-1.31-4,40.94.2-1,3.97c-.11.45-.52.76-.98.76l-36.71-.24c-.43,0-.81-.28-.94-.69h0Z"/>
    <path class="cls-20" d="M432.49,228.79c-.95-1.63-2.37-2.21-3.22-2.42-.43-.11-.72-.12-.72-.12h-54.29s-2.01.11-3.94,1.55c-.99.73-1.97,1.8-2.64,3.39"/>
    <path class="cls-15" d="M390.21,251.95s.28-9.37,10.6-5.41c0,0,7.49-7.15,12.88,4.09,0,0-2.96,2.18-13.87,3.04,0,0-6.21-.04-9.6-1.72h-.01Z"/>
    <path class="cls-29" d="M400.81,246.54c-10.31-3.96-10.6,5.72-10.6,5.72,3.9,1.33,9.6,1.41,9.6,1.41,6.91.25,13.87-3.04,13.87-3.04-5.39-11.24-12.88-4.09-12.88-4.09h.01Z"/>
    <path class="cls-39" d="M400.08,246.28s1.47.66,3.44,3.44"/>
    <path class="cls-22" d="M429.32,227.79c0,9.9-6.33,18.49-15.63,22.84,0,0-.01,0-.05.03-1.11.52-2.27.98-3.47,1.37-3.22,1.06-7.21,1.77-10.35,1.64,0,0-.3,0-.8-.02-15.92-.36-28.69-11.79-28.7-25.85,1.93-1.44,3.94-1.55,3.94-1.55h54.29s.29,0,.72.12c.04.47.05.94.05,1.42h0Z"/>
    <path class="cls-6" d="M346.34,272.37c5.33.02,10.62-2.24,14.29-6.1,3.67-3.86,5.65-9.27,5.36-14.58.32,9.17-2.61,18.42-8.12,25.76-3.38,4.5-8.38,3.66-8.38,3.66,0,0-3.22-6.27-3.15-8.74Z"/>
    <path class="cls-6" d="M454.54,272.42c-5.33.02-10.92-2.29-14.59-6.15s-5.65-9.27-5.36-14.58c-.32,9.17,2.2,18.74,8.12,25.76,2.68,3.19,8.83,3.91,8.83,3.91,0,0,3.07-6.47,3-8.94Z"/>
  </g>
  <g id="Calque_12" data-name="Calque 12">
    <g>
      <g>
        <path class="cls-7" d="M541.4,326.62s-.06.23-.17.65c-.36,1.23-1.2,4.13-2.44,7.95-.01.04-.03.08-.04.11-.18.56-.38,1.13-.58,1.73.28,1.33-23.63,52.77-25.54,55.1-.87,5.85-4.94,26.67-18.78,26.67-2.25,0-10,.48-16.61-12.02-1.62-3.05-3.16-6.88-4.54-11.69,3.81-.11,7.71-.34,11.62-.74.05,0,.1,0,.16-.01,4.96-.48,9.94-1.21,14.73-2.27l-3.27.37-21.15,2.41-2.09.24-2.77.02h-2.81v.02h-2.81l-2.77-.03-2.09-.24-21.15-2.41-3.27-.37c4.79,1.06,9.77,1.79,14.73,2.27.06,0,.11.02.16,0,3.91.4,7.81.63,11.62.74-1.38,4.81-2.92,8.64-4.54,11.69-6.61,12.5-14.36,12.02-16.61,12.02-13.84,0-17.91-20.82-18.78-26.67l-25.54-55.1c-.2-.6-.4-1.17-.58-1.73-.01-.03-.03-.07-.04-.11-1.24-3.82-2.08-6.72-2.44-7.95-.11-.42-.17-.65-.17-.65l.33-.61,4.77-8.92.27-.46,30.23-50.73.5-.83.81-.26,4.23-1.34h33s.05-.01.14-.02h33.14l4.23,1.35.81.26.5.83,30.23,50.73.27.46,4.77,8.92.33.61h0Z"/>
        <path class="cls-8" d="M467.12,353.6v41.57l1.26.04h.22l1.33-.07,4.86-.26,9.53-.5s.1,0,.16-.01l11.46-1.9,3.52-.58c-1.37-25.68-16.88-38.38-32.34-38.29h0Z"/>
        <path class="cls-31" d="M472.7,395.12c1.38,4.81,2.92,8.64,4.54,11.69,6.61,12.5,14.36,12.02,16.61,12.02,13.84,0,17.91-20.82,18.78-26.67,1.92-3.01,24.84-52.83,25.51-55,.01-.05,0-.07,0-.07,0-.01,0-.04.02-.09.05-.23.28-.84.6-1.67,0-.03.03-.07.04-.11.51-1.31,1.23-3.1,1.87-4.68.82-2.01-.12-6.24-.57-7-.96-1.62-3.79-6.45-3.79-6.45l-.27-.46-29.05-49.19c-.33-.56-.73-1.08-1.18-1.54-.4-.41-.84-.77-1.31-1.09-1.24-.82-2.7-1.3-4.23-1.34-.09-.01-.18-.01-.27-.01h-32.87M499.21,392.1c-4.79,1.06-9.77,1.79-14.73,2.27-.06.01-.11.02-.16.01-3.91.4-7.81.63-11.62.74"/>
        <path class="cls-26" d="M472.7,395.12c-1.38.04-2.75.07-4.1.08h-.22c-.42,0-.84.01-1.26,0v-.06h2.81l2.77-.03h0Z"/>
      </g>
      <g>
        <path class="cls-8" d="M467.12,353.6v41.57l-1.26.04h-.22l-1.33-.07-4.86-.26-9.53-.5s-.1,0-.16-.01l-11.46-1.9-3.52-.58c1.37-25.68,16.88-38.38,32.34-38.29h0Z"/>
        <path class="cls-31" d="M396.1,337.16l25.51,55s-25.5-55.11-25.52-55.16c-.05-.23-.32-.95-.64-1.78,0-.03.05.15.04.11-.51-1.31-1.27-3.21-1.91-4.79-.43-1.05-.37-2.42-.33-3.52,0-.42.07-.85.16-1.26.17-.84.48-1.66.93-2.42l3.6-6.25.27-.46,29.05-49.19c.33-.56.73-1.08,1.18-1.54.4-.41.84-.77,1.31-1.09,1.24-.82,2.7-1.3,4.23-1.34h33.14M461.54,395.12c-1.38,4.81-2.92,8.64-4.54,11.69-6.61,12.5-14.36,12.02-16.61,12.02-13.84,0-17.91-20.82-18.78-26.67M435.03,392.1c4.79,1.06,9.77,1.79,14.73,2.27.06,0,.11.02.16,0,3.91.4,7.81.63,11.62.74"/>
        <path class="cls-26" d="M461.54,395.12c1.38.04,2.75.07,4.1.08h.22c.42,0,.84.01,1.26,0v-.06h-2.81l-2.77-.03h0Z"/>
      </g>
    </g>
    <ellipse class="cls-19" cx="492.11" cy="301.56" rx="13" ry="15.37"/>
    <ellipse class="cls-6" cx="489.74" cy="302.19" rx="4.12" ry="5.25"/>
    <path class="cls-21" d="M455.12,301.22c0,3.44-.95,6.6-2.55,9.16-6.3-.57-12.21,2.55-15.69,4.91-4.57-2.38-7.76-7.78-7.76-14.07,0-8.49,5.82-15.37,13-15.37s13,6.88,13,15.37Z"/>
    <ellipse class="cls-6" cx="444.49" cy="301.85" rx="4.12" ry="5.25"/>
    <path class="cls-20" d="M459.33,312.56c-2.24-1.33-4.52-1.99-6.76-2.18-6.3-.57-12.21,2.55-15.69,4.91-2,1.35-3.19,2.45-3.19,2.45"/>
    <path class="cls-20" d="M482.21,273.76c.86.2,5.25,3.86,5.2,4.39"/>
    <path class="cls-20" d="M448.61,274.9c2.18-3.56,6.78-2.7,8.52-1.96"/>
    <path class="cls-21" d="M451.42,322.26s2.93-5.18,10.72,3.57c4.75,5.34,13.36,1.83,16.98-1.49,8.16-7.5,8.97,16.82-10.48,16.82-12.33,0-20.67-14.94-17.22-18.89h0Z"/>
    <line class="cls-20" x1="464.32" y1="327.56" x2="456.44" y2="335.82"/>
    <line class="cls-20" x1="459.31" y1="323.05" x2="451.58" y2="328.82"/>
    <line class="cls-20" x1="469.26" y1="341.14" x2="468.9" y2="328.56"/>
    <line class="cls-20" x1="479.84" y1="337.28" x2="473.02" y2="327.8"/>
    <line class="cls-20" x1="484.38" y1="329.23" x2="477.56" y2="325.55"/>
    <path class="cls-7" d="M515.88,346.99s-18.92,14.35-44.88,13.65c0,0-13.83,1.95-4.96,8.73,1.64,1.26,5.38-.34,5.38-.34,0,0-17.14,4.54-12.96,15.06,1.75,4.4,5.49,2.51,8.75,3.59,0,0,27.05,7.06,69.24-35.12,4.77-4.77,8.47-19.57,2.16-31.14"/>
    <path class="cls-31" d="M465.47,362.16c-1.23.75-1.94,1.76-2.19,2.8-.38,1.53.26,3.13,1.67,4.02.3.19.67.32,1.08.4,2.03.43,5.02-.24,5.45-.34.02,0,.03,0,.04-.01h.01c-.19.06-.38.13-.56.2-.24.07-.46.16-.68.24-8.31,3.03-11.69,6.78-12.45,10.08-.91,3.91,1.91,7.16,4.57,7.73h0c29.27,4.07,57.95-18.26,72.8-34.05,4.29-4.57,11.62-18.42,3.62-31.8"/>
    <path class="cls-7" d="M418.7,346.99s18.92,14.35,44.88,13.65c0,0,13.83,1.95,4.96,8.73-1.64,1.26-5.38-.34-5.38-.34,0,0,17.14,4.54,12.96,15.06-1.75,4.4-5.49,2.51-8.75,3.59,0,0-27.05,7.06-69.24-35.12-4.77-4.77-9.05-19.57-2.74-31.14"/>
    <path class="cls-31" d="M522.39,332.54c4.66,14.76-29.34,26.91-39.45,27.55-5.49.34-9.53.67-13.25.9-1.08.07-1.99.31-2.75.54-.44.14-.62.22-1.37.57"/>
    <path class="cls-31" d="M469.09,362.35c1.23.75,1.94,1.76,2.19,2.8.38,1.53-.26,3.13-1.67,4.02-.3.19-.67.32-1.08.4-2.03.43-5.02-.24-5.45-.34-.02,0-.03,0-.04-.01h-.01c.19.06.38.13.56.2.24.07.46.16.68.24,8.31,3.03,11.69,6.78,12.45,10.08.91,3.91-1.91,7.16-4.57,7.73h0c-29.27,4.07-57.95-18.26-72.8-34.05-4.29-4.57-11.21-19.51-4.03-31.85"/>
    <path class="cls-31" d="M412.17,332.73c-4.66,14.76,29.34,26.91,39.45,27.55,5.49.34,9.53.67,13.25.9,1.08.07,1.99.31,2.75.54.44.14.62.22,1.37.57"/>
    <path class="cls-32" d="M472.41,360.81s-10.1.63-11.8,4.33c-.47,1.03-.79,2.46.34,4.31,1.91,3.15,11.82,1.25,12.71.71"/>
    <path class="cls-17" d="M506.36,383.41c5.15-2.37,14.71-9.34,15.85-11.21,2.82-4.63,2.57-5.67,4.7-10.36-8.18,7.7-29.89,23.83-49.35,25.32,6.63.93,20.89-.11,28.8-3.75h0Z"/>
    <path class="cls-17" d="M428.33,383.41c-5.15-2.37-14.71-9.34-15.85-11.21-2.82-4.63-2.57-5.67-4.7-10.36,8.18,7.7,29.89,23.83,49.35,25.32-6.63.93-20.89-.11-28.8-3.75h0Z"/>
  </g>
  <g id="Calque_14" data-name="Calque 14">
    <g>
      <path class="cls-25" d="M342.34,394.92c-3.74.12-7.38.13-10.84.06"/>
      <path class="cls-4" d="M342.34,394.92c1.38,4.81,2.92,8.64,4.54,11.69,6.61,12.5,14.36,12.02,16.61,12.02,13.84,0,17.91-20.82,18.78-26.67-.11,3.58,2.91,5.33,5.44,4.14,2.03-.95,3.62-5.5,3.62-5.5-5.16,20.12,6.73,21.19,10.34,17.58,17.46-17.46,5.2-76.51,4.7-78.84,0-.05-.01-.07-.01-.07-4.13-34.6-33.71-61.43-69.58-61.43s-66.99,28.26-69.85,64.16c0,0,1.74,55.47,24.75,60.22.59,4.44,4.22,26.41,18.69,26.41,2.25,0,9.98.48,16.59-11.98,1.61-3.05,3.16-6.87,4.54-11.67M368.85,391.9c-8.61,1.9-17.82,2.75-26.51,3.02M331.5,394.98c-15.1-.28-26.36-1.92-26.8-1.98M382.28,391.91l-50.78,3.07,10.84-.06-10.84.06,50.78-3.07Z"/>
      <path class="cls-10" d="M304.7,392.75c1.71-51.87,61.65-52.71,64.4-1.06l-15.05,2.49-15.91.83-19.19-.59-14.26-1.67h.01Z"/>
      <path class="cls-30" d="M326.96,406.65c1.61-3.05,3.16-6.87,4.54-11.67M342.34,394.92c1.38,4.81,2.92,8.64,4.54,11.69,6.61,12.5,14.36,12.02,16.61,12.02,13.84,0,17.91-20.82,18.78-26.67-.11,3.58,2.91,5.33,5.44,4.14,2.03-.95,3.62-5.5,3.62-5.5-5.16,20.12,6.73,21.19,10.34,17.58,17.46-17.46,5.2-76.51,4.7-78.84,0-.05-.01-.07-.01-.07-4.13-34.6-33.71-61.43-69.58-61.43s-66.99,28.26-69.85,64.16M368.85,391.9c-8.61,1.9-17.82,2.75-26.51,3.02M331.5,394.98c-15.1-.28-26.25-1.91-26.69-1.97M382.28,391.91l-50.78,3.07,10.84-.06-10.84.06,50.78-3.07Z"/>
      <path class="cls-34" d="M281.35,353.4c-1.29,4.46-2.39,14.43,2.58,23.26,2.7,4.78,4.62,8.35,6.45,11.61.49.87.91,1.67,1.09,2.45.21.92.21,1.46.21,1.46"/>
      <path class="cls-37" d="M392.61,352.93c1.3,4.46,2.4,14.43-2.57,23.26-2.7,4.79-4.62,8.36-6.45,11.61-.53.94-.82,1.83-1.04,2.6-.13.45-.16.64-.27,1.46"/>
    </g>
    <g>
      <path class="cls-25" d="M342.34,394.92c-3.74.12-7.38.13-10.84.06"/>
      <path class="cls-4" d="M342.34,394.92c1.38,4.81,2.92,8.64,4.54,11.69,6.61,12.5,14.36,12.02,16.61,12.02,13.84,0,17.91-20.82,18.78-26.67-.11,3.58,2.91,5.33,5.44,4.14,2.03-.95,3.62-5.5,3.62-5.5-5.16,20.12,6.73,21.19,10.34,17.58,17.46-17.46,5.2-76.51,4.7-78.84,0-.05-.01-.07-.01-.07-4.13-34.6-33.71-61.43-69.58-61.43s-66.99,28.26-69.85,64.16c0,0-8.06,44.3,24.75,60.22.59,4.44,4.22,26.41,18.69,26.41,2.25,0,9.98.48,16.59-11.98,1.61-3.05,3.16-6.87,4.54-11.67M368.85,391.9c-8.61,1.9-17.82,2.75-26.51,3.02M331.5,394.98c-15.1-.28-26.36-1.92-26.8-1.98M382.28,391.91l-50.78,3.07,10.84-.06-10.84.06,50.78-3.07Z"/>
      <path class="cls-10" d="M304.7,392.75c1.71-51.87,61.65-52.71,64.4-1.06l-15.05,2.49-15.91.83-19.19-.59-14.26-1.67h.01Z"/>
      <path class="cls-30" d="M342.34,394.92c1.38,4.81,2.92,8.64,4.54,11.69,6.61,12.5,14.36,12.02,16.61,12.02,13.84,0,17.91-20.82,18.78-26.67-.11,3.58,2.91,5.33,5.44,4.14,2.03-.95,3.62-5.5,3.62-5.5-5.16,20.12,6.73,21.19,10.34,17.58,17.46-17.46,5.2-76.51,4.7-78.84,0-.05-.01-.07-.01-.07-4.13-34.6-33.71-61.43-69.58-61.43s-66.99,28.26-69.85,64.16h0c-6.25,43.87,24.31,62.61,24.75,60.22.59,4.44,4.22,26.41,18.69,26.41,2.25,0,9.98.48,16.59-11.98,1.61-3.05,3.16-6.87,4.54-11.67M368.85,391.9c-8.61,1.9-17.82,2.75-26.51,3.02M331.5,394.98c-15.1-.28-26.25-1.91-26.69-1.97M331.5,394.98l10.84-.06-10.84.06"/>
      <path class="cls-37" d="M392.61,352.93c1.3,4.46,2.4,14.43-2.57,23.26-2.7,4.79-4.62,8.36-6.45,11.61-.53.94-.82,1.83-1.04,2.6-.13.45-.16.64-.27,1.46"/>
    </g>
    <path class="cls-4" d="M315.96,349.17c-1.76-1.06-2.66.04-4.05.69-2.74,1.29-.53,10.51-4.44,12.09-19.02,7.73-38.61-26.6-41.87-24.69-3,1.76-8.13,11.18-5.44,26.7,2.19,12.68,45.39,23.59,66.59,15.43h0c.36-.14.72-.28,1.07-.44.02-.01.05-.02.07-.03.33-.14.65-.29.97-.45.04-.02.09-.04.13-.07.3-.15.59-.3.88-.46.06-.03.12-.07.19-.11.27-.15.53-.3.79-.46.09-.06.17-.11.26-.17.23-.15.45-.29.67-.44.3-.21.71-.34.89-.66,4.3-7.42,2.33-9.02-4.6-14.23-1.79-1.35-6.96,1.57-9.37-.64-2.39-2.2.76-9.97-2.75-12.07h0Z"/>
    <path class="cls-38" d="M271.93,335.39c-3.44-2.23-11.92,4.37-12.76,16.78-.89,13.1,2.63,16.85,9.01,22.23,6.27,5.29,37.37,13.15,58.57,4.99h0c.36-.14.72-.28,1.07-.44.02-.01.05-.02.07-.03.33-.14.65-.29.97-.45.04-.02.09-.04.13-.07.3-.15.59-.3.88-.46.06-.03.12-.07.19-.11.27-.15.53-.3.79-.46.09-.06.17-.11.26-.17.23-.15.45-.29.67-.44.3-.21.6-.43.89-.66,3.79-2.99,4.99-15.4-12.35-14.41-1.6.09-2.89-1.29-2.68-2.88.18-1.32.36-2.77.45-3.75.47-5.12-2.55-7.58-5.7-5.58-4.28,2.72-1.55,11.56-5.6,12.76-15.93,4.75-26.72-1.56-30.69-4.69"/>
    <path class="cls-20" d="M354.77,287.83c2.7-2.26,6.69-.67,7.78.97"/>
    <path class="cls-20" d="M311.27,281.27c2.13-2.8,6.38-2.12,7.8-.77"/>
    <path class="cls-20" d="M312.57,320.73c1.77-3.04,6.07-2.9,7.65-1.74"/>
    <g>
      <path class="cls-20" d="M317.66,334.1s14.68,23.97,34.89,2.37"/>
      <path class="cls-20" d="M350.05,335.16s2.82.86,4.98,3.62"/>
      <path class="cls-20" d="M320.32,332.55s-2.9.57-5.31,3.11"/>
    </g>
    <path class="cls-20" d="M320.64,298.68s5.54,4.31,1.49,14.77c0,0-5.7-6.94-12.86-4.19-8.19,3.14-5.75,12.22-5.6,13.02"/>
    <path class="cls-19" d="M370.59,312.35c0,6.3-3.21,11.73-7.81,14.1-.69.35-1.53.27-2.13-.21-4.79-3.83-8.97-4.71-12.1-4.54-.78.04-1.52-.35-1.9-1.04-1.31-2.4-2.06-5.24-2.06-8.3,0-8.49,5.82-15.38,13-15.38s13,6.89,13,15.38h0Z"/>
    <ellipse class="cls-6" cx="355.21" cy="312.97" rx="4.12" ry="5.25"/>
    <path class="cls-9" d="M334.94,373.52c-.89,7.98-10.3,11.25-16.56,12.78-8.79,2.15-13.08,1.31-22.1.67-2.26-.16-12.7.38-14.15-1.06-6.62-6.62-2.52-2.12-6.19-7.82,15.04,5.35,30.02,6.26,45.64,2.94,5.23-1.11,9.01-2.03,13.36-7.51Z"/>
  </g>
</svg>