<?xml version="1.0" encoding="UTF-8"?>
<svg id="Layer_1" data-name="Layer 1" xmlns="http://www.w3.org/2000/svg" xmlns:xlink="http://www.w3.org/1999/xlink" version="1.1" viewBox="0 0 805.4 564">
  <defs>
    <style>
      .cls-1, .cls-2, .cls-3, .cls-4, .cls-5, .cls-6, .cls-7, .cls-8, .cls-9, .cls-10, .cls-11, .cls-12, .cls-13, .cls-14, .cls-15, .cls-16, .cls-17 {
        stroke-width: 0px;
      }

      .cls-1, .cls-18 {
        fill: #1f1f1f;
      }

      .cls-19, .cls-20, .cls-21, .cls-18, .cls-22, .cls-23 {
        stroke: #000;
      }

      .cls-19, .cls-21, .cls-24, .cls-16 {
        fill: #fff;
      }

      .cls-19, .cls-25, .cls-26, .cls-22, .cls-27, .cls-28, .cls-23, .cls-29 {
        stroke-miterlimit: 10;
      }

      .cls-2 {
        fill: #eef1f4;
      }

      .cls-20, .cls-30, .cls-21, .cls-31, .cls-32, .cls-33, .cls-24, .cls-34, .cls-18, .cls-35, .cls-36, .cls-37, .cls-38, .cls-39 {
        stroke-linecap: round;
        stroke-linejoin: round;
      }

      .cls-20, .cls-30, .cls-31, .cls-33, .cls-34, .cls-35, .cls-22, .cls-37, .cls-29, .cls-39 {
        fill: none;
      }

      .cls-3 {
        fill: #454545;
      }

      .cls-30, .cls-25, .cls-38 {
        stroke: #ff9600;
      }

      .cls-31, .cls-32, .cls-26 {
        stroke: #007800;
      }

      .cls-4, .cls-25, .cls-26, .cls-27, .cls-38, .cls-23 {
        fill: #ffc600;
      }

      .cls-32, .cls-7 {
        fill: #00a600;
      }

      .cls-33, .cls-24, .cls-36, .cls-28 {
        stroke: #00a3ef;
      }

      .cls-5 {
        fill: #ff6d45;
      }

      .cls-34 {
        stroke: #ff8f00;
      }

      .cls-6 {
        fill: #000;
      }

      .cls-8 {
        fill: #00bd1e;
      }

      .cls-9 {
        fill: #ff9600;
      }

      .cls-35 {
        stroke: #bf0000;
      }

      .cls-36, .cls-28, .cls-11 {
        fill: #00daff;
      }

      .cls-10 {
        fill: #ffdb00;
      }

      .cls-27 {
        stroke: #e30000;
      }

      .cls-37 {
        stroke: #ff960e;
      }

      .cls-12 {
        fill: red;
      }

      .cls-13 {
        fill: #00a3ef;
      }

      .cls-14 {
        fill: #00efff;
      }

      .cls-15 {
        fill: #ff316a;
      }

      .cls-40 {
        isolation: isolate;
        opacity: .3;
      }

      .cls-29, .cls-39 {
        stroke: #c42351;
      }

      .cls-17 {
        fill: #007800;
      }
    </style>
  </defs>
  <g id="Calque_1" data-name="Calque 1">
    <g id="Calque_9" data-name="Calque 9">
      <rect class="cls-2" y="0" width="805.4" height="564"/>
      <image class="cls-40" width="2000" height="971" transform="translate(68.5 119.8) scale(.3)" xlink:href="../Documents/IIM2/BAP/1 semestre/BAP/58595cd74f6ae202fedf284d.png"/>
    </g>
  </g>
  <g id="Calque_13" data-name="Calque 13">
    <g id="Calque_2" data-name="Calque 2">
      <path class="cls-11" d="M328.3,297.1c0,.4-.1.9-.2,1.5-1.3,7.2-5.7,25.2-18.5,25.2s-6.1.2-10.9-4.3c-.4-.3-.7-.7-1-1-.2-.2-.4-.4-.5-.6-1.4-1.6-2.8-3.6-4.1-6.1-1.6-3-3.2-6.9-4.5-11.7h-5.2s-.8,0-.8,0v-125.7h.8c18,0,48.5.7,54.6,7.8.3.3.5.6.8,1,0,0,0,0,0,0,1.6,2.4,2.5,5.5,3.2,9.9,0,0,0,0,0,0,.6,4,1,9.2,1.7,15.8,0,0,0,0,0,0,.2,2.1.4,4.2.7,6.6h0c0,.2,0,.4,0,.6.3,2.6,1.4,36.5-3.2,63.2-.4,2.5-3.5,12.6-4.4,14.8-1,2.5-7.6,4.4-8.3,2.7h0Z"/>
      <path class="cls-14" d="M282.4,258.4v41.5h1s.3,0,.3,0h.8s.2,0,.2,0h.8s.2,0,.2,0h.3s4.8-.3,4.8-.3l8.9-.7h.3s.4.1.4.1h.3c0,0,2.3-.3,2.3-.3,0,0,0,0,0,0l9.1-1.5,3.3-.5c-1.4-26.1-17.4-38.8-33.2-38.3h0Z"/>
      <path class="cls-33" d="M287.1,299.9h0c-1.6,0-3.2,0-4.7,0h0s1,0,1,0h2.1s.2,0,.2,0h1.4s0,0,0,0Z"/>
      <path class="cls-33" d="M282.4,174.2h.4c15,0,21.8.8,29.9,1.3,6.2.4,11.6,1.1,21.9,4.2,6.6,1.9,8.1,16.8,9,29.9h0c2.8,42.3-1.2,69.3-5.5,82.2-2.3,7-10,5.4-10,5.4,0,0-4.2,26.4-18.7,26.4s-10,.5-16.6-12c-1.6-3-3.2-6.9-4.5-11.7h0"/>
      <path class="cls-33" d="M315.7,297.3s0,0-.1,0c0,0-.2,0-.3,0-.2,0-.5,0-.9.1-.4,0-.8.1-1.4.2-.2,0-.4,0-.7,0-1.2.1-2.7.3-4.5.5-.3,0-.6,0-.9,0-.3,0-.6,0-1,0-1.3.1-5.1.6-6.6.7,0,0-.1,0-.2,0h-.1c-3.7.2-7.4.7-12,.8"/>
      <path class="cls-11" d="M237.5,297.1c0,.4.1.9.2,1.5,1.3,7.2,5.7,25.2,18.5,25.2s6.1.2,10.9-4.3c.4-.3.7-.7,1-1,.2-.2.4-.4.5-.6,1.4-1.6,2.8-3.6,4.1-6.1,1.6-3,3.2-6.9,4.5-11.7h5.2s.8,0,.8,0v-125.7h-.8c-18,0-48.4.7-54.6,7.8-.3.3-.5.6-.8,1,0,0,0,0,0,0-1.6,2.4-2.5,5.5-3.2,9.9,0,0,0,0,0,0-.6,4-1,9.2-1.7,15.8,0,0,0,0,0,0-.2,2.1-.4,4.2-.7,6.6h0c0,.2,0,.4,0,.6-.3,2.8-.5,34.7.3,62.8.2,7.2,2.5,12.6,5.6,15,2.6,2,8.7,4.6,10,3h0Z"/>
      <path class="cls-14" d="M283.4,258.4v41.5h-1s-.3,0-.3,0h-.8s-.2,0-.2,0h-.8s-.2,0-.2,0h-.3s-4.8-.3-4.8-.3l-8.9-.7h-.3s-.4.1-.4.1h-.3c0,0-2.3-.3-2.3-.3,0,0,0,0,0,0l-9.1-1.5-3.3-.5c1.4-26.1,17.4-38.8,33.2-38.3h0Z"/>
      <path class="cls-33" d="M278.7,299.9h0c1.6,0,3.2,0,4.7,0h0s-1,0-1,0h-2.1s-.2,0-.2,0h-1.4s0,0,0,0Z"/>
      <path class="cls-33" d="M283.4,174.2h-.4c-15,0-21.8.8-29.9,1.3-6.2.4-11.6,1.1-21.9,4.2-6.6,1.9-8.1,16.8-9,29.9,0,0,0,0,0,0-1,15-1.5,49.9-.8,64.7.1,2.3.6,12.9,4.3,18,4.8,6.7,12.1,5,12.1,5,0,0,4.2,26.4,18.7,26.4s10,.5,16.6-12c1.6-3,3.2-6.9,4.5-11.7h0"/>
      <path class="cls-33" d="M250.2,297.3s0,0,.1,0c0,0,.2,0,.3,0,.2,0,.5,0,.9.1.4,0,.8.1,1.4.2.2,0,.4,0,.7,0,1.2.1,2.7.3,4.5.5.3,0,.6,0,.9,0,.3,0,.6,0,1,0,1.3.1,5.1.6,6.6.7,0,0,.1,0,.2,0h.1c3.7.2,7.4.7,12,.8"/>
      <ellipse class="cls-19" cx="305.7" cy="214.9" rx="13" ry="15.4"/>
      <ellipse class="cls-6" cx="303.3" cy="215.5" rx="4.1" ry="5.2"/>
      <ellipse class="cls-19" cx="256.2" cy="214.9" rx="13" ry="15.4"/>
      <ellipse class="cls-6" cx="258.6" cy="215.5" rx="4.1" ry="5.2"/>
      <path class="cls-20" d="M301.3,190.6c4.3-4,9.2-1.3,9.7.2"/>
      <path class="cls-20" d="M254.7,188.1c3.3-3.1,7.6-2.6,9.4-1.5"/>
      <g>
        <path class="cls-20" d="M251.4,237.3s25.5,16.1,64.8,3.4"/>
        <path class="cls-20" d="M311.3,238.4s4.8,1.4,7.6,4.6"/>
        <path class="cls-20" d="M255.7,235.3s-4.8,1.4-7.6,4.6"/>
      </g>
    </g>
    <path class="cls-36" d="M341,218.9s45.1,24.6,19.1,50.6c0,0,7.2,19-12,18.9"/>
    <path class="cls-33" d="M360.1,269.5c-3,2.3-5.9,4.7-8.9,7"/>
    <path class="cls-24" d="M348.8,255.5l-3.8,4.5-.6-13.4s6.5,6.1,4.3,8.9h0Z"/>
    <path class="cls-28" d="M348.3,288.4s-19.1-.4-12.5-16.8c1.4-3.5,9.5-11.7,9.5-11.7"/>
    <path class="cls-36" d="M225,218.9s-45.1,24.6-19.1,50.6c0,0-7.2,19,12,18.9"/>
    <path class="cls-33" d="M206,269.5c3,2.3,5.9,4.7,8.9,7"/>
    <path class="cls-24" d="M217.3,255.5l3.8,4.5.6-13.4s-6.5,6.1-4.3,8.9h0Z"/>
    <path class="cls-28" d="M217.8,288.4s18.8-.3,12.6-16.8c-2.1-5.4-9.5-11.7-9.5-11.7"/>
    <path class="cls-13" d="M226.4,292.3c3.6.2,7.5-3.7,8-6.3,1.1-6.5-2-11.9-3.8-15.1,1,2.5,1.1,9.3-.2,11.7s-3.7,4.6-6.4,5.1c.7,1.6,1.4,3.3,2.4,4.6h0Z"/>
    <path class="cls-13" d="M333.9,291.8c-5.5-3.3.4-17.1.4-17.1,0,0-.2,4,1,7.2,1,2.6,1.5,3,4.3,4.4-.3.8-1.4,5-1.4,5,0,0-1.6,2.1-4.3.5h0Z"/>
    <path class="cls-13" d="M344.6,246.2s-2.1-2.8-8.8-5.5c3.7,9.8,4,18.9-.4,30.3,5.4-5.4,9.7-11.1,9.7-11.1l-.6-13.7h0Z"/>
  </g>
  <g id="Calque_11" data-name="Calque 11">
    <g>
      <path class="cls-27" d="M524.5,300c-3.7.1-7.4.1-10.8,0"/>
      <path class="cls-12" d="M524.5,300c1.4,4.8,2.9,8.6,4.5,11.7,6.6,12.5,14.4,12,16.6,12,13.8,0,17.9-20.8,18.8-26.7,0,2.4,15.1,6.6,20-12.1,3.3-12.5.3-47.7.3-47.7-9.6-35.5-37.8-90-63.9-90.2-27.1-1.7-60.6,50.1-71.7,90.1-4.5,15.9-9.5,60.5,5.4,76.6,3.5,3.8,15.5,2.5,10.3-17.6,0,0,1.6,4.5,3.6,5.5,2.6,1.2,5.7-.6,5.4-4.4.6,4.4,4.2,26.4,18.7,26.4s10,.5,16.6-12c1.6-3,3.2-6.9,4.5-11.7M551,297c-8.6,1.9-17.8,2.8-26.5,3M513.7,300c-15.1-.3-26.4-1.9-26.8-2M564.5,297l-50.8,3.1h10.8c0,0-10.8,0-10.8,0l50.8-3.1Z"/>
      <path class="cls-5" d="M486.9,297.8c1.7-51.9,61.6-52.7,64.4-1.1l-15,2.5-15.9.8-19.2-.6-14.3-1.7h0Z"/>
      <path class="cls-35" d="M524.5,300c1.4,4.8,2.9,8.6,4.5,11.7,6.6,12.5,14.4,12,16.6,12,13.8,0,17.9-20.8,18.8-26.7,0,1.8,9.6,4.4,16-2.9s5.6-21.4,4.3-56.9c0,0,0,0,0,0-10.5-37.5-36.8-90.4-65.6-90.4s-61.9,57.1-70,90.2h0c-4,16.2-11,60.2,5.4,76.6,3.6,3.6,15.5,2.5,10.3-17.6,0,0,1.6,4.5,3.6,5.5,2.6,1.2,5.7-.6,5.4-4.4.6,4.4,4.2,26.4,18.7,26.4s10,.5,16.6-12c1.6-3,3.2-6.9,4.5-11.7M551,297c-8.6,1.9-17.8,2.8-26.5,3M513.7,300c-15.1-.3-26.2-1.9-26.7-2M513.7,300h10.8c0,0-10.8,0-10.8,0"/>
      <path class="cls-35" d="M463.5,258.5c-1.3,4.5-2.4,14.4,2.6,23.3,2.7,4.8,4.6,8.4,6.5,11.6.5.9.9,1.7,1.1,2.5.2.9.2,1.5.2,1.5"/>
    </g>
    <path class="cls-20" d="M541.5,174.3c5.9.2,5.9,5,6,5.5"/>
    <path class="cls-20" d="M493.7,177.9c2.1-4,6.3-4.9,8.4-4.5"/>
    <path class="cls-19" d="M542.1,188.2c-7.2,0-13,6.9-13,15.4s1.7,8.6,4.3,11.4c.2.2.3.3.6.3,1.8.3,11,2,12.9,2.3.2,0,.5,0,.7-.1,4.5-2.4,7.5-7.8,7.5-13.9s-5.8-15.4-13-15.4h0Z"/>
    <path class="cls-6" d="M502.3,223.2s-.3,14,6.5,16.7c4.5,1.8,11.3,1.9,14.5,2,2.9,0,7.6.2,10.9-7.5,2.7-6.4,4.8-11.3,4.8-11.3,0,0-9.1,2.4-12,2.6-3.6.2-10.7-.4-14.2-.9-2.6-.4-10.4-1.5-10.4-1.5h0Z"/>
    <ellipse class="cls-6" cx="539.7" cy="204.2" rx="4.1" ry="5.2"/>
    <path class="cls-19" d="M495.2,188.2c7.2,0,13,6.9,13,15.4s-1.7,8.6-4.3,11.4c-.1.2-.3.3-.6.3-1.9.3-11,2-12.9,2.3-.2,0-.5,0-.7-.1-4.5-2.4-7.5-7.8-7.5-13.9s5.8-15.4,13-15.4h0Z"/>
    <ellipse class="cls-6" cx="497.6" cy="204.2" rx="4.1" ry="5.2"/>
    <path class="cls-16" d="M507.2,229l-.8-5.2,5.5,1.5,8,.4,8.2-.2,3.9-.7-.7,4.4c0,.6-.3,1-.6,1l-22.9-.3c-.3,0-.5-.4-.6-.9h0Z"/>
    <path class="cls-20" d="M499.2,222.6s21.4,6.5,39.6.3"/>
    <path class="cls-20" d="M537.5,220.5s.5,2.3,3.2,4.3"/>
    <path class="cls-12" d="M575.1,224.1s12.6-13.1,5.2-38c0,0-1.7-13.9,7.2-7.1,1.6,1.3,1.1,5.3,1.1,5.3,0,0,0-17.7,11.2-16.4,4.7.6,3.8,4.6,5.7,7.5,0,0,10.5,26.8-22.3,72.6"/>
    <g>
      <path class="cls-35" d="M580.3,180.4c.4-1.4,1.2-2.3,2.1-2.8,1.4-.8,3.1-.6,4.3.6.3.2.5.6.7.9.9,1.9,1.1,4.9,1.1,5.4h0c0-.1,0-.4,0-.5,0-.2,0-.5,0-.7.8-8.8,3.5-13.1,6.5-14.6,3.5-1.9,7.4,0,8.7,2.4h0c12.9,28-17.9,72.5-18.9,74.7"/>
      <path class="cls-35" d="M575.6,222.6c2.6-3.8,9.2-14.9,7.2-24.8-1.1-5.4-1.8-9.4-2.5-13-.2-1.1-.2-2-.2-2.8,0-.5,0-.7.2-1.5"/>
    </g>
  </g>
  <g id="Calque_10" data-name="Calque 10">
    <g>
      <path class="cls-23" d="M406,299.5c-3.7.1-7.4.1-10.8,0"/>
      <path class="cls-1" d="M406,299.5c1.4,4.8,2.9,8.6,4.5,11.7,6.6,12.5,14.4,12,16.6,12,13.8,0,17.9-20.8,18.8-26.7-.1,3.6,20.2-53.4,22.4-60.1,0,0,0,0,0,0,.9-2.4,8.2-20.6,6.2-25.4-2.2-5.1-15.3-12.4-32.3-26.2-10.2-8.3-8.9-6-29.8-23-4.1-3.4-8.4-7.3-12.1-7.3-3.3,0-5.5,2.8-9.2,5.3-6.8,4.7-15.6,11.4-24.4,18.4-11,8.9-21.6,16-28.7,21.7-6.7,5.4-10.9,6.6-12.6,10.3-2.3,5,4.5,20.5,11.5,40.2,6,16.9,18.3,46.5,18.3,46.5,0,0,4.2,26.4,18.7,26.4s10,.5,16.6-12c1.6-3,3.2-6.9,4.5-11.7M432.5,296.5c-8.6,1.9-17.8,2.8-26.5,3M395.2,299.5c-15.1-.3-26.4-1.9-26.8-2M446,296.5l-50.8,3.1h10.8c0,0-10.8,0-10.8,0l50.8-3.1Z"/>
      <path class="cls-3" d="M368.4,297.3c1.7-51.9,61.6-52.7,64.4-1.1l-15,2.5-15.9.8-19.2-.6-14.3-1.7h0Z"/>
      <path class="cls-20" d="M406,299.5c1.4,4.8,2.9,8.6,4.5,11.7,6.6,12.5,14.4,12,16.6,12,13.8,0,17.9-20.8,18.8-26.7-.1,3.8,27.1-75.3,28.8-81.1.8-2.8-.1-5.8-2.4-7.5l-67.5-52.1c-2.5-1.9-6-1.9-8.5,0l-68.8,52.1c-2.4,1.9-3.4,5.1-2.4,7.9,2.7,7.6,30.2,81,30.2,81,0,0,4.2,26.4,18.7,26.4s10,.5,16.6-12c1.6-3,3.2-6.9,4.5-11.7M432.5,296.5c-8.6,1.9-17.8,2.8-26.5,3M395.2,299.5c-15.1-.3-26.2-1.9-26.7-2M446,296.5l-50.8,3.1h10.8c0,0-10.8,0-10.8,0l50.8-3.1Z"/>
    </g>
    <path class="cls-18" d="M467.9,233.4c7.3,3.4,7.2,16.7,4.5,24.4-2.7,7.6-8.8,16.1-21.5,14-13.6-2.2-15.3-12.6-16.2-20.7-.9-8,.9-19.4,5.9-21,13.4-4.2,11.3,12.3,11.6,15.5.3,3.2,2.9,6.8,6,6"/>
    <path class="cls-18" d="M332.7,233.4c-7.3,3.4-7.2,16.7-4.5,24.4,2.7,7.6,8.8,16.1,21.5,14,13.6-2.2,15.3-12.6,16.2-20.7.9-8-.9-19.4-5.9-21-13.4-4.2-11.3,12.3-11.6,15.5s-2.9,6.8-6,6"/>
    <ellipse class="cls-19" cx="425.5" cy="204.4" rx="13" ry="16.5"/>
    <ellipse class="cls-6" cx="423.1" cy="206.2" rx="4.1" ry="5.2"/>
    <ellipse class="cls-19" cx="376" cy="204.4" rx="13" ry="16.5"/>
    <ellipse class="cls-6" cx="378.4" cy="206.2" rx="4.1" ry="5.2"/>
    <path class="cls-20" d="M414.7,178.7c2.8-2.6,6.6-2.1,9-.2"/>
    <path class="cls-20" d="M378.6,178.7c3.3-3.1,6.8-2.2,8.7-1.1"/>
    <path class="cls-6" d="M429.3,227.8c0,9.9-6.3,18.5-15.6,22.8,0,0,0,0,0,0-1.1.5-2.3,1-3.5,1.4-3.2,1.1-6.7,1.6-10.4,1.6,0,0-.3,0-.8,0-15.9-.4-28.7-11.8-28.7-25.9,1.9-1.4,3.9-1.6,3.9-1.6h54.3s.3,0,.7.1c0,.5,0,.9,0,1.4h0Z"/>
    <path class="cls-16" d="M380.9,230.3l-1.3-4,40.9.2-1,4c-.1.4-.5.8-1,.8l-36.7-.2c-.4,0-.8-.3-.9-.7h0Z"/>
    <path class="cls-20" d="M432.5,228.8c-1-1.6-2.4-2.2-3.2-2.4-.4-.1-.7-.1-.7-.1h-54.3s-2,.1-3.9,1.6c-1,.7-2,1.8-2.6,3.4"/>
    <path class="cls-15" d="M390.2,251.9s.3-9.4,10.6-5.4c0,0,7.5-7.1,12.9,4.1,0,0-3,2.2-13.9,3,0,0-6.2,0-9.6-1.7h0Z"/>
    <path class="cls-29" d="M400.8,246.5c-10.3-4-10.6,5.7-10.6,5.7,3.9,1.3,9.6,1.4,9.6,1.4,6.9.2,13.9-3,13.9-3-5.4-11.2-12.9-4.1-12.9-4.1h0Z"/>
    <path class="cls-39" d="M400.1,246.3s1.5.7,3.4,3.4"/>
    <path class="cls-22" d="M429.3,227.8c0,9.9-6.3,18.5-15.6,22.8,0,0,0,0,0,0-1.1.5-2.3,1-3.5,1.4-3.2,1.1-7.2,1.8-10.4,1.6,0,0-.3,0-.8,0-15.9-.4-28.7-11.8-28.7-25.9,1.9-1.4,3.9-1.6,3.9-1.6h54.3s.3,0,.7.1c0,.5,0,.9,0,1.4h0Z"/>
    <path class="cls-6" d="M346.3,272.4c5.3,0,10.6-2.2,14.3-6.1,3.7-3.9,5.6-9.3,5.4-14.6.3,9.2-2.6,18.4-8.1,25.8-3.4,4.5-8.4,3.7-8.4,3.7,0,0-3.2-6.3-3.1-8.7Z"/>
    <path class="cls-6" d="M454.5,272.4c-5.3,0-10.9-2.3-14.6-6.1s-5.6-9.3-5.4-14.6c-.3,9.2,2.2,18.7,8.1,25.8,2.7,3.2,8.8,3.9,8.8,3.9,0,0,3.1-6.5,3-8.9Z"/>
  </g>
  <g id="Calque_12" data-name="Calque 12">
    <g>
      <g>
        <path class="cls-7" d="M541.4,326.6s0,.2-.2.6c-.4,1.2-1.2,4.1-2.4,8,0,0,0,0,0,.1-.2.6-.4,1.1-.6,1.7.3,1.3-23.6,52.8-25.5,55.1-.9,5.9-4.9,26.7-18.8,26.7s-10,.5-16.6-12c-1.6-3-3.2-6.9-4.5-11.7,3.8-.1,7.7-.3,11.6-.7,0,0,.1,0,.2,0,5-.5,9.9-1.2,14.7-2.3l-3.3.4-21.1,2.4-2.1.2h-2.8s-2.8,0-2.8,0h0s-2.8,0-2.8,0h-2.8s-2.1-.3-2.1-.3l-21.1-2.4-3.3-.4c4.8,1.1,9.8,1.8,14.7,2.3,0,0,.1,0,.2,0,3.9.4,7.8.6,11.6.7-1.4,4.8-2.9,8.6-4.5,11.7-6.6,12.5-14.4,12-16.6,12-13.8,0-17.9-20.8-18.8-26.7l-25.5-55.1c-.2-.6-.4-1.2-.6-1.7,0,0,0,0,0-.1-1.2-3.8-2.1-6.7-2.4-8-.1-.4-.2-.6-.2-.6l.3-.6,4.8-8.9.3-.5,30.2-50.7.5-.8.8-.3,4.2-1.3h33s0,0,.1,0h33.1l4.2,1.4.8.3.5.8,30.2,50.7.3.5,4.8,8.9.3.6h0Z"/>
        <path class="cls-8" d="M467.1,353.6v41.6h1.3s.2,0,.2,0h1.3c0,0,4.9-.3,4.9-.3l9.5-.5s.1,0,.2,0l11.5-1.9,3.5-.6c-1.4-25.7-16.9-38.4-32.3-38.3h0Z"/>
        <path class="cls-31" d="M472.7,395.1c1.4,4.8,2.9,8.6,4.5,11.7,6.6,12.5,14.4,12,16.6,12,13.8,0,17.9-20.8,18.8-26.7,1.9-3,24.8-52.8,25.5-55,0,0,0,0,0,0,0,0,0,0,0,0,0-.2.3-.8.6-1.7,0,0,0,0,0-.1.5-1.3,1.2-3.1,1.9-4.7.8-2-.1-6.2-.6-7-1-1.6-3.8-6.5-3.8-6.5l-.3-.5-29-49.2c-.3-.6-.7-1.1-1.2-1.5-.4-.4-.8-.8-1.3-1.1-1.2-.8-2.7-1.3-4.2-1.3,0,0-.2,0-.3,0h-32.9M499.2,392.1c-4.8,1.1-9.8,1.8-14.7,2.3,0,0-.1,0-.2,0-3.9.4-7.8.6-11.6.7"/>
        <path class="cls-26" d="M472.7,395.1c-1.4,0-2.8,0-4.1,0h-.2c-.4,0-.8,0-1.3,0h0c0,0,2.8,0,2.8,0h2.8s0,0,0,0Z"/>
      </g>
      <g>
        <path class="cls-8" d="M467.1,353.6v41.6h-1.3s-.2,0-.2,0h-1.3c0,0-4.9-.3-4.9-.3l-9.5-.5s-.1,0-.2,0l-11.5-1.9-3.5-.6c1.4-25.7,16.9-38.4,32.3-38.3h0Z"/>
        <path class="cls-31" d="M396.1,337.2l25.5,55s-25.5-55.1-25.5-55.2c0-.2-.3-1-.6-1.8,0,0,0,.1,0,.1-.5-1.3-1.3-3.2-1.9-4.8-.4-1-.4-2.4-.3-3.5,0-.4,0-.9.2-1.3.2-.8.5-1.7.9-2.4l3.6-6.2.3-.5,29-49.2c.3-.6.7-1.1,1.2-1.5.4-.4.8-.8,1.3-1.1,1.2-.8,2.7-1.3,4.2-1.3h33.1M461.5,395.1c-1.4,4.8-2.9,8.6-4.5,11.7-6.6,12.5-14.4,12-16.6,12-13.8,0-17.9-20.8-18.8-26.7M435,392.1c4.8,1.1,9.8,1.8,14.7,2.3,0,0,.1,0,.2,0,3.9.4,7.8.6,11.6.7"/>
        <path class="cls-26" d="M461.5,395.1c1.4,0,2.8,0,4.1,0h.2c.4,0,.8,0,1.3,0h0c0,0-2.8,0-2.8,0h-2.8s0,0,0,0Z"/>
      </g>
    </g>
    <ellipse class="cls-19" cx="492.1" cy="301.6" rx="13" ry="15.4"/>
    <ellipse class="cls-6" cx="489.7" cy="302.2" rx="4.1" ry="5.2"/>
    <path class="cls-21" d="M455.1,301.2c0,3.4-1,6.6-2.5,9.2-6.3-.6-12.2,2.5-15.7,4.9-4.6-2.4-7.8-7.8-7.8-14.1s5.8-15.4,13-15.4,13,6.9,13,15.4Z"/>
    <ellipse class="cls-6" cx="444.5" cy="301.9" rx="4.1" ry="5.2"/>
    <path class="cls-20" d="M459.3,312.6c-2.2-1.3-4.5-2-6.8-2.2-6.3-.6-12.2,2.5-15.7,4.9-2,1.4-3.2,2.5-3.2,2.5"/>
    <path class="cls-20" d="M482.2,273.8c.9.2,5.2,3.9,5.2,4.4"/>
    <path class="cls-20" d="M448.6,274.9c2.2-3.6,6.8-2.7,8.5-2"/>
    <path class="cls-21" d="M451.4,322.3s2.9-5.2,10.7,3.6c4.8,5.3,13.4,1.8,17-1.5,8.2-7.5,9,16.8-10.5,16.8s-20.7-14.9-17.2-18.9h0Z"/>
    <line class="cls-20" x1="464.3" y1="327.6" x2="456.4" y2="335.8"/>
    <line class="cls-20" x1="459.3" y1="323" x2="451.6" y2="328.8"/>
    <line class="cls-20" x1="469.3" y1="341.1" x2="468.9" y2="328.6"/>
    <line class="cls-20" x1="479.8" y1="337.3" x2="473" y2="327.8"/>
    <line class="cls-20" x1="484.4" y1="329.2" x2="477.6" y2="325.5"/>
    <path class="cls-7" d="M515.9,347s-18.9,14.4-44.9,13.6c0,0-13.8,2-5,8.7,1.6,1.3,5.4-.3,5.4-.3,0,0-17.1,4.5-13,15.1,1.8,4.4,5.5,2.5,8.8,3.6,0,0,27,7.1,69.2-35.1,4.8-4.8,8.5-19.6,2.2-31.1"/>
    <path class="cls-31" d="M465.5,362.2c-1.2.8-1.9,1.8-2.2,2.8-.4,1.5.3,3.1,1.7,4,.3.2.7.3,1.1.4,2,.4,5-.2,5.5-.3,0,0,0,0,0,0h0c-.2,0-.4.1-.6.2-.2,0-.5.2-.7.2-8.3,3-11.7,6.8-12.5,10.1-.9,3.9,1.9,7.2,4.6,7.7h0c29.3,4.1,58-18.3,72.8-34,4.3-4.6,11.6-18.4,3.6-31.8"/>
    <path class="cls-7" d="M418.7,347s18.9,14.4,44.9,13.6c0,0,13.8,2,5,8.7-1.6,1.3-5.4-.3-5.4-.3,0,0,17.1,4.5,13,15.1-1.8,4.4-5.5,2.5-8.8,3.6,0,0-27,7.1-69.2-35.1-4.8-4.8-9-19.6-2.7-31.1"/>
    <path class="cls-31" d="M522.4,332.5c4.7,14.8-29.3,26.9-39.5,27.5-5.5.3-9.5.7-13.2.9-1.1,0-2,.3-2.8.5-.4.1-.6.2-1.4.6"/>
    <path class="cls-31" d="M469.1,362.4c1.2.8,1.9,1.8,2.2,2.8.4,1.5-.3,3.1-1.7,4-.3.2-.7.3-1.1.4-2,.4-5-.2-5.5-.3,0,0,0,0,0,0h0c.2,0,.4.1.6.2.2,0,.5.2.7.2,8.3,3,11.7,6.8,12.5,10.1.9,3.9-1.9,7.2-4.6,7.7h0c-29.3,4.1-58-18.3-72.8-34-4.3-4.6-11.2-19.5-4-31.9"/>
    <path class="cls-31" d="M412.2,332.7c-4.7,14.8,29.3,26.9,39.5,27.5,5.5.3,9.5.7,13.2.9,1.1,0,2,.3,2.8.5.4.1.6.2,1.4.6"/>
    <path class="cls-32" d="M472.4,360.8s-10.1.6-11.8,4.3c-.5,1-.8,2.5.3,4.3,1.9,3.1,11.8,1.2,12.7.7"/>
    <path class="cls-17" d="M506.4,383.4c5.1-2.4,14.7-9.3,15.8-11.2,2.8-4.6,2.6-5.7,4.7-10.4-8.2,7.7-29.9,23.8-49.4,25.3,6.6.9,20.9-.1,28.8-3.8h0Z"/>
    <path class="cls-17" d="M428.3,383.4c-5.1-2.4-14.7-9.3-15.9-11.2-2.8-4.6-2.6-5.7-4.7-10.4,8.2,7.7,29.9,23.8,49.4,25.3-6.6.9-20.9-.1-28.8-3.8h0Z"/>
  </g>
  <g id="Calque_14" data-name="Calque 14">
    <g>
      <path class="cls-25" d="M342.3,394.9c-3.7.1-7.4.1-10.8,0"/>
      <path class="cls-4" d="M342.3,394.9c1.4,4.8,2.9,8.6,4.5,11.7,6.6,12.5,14.4,12,16.6,12,13.8,0,17.9-20.8,18.8-26.7-.1,3.6,2.9,5.3,5.4,4.1,2-1,3.6-5.5,3.6-5.5-5.2,20.1,6.7,21.2,10.3,17.6,17.5-17.5,5.2-76.5,4.7-78.8,0,0,0,0,0,0-4.1-34.6-33.7-61.4-69.6-61.4s-67,28.3-69.9,64.2c0,0,1.7,55.5,24.8,60.2.6,4.4,4.2,26.4,18.7,26.4s10,.5,16.6-12c1.6-3,3.2-6.9,4.5-11.7M368.9,391.9c-8.6,1.9-17.8,2.8-26.5,3M331.5,395c-15.1-.3-26.4-1.9-26.8-2M382.3,391.9l-50.8,3.1h10.8c0,0-10.8,0-10.8,0l50.8-3.1Z"/>
      <path class="cls-10" d="M304.7,392.8c1.7-51.9,61.6-52.7,64.4-1.1l-15,2.5-15.9.8-19.2-.6-14.3-1.7h0Z"/>
      <path class="cls-30" d="M327,406.6c1.6-3,3.2-6.9,4.5-11.7M342.3,394.9c1.4,4.8,2.9,8.6,4.5,11.7,6.6,12.5,14.4,12,16.6,12,13.8,0,17.9-20.8,18.8-26.7-.1,3.6,2.9,5.3,5.4,4.1,2-1,3.6-5.5,3.6-5.5-5.2,20.1,6.7,21.2,10.3,17.6,17.5-17.5,5.2-76.5,4.7-78.8,0,0,0,0,0,0-4.1-34.6-33.7-61.4-69.6-61.4s-67,28.3-69.9,64.2M368.9,391.9c-8.6,1.9-17.8,2.8-26.5,3M331.5,395c-15.1-.3-26.2-1.9-26.7-2M382.3,391.9l-50.8,3.1h10.8c0,0-10.8,0-10.8,0l50.8-3.1Z"/>
      <path class="cls-34" d="M281.4,353.4c-1.3,4.5-2.4,14.4,2.6,23.3,2.7,4.8,4.6,8.4,6.5,11.6.5.9.9,1.7,1.1,2.5.2.9.2,1.5.2,1.5"/>
      <path class="cls-37" d="M392.6,352.9c1.3,4.5,2.4,14.4-2.6,23.3-2.7,4.8-4.6,8.4-6.5,11.6-.5.9-.8,1.8-1,2.6-.1.5-.2.6-.3,1.5"/>
    </g>
    <g>
      <path class="cls-25" d="M342.3,394.9c-3.7.1-7.4.1-10.8,0"/>
      <path class="cls-4" d="M342.3,394.9c1.4,4.8,2.9,8.6,4.5,11.7,6.6,12.5,14.4,12,16.6,12,13.8,0,17.9-20.8,18.8-26.7-.1,3.6,2.9,5.3,5.4,4.1,2-1,3.6-5.5,3.6-5.5-5.2,20.1,6.7,21.2,10.3,17.6,17.5-17.5,5.2-76.5,4.7-78.8,0,0,0,0,0,0-4.1-34.6-33.7-61.4-69.6-61.4s-67,28.3-69.9,64.2c0,0-8.1,44.3,24.8,60.2.6,4.4,4.2,26.4,18.7,26.4s10,.5,16.6-12c1.6-3,3.2-6.9,4.5-11.7M368.9,391.9c-8.6,1.9-17.8,2.8-26.5,3M331.5,395c-15.1-.3-26.4-1.9-26.8-2M382.3,391.9l-50.8,3.1h10.8c0,0-10.8,0-10.8,0l50.8-3.1Z"/>
      <path class="cls-10" d="M304.7,392.8c1.7-51.9,61.6-52.7,64.4-1.1l-15,2.5-15.9.8-19.2-.6-14.3-1.7h0Z"/>
      <path class="cls-30" d="M342.3,394.9c1.4,4.8,2.9,8.6,4.5,11.7,6.6,12.5,14.4,12,16.6,12,13.8,0,17.9-20.8,18.8-26.7-.1,3.6,2.9,5.3,5.4,4.1,2-1,3.6-5.5,3.6-5.5-5.2,20.1,6.7,21.2,10.3,17.6,17.5-17.5,5.2-76.5,4.7-78.8,0,0,0,0,0,0-4.1-34.6-33.7-61.4-69.6-61.4s-67,28.3-69.9,64.2h0c-6.2,43.9,24.3,62.6,24.8,60.2.6,4.4,4.2,26.4,18.7,26.4s10,.5,16.6-12c1.6-3,3.2-6.9,4.5-11.7M368.9,391.9c-8.6,1.9-17.8,2.8-26.5,3M331.5,395c-15.1-.3-26.2-1.9-26.7-2M331.5,395h10.8c0,0-10.8,0-10.8,0"/>
      <path class="cls-37" d="M392.6,352.9c1.3,4.5,2.4,14.4-2.6,23.3-2.7,4.8-4.6,8.4-6.5,11.6-.5.9-.8,1.8-1,2.6-.1.5-.2.6-.3,1.5"/>
    </g>
    <path class="cls-4" d="M316,349.2c-1.8-1.1-2.7,0-4,.7-2.7,1.3-.5,10.5-4.4,12.1-19,7.7-38.6-26.6-41.9-24.7-3,1.8-8.1,11.2-5.4,26.7,2.2,12.7,45.4,23.6,66.6,15.4h0c.4-.1.7-.3,1.1-.4,0,0,0,0,0,0,.3-.1.6-.3,1-.5,0,0,0,0,.1,0,.3-.1.6-.3.9-.5,0,0,.1,0,.2-.1.3-.1.5-.3.8-.5,0,0,.2-.1.3-.2.2-.1.5-.3.7-.4.3-.2.7-.3.9-.7,4.3-7.4,2.3-9-4.6-14.2-1.8-1.4-7,1.6-9.4-.6-2.4-2.2.8-10-2.8-12.1h0Z"/>
    <path class="cls-38" d="M271.9,335.4c-3.4-2.2-11.9,4.4-12.8,16.8-.9,13.1,2.6,16.9,9,22.2,6.3,5.3,37.4,13.1,58.6,5h0c.4-.1.7-.3,1.1-.4,0,0,0,0,0,0,.3-.1.6-.3,1-.5,0,0,0,0,.1,0,.3-.1.6-.3.9-.5,0,0,.1,0,.2-.1.3-.1.5-.3.8-.5,0,0,.2-.1.3-.2.2-.1.5-.3.7-.4.3-.2.6-.4.9-.7,3.8-3,5-15.4-12.4-14.4-1.6,0-2.9-1.3-2.7-2.9.2-1.3.4-2.8.5-3.8.5-5.1-2.5-7.6-5.7-5.6-4.3,2.7-1.5,11.6-5.6,12.8-15.9,4.8-26.7-1.6-30.7-4.7"/>
    <path class="cls-20" d="M354.8,287.8c2.7-2.3,6.7-.7,7.8,1"/>
    <path class="cls-20" d="M311.3,281.3c2.1-2.8,6.4-2.1,7.8-.8"/>
    <path class="cls-20" d="M312.6,320.7c1.8-3,6.1-2.9,7.6-1.7"/>
    <g>
      <path class="cls-20" d="M317.7,334.1s14.7,24,34.9,2.4"/>
      <path class="cls-20" d="M350,335.2s2.8.9,5,3.6"/>
      <path class="cls-20" d="M320.3,332.5s-2.9.6-5.3,3.1"/>
    </g>
    <path class="cls-20" d="M320.6,298.7s5.5,4.3,1.5,14.8c0,0-5.7-6.9-12.9-4.2-8.2,3.1-5.8,12.2-5.6,13"/>
    <path class="cls-19" d="M370.6,312.4c0,6.3-3.2,11.7-7.8,14.1-.7.4-1.5.3-2.1-.2-4.8-3.8-9-4.7-12.1-4.5-.8,0-1.5-.4-1.9-1-1.3-2.4-2.1-5.2-2.1-8.3,0-8.5,5.8-15.4,13-15.4s13,6.9,13,15.4h0Z"/>
    <ellipse class="cls-6" cx="355.2" cy="313" rx="4.1" ry="5.2"/>
    <path class="cls-9" d="M334.9,373.5c-.9,8-10.3,11.2-16.6,12.8-8.8,2.1-13.1,1.3-22.1.7-2.3-.2-12.7.4-14.1-1.1-6.6-6.6-2.5-2.1-6.2-7.8,15,5.4,30,6.3,45.6,2.9,5.2-1.1,9-2,13.4-7.5Z"/>
  </g>
</svg>