<?xml version="1.0" encoding="UTF-8"?>
<svg xmlns="http://www.w3.org/2000/svg" viewBox="0 0 805.37 564.04">
  <defs>
    <style>
      .cls-1, .cls-2, .cls-3, .cls-4, .cls-5, .cls-6, .cls-7, .cls-8, .cls-9, .cls-10, .cls-11, .cls-12, .cls-13, .cls-14, .cls-15, .cls-16, .cls-17, .cls-18, .cls-19, .cls-20, .cls-21, .cls-22 {
        stroke-width: 0px;
      }

      .cls-1, .cls-23 {
        fill: #1f1f1f;
      }

      .cls-24, .cls-25, .cls-26, .cls-23, .cls-27, .cls-28 {
        stroke: #000;
      }

      .cls-24, .cls-26, .cls-29, .cls-21 {
        fill: #fff;
      }

      .cls-24, .cls-30, .cls-31, .cls-32, .cls-27, .cls-33, .cls-34, .cls-28, .cls-35 {
        stroke-miterlimit: 10;
      }

      .cls-2 {
        fill: #eef1f4;
      }

      .cls-25, .cls-36, .cls-26, .cls-37, .cls-38, .cls-39, .cls-29, .cls-40, .cls-23, .cls-41, .cls-42, .cls-43, .cls-44, .cls-45 {
        stroke-linecap: round;
        stroke-linejoin: round;
      }

      .cls-25, .cls-36, .cls-37, .cls-39, .cls-40, .cls-41, .cls-27, .cls-43, .cls-35, .cls-45 {
        fill: none;
      }

      .cls-3 {
        fill: #454545;
      }

      .cls-36, .cls-30, .cls-44 {
        stroke: #ff9600;
      }

      .cls-37, .cls-38, .cls-31 {
        stroke: #007800;
      }

      .cls-4 {
        fill: #eef1f4;
      }

      .cls-5, .cls-30, .cls-31, .cls-33, .cls-44, .cls-28 {
        fill: #ffc600;
      }

      .cls-38, .cls-9 {
        fill: #00a600;
      }

      .cls-6 {
        fill: #a7a9ab;
      }

      .cls-39, .cls-29, .cls-42, .cls-34 {
        stroke: #00a3ef;
      }

      .cls-7 {
        fill: #ff6d45;
      }

      .cls-40 {
        stroke: #ff8f00;
      }

      .cls-8 {
        fill: #000;
      }

      .cls-10 {
        fill: #abdac0;
      }

      .cls-11 {
        fill: #00bd1e;
      }

      .cls-12 {
        fill: #ff9600;
      }

      .cls-41 {
        stroke: #bf0000;
      }

      .cls-42, .cls-34, .cls-16 {
        fill: #00daff;
      }

      .cls-32 {
        fill: #a7d0e5;
        stroke: #eef1f4;
      }

      .cls-13 {
        fill: #f0e3ab;
      }

      .cls-14 {
        fill: #ffdb00;
      }

      .cls-15 {
        fill: #e9a9b6;
      }

      .cls-33 {
        stroke: #e30000;
      }

      .cls-43 {
        stroke: #ff960e;
      }

      .cls-17 {
        fill: red;
      }

      .cls-18 {
        fill: #00a3ef;
      }

      .cls-19 {
        fill: #00efff;
      }

      .cls-20 {
        fill: #ff316a;
      }

      .cls-35, .cls-45 {
        stroke: #c42351;
      }

      .cls-22 {
        fill: #007800;
      }
    </style>
  </defs>
  <g id="Calque_1" data-name="Calque 1">
    <g id="Calque_9" data-name="Calque 9">
      <rect class="cls-2" width="805.37" height="564.04"/>
      <path class="cls-32" d="M185.81,145.34c-53.94,0-97.66,43.72-97.66,97.66s43.72,97.66,97.66,97.66,97.66-43.72,97.66-97.66-43.72-97.66-97.66-97.66ZM185.81,321.71c-43.47,0-78.7-35.24-78.7-78.7s35.24-78.7,78.7-78.7,78.7,35.24,78.7,78.7-35.24,78.7-78.7,78.7Z"/>
      <g>
        <path class="cls-13" d="M292.57,437.24c-56.88,0-103.16-46.28-103.16-103.16s46.28-103.16,103.16-103.16,103.16,46.28,103.16,103.16-46.28,103.16-103.16,103.16ZM292.57,260.87c-40.36,0-73.2,32.84-73.2,73.2s32.84,73.2,73.2,73.2,73.2-32.84,73.2-73.2-32.84-73.2-73.2-73.2Z"/>
        <path class="cls-4" d="M292.57,236.41c53.94,0,97.66,43.72,97.66,97.66s-43.72,97.66-97.66,97.66-97.66-43.72-97.66-97.66,43.72-97.66,97.66-97.66M292.57,412.78c43.47,0,78.7-35.24,78.7-78.7s-35.24-78.7-78.7-78.7-78.7,35.24-78.7,78.7,35.24,78.7,78.7,78.7M292.57,225.41c-29.02,0-56.31,11.3-76.84,31.83-20.52,20.52-31.83,47.81-31.83,76.84s11.3,56.31,31.83,76.84c20.52,20.52,47.81,31.83,76.84,31.83s56.31-11.3,76.84-31.83c20.52-20.52,31.83-47.81,31.83-76.84s-11.3-56.31-31.83-76.84c-20.52-20.52-47.81-31.83-76.84-31.83h0ZM292.57,401.78c-37.33,0-67.7-30.37-67.7-67.7s30.37-67.7,67.7-67.7,67.7,30.37,67.7,67.7-30.37,67.7-67.7,67.7h0Z"/>
      </g>
      <g>
        <path class="cls-6" d="M401.77,339.58c-56.88,0-103.16-46.28-103.16-103.16s46.28-103.16,103.16-103.16,103.16,46.28,103.16,103.16-46.28,103.16-103.16,103.16ZM401.77,163.21c-40.36,0-73.2,32.84-73.2,73.2s32.84,73.2,73.2,73.2,73.2-32.84,73.2-73.2-32.84-73.2-73.2-73.2Z"/>
        <path class="cls-4" d="M401.77,138.75c53.94,0,97.66,43.72,97.66,97.66s-43.72,97.66-97.66,97.66-97.66-43.72-97.66-97.66,43.72-97.66,97.66-97.66M401.77,315.12c43.47,0,78.7-35.24,78.7-78.7s-35.24-78.7-78.7-78.7-78.7,35.24-78.7,78.7,35.24,78.7,78.7,78.7M401.77,127.75c-29.02,0-56.31,11.3-76.84,31.83-20.52,20.52-31.83,47.81-31.83,76.84s11.3,56.31,31.83,76.84c20.52,20.52,47.81,31.83,76.84,31.83s56.31-11.3,76.84-31.83c20.52-20.52,31.83-47.81,31.83-76.84s-11.3-56.31-31.83-76.84c-20.52-20.52-47.81-31.83-76.84-31.83h0ZM401.77,304.12c-37.33,0-67.7-30.37-67.7-67.7s30.37-67.7,67.7-67.7,67.7,30.37,67.7,67.7-30.37,67.7-67.7,67.7h0Z"/>
      </g>
      <g>
        <path class="cls-10" d="M511.72,437.24c-56.88,0-103.16-46.28-103.16-103.16s46.28-103.16,103.16-103.16,103.16,46.28,103.16,103.16-46.28,103.16-103.16,103.16ZM511.72,260.87c-40.36,0-73.2,32.84-73.2,73.2s32.84,73.2,73.2,73.2,73.2-32.84,73.2-73.2-32.84-73.2-73.2-73.2Z"/>
        <path class="cls-4" d="M511.72,236.41c53.94,0,97.66,43.72,97.66,97.66s-43.72,97.66-97.66,97.66-97.66-43.72-97.66-97.66,43.72-97.66,97.66-97.66M511.72,412.78c43.47,0,78.7-35.24,78.7-78.7s-35.24-78.7-78.7-78.7-78.7,35.24-78.7,78.7,35.24,78.7,78.7,78.7M511.72,225.41c-29.02,0-56.31,11.3-76.84,31.83-20.52,20.52-31.83,47.81-31.83,76.84s11.3,56.31,31.83,76.84c20.52,20.52,47.81,31.83,76.84,31.83s56.31-11.3,76.84-31.83c20.52-20.52,31.83-47.81,31.83-76.84s-11.3-56.31-31.83-76.84c-20.52-20.52-47.81-31.83-76.84-31.83h0ZM511.72,401.78c-37.33,0-67.7-30.37-67.7-67.7s30.37-67.7,67.7-67.7,67.7,30.37,67.7,67.7-30.37,67.7-67.7,67.7h0Z"/>
      </g>
      <g>
        <path class="cls-15" d="M615.78,346.17c-56.88,0-103.16-46.28-103.16-103.16s46.28-103.16,103.16-103.16,103.16,46.28,103.16,103.16-46.28,103.16-103.16,103.16ZM615.78,169.8c-40.36,0-73.2,32.84-73.2,73.2s32.84,73.2,73.2,73.2,73.2-32.84,73.2-73.2-32.84-73.2-73.2-73.2Z"/>
        <path class="cls-4" d="M615.78,145.34c53.94,0,97.66,43.72,97.66,97.66s-43.72,97.66-97.66,97.66-97.66-43.72-97.66-97.66,43.72-97.66,97.66-97.66M615.78,321.71c43.47,0,78.7-35.24,78.7-78.7s-35.24-78.7-78.7-78.7-78.7,35.24-78.7,78.7,35.24,78.7,78.7,78.7M615.78,134.34c-29.02,0-56.31,11.3-76.84,31.83-20.52,20.52-31.83,47.81-31.83,76.84s11.3,56.31,31.83,76.84c20.52,20.52,47.81,31.83,76.84,31.83s56.31-11.3,76.84-31.83c20.52-20.52,31.83-47.81,31.83-76.84s-11.3-56.31-31.83-76.84c-20.52-20.52-47.81-31.83-76.84-31.83h0ZM615.78,310.71c-37.33,0-67.7-30.37-67.7-67.7s30.37-67.7,67.7-67.7,67.7,30.37,67.7,67.7-30.37,67.7-67.7,67.7h0Z"/>
      </g>
    </g>
  </g>
  <g id="Calque_13" data-name="Calque 13">
    <g id="Calque_2" data-name="Calque 2">
      <path class="cls-16" d="M329.29,308.2c-.06.41-.14.9-.23,1.45-1.26,7.23-5.69,25.22-18.55,25.22-1.62,0-6.09.25-10.93-4.3-.35-.32-.71-.66-1.05-1.03-.17-.18-.35-.37-.52-.57-1.38-1.58-2.77-3.58-4.11-6.12-1.62-3.05-3.16-6.88-4.54-11.69h-.15l-5.08.03h-.75v-125.71h.75c18.02.03,48.45.68,54.62,7.8.27.31.52.64.76.98.02.02.04.05.05.08,1.64,2.39,2.51,5.52,3.18,9.94,0,.02.01.05.01.09.61,4.04,1.04,9.16,1.73,15.79.01.02.01.03.01.05.2,2.05.44,4.24.71,6.59v.03c.02.2.05.41.07.61.3,2.55,1.4,36.46-3.24,63.22-.44,2.55-3.52,12.56-4.42,14.8-.98,2.46-7.57,4.37-8.32,2.74Z"/>
      <path class="cls-19" d="M283.38,269.44v41.51h.34s.66.03.66.03h.31l.78.04h.22s.77-.04.77-.04h.24s.34-.03.34-.03l4.76-.25,8.87-.73.33-.02.43.12h.03l.27.09,2.32-.38s.02-.01.03-.01l9.14-1.51,3.32-.55c-1.39-26.14-17.43-38.84-33.16-38.27Z"/>
      <path class="cls-39" d="M288.11,310.97v.06c-1.6.01-3.17.01-4.73,0v-.04h1s2.08-.01,2.08-.01h.24s1.41-.01,1.41-.01Z"/>
      <path class="cls-39" d="M283.38,185.25h.38c15.05,0,21.76.77,29.87,1.26,6.17.37,11.58,1.15,21.86,4.18,6.6,1.95,8.15,16.79,9.02,29.86,0,.02,0,0,0,.03,2.8,42.28-1.24,69.29-5.5,82.22-2.29,6.95-10.04,5.43-10.04,5.43,0,0-4.22,26.41-18.69,26.41-2.25,0-9.98.48-16.59-11.98-1.61-3.05-3.16-6.86-4.54-11.66h0"/>
      <path class="cls-39" d="M316.64,308.38s-.05.01-.1.02c-.07,0-.17.02-.3.04-.22.03-.54.07-.93.12-.38.05-.83.1-1.35.17-.21.02-.43.05-.67.08-1.21.14-2.73.3-4.5.47-.28.03-.56.05-.85.08-.31.03-.63.06-.96.09-1.3.11-5.06.61-6.58.72-.06,0-.13.01-.2.01-.01,0-.02,0-.04,0h-.07c-3.66.25-7.39.71-11.98.8"/>
      <path class="cls-16" d="M238.49,308.2c.06.41.14.9.23,1.45,1.26,7.23,5.69,25.22,18.55,25.22,1.62,0,6.09.25,10.93-4.3.35-.32.71-.66,1.05-1.03.17-.18.35-.37.52-.57,1.38-1.58,2.77-3.58,4.11-6.12,1.62-3.05,3.16-6.88,4.54-11.69h.15l5.08.03h.75v-125.71h-.75c-18.02.03-48.45.68-54.62,7.8-.27.31-.52.64-.76.98-.02.02-.04.05-.05.08-1.64,2.39-2.51,5.52-3.18,9.94,0,.02-.01.05-.01.09-.61,4.04-1.04,9.16-1.73,15.79-.01.02-.01.03-.01.05-.2,2.05-.44,4.24-.71,6.59v.03c-.02.2-.05.41-.07.61-.32,2.75-.54,34.7.33,62.79.22,7.22,2.49,12.59,5.63,14.97,2.6,1.97,8.72,4.63,10.03,3Z"/>
      <path class="cls-19" d="M284.4,269.44v41.51h-.34s-.66.03-.66.03h-.31l-.78.04h-.22s-.77-.04-.77-.04h-.24s-.34-.03-.34-.03l-4.76-.25-8.87-.73-.33-.02-.43.12h-.03l-.27.09-2.32-.38s-.02-.01-.03-.01l-9.14-1.51-3.32-.55c1.39-26.14,17.43-38.84,33.16-38.27Z"/>
      <path class="cls-39" d="M279.67,310.97v.06c1.6.01,3.17.01,4.73,0v-.04h-1s-2.08-.01-2.08-.01h-.24s-1.41-.01-1.41-.01Z"/>
      <path class="cls-39" d="M284.4,185.25h-.38c-15.05,0-21.75.77-29.86,1.26-6.17.37-11.59,1.15-21.87,4.18-6.6,1.95-8.15,16.79-9.02,29.86,0,.02,0,0-.01.03-.99,15-1.51,49.93-.82,64.67.11,2.27.6,12.85,4.26,17.95,4.79,6.67,12.09,5.03,12.09,5.03,0,0,4.22,26.41,18.69,26.41,2.25,0,9.98.48,16.59-11.98,1.61-3.05,3.16-6.86,4.54-11.66h0"/>
      <path class="cls-39" d="M251.14,308.37s.05.01.1.02c.07,0,.17.02.3.04.22.03.54.07.93.12.38.05.83.1,1.35.17.21.02.43.05.67.08,1.21.14,2.73.3,4.5.47.28.03.56.05.85.08.31.03.63.06.96.09,1.3.11,5.06.61,6.58.72.06,0,.13.01.2.01,0,0,.02,0,.04,0h.07c3.66.25,7.39.71,11.98.8"/>
      <ellipse class="cls-24" cx="306.68" cy="225.94" rx="13" ry="15.38"/>
      <ellipse class="cls-8" cx="304.3" cy="226.57" rx="4.12" ry="5.25"/>
      <ellipse class="cls-24" cx="257.18" cy="225.94" rx="13" ry="15.38"/>
      <ellipse class="cls-8" cx="259.55" cy="226.57" rx="4.12" ry="5.25"/>
      <path class="cls-25" d="M302.23,201.73c4.29-4.02,9.2-1.26,9.69.19"/>
      <path class="cls-25" d="M255.68,199.14c3.3-3.1,7.58-2.57,9.44-1.52"/>
      <g>
        <path class="cls-25" d="M252.33,248.33s25.5,16.13,64.82,3.38"/>
        <path class="cls-25" d="M312.32,249.43s4.75,1.42,7.57,4.57"/>
        <path class="cls-25" d="M256.7,246.34s-4.75,1.42-7.57,4.57"/>
      </g>
    </g>
    <path class="cls-42" d="M342.03,229.99s45.12,24.58,19.06,50.63c0,0,7.23,18.96-12.03,18.88"/>
    <path class="cls-39" d="M361.09,280.62c-2.97,2.34-5.93,4.68-8.9,7.02"/>
    <path class="cls-29" d="M349.76,266.61l-3.75,4.51-.57-13.45s6.54,6.1,4.31,8.94Z"/>
    <path class="cls-34" d="M349.27,299.52s-19.11-.41-12.55-16.83c1.38-3.46,9.46-11.71,9.46-11.71"/>
    <path class="cls-42" d="M226.01,229.99s-45.12,24.58-19.06,50.63c0,0-7.23,18.96,12.03,18.88"/>
    <path class="cls-39" d="M206.95,280.62c2.97,2.34,5.93,4.68,8.9,7.02"/>
    <path class="cls-29" d="M218.28,266.61l3.75,4.51.57-13.45s-6.54,6.1-4.31,8.94Z"/>
    <path class="cls-34" d="M218.77,299.52s18.82-.3,12.55-16.83c-2.05-5.41-9.46-11.71-9.46-11.71"/>
    <path class="cls-18" d="M227.37,303.32c3.63.24,7.54-3.71,7.97-6.29,1.07-6.5-2-11.92-3.76-15.1,1.02,2.54,1.1,9.31-.22,11.71s-3.67,4.6-6.36,5.1c.69,1.63,1.37,3.26,2.37,4.59Z"/>
    <path class="cls-18" d="M334.85,302.88c-5.45-3.33.4-17.08.4-17.08,0,0-.19,4.04.99,7.19.96,2.56,1.52,2.98,4.33,4.43-.34.81-1.41,4.99-1.41,4.99,0,0-1.57,2.14-4.3.47Z"/>
    <path class="cls-18" d="M345.6,257.27s-2.1-2.84-8.77-5.48c3.66,9.8,3.96,18.92-.38,30.33,5.41-5.41,9.73-11.15,9.73-11.15l-.58-13.7Z"/>
  </g>
  <g id="Calque_11" data-name="Calque 11">
    <g>
      <path class="cls-33" d="M525.52,311.05c-3.74.12-7.38.13-10.84.06"/>
      <path class="cls-17" d="M525.52,311.05c1.38,4.81,2.92,8.64,4.54,11.69,6.61,12.5,14.36,12.02,16.61,12.02,13.84,0,17.91-20.82,18.78-26.67-.07,2.42,15.09,6.61,20.04-12.06,3.31-12.47.27-47.72.26-47.74-9.59-35.54-37.78-90.04-63.91-90.24-27.08-1.73-60.56,50.13-71.74,90.09-4.46,15.95-9.53,60.52,5.37,76.65,3.46,3.75,15.5,2.54,10.34-17.58,0,0,1.59,4.55,3.62,5.5,2.58,1.21,5.67-.63,5.42-4.35.59,4.44,4.22,26.41,18.69,26.41,2.25,0,9.98.48,16.59-11.98,1.61-3.05,3.16-6.87,4.54-11.67M552.03,308.03c-8.61,1.9-17.82,2.75-26.51,3.02M514.68,311.11c-15.1-.28-26.36-1.92-26.8-1.98M565.46,308.04,514.68,311.11l10.84-.06-10.84.06Z"/>
      <path class="cls-7" d="M487.88,308.89c1.71-51.87,61.65-52.71,64.4-1.06l-15.05,2.49-15.91.83-19.19-.59-14.26-1.67Z"/>
      <path class="cls-41" d="M525.52,311.06c1.38,4.81,2.92,8.64,4.54,11.69,6.61,12.5,14.36,12.02,16.61,12.02,13.84,0,17.91-20.82,18.78-26.67-.06,1.79,9.61,4.38,15.97-2.85,6.36-7.23,5.62-21.4,4.35-56.89,0,0,0,.02,0,0-10.55-37.53-36.75-90.38-65.63-90.38-27.3,0-61.93,57.11-70.02,90.16,0,0,0-.01,0-.01-3.98,16.26-11.03,60.26,5.37,76.66,3.61,3.6,15.5,2.54,10.34-17.58,0,0,1.59,4.55,3.62,5.5,2.58,1.21,5.67-.63,5.42-4.35.59,4.44,4.22,26.41,18.69,26.41,2.25,0,9.98.48,16.59-11.98,1.61-3.05,3.16-6.87,4.54-11.67M552.03,308.03c-8.61,1.9-17.82,2.75-26.51,3.02M514.68,311.11c-15.1-.28-26.25-1.91-26.69-1.97M565.46,308.04,514.68,311.11l10.84-.06-10.84.06Z"/>
      <path class="cls-41" d="M464.53,269.53c-1.29,4.46-2.39,14.43,2.58,23.26,2.7,4.78,4.62,8.35,6.45,11.61.49.87.91,1.67,1.09,2.45.21.92.21,1.46.21,1.46"/>
    </g>
    <path class="cls-25" d="M542.47,185.34c5.88.19,5.92,5.01,5.97,5.48"/>
    <path class="cls-25" d="M494.66,188.96c2.1-4.01,6.32-4.92,8.42-4.54"/>
    <path class="cls-24" d="M543.07,199.24c-7.18,0-13,6.88-13,15.37,0,4.55,1.67,8.63,4.32,11.45.15.16.34.26.56.3,1.85.33,11.03,1.97,12.93,2.31.23.04.46,0,.66-.1,4.45-2.43,7.54-7.77,7.54-13.95,0-8.49-5.82-15.37-13-15.37Z"/>
    <path class="cls-8" d="M503.3,234.32s-.32,14.01,6.47,16.69c4.5,1.77,11.34,1.92,14.5,2.01,2.89.08,7.6.18,10.87-7.48,2.73-6.37,4.81-11.31,4.81-11.31,0,0-9.06,2.35-12,2.55-3.56.25-10.72-.36-14.24-.91-2.63-.41-10.41-1.54-10.41-1.54Z"/>
    <ellipse class="cls-8" cx="540.69" cy="215.24" rx="4.12" ry="5.25"/>
    <path class="cls-24" d="M496.19,199.24c7.18,0,13,6.88,13,15.37,0,4.55-1.67,8.63-4.32,11.45-.15.16-.34.26-.56.3-1.85.33-11.03,1.97-12.93,2.31-.23.04-.46,0-.66-.1-4.45-2.43-7.54-7.77-7.54-13.95,0-8.49,5.82-15.37,13-15.37Z"/>
    <ellipse class="cls-8" cx="498.57" cy="215.24" rx="4.12" ry="5.25"/>
    <path class="cls-21" d="M508.2,240.05l-.82-5.18,5.47,1.47,8.04.43,8.21-.19,3.87-.69-.71,4.39c-.07.58-.32.98-.61.98l-22.86-.31c-.27,0-.5-.36-.59-.89Z"/>
    <path class="cls-25" d="M500.15,233.72s21.36,6.51,39.61.33"/>
    <path class="cls-25" d="M538.49,231.54s.51,2.31,3.24,4.34"/>
    <path class="cls-17" d="M576.07,235.21s12.57-13.06,5.17-37.96c0,0-1.69-13.86,7.15-7.05,1.64,1.26,1.06,5.28,1.06,5.28,0,0-.05-17.73,11.2-16.41,4.71.55,3.85,4.65,5.73,7.53,0,0,10.5,26.82-22.29,72.62"/>
    <g>
      <path class="cls-41" d="M581.28,191.53c.41-1.38,1.2-2.32,2.14-2.84,1.38-.76,3.09-.56,4.31.58.26.24.48.57.66.94.94,1.85,1.07,4.91,1.08,5.35,0,.02,0,.03,0,.04h0c.01-.18.03-.39.05-.58,0-.25.03-.48.05-.72.78-8.81,3.53-13.05,6.51-14.63,3.55-1.89,7.41,0,8.65,2.42h0c12.94,27.96-17.91,72.48-18.88,74.66"/>
      <path class="cls-41" d="M576.57,233.72c2.61-3.84,9.23-14.86,7.23-24.79-1.09-5.39-1.82-9.38-2.55-13.03-.21-1.06-.22-2-.19-2.8.02-.46.05-.66.19-1.47"/>
    </g>
  </g>
  <g id="Calque_10" data-name="Calque 10">
    <g>
      <path class="cls-28" d="M407.01,310.56c-3.74.12-7.38.13-10.84.06"/>
      <path class="cls-1" d="M407.01,310.56c1.38,4.81,2.92,8.64,4.54,11.69,6.61,12.5,14.36,12.02,16.61,12.02,13.84,0,17.91-20.82,18.78-26.67-.11,3.58,20.16-53.45,22.44-60.08.02-.05-.01-.07-.01-.07.94-2.38,8.22-20.63,6.2-25.39-2.16-5.09-15.31-12.41-32.28-26.22-10.18-8.29-8.93-6.01-29.84-23.04-4.12-3.36-8.38-7.31-12.06-7.34-3.3-.03-5.53,2.78-9.2,5.3-6.82,4.69-15.63,11.41-24.35,18.42-11,8.85-21.58,15.99-28.7,21.71-6.71,5.4-10.85,6.61-12.56,10.29-2.3,4.97,4.51,20.52,11.45,40.19,5.97,16.92,18.32,46.48,18.32,46.48,0,0,4.22,26.41,18.69,26.41,2.25,0,9.98.48,16.59-11.98,1.61-3.05,3.16-6.87,4.54-11.67M433.52,307.54c-8.61,1.9-17.82,2.75-26.51,3.02M396.17,310.62c-15.1-.28-26.36-1.92-26.8-1.98M446.95,307.55,396.17,310.62l10.84-.06-10.84.06Z"/>
      <path class="cls-3" d="M369.37,308.4c1.71-51.87,61.65-52.71,64.4-1.06l-15.05,2.49-15.91.83-19.19-.59-14.26-1.67Z"/>
      <path class="cls-25" d="M407.01,310.56c1.38,4.81,2.92,8.64,4.54,11.69,6.61,12.5,14.36,12.02,16.61,12.02,13.84,0,17.91-20.82,18.78-26.67-.12,3.75,27.1-75.33,28.8-81.07.82-2.77-.15-5.76-2.44-7.52l-67.48-52.09c-2.5-1.93-5.98-1.95-8.5-.04l-68.81,52.06c-2.44,1.85-3.4,5.07-2.36,7.95,2.73,7.6,30.21,80.98,30.21,80.98,0,0,4.22,26.41,18.69,26.41,2.25,0,9.98.48,16.59-11.98,1.61-3.05,3.16-6.87,4.54-11.67M433.52,307.54c-8.61,1.9-17.82,2.75-26.51,3.02M396.17,310.62c-15.1-.28-26.25-1.91-26.69-1.97M446.95,307.55,396.17,310.62l10.84-.06-10.84.06Z"/>
    </g>
    <path class="cls-23" d="M468.85,244.44c7.34,3.35,7.16,16.74,4.49,24.36-2.67,7.61-8.75,16.13-21.5,14.02-13.59-2.25-15.29-12.64-16.2-20.66-.91-8.02.86-19.38,5.91-20.97,13.38-4.23,11.29,12.26,11.58,15.47.29,3.21,2.87,6.75,6.02,6.04"/>
    <path class="cls-23" d="M333.64,244.44c-7.34,3.35-7.16,16.74-4.49,24.36s8.75,16.13,21.5,14.02c13.59-2.25,15.29-12.64,16.2-20.66.91-8.02-.86-19.38-5.91-20.97-13.38-4.23-11.29,12.26-11.58,15.47s-2.87,6.75-6.02,6.04"/>
    <ellipse class="cls-24" cx="426.48" cy="215.49" rx="13" ry="16.5"/>
    <ellipse class="cls-8" cx="424.1" cy="217.24" rx="4.12" ry="5.25"/>
    <ellipse class="cls-24" cx="376.98" cy="215.49" rx="13" ry="16.5"/>
    <ellipse class="cls-8" cx="379.35" cy="217.24" rx="4.12" ry="5.25"/>
    <path class="cls-25" d="M415.66,189.78c2.77-2.6,6.6-2.12,8.95-.2"/>
    <path class="cls-25" d="M379.6,189.78c3.3-3.1,6.83-2.2,8.69-1.15"/>
    <path class="cls-8" d="M430.29,238.86c0,9.9-6.33,18.49-15.63,22.84,0,0-.01.01-.05.03-1.11.52-2.27.98-3.47,1.37-3.22,1.06-6.71,1.64-10.35,1.64,0,0-.3,0-.8-.02-15.92-.36-28.69-11.79-28.7-25.85,1.93-1.44,3.94-1.55,3.94-1.55h54.29s.29.01.72.12c.04.47.05.94.05,1.42Z"/>
    <path class="cls-21" d="M381.9,241.33l-1.31-4,40.94.2-1,3.97c-.11.45-.52.76-.98.76l-36.71-.24c-.43,0-.81-.28-.94-.69Z"/>
    <path class="cls-25" d="M433.46,239.86c-.95-1.63-2.37-2.21-3.22-2.42-.43-.11-.72-.12-.72-.12h-54.29s-2.01.11-3.94,1.55c-.99.73-1.97,1.8-2.64,3.39"/>
    <path class="cls-20" d="M391.19,263.03s.28-9.37,10.6-5.41c0,0,7.49-7.15,12.88,4.09,0,0-2.96,2.18-13.87,3.04,0,0-6.21-.04-9.6-1.72Z"/>
    <path class="cls-35" d="M401.79,257.62c-10.31-3.96-10.6,5.72-10.6,5.72,3.9,1.33,9.6,1.41,9.6,1.41,6.91.25,13.87-3.04,13.87-3.04-5.39-11.24-12.88-4.09-12.88-4.09Z"/>
    <path class="cls-45" d="M401.06,257.36s1.47.66,3.44,3.44"/>
    <path class="cls-27" d="M430.29,238.86c0,9.9-6.33,18.49-15.63,22.84,0,0-.01.01-.05.03-1.11.52-2.27.98-3.47,1.37-3.22,1.06-7.21,1.77-10.35,1.64,0,0-.3,0-.8-.02-15.92-.36-28.69-11.79-28.7-25.85,1.93-1.44,3.94-1.55,3.94-1.55h54.29s.29.01.72.12c.04.47.05.94.05,1.42Z"/>
    <path class="cls-8" d="M347.32,283.44c5.33.02,10.62-2.24,14.29-6.1,3.67-3.86,5.65-9.27,5.36-14.58.32,9.17-2.61,18.42-8.12,25.76-3.38,4.5-8.38,3.66-8.38,3.66,0,0-3.22-6.27-3.15-8.74Z"/>
    <path class="cls-8" d="M455.52,283.49c-5.33.02-10.92-2.29-14.59-6.15s-5.65-9.27-5.36-14.58c-.32,9.17,2.2,18.74,8.12,25.76,2.68,3.19,8.83,3.91,8.83,3.91,0,0,3.07-6.47,3-8.94Z"/>
  </g>
  <g id="Calque_12" data-name="Calque 12">
    <g>
      <g>
        <path class="cls-9" d="M542.38,337.7s-.06.23-.17.65c-.36,1.23-1.2,4.13-2.44,7.95-.01.04-.03.08-.04.11-.18.56-.38,1.13-.58,1.73.28,1.33-23.63,52.77-25.54,55.1-.87,5.85-4.94,26.67-18.78,26.67-2.25,0-10,.48-16.61-12.02-1.62-3.05-3.16-6.88-4.54-11.69,3.81-.11,7.71-.34,11.62-.74.05,0,.1,0,.16-.01,4.96-.48,9.94-1.21,14.73-2.27l-3.27.37-21.15,2.41-2.09.24-2.77.02h-2.81v.02h-2.81s-2.77-.03-2.77-.03l-2.09-.24-21.15-2.41-3.27-.37c4.79,1.06,9.77,1.79,14.73,2.27.06,0,.11.02.16,0,3.91.4,7.81.63,11.62.74-1.38,4.81-2.92,8.64-4.54,11.69-6.61,12.5-14.36,12.02-16.61,12.02-13.84,0-17.91-20.82-18.78-26.67l-25.54-55.1c-.2-.6-.4-1.17-.58-1.73-.01-.03-.03-.07-.04-.11-1.24-3.82-2.08-6.72-2.44-7.95-.11-.42-.17-.65-.17-.65l.33-.61,4.77-8.92.27-.46,30.23-50.73.5-.83.81-.26,4.23-1.34h33s.05-.01.14-.02h33.14s4.23,1.35,4.23,1.35l.81.26.5.83,30.23,50.73.27.46,4.77,8.92.33.61Z"/>
        <path class="cls-11" d="M468.09,364.68v41.57l1.26.04h.22s1.33-.07,1.33-.07l4.86-.26,9.53-.5s.1,0,.16-.01l11.46-1.9,3.52-.58c-1.37-25.68-16.88-38.38-32.34-38.29Z"/>
        <path class="cls-37" d="M473.67,406.2c1.38,4.81,2.92,8.64,4.54,11.69,6.61,12.5,14.36,12.02,16.61,12.02,13.84,0,17.91-20.82,18.78-26.67,1.92-3.01,24.84-52.83,25.51-55,.01-.05,0-.07,0-.07,0-.01,0-.04.02-.09.05-.23.28-.84.6-1.67,0-.03.03-.07.04-.11.51-1.31,1.23-3.1,1.87-4.68.82-2.01-.12-6.24-.57-7-.96-1.62-3.79-6.45-3.79-6.45l-.27-.46-29.05-49.19c-.33-.56-.73-1.08-1.18-1.54-.4-.41-.84-.77-1.31-1.09-1.24-.82-2.7-1.3-4.23-1.34-.09-.01-.18-.01-.27-.01h-32.87M500.18,403.18c-4.79,1.06-9.77,1.79-14.73,2.27-.06.01-.11.02-.16.01-3.91.4-7.81.63-11.62.74"/>
        <path class="cls-31" d="M473.67,406.2c-1.38.04-2.75.07-4.1.08h-.1s-.12,0-.12,0c-.42,0-.84.01-1.26,0v-.06h2.81s2.77-.03,2.77-.03Z"/>
      </g>
      <g>
        <path class="cls-11" d="M468.09,364.68v41.57l-1.26.04h-.22s-1.33-.07-1.33-.07l-4.86-.26-9.53-.5s-.1,0-.16-.01l-11.46-1.9-3.52-.58c1.37-25.68,16.88-38.38,32.34-38.29Z"/>
        <path class="cls-37" d="M397.07,348.24s25.51,55,25.51,55c0,0-25.5-55.11-25.52-55.16-.05-.23-.32-.95-.64-1.78,0-.03.05.15.04.11-.51-1.31-1.27-3.21-1.91-4.79-.43-1.05-.37-2.42-.33-3.52,0-.42.07-.85.16-1.26.17-.84.48-1.66.93-2.42l3.6-6.25.27-.46,29.05-49.19c.33-.56.73-1.08,1.18-1.54.4-.41.84-.77,1.31-1.09,1.24-.82,2.7-1.3,4.23-1.34.09,0,.18,0,.27,0h32.87M462.51,406.2c-1.38,4.81-2.92,8.64-4.54,11.69-6.61,12.5-14.36,12.02-16.61,12.02-13.84,0-17.91-20.82-18.78-26.67M436,403.18c4.79,1.06,9.77,1.79,14.73,2.27.06,0,.11.02.16,0,3.91.4,7.81.63,11.62.74"/>
        <path class="cls-31" d="M462.51,406.2c1.38.04,2.75.07,4.1.08h.1s.12,0,.12,0c.42,0,.84.01,1.26,0v-.06h-2.81s-2.77-.03-2.77-.03Z"/>
      </g>
    </g>
    <ellipse class="cls-24" cx="493.09" cy="312.64" rx="13" ry="15.37"/>
    <ellipse class="cls-8" cx="490.72" cy="313.26" rx="4.12" ry="5.25"/>
    <path class="cls-26" d="M456.1,312.3c0,3.44-.95,6.6-2.55,9.16-6.3-.57-12.21,2.55-15.69,4.91-4.57-2.38-7.76-7.78-7.76-14.07,0-8.49,5.82-15.37,13-15.37s13,6.88,13,15.37Z"/>
    <ellipse class="cls-8" cx="445.47" cy="312.93" rx="4.12" ry="5.25"/>
    <path class="cls-25" d="M460.31,323.64c-2.24-1.33-4.52-1.99-6.76-2.18-6.3-.57-12.21,2.55-15.69,4.91-2,1.35-3.19,2.45-3.19,2.45"/>
    <path class="cls-25" d="M483.19,284.84c.86.2,5.25,3.86,5.2,4.39"/>
    <path class="cls-25" d="M449.59,285.97c2.18-3.56,6.78-2.7,8.52-1.96"/>
    <path class="cls-26" d="M452.39,333.33s2.93-5.18,10.72,3.57c4.75,5.34,13.36,1.83,16.98-1.49,8.16-7.5,8.97,16.82-10.48,16.82-12.33,0-20.67-14.94-17.22-18.89Z"/>
    <line class="cls-25" x1="465.3" y1="338.64" x2="457.42" y2="346.9"/>
    <line class="cls-25" x1="460.29" y1="334.13" x2="452.56" y2="339.9"/>
    <line class="cls-25" x1="470.24" y1="352.22" x2="469.88" y2="339.64"/>
    <line class="cls-25" x1="480.82" y1="348.36" x2="474" y2="338.88"/>
    <line class="cls-25" x1="485.36" y1="340.31" x2="478.54" y2="336.63"/>
    <path class="cls-9" d="M516.85,358.07s-18.92,14.35-44.88,13.65c0,0-13.83,1.95-4.96,8.73,1.64,1.26,5.38-.34,5.38-.34,0,0-17.14,4.54-12.96,15.06,1.75,4.4,5.49,2.51,8.75,3.59,0,0,27.05,7.06,69.24-35.12,4.77-4.77,8.47-19.57,2.16-31.14"/>
    <path class="cls-37" d="M466.45,373.23c-1.23.75-1.94,1.76-2.19,2.8-.38,1.53.26,3.13,1.67,4.02.3.19.67.32,1.08.4,2.03.43,5.02-.24,5.45-.34.02,0,.03,0,.04-.01h.01c-.19.06-.38.13-.56.2-.24.07-.46.16-.68.24-8.31,3.03-11.69,6.78-12.45,10.08-.91,3.91,1.91,7.16,4.57,7.73h0c29.27,4.07,57.95-18.26,72.8-34.05,4.29-4.57,11.62-18.42,3.62-31.8"/>
    <path class="cls-9" d="M419.67,358.07s18.92,14.35,44.88,13.65c0,0,13.83,1.95,4.96,8.73-1.64,1.26-5.38-.34-5.38-.34,0,0,17.14,4.54,12.96,15.06-1.75,4.4-5.49,2.51-8.75,3.59,0,0-27.05,7.06-69.24-35.12-4.77-4.77-9.05-19.57-2.74-31.14"/>
    <path class="cls-37" d="M523.36,343.62c4.66,14.76-29.34,26.91-39.45,27.55-5.49.34-9.53.67-13.25.9-1.08.07-1.99.31-2.75.54-.44.14-.62.22-1.37.57"/>
    <path class="cls-37" d="M470.07,373.42c1.23.75,1.94,1.76,2.19,2.8.38,1.53-.26,3.13-1.67,4.02-.3.19-.67.32-1.08.4-2.03.43-5.02-.24-5.45-.34-.02,0-.03,0-.04-.01h-.01c.19.06.38.13.56.2.24.07.46.16.68.24,8.31,3.03,11.69,6.78,12.45,10.08.91,3.91-1.91,7.16-4.57,7.73h0c-29.27,4.07-57.95-18.26-72.8-34.05-4.29-4.57-11.21-19.51-4.03-31.85"/>
    <path class="cls-37" d="M413.15,343.81c-4.66,14.76,29.34,26.91,39.45,27.55,5.49.34,9.53.67,13.25.9,1.08.07,1.99.31,2.75.54.44.14.62.22,1.37.57"/>
    <path class="cls-38" d="M473.39,371.89s-10.1.63-11.8,4.33c-.47,1.03-.79,2.46.34,4.31,1.91,3.15,11.82,1.25,12.71.71"/>
    <path class="cls-22" d="M507.33,394.49c5.15-2.37,14.71-9.34,15.85-11.21,2.82-4.63,2.57-5.67,4.7-10.36-8.18,7.7-29.89,23.83-49.35,25.32,6.63.93,20.89-.11,28.8-3.75Z"/>
    <path class="cls-22" d="M429.31,394.49c-5.15-2.37-14.71-9.34-15.85-11.21-2.82-4.63-2.57-5.67-4.7-10.36,8.18,7.7,29.89,23.83,49.35,25.32-6.63.93-20.89-.11-28.8-3.75Z"/>
  </g>
  <g id="Calque_14" data-name="Calque 14">
    <g>
      <path class="cls-30" d="M343.32,406c-3.74.12-7.38.13-10.84.06"/>
      <path class="cls-5" d="M343.32,406c1.38,4.81,2.92,8.64,4.54,11.69,6.61,12.5,14.36,12.02,16.61,12.02,13.84,0,17.91-20.82,18.78-26.67-.11,3.58,2.91,5.33,5.44,4.14,2.03-.95,3.62-5.5,3.62-5.5-5.16,20.12,6.73,21.19,10.34,17.58,17.46-17.46,5.2-76.51,4.7-78.84,0-.05-.01-.07-.01-.07-4.13-34.6-33.71-61.43-69.58-61.43s-66.99,28.26-69.85,64.16c0,0,1.74,55.47,24.75,60.22.59,4.44,4.22,26.41,18.69,26.41,2.25,0,9.98.48,16.59-11.98,1.61-3.05,3.16-6.87,4.54-11.67M369.83,402.98c-8.61,1.9-17.82,2.75-26.51,3.02M332.48,406.06c-15.1-.28-26.36-1.92-26.8-1.98M383.26,402.99,332.48,406.06l10.84-.06-10.84.06Z"/>
      <path class="cls-14" d="M305.68,403.83c1.71-51.87,61.65-52.71,64.4-1.06l-15.05,2.49-15.91.83-19.19-.59-14.26-1.67Z"/>
      <path class="cls-36" d="M327.94,417.73c1.61-3.05,3.16-6.87,4.54-11.67M343.32,406c1.38,4.81,2.92,8.64,4.54,11.69,6.61,12.5,14.36,12.02,16.61,12.02,13.84,0,17.91-20.82,18.78-26.67-.11,3.58,2.91,5.33,5.44,4.14,2.03-.95,3.62-5.5,3.62-5.5-5.16,20.12,6.73,21.19,10.34,17.58,17.46-17.46,5.2-76.51,4.7-78.84,0-.05-.01-.07-.01-.07-4.13-34.6-33.71-61.43-69.58-61.43s-66.99,28.26-69.85,64.16M369.83,402.98c-8.61,1.9-17.82,2.75-26.51,3.02M332.48,406.06c-15.1-.28-26.25-1.91-26.69-1.97M383.26,402.99,332.48,406.06l10.84-.06-10.84.06Z"/>
      <path class="cls-40" d="M282.33,364.48c-1.29,4.46-2.39,14.43,2.58,23.26,2.7,4.78,4.62,8.35,6.45,11.61.49.87.91,1.67,1.09,2.45.21.92.21,1.46.21,1.46"/>
      <path class="cls-43" d="M393.59,364.01c1.3,4.46,2.4,14.43-2.57,23.26-2.7,4.79-4.62,8.36-6.45,11.61-.53.94-.82,1.83-1.04,2.6-.13.45-.16.64-.27,1.46"/>
    </g>
    <g>
      <path class="cls-30" d="M343.32,406c-3.74.12-7.38.13-10.84.06"/>
      <path class="cls-5" d="M343.32,406c1.38,4.81,2.92,8.64,4.54,11.69,6.61,12.5,14.36,12.02,16.61,12.02,13.84,0,17.91-20.82,18.78-26.67-.11,3.58,2.91,5.33,5.44,4.14,2.03-.95,3.62-5.5,3.62-5.5-5.16,20.12,6.73,21.19,10.34,17.58,17.46-17.46,5.2-76.51,4.7-78.84,0-.05-.01-.07-.01-.07-4.13-34.6-33.71-61.43-69.58-61.43s-66.99,28.26-69.85,64.16c0,0-8.06,44.3,24.75,60.22.59,4.44,4.22,26.41,18.69,26.41,2.25,0,9.98.48,16.59-11.98,1.61-3.05,3.16-6.87,4.54-11.67M369.83,402.98c-8.61,1.9-17.82,2.75-26.51,3.02M332.48,406.06c-15.1-.28-26.36-1.92-26.8-1.98M383.26,402.99,332.48,406.06l10.84-.06-10.84.06Z"/>
      <path class="cls-14" d="M305.68,403.83c1.71-51.87,61.65-52.71,64.4-1.06l-15.05,2.49-15.91.83-19.19-.59-14.26-1.67Z"/>
      <path class="cls-36" d="M343.32,406c1.38,4.81,2.92,8.64,4.54,11.69,6.61,12.5,14.36,12.02,16.61,12.02,13.84,0,17.91-20.82,18.78-26.67-.11,3.58,2.91,5.33,5.44,4.14,2.03-.95,3.62-5.5,3.62-5.5-5.16,20.12,6.73,21.19,10.34,17.58,17.46-17.46,5.2-76.51,4.7-78.84,0-.05-.01-.07-.01-.07-4.13-34.6-33.71-61.43-69.58-61.43s-66.99,28.26-69.85,64.16h0c-6.25,43.87,24.31,62.61,24.75,60.22.59,4.44,4.22,26.41,18.69,26.41,2.25,0,9.98.48,16.59-11.98,1.61-3.05,3.16-6.87,4.54-11.67M369.83,402.98c-8.61,1.9-17.82,2.75-26.51,3.02M332.48,406.06c-15.1-.28-26.25-1.91-26.69-1.97M383.26,402.99,332.48,406.06l10.84-.06-10.84.06Z"/>
      <path class="cls-43" d="M393.59,364.01c1.3,4.46,2.4,14.43-2.57,23.26-2.7,4.79-4.62,8.36-6.45,11.61-.53.94-.82,1.83-1.04,2.6-.13.45-.16.64-.27,1.46"/>
    </g>
    <path class="cls-5" d="M316.94,360.24c-1.76-1.06-2.66.04-4.05.69-2.74,1.29-.53,10.51-4.44,12.09-19.02,7.73-38.61-26.6-41.87-24.69-3,1.76-8.13,11.18-5.44,26.7,2.19,12.68,45.39,23.59,66.59,15.43h0c.36-.14.72-.28,1.07-.44.02-.01.05-.02.07-.03.33-.14.65-.29.97-.45.04-.02.09-.04.13-.07.3-.15.59-.3.88-.46.06-.03.12-.07.19-.11.27-.15.53-.3.79-.46.09-.06.17-.11.26-.17.23-.15.45-.29.67-.44.3-.21.71-.34.89-.66,4.3-7.42,2.33-9.02-4.6-14.23-1.79-1.35-6.96,1.57-9.37-.64-2.39-2.2.76-9.97-2.75-12.07Z"/>
    <path class="cls-44" d="M272.91,346.46c-3.44-2.23-11.92,4.37-12.76,16.78-.89,13.1,2.63,16.85,9.01,22.23,6.27,5.29,37.37,13.15,58.57,4.99h0c.36-.14.72-.28,1.07-.44.02-.01.05-.02.07-.03.33-.14.65-.29.97-.45.04-.02.09-.04.13-.07.3-.15.59-.3.88-.46.06-.03.12-.07.19-.11.27-.15.53-.3.79-.46.09-.06.17-.11.26-.17.23-.15.45-.29.67-.44.3-.21.6-.43.89-.66,3.79-2.99,4.99-15.4-12.35-14.41-1.6.09-2.89-1.29-2.68-2.88.18-1.32.36-2.77.45-3.75.47-5.12-2.55-7.58-5.7-5.58-4.28,2.72-1.55,11.56-5.6,12.76-15.93,4.75-26.72-1.56-30.69-4.69"/>
    <path class="cls-25" d="M355.74,298.91c2.7-2.26,6.69-.67,7.78.97"/>
    <path class="cls-25" d="M312.24,292.34c2.13-2.8,6.38-2.12,7.8-.77"/>
    <path class="cls-25" d="M313.55,331.81c1.77-3.04,6.07-2.9,7.65-1.74"/>
    <g>
      <path class="cls-25" d="M318.64,345.18s14.68,23.97,34.89,2.37"/>
      <path class="cls-25" d="M351.03,346.24s2.82.86,4.98,3.62"/>
      <path class="cls-25" d="M321.3,343.63s-2.9.57-5.31,3.11"/>
    </g>
    <path class="cls-25" d="M321.62,309.76s5.54,4.31,1.49,14.77c0,0-5.7-6.94-12.86-4.19-8.19,3.14-5.75,12.22-5.6,13.02"/>
    <path class="cls-24" d="M371.57,323.42c0,6.3-3.21,11.73-7.81,14.1-.69.35-1.53.27-2.13-.21-4.79-3.83-8.97-4.71-12.1-4.54-.78.04-1.52-.35-1.9-1.04-1.31-2.4-2.06-5.24-2.06-8.3,0-8.49,5.82-15.38,13-15.38s13,6.89,13,15.38Z"/>
    <ellipse class="cls-8" cx="356.19" cy="324.05" rx="4.12" ry="5.25"/>
    <path class="cls-12" d="M335.92,384.59c-.89,7.98-10.3,11.25-16.56,12.78-8.79,2.15-13.08,1.31-22.1.67-2.26-.16-12.7.38-14.15-1.06-6.62-6.62-2.52-2.12-6.19-7.82,15.04,5.35,30.02,6.26,45.64,2.94,5.23-1.11,9.01-2.03,13.36-7.51Z"/>
  </g>
</svg>