<?xml version="1.0" encoding="UTF-8"?>
<svg id="Calque_1" xmlns="http://www.w3.org/2000/svg" xmlns:xlink="http://www.w3.org/1999/xlink" viewBox="0 0 841.89 595.28">
  <defs>
    <style>
      .cls-1 {
        fill: none;
      }

      .cls-2 {
        fill: #182034;
      }

      .cls-3 {
        fill: #eeece2;
      }

      .cls-4 {
        clip-path: url(#clippath);
      }
    </style>
    <clipPath id="clippath">
      <rect class="cls-1" x="271.27" y="196.79" width="299.36" height="201.69"/>
    </clipPath>
  </defs>
  <rect class="cls-3" width="841.89" height="595.28"/>
  <g class="cls-4">
    <path class="cls-2" d="M542.22,343.11c-4.35,22.72-17,33.01-34.19,40.27-17.19,7.25-37.45,7.89-54.88,1.21-20.45-7.87-36.64-24.62-49.72-41.59-13.08-17-23.61-35.68-33.43-50.83,14.48-24.21,28.96-48.43,43.44-72.64,2.38-3.99,4.83-8.03,8.44-11.04,3.61-2.99,8.68-4.79,13.24-3.44,4.57,1.35,6.44,6.23,6.47,9.22.57,35.98-.07,71.96.48,107.91.12,8.28-.93,22.31,1.07,30.37,3.54,14.28,28.32,26.6,40.42,21.99-5.04-1.92-8.8-5.36-11.53-9.01-4.57-6.05-6.73-13.46-6.73-20.92v-58.49l23.14.34c10.32.16,20.52,2.21,29.91,6.27,1.59.68,2.95,1.35,3.85,1.92,15.62,10.01,23.42,30.75,20.02,48.48M466.02,201.8l16.5-.23c6.58-.09,13.17.5,19.54,2.05,4.19,1,8.06,2.28,10.3,3.76,13.51,8.97,18.64,18.41,17.29,36.34-.95,12.55-6.39,20.23-12.34,25.41-8.42,7.33-20.79,8.69-28.2,8.72-5.95.02-23.8-.32-23.8-.32l.71-75.74ZM558.01,296.16c-8.7-10.13-26.22-14.67-39.8-16.45,15.53-6.34,33.38-19.78,35.14-38.15,1.09-11.32-2.38-25.92-14.48-35.7-7.42-6-16.98-8.94-26.68-8.94-52.02.02-122.95-.12-122.95-.12v4.92s11.34-.81,13.96,1.77c2.38,2.33,2.85,6.14,2.26,9.33-.59,3.19-2.21,6.11-3.8,8.97-10.99,19.6-36.62,60.11-36.62,60.11,0,0-27.65-45.01-39.47-64.22-.93-1.51-1.74-3.06-2.31-4.72-1.76-4.95-1.05-7.83.05-9.45.86-1.28,2.45-1.96,4.04-1.94l8.08.11s.05-4.4.05-4.75h-64.1l-.12,4.61h10.11s6.16-.89,15.1,12.3c17.03,25.16,49.93,75.49,49.93,75.49l.14,63.33s-.05,9.33-5.71,13.98c-5.56,4.59-17.33,3.83-20.21,3.74-.07,1.53.07,3.65-.02,5.18,25.08,0,47.77-.39,72.61-.39l-.26-5.34s-15.17,1.71-20.07-3.04c-2.33-2.26-2.64-5.73-2.78-8.9-.43-10.13-.05-30.41-.05-30.41,0,0,26.11,43.6,54.9,57.67,24.61,12.05,49.36,16.38,76.4,11.07,16.83-3.31,33.26-9.86,46.17-20.72,12.91-10.88,22.06-26.35,23.01-42.82.76-13.09-3.83-26.42-12.53-36.55"/>
  </g>
</svg>